<?xml version="1.0" encoding="utf-8"?>
<svg version="1.1" xmlns:xlink="http://www.w3.org/1999/xlink" width="22px" height="22px" xmlns="http://www.w3.org/2000/svg">
  <g transform="matrix(1 0 0 1 -429 -337 )">
    <path d="M 11 0  C 17.0747056451613 0  22 4.9270685483871  22 11  C 22 17.0764798387097  17.0747056451613 22  11 22  C 4.92529435483871 22  0 17.0764798387097  0 11  C 0 4.9270685483871  4.92529435483871 0  11 0  Z M 16.4638951612903 8.16129032258064  C 16.4638951612903 5.58862096774193  13.7952862903226 3.63709677419355  11.2951814516129 3.63709677419355  C 8.87797580645161 3.63709677419355  7.33629032258064 4.65535080645161  6.12566935483871 6.46507258064516  C 5.96883064516129 6.69953225806452  6.02130241935484 7.01573790322581  6.24609274193548 7.1861935483871  L 7.78516129032258 8.35316935483871  C 8.01602822580645 8.52823790322581  8.34496370967742 8.48658870967742  8.52433467741935 8.25904838709677  C 9.31668951612903 7.2540564516129  9.85999193548387 6.67127822580645  11.066 6.67127822580645  C 11.972125 6.67127822580645  13.0929274193548 7.25445564516129  13.0929274193548 8.133125  C 13.0929274193548 8.79738306451613  12.5445685483871 9.13851612903226  11.6498870967742 9.640125  C 10.6064838709677 10.2250322580645  9.2258064516129 10.9530282258065  9.2258064516129 12.7741935483871  L 9.2258064516129 12.9516129032258  C 9.2258064516129 13.2455524193548  9.464125 13.4838709677419  9.75806451612903 13.4838709677419  L 12.241935483871 13.4838709677419  C 12.535875 13.4838709677419  12.7741935483871 13.2455524193548  12.7741935483871 12.9516129032258  L 12.7741935483871 12.8924879032258  C 12.7741935483871 11.630060483871  16.4638951612903 11.5775  16.4638951612903 8.16129032258064  Z M 13.0403225806452 16.6774193548387  C 13.0403225806452 15.5523588709677  12.125060483871 14.6370967741935  11 14.6370967741935  C 9.87493951612903 14.6370967741935  8.95967741935484 15.5523588709677  8.95967741935484 16.6774193548387  C 8.95967741935484 17.802435483871  9.87493951612903 18.7177419354839  11 18.7177419354839  C 12.125060483871 18.7177419354839  13.0403225806452 17.802435483871  13.0403225806452 16.6774193548387  Z " fill-rule="nonzero" fill="#ffbf00" stroke="none" transform="matrix(1 0 0 1 429 337 )" />
  </g>
</svg>