<?xml version="1.0" encoding="utf-8"?>
<svg version="1.1" xmlns:xlink="http://www.w3.org/1999/xlink" width="22px" height="22px" xmlns="http://www.w3.org/2000/svg">
  <g transform="matrix(1 0 0 1 -448 -382 )">
    <path d="M 18.1328125 9.32421875  C 18.3046875 9.15234375  18.390625 8.9375  18.390625 8.6796875  C 18.390625 8.41232638888889  18.3046875 8.19270833333333  18.1328125 8.02083333333333  L 16.8294270833333 6.73177083333333  C 16.6480034722222 6.55034722222222  16.4331597222222 6.45963541666667  16.1848958333333 6.45963541666667  C 15.9366319444444 6.45963541666667  15.7217881944444 6.55034722222222  15.5403645833333 6.73177083333333  L 9.69661458333333 12.5611979166667  L 6.45963541666667 9.32421875  C 6.27821180555556 9.14279513888889  6.06336805555556 9.05208333333333  5.81510416666667 9.05208333333333  C 5.56684027777778 9.05208333333333  5.35199652777778 9.14279513888889  5.17057291666667 9.32421875  L 3.8671875 10.61328125  C 3.6953125 10.78515625  3.609375 11.0047743055556  3.609375 11.2721354166667  C 3.609375 11.5299479166667  3.6953125 11.7447916666667  3.8671875 11.9166666666667  L 9.05208333333333 17.1015625  C 9.23350694444445 17.2829861111111  9.44835069444445 17.3736979166667  9.69661458333333 17.3736979166667  C 9.95442708333333 17.3736979166667  10.1740451388889 17.2829861111111  10.35546875 17.1015625  L 18.1328125 9.32421875  Z M 20.5247395833333 5.478515625  C 21.5082465277778 7.16384548611111  22 9.00434027777778  22 11  C 22 12.9956597222222  21.5082465277778 14.8361545138889  20.5247395833333 16.521484375  C 19.5412326388889 18.2068142361111  18.2068142361111 19.5412326388889  16.521484375 20.5247395833333  C 14.8361545138889 21.5082465277778  12.9956597222222 22  11 22  C 9.00434027777778 22  7.16384548611111 21.5082465277778  5.478515625 20.5247395833333  C 3.79318576388889 19.5412326388889  2.45876736111111 18.2068142361111  1.47526041666667 16.521484375  C 0.491753472222222 14.8361545138889  0 12.9956597222222  0 11  C 0 9.00434027777778  0.491753472222222 7.16384548611111  1.47526041666667 5.478515625  C 2.45876736111111 3.79318576388889  3.79318576388889 2.45876736111111  5.478515625 1.47526041666667  C 7.16384548611111 0.49175347222222  9.00434027777778 0  11 0  C 12.9956597222222 0  14.8361545138889 0.49175347222222  16.521484375 1.47526041666667  C 18.2068142361111 2.45876736111111  19.5412326388889 3.79318576388889  20.5247395833333 5.478515625  Z " fill-rule="nonzero" fill="#1677ff" stroke="none" transform="matrix(1 0 0 1 448 382 )" />
  </g>
</svg>