<?xml version="1.0" encoding="utf-8"?>
<svg version="1.1" xmlns:xlink="http://www.w3.org/1999/xlink" width="18px" height="18px" xmlns="http://www.w3.org/2000/svg">
  <g transform="matrix(1 0 0 1 -588 -571 )">
    <path d="M 9 0  C 13.9702137096774 0  18 4.03123790322581  18 9  C 18 13.9716653225806  13.9702137096774 18  9 18  C 4.02978629032258 18  0 13.9716653225806  0 9  C 0 4.03123790322581  4.02978629032258 0  9 0  Z M 13.4704596774194 6.67741935483871  C 13.4704596774194 4.57250806451613  11.2870524193548 2.9758064516129  9.24151209677419 2.9758064516129  C 7.26379838709677 2.9758064516129  6.00241935483871 3.80892338709677  5.01191129032258 5.28960483870968  C 4.88358870967742 5.48143548387097  4.92652016129032 5.74014919354839  5.11043951612903 5.87961290322581  L 6.36967741935484 6.83441129032258  C 6.5585685483871 6.97764919354839  6.82769758064516 6.94357258064516  6.97445564516129 6.75740322580645  C 7.62274596774193 5.93513709677419  8.06726612903226 5.4583185483871  9.054 5.4583185483871  C 9.795375 5.4583185483871  10.7123951612903 5.93546370967742  10.7123951612903 6.654375  C 10.7123951612903 7.19785887096774  10.2637379032258 7.47696774193548  9.53172580645161 7.887375  C 8.67803225806452 8.36593548387097  7.54838709677419 8.9615685483871  7.54838709677419 10.4516129032258  L 7.54838709677419 10.5967741935484  C 7.54838709677419 10.8372701612903  7.743375 11.0322580645161  7.98387096774194 11.0322580645161  L 10.0161290322581 11.0322580645161  C 10.256625 11.0322580645161  10.4516129032258 10.8372701612903  10.4516129032258 10.5967741935484  L 10.4516129032258 10.5483991935484  C 10.4516129032258 9.51550403225806  13.4704596774194 9.4725  13.4704596774194 6.67741935483871  Z M 10.6693548387097 13.6451612903226  C 10.6693548387097 12.7246572580645  9.92050403225806 11.9758064516129  9 11.9758064516129  C 8.07949596774194 11.9758064516129  7.33064516129032 12.7246572580645  7.33064516129032 13.6451612903226  C 7.33064516129032 14.5656290322581  8.07949596774194 15.3145161290323  9 15.3145161290323  C 9.92050403225806 15.3145161290323  10.6693548387097 14.5656290322581  10.6693548387097 13.6451612903226  Z " fill-rule="nonzero" fill="#ff9c00" stroke="none" transform="matrix(1 0 0 1 588 571 )" />
  </g>
</svg>