<?xml version="1.0" encoding="utf-8"?>
<svg version="1.1" xmlns:xlink="http://www.w3.org/1999/xlink" width="75px" height="66px" xmlns="http://www.w3.org/2000/svg">
  <g transform="matrix(1 0 0 1 -106 -190 )">
    <path d="M 72.4233035888672 27.2351785400391  C 73.9484821289063 26.2689285644531  74.4066964599609 24.2533928466797  73.4406249755859 22.7344642822266  L 62.3810714355469 5.29625002441406  C 61.4153571533203 3.77562502441406  59.3973214599609 3.32571430664062  57.8721428466797 4.28303569335938  L 2.67714287109375 39.2003571533203  C 1.1561607421875 40.1660714355469  0.706607153320312 42.1841071289062  1.66187497558594 43.7005357177734  L 12.7214285888672 61.1409821777344  C 13.6872321533203 62.6577678955078  15.7051785644531 63.107321484375  17.2262499755859 62.1500893066406  L 72.4233035888672 27.2351785400391  Z M 71.5670535644531 23.9283928710938  C 71.8638392578125 24.4061607421875  71.7176785400391 25.0472321777344  71.2377678222656 25.3610714355469  L 16.0407142822266 60.2805357421875  C 15.5525000244141 60.5881250244141  14.9134821533203 60.4441071533203  14.6058928710938 59.9579464599609  L 3.5463392578125 42.5175892822266  C 3.23866069335938 42.0292857421875  3.38276784667969 41.3924107177734  3.87098217773438 41.0806250244141  L 59.0701785644531 6.16330356445312  C 59.5588393066406 5.85776784667969  60.1998213867187 6.00214284667969  60.5029464111328 6.48830354003906  L 71.5670535644531 23.9283928710938  Z M 21.3242857177734 13.8091071533203  L 23.6561607421875 14.2952678466797  L 24.5727678222656 16.4935714599609  L 25.7603571533203 14.4306249755859  L 28.1330356933594 14.2391071289062  L 26.5346428710938 12.4708035644531  L 27.0790178466797 10.1581250244141  L 24.9103571777344 11.1329464599609  L 22.8732142822266 9.9  L 23.1312500244141 12.2685714111328  L 21.3242857177734 13.8091071533203  Z M 40.0787499755859 7.99848215332031  L 37.7102678466797 7.75089287109375  L 36.5700892822266 5.65794645996094  L 35.604375 7.83705358886719  L 33.2595535400391 8.28455354003907  L 35.0299107421875 9.87214284667969  L 34.7243750244141 12.2319643066406  L 36.7894642822266 11.0380357177734  L 38.9431250244141 12.06  L 38.4461607421875 9.72812497558594  L 40.0787499755859 7.99848215332031  Z M 61.4066071289063 42.0872321777344  L 59.1371428710938 42.8101785644531  L 57.2502678222656 41.3600000244141  L 57.241875 43.7372321777344  L 55.2713392822266 45.0733928466797  L 57.5408035400391 45.8219642578125  L 58.2097321289063 48.1042857421875  L 59.6166964599609 46.1832142822266  L 61.9981250244141 46.2499107421875  L 60.5999107177734 44.3183035400391  L 61.4066071289063 42.0872321777344  Z M 53.7565178466797 52.7961607177734  L 51.4355356933594 52.2883928466797  L 50.5364285888672 50.0834821289062  L 49.3292857177734 52.138125  L 46.9586607421875 52.3101785888672  L 48.5420535644531 54.0870535400391  L 47.9783928222656 56.3973214599609  L 50.1596428710938 55.4444642578125  L 52.1884821533203 56.7049107421875  L 51.9495535400391 54.3342856933594  L 53.7565178466797 52.7961607177734  Z M 34.9546428222656 58.4670535400391  L 37.3273214355469 58.7337500244141  L 38.4570535400391 60.8354464599609  L 39.4423214355469 58.6625893066406  L 41.7871428222656 58.2433928466797  L 40.0272321533203 56.6383035644531  L 40.3501785644531 54.2806250244141  L 38.2763392822266 55.4532142822266  L 36.1334821289063 54.4163392822266  L 36.6109821533203 56.7436606933594  L 34.9546428222656 58.4670535400391  Z M 13.9194643066406 24.2167857421875  L 16.1934821777344 23.5091071289062  L 18.0695535644531 24.9826785644531  L 18.0974107177734 22.6033928466797  L 20.0766964599609 21.2738392822266  L 17.8198214355469 20.5100000244141  L 17.1679464111328 18.2168750244141  L 15.7439285888672 20.1249999755859  L 13.3625000244141 20.0388392578125  L 14.7415178466797 21.9793749755859  L 13.9194643066406 24.2167857421875  Z M 5.63089284667969 35.1560714355469  L 7.8142857421875 33.7811607421875  C 7.5649107421875 23.7089285888672  12.4633929199219 13.7508035888672  21.5890178466797 7.97901782226562  C 30.7166964111328 2.20714284667969  41.8129464111328 2.04357136230468  50.8266071777344 6.56580358886719  L 53.0036607421875 5.1888392578125  C 50.33625 3.69812497558594  47.4665178955078 2.60723210449219  44.4441071777344 1.92955356445312  C 40.4059821533203 1.02169643554687  36.292946484375 0.907946411132811  32.2268750244141 1.57696428222656  C 28.0168750488281 2.27375002441406  24.0370535888672 3.79267858886719  20.4014285888672 6.09669645996093  C 16.7679464355469 8.40062504882813  13.6872321533203 11.3435714355469  11.2562499755859 14.8501785644531  C 8.90276784667969 18.2318750244141  7.24857143554688 21.9989285888672  6.33857145996094 26.0303571533203  C 5.66089291992188 29.0483036132812  5.4199107421875 32.1074107177734  5.63089284667969 35.1560714355469  Z M 69.2692857421875 30.8660714355469  L 67.0881249755859 32.2409821289062  C 67.3483035644531 42.3132142822266  62.4498213867187 52.2713392822266  53.324196459961 58.0410714111328  C 44.1985714599609 63.8191964355469  33.1003571777344 63.9785714355469  24.0886606933594 59.4564285644531  L 21.9074107177734 60.8354464599609  C 24.5748214599609 62.3218750488281  27.4466071289062 63.4150893310547  30.4694642578125 64.0925893066406  C 34.5071427978516 65.0004464355469  38.6202678222656 65.11875  42.68625 64.4451785888672  C 46.8962499755859 63.7483035644531  50.8761607177734 62.2315178466797  54.5096428710938 59.9274999755859  C 58.1431250244141 57.6234821044922  61.2238393066406 54.6805357177734  63.6568749755859 51.1760714355469  C 66.0016964355469 47.7901785644531  67.6558928466797 44.0255356933594  68.5637499755859 39.9961606933594  C 69.2434821533203 36.9758035400391  69.4803571289062 33.9146428710937  69.2692857421875 30.8660714355469  Z M 22.2686607421875 24.6384821777344  C 23.6369643310547 22.1513393554688  25.6183929199219 19.9830357421875  28.1716964355469 18.3654464355469  C 30.7275 16.7520536132813  33.5390178955078 15.8912499755859  36.3616071533203 15.7192857421875  L 39.7303571777344 13.5893750244141  C 35.2792857421875 13.0644643066406  30.8220536132813 14.0671428955078  26.9757142822266 16.4959821533203  C 23.1399106933594 18.9224107177734  20.3281250244141 22.5258928710938  18.9019642822266 26.7680356933594  L 22.2686607421875 24.6384821777344  Z M 52.6442857177734 41.3882143066406  C 51.2761606933594 43.864196484375  49.2926785400391 46.0412500488281  46.7392857421875 47.6546428710937  C 44.1834821777344 49.2725893066406  41.3741072021484 50.1330357421875  38.5515178710938 50.3049999755859  L 35.1847321289063 52.4349106933594  C 39.63375 52.9598214111328  44.0889285644531 51.9549999755859  47.9373214599609 49.5261607177734  C 51.7731250488281 47.101875  54.5849107177734 43.49625  56.0089285400391 39.2541071777344  L 52.6442857177734 41.3882143066406  Z " fill-rule="nonzero" fill="#ff5050" stroke="none" transform="matrix(1 0 0 1 106 190 )" />
  </g>
</svg>