<?xml version="1.0" encoding="utf-8"?>
<svg version="1.1" xmlns:xlink="http://www.w3.org/1999/xlink" width="8px" height="8px" xmlns="http://www.w3.org/2000/svg">
  <g transform="matrix(1 0 0 1 -335 -257 )">
    <path d="M 8 4  C 8 6.24  6.24 8  4 8  C 1.76 8  0 6.24  0 4  C 0 1.76  1.76 0  4 0  C 6.24 0  8 1.76  8 4  Z M 5.34632653061225 5.64387755102041  C 5.41428571428571 5.71183673469388  5.52632653061224 5.71183673469388  5.59428571428571 5.64387755102041  C 5.66224489795918 5.57591836734694  5.66959183673469 5.4565306122449  5.60163265306123 5.38857142857143  L 4.25530612244898 4.04224489795918  L 5.60163265306123 2.69591836734694  C 5.66959183673469 2.62795918367347  5.66959183673469 2.51591836734694  5.60163265306123 2.44795918367347  C 5.53367346938776 2.38  5.41428571428571 2.37265306122449  5.34632653061225 2.44061224489796  L 4 3.78877551020408  L 2.65367346938776 2.44061224489796  C 2.58571428571429 2.37265306122449  2.47367346938776 2.37265306122449  2.40571428571429 2.44061224489796  C 2.33591836734694 2.50857142857143  2.32857142857143 2.62795918367347  2.39836734693878 2.69591836734694  L 3.74469387755102 4.04224489795918  L 2.39836734693878 5.38857142857143  C 2.33040816326531 5.4565306122449  2.33040816326531 5.56857142857143  2.39836734693878 5.6365306122449  C 2.46632653061225 5.70448979591837  2.58571428571429 5.71183673469388  2.65367346938776 5.64387755102041  L 4 4.29755102040816  L 5.34632653061225 5.64387755102041  Z " fill-rule="nonzero" fill="#000000" stroke="none" transform="matrix(1 0 0 1 335 257 )" />
  </g>
</svg>