<?xml version="1.0" encoding="utf-8"?>
<svg version="1.1" xmlns:xlink="http://www.w3.org/1999/xlink" width="12px" height="12px" viewBox="431 187  12 12" xmlns="http://www.w3.org/2000/svg">
  <path d="M 437 187  C 440.36 187  443 189.64  443 193  C 443 196.36  440.36 199  437 199  C 433.64 199  431 196.36  431 193  C 431 189.64  433.64 187  437 187  Z " fill-rule="nonzero" fill="#ffffff" stroke="none" />
  <path d="M 437 187.5  C 440.08 187.5  442.5 189.92  442.5 193  C 442.5 196.08  440.08 198.5  437 198.5  C 433.92 198.5  431.5 196.08  431.5 193  C 431.5 189.92  433.92 187.5  437 187.5  Z " stroke-width="1" stroke="#163985" fill="none" />
  <path d="M 437 196  C 435.32 196  434 194.68  434 193  C 434 191.32  435.32 190  437 190  C 438.68 190  440 191.32  440 193  C 440 194.68  438.68 196  437 196  " fill-rule="nonzero" fill="#163985" stroke="none" />
</svg>