<?xml version="1.0" encoding="utf-8"?>
<svg version="1.1" xmlns:xlink="http://www.w3.org/1999/xlink" width="12px" height="12px" viewBox="527 187  12 12" xmlns="http://www.w3.org/2000/svg">
  <path d="M 533 187  C 536.36 187  539 189.64  539 193  C 539 196.36  536.36 199  533 199  C 529.64 199  527 196.36  527 193  C 527 189.64  529.64 187  533 187  Z " fill-rule="nonzero" fill="#f0f0f0" stroke="none" />
  <path d="M 533 187.5  C 536.08 187.5  538.5 189.92  538.5 193  C 538.5 196.08  536.08 198.5  533 198.5  C 529.92 198.5  527.5 196.08  527.5 193  C 527.5 189.92  529.92 187.5  533 187.5  Z " stroke-width="1" stroke="#163985" fill="none" />
  <path d="M 533 196  C 531.32 196  530 194.68  530 193  C 530 191.32  531.32 190  533 190  C 534.68 190  536 191.32  536 193  C 536 194.68  534.68 196  533 196  " fill-rule="nonzero" fill="#163985" stroke="none" />
</svg>