<?xml version="1.0" encoding="utf-8"?>
<svg version="1.1" xmlns:xlink="http://www.w3.org/1999/xlink" width="27px" height="22px" xmlns="http://www.w3.org/2000/svg">
  <g transform="matrix(1 0 0 1 -195 -562 )">
    <path d="M 0 20  L 0 5  L 0 2  C 0 0.894999999999982  0.929423076923058 0  2.07692307692308 0  L 7.13215384615378 0  C 7.86219230769222 0  8.53823076923099 0.369000000000142  8.91311538461547 0.971000000000004  L 9.55419387785399 2  L 24.9230769230769 2  C 26.0705769230769 2  27 2.89499999999998  27 4  L 27 20  C 27 21.105  26.0705769230769 22  24.9230769230769 22  L 22.8461538461538 22  L 22.8461538461538 21.5  C 22.8461538461538 20.672  22.1483076923077 20  21.2884615384615 20  C 20.4286153846154 20  19.7307692307692 20.672  19.7307692307692 21.5  L 19.7307692307692 22  L 7.26923076923077 22  L 7.26923076923077 21.5  C 7.26923076923077 20.672  6.57138461538459 20  5.71153846153846 20  C 4.85169230769233 20  4.15384615384615 20.672  4.15384615384615 21.5  L 4.15384615384615 22  L 2.07692307692308 22  C 0.929423076923058 22  0 21.105  0 20  Z M 12.4625769230771 16  C 11.8914230769231 13.8429999999998  9.99519230769231 14.4389999999999  9.6068076923079 13.2220000000002  L 9.6068076923079 12.319  C 9.80203846153831 12.2190000000001  10.3586538461538 11.527  10.4168076923076 10.9870000000001  C 10.5694615384614 10.9749999999999  10.8103846153845 10.828  10.8810000000001 10.2489999999998  C 10.9183846153847 9.9380000000001  10.7667692307692 9.76299999999992  10.6753846153848 9.70800000000008  C 10.6753846153848 9.70800000000008  10.9038461538462 9.25500000000011  10.9038461538462 8.70800000000008  C 10.9038461538462 7.61200000000008  10.491576923077 6.67700000000013  9.60576923076923 6.67700000000013  C 9.60576923076923 6.67700000000013  9.2983846153848 6  8.30769230769231 6  C 6.47273076923095 6  5.71153846153846 7.22800000000007  5.71257692307713 8.70800000000008  C 5.71257692307713 9.20699999999988  5.94103846153847 9.70800000000008  5.94103846153847 9.70800000000008  C 5.84861538461545 9.76299999999992  5.69699999999987 9.9380000000001  5.73542307692322 10.2489999999998  C 5.80603846153835 10.828  6.0469615384614 10.9749999999999  6.19961538461518 10.9870000000001  C 6.25776923076906 11.527  6.81438461538451 12.2190000000001  7.00961538461539 12.319  L 7.00961538461539 13.2220000000002  C 6.62123076923098 14.4389999999999  4.72500000000019 13.8429999999998  4.15384615384615 16  L 12.4625769230771 16  Z M 22.8461538461538 14  C 22.8461538461538 13.4479999999999  22.3809230769232 13  21.8076923076923 13  L 15.5769230769231 13  C 15.0036923076922 13  14.5384615384615 13.4479999999999  14.5384615384615 14  C 14.5384615384615 14.5520000000001  15.0036923076922 15  15.5769230769231 15  L 21.8076923076923 15  C 22.3809230769232 15  22.8461538461538 14.5520000000001  22.8461538461538 14  Z M 22.8461538461538 10  C 22.8461538461538 9.44799999999987  22.3809230769232 9  21.8076923076923 9  L 15.5769230769231 9  C 15.0036923076922 9  14.5384615384615 9.44799999999987  14.5384615384615 10  C 14.5384615384615 10.5520000000001  15.0036923076922 11  15.5769230769231 11  L 21.8076923076923 11  C 22.3809230769232 11  22.8461538461538 10.5520000000001  22.8461538461538 10  Z " fill-rule="nonzero" fill="#163985" stroke="none" fill-opacity="0.996078431372549" transform="matrix(1 0 0 1 195 562 )" />
  </g>
</svg>