<?xml version="1.0" encoding="utf-8"?>
<svg version="1.1" xmlns:xlink="http://www.w3.org/1999/xlink" width="100px" height="100px" xmlns="http://www.w3.org/2000/svg">
  <g transform="matrix(1 0 0 1 -171 -186 )">
    <path d="M 221 186  C 249 186  271 208  271 236  C 271 264  249 286  221 286  C 193 286  171 264  171 236  C 171 208  193 186  221 186  Z " fill-rule="nonzero" fill="#ffffff" stroke="none" />
    <path d="M 221 186.5  C 248.72 186.5  270.5 208.28  270.5 236  C 270.5 263.72  248.72 285.5  221 285.5  C 193.28 285.5  171.5 263.72  171.5 236  C 171.5 208.28  193.28 186.5  221 186.5  Z " stroke-width="1" stroke="#797979" fill="none" />
  </g>
</svg>