<?xml version="1.0" encoding="utf-8"?>
<svg version="1.1" xmlns:xlink="http://www.w3.org/1999/xlink" width="16px" height="16px" viewBox="1130 730  16 16" xmlns="http://www.w3.org/2000/svg">
  <path d="M 1138 730  C 1142.48 730  1146 733.52  1146 738  C 1146 742.48  1142.48 746  1138 746  C 1133.52 746  1130 742.48  1130 738  C 1130 733.52  1133.52 730  1138 730  Z " fill-rule="nonzero" fill="#f0f0f0" stroke="none" />
  <path d="M 1138 730.5  C 1142.2 730.5  1145.5 733.8  1145.5 738  C 1145.5 742.2  1142.2 745.5  1138 745.5  C 1133.8 745.5  1130.5 742.2  1130.5 738  C 1130.5 733.8  1133.8 730.5  1138 730.5  Z " stroke-width="1" stroke="#1677ff" fill="none" />
  <path d="M 1138 742  C 1135.76 742  1134 740.24  1134 738  C 1134 735.76  1135.76 734  1138 734  C 1140.24 734  1142 735.76  1142 738  C 1142 740.24  1140.24 742  1138 742  " fill-rule="nonzero" fill="#1677ff" stroke="none" />
</svg>