<?xml version="1.0" encoding="utf-8"?>
<svg version="1.1" xmlns:xlink="http://www.w3.org/1999/xlink" width="56px" height="56px" xmlns="http://www.w3.org/2000/svg">
  <defs>
    <linearGradient gradientUnits="userSpaceOnUse" x1="912" y1="214" x2="912" y2="270" id="LinearGradient348">
      <stop id="Stop349" stop-color="#73deb3" offset="0" />
      <stop id="Stop350" stop-color="#43a987" offset="1" />
    </linearGradient>
    <linearGradient gradientUnits="userSpaceOnUse" x1="912" y1="214" x2="912" y2="270" id="LinearGradient351">
      <stop id="Stop352" stop-color="#73dbe3" offset="0" />
      <stop id="Stop353" stop-color="#43a987" offset="1" />
    </linearGradient>
  </defs>
  <g transform="matrix(1 0 0 1 -884 -214 )">
    <path d="M 884.5 222  A 7.5 7.5 0 0 1 892 214.5 L 932 214.5  A 7.5 7.5 0 0 1 939.5 222 L 939.5 262  A 7.5 7.5 0 0 1 932 269.5 L 892 269.5  A 7.5 7.5 0 0 1 884.5 262 L 884.5 222  Z " fill-rule="nonzero" fill="url(#LinearGradient348)" stroke="none" />
    <path d="M 884.5 222  A 7.5 7.5 0 0 1 892 214.5 L 932 214.5  A 7.5 7.5 0 0 1 939.5 222 L 939.5 262  A 7.5 7.5 0 0 1 932 269.5 L 892 269.5  A 7.5 7.5 0 0 1 884.5 262 L 884.5 222  Z " stroke-width="1" stroke="url(#LinearGradient351)" fill="none" />
  </g>
</svg>