<?xml version="1.0" encoding="utf-8"?>
<svg version="1.1" xmlns:xlink="http://www.w3.org/1999/xlink" width="11px" height="11px" xmlns="http://www.w3.org/2000/svg">
  <g transform="matrix(1 0 0 1 -1472 -518 )">
    <path d="M 1477.5 518  C 1480.58 518  1483 520.42  1483 523.5  C 1483 526.58  1480.58 529  1477.5 529  C 1474.42 529  1472 526.58  1472 523.5  C 1472 520.42  1474.42 518  1477.5 518  Z " fill-rule="nonzero" fill="#797979" stroke="none" />
    <path d="M 1477.5 518.5  C 1480.3 518.5  1482.5 520.7  1482.5 523.5  C 1482.5 526.3  1480.3 528.5  1477.5 528.5  C 1474.7 528.5  1472.5 526.3  1472.5 523.5  C 1472.5 520.7  1474.7 518.5  1477.5 518.5  Z " stroke-width="1" stroke="#797979" fill="none" />
  </g>
</svg>