<?xml version="1.0" encoding="utf-8"?>
<svg version="1.1" xmlns:xlink="http://www.w3.org/1999/xlink" width="9px" height="14px" xmlns="http://www.w3.org/2000/svg">
  <g transform="matrix(1 0 0 1 -58 -275 )">
    <path d="M 6.56427272727273 14  C 7.14027272727273 13.6686666666667  9 12.7493333333333  9 12.7493333333333  C 8.55572727272727 12.2982222222222  7.91427272727273 11.5188888888889  7.68109090909091 10.9285555555556  C 7.17054545454545 10.6851111111111  6.73936363636364 10.3981111111111  6.54545454545455 9.91744444444444  L 6.54545454545455 9.13344444444444  C 6.70090909090909 9.13344444444444  7.15990909090909 9.09922222222222  7.32109090909091 9.065  C 6.95618181818182 8.53066666666667  6.64772727272727 7.31266666666667  6.64772727272727 6.62977777777778  C 6.64772727272727 4.893  7.434 3.46422222222222  8.739 2.569  C 8.34545454545455 1.13711111111111  7.47163636363637 0  5.40081818181818 0  C 4.653 0  4.09090909090909 0.777777777777778  4.09090909090909 0.777777777777778  C -0.192272727272727 0.777777777777778  2.17145454545455 7.27611111111111  0.91309090909091 8.23433333333333  C 0.91309090909091 8.23433333333333  1.68381818181818 9.142  4.09090909090909 9.142  L 4.09090909090909 9.91822222222222  C 3.42572727272727 11.5655555555556  0 10.9565555555556  0 14  L 6.56427272727273 14  Z " fill-rule="nonzero" fill="#ffffff" stroke="none" transform="matrix(1 0 0 1 58 275 )" />
  </g>
</svg>