<?xml version="1.0" encoding="utf-8"?>
<svg version="1.1" xmlns:xlink="http://www.w3.org/1999/xlink" width="12px" height="16px" xmlns="http://www.w3.org/2000/svg">
  <g transform="matrix(1 0 0 1 -64 -278 )">
    <path d="M 12 16  C 12 11.284  8.1315 12.6312  7.5 10.6104  L 7.5 9.2632  C 7.5 9.2632  8.676 8.0808  8.7615 7.2744  C 8.7615 7.2744  9.375 6.8224  9.375 6.012  C 9.375 5.4504  9.14025 5.3656  9.14025 5.3656  C 9.14025 5.3656  9.5625 4.5104  9.5625 3.6944  C 9.5625 2.0584  8.793 0.8  7.5 0.8  C 7.5 0.8  6.951 0  6 0  C 3.981 0  2.34375 1.2976  2.34375 3.6192  C 2.34375 4.6008  2.85975 5.3656  2.85975 5.3656  C 2.85975 5.3656  2.625 5.488  2.625 6.012  C 2.625 7.0304  3.2385 7.2744  3.2385 7.2744  C 3.324 8.0808  4.5 9.2632  4.5 9.2632  L 4.5 10.6104  C 3.8685 12.6312  0 11.3  0 16  L 12 16  Z " fill-rule="nonzero" fill="#ffffff" stroke="none" transform="matrix(1 0 0 1 64 278 )" />
  </g>
</svg>