<?xml version="1.0" encoding="utf-8"?>
<svg version="1.1" xmlns:xlink="http://www.w3.org/1999/xlink" width="9px" height="14px" xmlns="http://www.w3.org/2000/svg">
  <g transform="matrix(1 0 0 1 -73 -275 )">
    <path d="M 0.0670909090909097 2.74788888888889  C 1.38927272727273 3.42144444444444  2.25 4.87433333333333  2.25 6.70288888888889  C 2.25 7.27455555555556  2.10927272727273 7.82366666666667  1.95709090909091 8.24988888888889  C 2.01354545454545 8.46066666666667  2.04545454545455 8.69555555555556  2.04545454545455 8.95611111111111  C 2.04545454545455 10.8772222222222  0 12.7936666666667  0 12.7936666666667  C 0.444272727272727 12.978  1.86545454545455 13.6647777777778  2.44636363636364 14  L 9 14  C 9 9.91666666666667  5.51209090909091 11.0833333333333  4.90909090909091 9.33333333333333  L 4.90909090909091 8.16666666666667  C 5.18072727272727 8.03677777777778  5.82709090909091 7.14311111111111  5.90890909090909 6.44466666666667  C 6.12163636363636 6.42911111111111  6.54545454545455 5.93366666666667  6.54545454545455 5.49111111111111  C 6.54545454545455 5.04855555555556  6.39818181818182 4.86344444444445  6.26972727272727 4.79188888888889  C 6.26972727272727 4.79188888888889  6.54545454545455 4.207  6.54545454545455 3.5  C 6.54545454545455 2.08366666666667  6.14290909090909 0.777777777777778  4.90909090909091 0.777777777777778  C 4.90909090909091 0.777777777777778  4.55481818181818 0  3.27272727272727 0  C 1.45390909090909 0  0.337090909090908 1.18922222222222  0.0670909090909097 2.74788888888889  Z " fill-rule="nonzero" fill="#ffffff" stroke="none" transform="matrix(1 0 0 1 73 275 )" />
  </g>
</svg>