<?xml version="1.0" encoding="utf-8"?>
<svg version="1.1" xmlns:xlink="http://www.w3.org/1999/xlink" width="22px" height="27px" xmlns="http://www.w3.org/2000/svg">
  <g transform="matrix(1 0 0 1 -59 -407 )">
    <path d="M 22 27  C 22 19.125  15.0526315789474 21.375  13.8947368421053 18  L 13.8947368421053 15.75  C 14.4157894736842 15.499125  15.906 13.775625  16.0623157894737 12.429  C 16.4722105263158 12.398625  17.116 12.033  17.3058947368421 10.589625  C 17.4077894736842 9.8145  17.0025263157895 9.379125  16.7570526315789 9.241875  C 16.7570526315789 9.241875  17.3684210526316 8.1135  17.3684210526316 6.751125  C 17.3684210526316 4.019625  16.2649473684211 1.688625  13.8947368421053 1.688625  C 13.8947368421053 1.688625  13.4616842105263 0.00112499999999938  11 0.00112499999999938  C 6.96126315789474 0  4.63157894736842 3.061125  4.63157894736842 6.75  C 4.63157894736842 7.992  5.24294736842105 9.24075  5.24294736842105 9.24075  C 4.99747368421053 9.378  4.59221052631579 9.8145  4.6941052631579 10.5885  C 4.884 12.031875  5.52778947368421 12.3975  5.93768421052632 12.427875  C 6.094 13.775625  7.58421052631579 15.499125  8.10526315789474 15.75  L 8.10526315789474 18  C 6.94736842105263 21.375  0 19.125  0 27  L 22 27  Z " fill-rule="nonzero" fill="#999999" stroke="none" transform="matrix(1 0 0 1 59 407 )" />
  </g>
</svg>