<?xml version="1.0" encoding="utf-8"?>
<svg version="1.1" xmlns:xlink="http://www.w3.org/1999/xlink" width="14px" height="14px" viewBox="322 589  14 14" xmlns="http://www.w3.org/2000/svg">
  <path d="M 329 589  C 332.92 589  336 592.08  336 596  C 336 599.92  332.92 603  329 603  C 325.08 603  322 599.92  322 596  C 322 592.08  325.08 589  329 589  Z " fill-rule="nonzero" fill="#f0f0f0" stroke="none" />
  <path d="M 329 589.5  C 332.64 589.5  335.5 592.36  335.5 596  C 335.5 599.64  332.64 602.5  329 602.5  C 325.36 602.5  322.5 599.64  322.5 596  C 322.5 592.36  325.36 589.5  329 589.5  Z " stroke-width="1" stroke="#163985" fill="none" />
  <path d="M 329 599.5  C 327.04 599.5  325.5 597.96  325.5 596  C 325.5 594.04  327.04 592.5  329 592.5  C 330.96 592.5  332.5 594.04  332.5 596  C 332.5 597.96  330.96 599.5  329 599.5  " fill-rule="nonzero" fill="#163985" stroke="none" />
</svg>