<?xml version="1.0" encoding="utf-8"?>
<svg version="1.1" xmlns:xlink="http://www.w3.org/1999/xlink" width="10px" height="10px" xmlns="http://www.w3.org/2000/svg">
  <g transform="matrix(1 0 0 1 -93 -263 )">
    <path d="M 10 1  C 10 0.45  9.55 0  9 0  L 1 0  C 0.45 0  0.00499999999999989 0.45  0.00499999999999989 1  L 0 10  L 2 8  L 9 8  C 9.55 8  10 7.55  10 7  L 10 1  Z M 3.5 3.5  L 3.5 4.5  L 2.5 4.5  L 2.5 3.5  L 3.5 3.5  Z M 5.5 3.5  L 5.5 4.5  L 4.5 4.5  L 4.5 3.5  L 5.5 3.5  Z M 7.5 3.5  L 7.5 4.5  L 6.5 4.5  L 6.5 3.5  L 7.5 3.5  Z " fill-rule="nonzero" fill="#f57937" stroke="none" transform="matrix(1 0 0 1 93 263 )" />
  </g>
</svg>