<?xml version="1.0" encoding="utf-8"?>
<svg version="1.1" xmlns:xlink="http://www.w3.org/1999/xlink" width="22px" height="20px" xmlns="http://www.w3.org/2000/svg">
  <g transform="matrix(1 0 0 1 -347 -612 )">
    <path d="M 9.17 4.58947368421053  C 9.74 4.34736842105263  10.35 4.21052631578947  11 4.21052631578947  C 13.76 4.21052631578947  16 6.56842105263158  16 9.47368421052632  C 16 10.1578947368421  15.87 10.8  15.64 11.4  L 18.56 14.4736842105263  C 20.07 13.1473684210526  21.26 11.4315789473684  21.99 9.47368421052632  C 20.26 4.85263157894737  15.99 1.57894736842105  10.99 1.57894736842105  C 9.59 1.57894736842105  8.25 1.84210526315789  7.01 2.31578947368421  L 9.17 4.58947368421053  Z M 2.27 0  L 1 1.33684210526316  L 3.28 3.73684210526316  L 3.74 4.22105263157895  C 2.08 5.57894736842105  0.78 7.38947368421053  0 9.47368421052632  C 1.73 14.0947368421053  6 17.3684210526316  11 17.3684210526316  C 12.55 17.3684210526316  14.03 17.0526315789474  15.38 16.4842105263158  L 15.8 16.9263157894737  L 18.73 20  L 20 18.6631578947368  L 2.27 0  Z M 6 9.47368421052632  C 6 8.6421052631579  6.2 7.86315789473685  6.53 7.15789473684211  L 8.08 8.78947368421053  C 8.03 9.01052631578948  8 9.2421052631579  8 9.47368421052632  C 8 11.2210526315789  9.34 12.6315789473684  11 12.6315789473684  C 11.22 12.6315789473684  11.44 12.6  11.65 12.5473684210526  L 13.2 14.1789473684211  C 12.53 14.5263157894737  11.79 14.7368421052632  11 14.7368421052632  C 8.24 14.7368421052632  6 12.3789473684211  6 9.47368421052632  Z M 11.01 6.32631578947369  L 10.84 6.33684210526316  L 13.99 9.65263157894737  L 14.01 9.48421052631579  C 14.01 7.73684210526316  12.67 6.32631578947369  11.01 6.32631578947369  Z " fill-rule="nonzero" fill="#333333" stroke="none" transform="matrix(1 0 0 1 347 612 )" />
  </g>
</svg>