<?xml version="1.0" encoding="utf-8"?>
<svg version="1.1" xmlns:xlink="http://www.w3.org/1999/xlink" width="11px" height="11px" xmlns="http://www.w3.org/2000/svg">
  <g transform="matrix(1 0 0 1 -81 -332 )">
    <path d="M 11 5.5  C 11 2.46052632568359  8.5394736743164 0  5.5 0  C 2.46052632568359 0  0 2.46052632568359  0 5.5  C 0 8.5394736743164  2.46052632568359 11  5.5 11  C 8.5394736743164 11  11 8.5394736743164  11 5.5  Z M 9.98684209960937 5.5  C 9.98684209960937 7.96052632568359  7.96052629882812 9.98684209960937  5.5 9.98684209960937  C 3.03947367431641 9.98684209960937  1.01315790039063 7.96052629882812  1.01315790039063 5.5  C 1.01315790039063 3.03947367431641  3.03947370117188 1.01315790039063  5.5 1.01315790039063  C 7.96052632568359 1.01315790039063  9.98684209960937 3.03947370117188  9.98684209960937 5.5  Z " fill-rule="nonzero" fill="#ffffff" stroke="none" transform="matrix(1 0 0 1 81 332 )" />
  </g>
</svg>