<?xml version="1.0" encoding="utf-8"?>
<svg version="1.1" xmlns:xlink="http://www.w3.org/1999/xlink" width="23px" height="25px" xmlns="http://www.w3.org/2000/svg">
  <g transform="matrix(1 0 0 1 -75 -325 )">
    <path d="M 22.9643962959559 8.23068310027427  C 22.9643962959559 6.8309070603391  22.1811145691636 5.57110863218916  20.9705882352941 4.87122059923537  L 13.4938080606618 0.601903699509641  C 12.2832817532169 -0.0979843074717421  10.7879257077206 -0.0979843074717421  9.5773993738511 0.601903699509641  L 2.02941176470588 4.87122059923537  C 0.818885457261029 5.57110860621676  0.0356037040441176 6.8309070603391  0.0356037040441176 8.23068310027427  L 0.0356037040441176 16.7693168997257  C 0.0356037040441176 18.1690929396609  0.818885430836397 19.4288913678108  2.02941176470588 20.1287794007646  L 9.50619193933824 24.3980963004904  C 10.1470588235294 24.7480403039811  10.787925681296 24.8880179157663  11.5 24.8880179157663  C 12.2120742922794 24.8880179157663  12.8529411764706 24.7480403039811  13.4938080606618 24.3980963004904  L 20.9705882352941 20.1287794007646  C 22.181114542739 19.4288913937832  22.9643962959559 18.1690929396609  22.9643962959559 16.7693168997257  L 22.9643962959559 8.23068310027427  Z M 21.967492265625 8.23068310027427  L 21.967492265625 16.7693168997257  C 21.967492265625 17.8191489361702  21.3978328159467 18.7290033608295  20.4721362201287 19.288913781998  L 12.9953560454963 23.5582306817237  C 12.0696594496783 24.0481522969997  10.9303405767463 24.0481522969997  10.0758513890165 23.5582306817237  L 2.52786377987132 19.288913781998  C 1.60216718405331 18.7989921667221  1.032507734375 17.8191489361702  1.032507734375 16.7693168997257  L 1.032507734375 8.23068310027427  C 1.032507734375 7.18085106382979  1.60216718405331 6.27099663917055  2.52786377987132 5.711086218002  L 10.0046439545037 1.44176931827626  C 10.4318885351563 1.16181412067819  11.0015479848346 1.02183650889295  11.5 1.02183650889295  C 11.9984520151654 1.02183650889295  12.4969040303309 1.16181412067819  12.9953560454963 1.44176931827626  L 20.4721362201287 5.711086218002  C 21.3978328159467 6.20100783327793  21.967492265625 7.18085106382979  21.967492265625 8.23068310027427  Z " fill-rule="nonzero" fill="#ffffff" stroke="none" transform="matrix(1 0 0 1 75 325 )" />
  </g>
</svg>