<?xml version="1.0" encoding="utf-8"?>
<svg version="1.1" xmlns:xlink="http://www.w3.org/1999/xlink" width="4px" height="16px" xmlns="http://www.w3.org/2000/svg">
  <g transform="matrix(1 0 0 1 -389 -120 )">
    <path d="M 0 2  C 0 3.1  0.9 4  2 4  C 3.1 4  4 3.1  4 2  C 4 0.9  3.1 0  2 0  C 0.9 0  0 0.9  0 2  Z M 4 8  C 4 6.9  3.1 6  2 6  C 0.9 6  0 6.9  0 8  C 0 9.1  0.9 10  2 10  C 3.1 10  4 9.1  4 8  Z M 4 14  C 4 12.9  3.1 12  2 12  C 0.9 12  0 12.9  0 14  C 0 15.1  0.9 16  2 16  C 3.1 16  4 15.1  4 14  Z " fill-rule="nonzero" fill="#ffffff" stroke="none" transform="matrix(1 0 0 1 389 120 )" />
  </g>
</svg>