<?xml version="1.0" encoding="utf-8"?>
<svg version="1.1" xmlns:xlink="http://www.w3.org/1999/xlink" width="16px" height="16px" xmlns="http://www.w3.org/2000/svg">
  <g transform="matrix(1 0 0 1 -79 -415 )">
    <path d="M 4.69921875 15.630859375  C 4.533203125 15.69140625  4.361328125 15.720703125  4.19140625 15.720703125  C 3.888671875 15.720703125  3.58984375 15.626953125  3.3359375 15.447265625  C 2.94140625 15.166015625  2.7109375 14.70703125  2.71875 14.220703125  L 2.787109375 10.671875  L 0.59765625 7.865234375  C 0.298828125 7.484375  0.20703125 6.978515625  0.353515625 6.515625  C 0.5 6.052734375  0.865234375 5.69140625  1.328125 5.55078125  L 4.724609375 4.517578125  L 6.716796875 1.56640625  C 6.98828125 1.1640625  7.439453125 0.919921875  7.92578125 0.916015625  L 7.9375 0.916015625  C 8.41796875 0.916015625  8.869140625 1.150390625  9.14453125 1.546875  L 11.17578125 4.45703125  L 11.185546875 4.46484375  L 14.599609375 5.439453125  C 15.06640625 5.572265625  15.4375 5.927734375  15.591796875 6.388671875  C 15.74609375 6.849609375  15.662109375 7.35546875  15.369140625 7.7421875  L 13.228515625 10.57421875  L 13.3515625 14.1328125  C 13.369140625 14.6171875  13.146484375 15.080078125  12.755859375 15.369140625  C 12.365234375 15.658203125  11.859375 15.736328125  11.3984375 15.576171875  L 8.044921875 14.4140625  L 4.69921875 15.630859375  Z M 9.98046875 5.291015625  L 7.951171875 2.37890625  L 5.939453125 5.32421875  C 5.751953125 5.603515625  5.470703125 5.8125  5.146484375 5.91015625  L 1.75 6.94140625  L 3.9296875 9.763671875  C 4.138671875 10.029296875  4.248046875 10.36328125  4.2421875 10.69921875  L 4.173828125 14.248046875  L 7.53125 13.046875  C 7.84765625 12.931640625  8.197265625 12.927734375  8.517578125 13.0390625  L 11.87109375 14.201171875  L 11.76953125 10.63671875  C 11.7578125 10.298828125  11.86328125 9.96484375  12.06640625 9.697265625  L 14.20703125 6.865234375  L 10.783203125 5.86328125  C 10.458984375 5.76953125  10.173828125 5.56640625  9.98046875 5.291015625  Z " fill-rule="nonzero" fill="#ffffff" stroke="none" transform="matrix(1 0 0 1 79 415 )" />
  </g>
</svg>