<?xml version="1.0" encoding="utf-8"?>
<svg version="1.1" xmlns:xlink="http://www.w3.org/1999/xlink" width="28px" height="35px" xmlns="http://www.w3.org/2000/svg">
  <g transform="matrix(1 0 0 1 -208 -145 )">
    <path d="M 28 35  C 28 24.7916666666667  19.1578947368421 27.7083333333333  17.6842105263158 23.3333333333333  L 17.6842105263158 20.4166666666667  C 18.3473684210526 20.0914583333333  20.244 17.8572916666667  20.4429473684211 16.1116666666667  C 20.9646315789474 16.0722916666667  21.784 15.5983333333333  22.0256842105263 13.7272916666667  C 22.1553684210526 12.7225  21.6395789473684 12.158125  21.3271578947368 11.9802083333333  C 21.3271578947368 11.9802083333333  22.1052631578947 10.5175  22.1052631578947 8.75145833333333  C 22.1052631578947 5.210625  20.7008421052632 2.18895833333333  17.6842105263158 2.18895833333333  C 17.6842105263158 2.18895833333333  17.133052631579 0.00145833333333253  14 0.00145833333333253  C 8.85978947368421 0  5.89473684210526 3.968125  5.89473684210526 8.75  C 5.89473684210526 10.36  6.67284210526316 11.97875  6.67284210526316 11.97875  C 6.36042105263158 12.1566666666667  5.84463157894737 12.7225  5.97431578947368 13.7258333333333  C 6.216 15.596875  7.03536842105263 16.0708333333333  7.55705263157895 16.1102083333333  C 7.756 17.8572916666667  9.65263157894737 20.0914583333333  10.3157894736842 20.4166666666667  L 10.3157894736842 23.3333333333333  C 8.84210526315789 27.7083333333333  0 24.7916666666667  0 35  L 28 35  Z " fill-rule="nonzero" fill="#999999" stroke="none" transform="matrix(1 0 0 1 208 145 )" />
  </g>
</svg>