<?xml version="1.0" encoding="utf-8"?>
<svg version="1.1" xmlns:xlink="http://www.w3.org/1999/xlink" width="26px" height="22px" xmlns="http://www.w3.org/2000/svg">
  <g transform="matrix(1 0 0 1 -194 -729 )">
    <path d="M 0 20  L 0 5  L 0 2  C 0 0.894999999999982  0.894999999999982 0  2 0  L 6.86799999999994 0  C 7.57099999999991 0  8.22200000000021 0.369000000000142  8.58300000000008 0.971000000000004  L 9.20033484534088 2  L 24 2  C 25.105 2  26 2.89499999999998  26 4  L 26 20  C 26 21.105  25.105 22  24 22  L 22 22  L 22 21.5  C 22 20.672  21.328 20  20.5 20  C 19.672 20  19 20.672  19 21.5  L 19 22  L 7 22  L 7 21.5  C 7 20.672  6.32799999999997 20  5.5 20  C 4.67200000000003 20  4 20.672  4 21.5  L 4 22  L 2 22  C 0.894999999999982 22  0 21.105  0 20  Z M 12.0010000000002 16  C 11.451 13.8429999999998  9.625 14.4389999999999  9.2510000000002 13.2220000000002  L 9.2510000000002 12.319  C 9.43899999999985 12.2190000000001  9.97499999999991 11.527  10.0309999999999 10.9870000000001  C 10.1779999999999 10.9749999999999  10.4099999999999 10.828  10.4780000000001 10.2489999999998  C 10.5140000000001 9.9380000000001  10.3679999999999 9.76299999999992  10.2800000000002 9.70800000000008  C 10.2800000000002 9.70800000000008  10.5 9.25500000000011  10.5 8.70800000000008  C 10.5 7.61200000000008  10.1030000000001 6.67700000000013  9.25 6.67700000000013  C 9.25 6.67700000000013  8.95400000000018 6  8 6  C 6.23300000000017 6  5.5 7.22800000000007  5.5010000000002 8.70800000000008  C 5.5010000000002 9.20699999999988  5.721 9.70800000000008  5.721 9.70800000000008  C 5.63200000000006 9.76299999999992  5.48599999999988 9.9380000000001  5.52300000000014 10.2489999999998  C 5.59099999999989 10.828  5.82299999999987 10.9749999999999  5.9699999999998 10.9870000000001  C 6.02599999999984 11.527  6.5619999999999 12.2190000000001  6.75 12.319  L 6.75 13.2220000000002  C 6.3760000000002 14.4389999999999  4.55000000000018 13.8429999999998  4 16  L 12.0010000000002 16  Z M 22 14  C 22 13.4479999999999  21.5520000000001 13  21 13  L 15 13  C 14.4479999999999 13  14 13.4479999999999  14 14  C 14 14.5520000000001  14.4479999999999 15  15 15  L 21 15  C 21.5520000000001 15  22 14.5520000000001  22 14  Z M 22 10  C 22 9.44799999999987  21.5520000000001 9  21 9  L 15 9  C 14.4479999999999 9  14 9.44799999999987  14 10  C 14 10.5520000000001  14.4479999999999 11  15 11  L 21 11  C 21.5520000000001 11  22 10.5520000000001  22 10  Z " fill-rule="nonzero" fill="#163985" stroke="none" fill-opacity="0.996078431372549" transform="matrix(1 0 0 1 194 729 )" />
  </g>
</svg>