<?xml version="1.0" encoding="utf-8"?>
<svg version="1.1" xmlns:xlink="http://www.w3.org/1999/xlink" width="92px" height="66px" xmlns="http://www.w3.org/2000/svg">
  <defs>
    <mask fill="white" id="clip469">
      <path d="M 293 244  C 290.78 244  289 242.22  289 240  L 289 182  C 289 179.78  290.78 178  293 178  L 377 178  C 379.22 178  381 179.78  381 182  L 381 240  C 381 242.22  379.22 244  377 244  " fill-rule="evenodd" />
    </mask>
  </defs>
  <g transform="matrix(1 0 0 1 -289 -178 )">
    <path d="M 289 178  L 381 178  L 381 244  L 289 244  L 289 178  " fill-rule="nonzero" fill="#cccccc" stroke="none" mask="url(#clip469)" />
    <path d="M 294 183  L 376 183  L 376 239  L 294 239  L 294 183  " fill-rule="nonzero" fill="#ffffff" stroke="none" mask="url(#clip469)" />
    <path d="M 341.79 197.8  C 339.018 197.8  336.84 195.622  336.84 192.85  C 336.84 190.078  339.018 187.9  341.79 187.9  C 344.562 187.9  346.74 190.078  346.74 192.85  C 346.74 195.622  344.562 197.8  341.79 197.8  " fill-rule="nonzero" fill="#cccccc" stroke="none" mask="url(#clip469)" />
    <path d="M 296 238  L 296 208.85  L 315.75 195.6  L 343.4 215.186956521739  L 359.2 203.55  L 375 215.186956521739  L 375 238  L 296 238  " fill-rule="nonzero" fill="#169bd5" stroke="none" mask="url(#clip469)" />
  </g>
</svg>