<?xml version="1.0" encoding="utf-8"?>
<svg version="1.1" xmlns:xlink="http://www.w3.org/1999/xlink" width="40px" height="40px" xmlns="http://www.w3.org/2000/svg">
  <defs>
    <filter x="1487px" y="100px" width="40px" height="40px" filterUnits="userSpaceOnUse" id="filter340">
      <feOffset dx="1" dy="1" in="SourceAlpha" result="shadowOffsetInner" />
      <feGaussianBlur stdDeviation="2.5" in="shadowOffsetInner" result="shadowGaussian" />
      <feComposite in2="shadowGaussian" operator="atop" in="SourceAlpha" result="shadowComposite" />
      <feColorMatrix type="matrix" values="0 0 0 0 0  0 0 0 0 0  0 0 0 0 0  0 0 0 0.698039215686274 0  " in="shadowComposite" />
    </filter>
    <g id="widget341">
      <path d="M 1506 104  C 1514.4 104  1521 110.6  1521 119  C 1521 127.4  1514.4 134  1506 134  C 1497.6 134  1491 127.4  1491 119  C 1491 110.6  1497.6 104  1506 104  Z " fill-rule="nonzero" fill="#009dd9" stroke="none" />
      <path d="M 1506 104.5  C 1514.12 104.5  1520.5 110.88  1520.5 119  C 1520.5 127.12  1514.12 133.5  1506 133.5  C 1497.88 133.5  1491.5 127.12  1491.5 119  C 1491.5 110.88  1497.88 104.5  1506 104.5  Z " stroke-width="1" stroke="#ffffff" fill="none" />
    </g>
  </defs>
  <g transform="matrix(1 0 0 1 -1487 -100 )">
    <use xlink:href="#widget341" filter="url(#filter340)" />
    <use xlink:href="#widget341" />
  </g>
</svg>