<?xml version="1.0" encoding="utf-8"?>
<svg version="1.1" xmlns:xlink="http://www.w3.org/1999/xlink" width="10px" height="10px" xmlns="http://www.w3.org/2000/svg">
  <g transform="matrix(1 0 0 1 -1378 -326 )">
    <path d="M 1383 326  C 1385.8 326  1388 328.2  1388 331  C 1388 333.8  1385.8 336  1383 336  C 1380.2 336  1378 333.8  1378 331  C 1378 328.2  1380.2 326  1383 326  Z " fill-rule="nonzero" fill="#797979" stroke="none" />
    <path d="M 1383 326.5  C 1385.52 326.5  1387.5 328.48  1387.5 331  C 1387.5 333.52  1385.52 335.5  1383 335.5  C 1380.48 335.5  1378.5 333.52  1378.5 331  C 1378.5 328.48  1380.48 326.5  1383 326.5  Z " stroke-width="1" stroke="#797979" fill="none" />
  </g>
</svg>