<?xml version="1.0" encoding="utf-8"?>
<svg version="1.1" xmlns:xlink="http://www.w3.org/1999/xlink" width="12px" height="12px" xmlns="http://www.w3.org/2000/svg">
  <g transform="matrix(1 0 0 1 -210 -607 )">
    <path d="M 216 607  C 219.36 607  222 609.64  222 613  C 222 616.36  219.36 619  216 619  C 212.64 619  210 616.36  210 613  C 210 609.64  212.64 607  216 607  Z " fill-rule="nonzero" fill="#999999" stroke="none" />
    <path d="M 216 607.5  C 219.08 607.5  221.5 609.92  221.5 613  C 221.5 616.08  219.08 618.5  216 618.5  C 212.92 618.5  210.5 616.08  210.5 613  C 210.5 609.92  212.92 607.5  216 607.5  Z " stroke-width="1" stroke="#999999" fill="none" />
  </g>
</svg>