<?xml version="1.0" encoding="utf-8"?>
<svg version="1.1" xmlns:xlink="http://www.w3.org/1999/xlink" width="10px" height="4px" xmlns="http://www.w3.org/2000/svg">
  <g transform="matrix(1 0 0 1 -379 -228 )">
    <path d="M 9.26136363636364 1.35897435897436  L 0.738636363636364 1.35897435897436  C 0.346388671995175 1.35897435897436  0.0284090909090909 1.07197740373769  0.0284090909090909 0.717948717948718  C 0.0284090909090909 0.363920032159747  0.346388671995175 0.0769230769230769  0.738636363636364 0.0769230769230769  L 9.26136363636364 0.0769230769230769  C 9.65361132800482 0.0769230769230769  9.97159090909091 0.363920032159747  9.97159090909091 0.717948717948718  C 9.97159090909091 1.07197740373769  9.65361132800482 1.35897435897436  9.26136363636364 1.35897435897436  Z M 6.42045454545455 3.92307692307692  L 0.738636363636364 3.92307692307692  C 0.346388671995175 3.92307692307692  0.0284090909090909 3.63607996784025  0.0284090909090909 3.28205128205128  C 0.0284090909090909 2.92802259626231  0.346388671995175 2.64102564102564  0.738636363636364 2.64102564102564  L 6.42045454545455 2.64102564102564  C 6.81270223709573 2.64102564102564  7.13068181818182 2.92802259626231  7.13068181818182 3.28205128205128  C 7.13068181818182 3.63607996784025  6.81270223709573 3.92307692307692  6.42045454545455 3.92307692307692  Z " fill-rule="nonzero" fill="#000000" stroke="none" transform="matrix(1 0 0 1 379 228 )" />
  </g>
</svg>