<?xml version="1.0" encoding="utf-8"?>
<svg version="1.1" xmlns:xlink="http://www.w3.org/1999/xlink" width="18px" height="18px" xmlns="http://www.w3.org/2000/svg">
  <g transform="matrix(1 0 0 1 -375 -163 )">
    <path d="M 18 8.35714285714286  C 18 7.6471875  17.4242410714286 7.07142857142857  16.7142857142857 7.07142857142857  L 10.9285714285714 7.07142857142857  L 10.9285714285714 1.28571428571429  C 10.9285714285714 0.575758928571428  10.3528125 0  9.64285714285714 0  L 8.35714285714286 0  C 7.6471875 0  7.07142857142857 0.575758928571428  7.07142857142857 1.28571428571429  L 7.07142857142857 7.07142857142857  L 1.28571428571429 7.07142857142857  C 0.575758928571428 7.07142857142857  0 7.6471875  0 8.35714285714286  L 0 9.64285714285714  C 0 10.3528125  0.575758928571429 10.9285714285714  1.28571428571429 10.9285714285714  L 7.07142857142857 10.9285714285714  L 7.07142857142857 16.7142857142857  C 7.07142857142857 17.4242410714286  7.6471875 18  8.35714285714286 18  L 9.64285714285714 18  C 10.3528125 18  10.9285714285714 17.4242410714286  10.9285714285714 16.7142857142857  L 10.9285714285714 10.9285714285714  L 16.7142857142857 10.9285714285714  C 17.4242410714286 10.9285714285714  18 10.3528125  18 9.64285714285714  L 18 8.35714285714286  Z " fill-rule="nonzero" fill="#000000" stroke="none" transform="matrix(1 0 0 1 375 163 )" />
  </g>
</svg>