<?xml version="1.0" encoding="utf-8"?>
<svg version="1.1" xmlns:xlink="http://www.w3.org/1999/xlink" width="18px" height="16px" xmlns="http://www.w3.org/2000/svg">
  <g transform="matrix(1 0 0 1 -375 -224 )">
    <path d="M 9.28902439024401 11.9130434782609  L 10.8419324577862 14.4184318097359  L 12.6274944567628 11.9130434782609  C 12.7570439566102 11.7305754763287  12.9240128428999 11.6218718969998  13.313503866746 11.6231884057971  L 15.859756097561 11.6231884057971  C 16.2386099655851 11.6231884057971  16.5457317073171 11.2987570650948  16.5457317073171 10.8985507246377  L 16.5457317073171 2.20289855072464  C 16.5457317073171 1.80269221026754  16.2386099655851 1.47826086956522  15.859756097561 1.47826086956522  L 2.14024390243902 1.47826086956522  C 1.76139003441485 1.47826086956522  1.45426829268293 1.80269221026754  1.45426829268293 2.20289855072464  L 1.45426829268293 10.8985507246377  C 1.45426829268293 11.2987570650948  1.76139003441485 11.6231884057971  2.14024390243902 11.6231884057971  L 8.64512195121973 11.6231884057971  C 8.97210893933453 11.6218718969998  9.15947489039656 11.7305754763287  9.28902439024401 11.9130434782609  Z M 8.56463414634157 13.0724637681159  L 2.14024390243902 13.0724637681159  C 1.00368229836651 13.0724637681159  0.0823170731707317 12.099169746009  0.0823170731707317 10.8985507246377  L 0.0823170731707317 2.20289855072464  C 0.0823170731707317 1.00227952935335  1.00368229836651 0.0289855072463768  2.14024390243902 0  L 15.859756097561 0  C 16.9963177016335 0.0289855072463768  17.9176829268293 1.00227952935335  17.9176829268293 2.20289855072464  L 17.9176829268293 10.8985507246377  C 17.9176829268293 12.099169746009  16.9963177016335 13.0724637681159  15.859756097561 13.0724637681159  L 13.313503866746 13.0724637681159  L 11.3963414634147 15.6561903805603  C 11.2667919635673 15.8386583824925  11.0578482908653 15.9643255295429  10.8419324577862 15.9643255295429  C 10.6260166247071 15.9643255295429  10.3990616949696 15.8386583824925  10.2695121951222 15.6561903805603  L 8.56463414634157 13.0724637681159  Z " fill-rule="nonzero" fill="#000000" stroke="none" transform="matrix(1 0 0 1 375 224 )" />
  </g>
</svg>