<?xml version="1.0" encoding="utf-8"?>
<svg version="1.1" xmlns:xlink="http://www.w3.org/1999/xlink" width="35px" height="35px" xmlns="http://www.w3.org/2000/svg">
  <g transform="matrix(1 0 0 1 -351 -765 )">
    <path d="M 19.25 15.75  L 19.25 8.75  L 15.75 8.75  L 15.75 15.75  L 8.75 15.75  L 8.75 19.25  L 15.75 19.25  L 15.75 26.25  L 19.25 26.25  L 19.25 19.25  L 26.25 19.25  L 26.25 15.75  L 19.25 15.75  Z M 35 17.5  C 35 7.84  27.16 0  17.5 0  C 7.84 0  0 7.84  0 17.5  C 0 27.16  7.84 35  17.5 35  C 27.16 35  35 27.16  35 17.5  Z M 31.5 17.5  C 31.5 25.2175  25.2175 31.5  17.5 31.5  C 9.7825 31.5  3.5 25.2175  3.5 17.5  C 3.5 9.7825  9.7825 3.5  17.5 3.5  C 25.2175 3.5  31.5 9.7825  31.5 17.5  Z " fill-rule="nonzero" fill="#333333" stroke="none" fill-opacity="0.898039215686275" transform="matrix(1 0 0 1 351 765 )" />
  </g>
</svg>