<?xml version="1.0" encoding="utf-8"?>
<svg version="1.1" xmlns:xlink="http://www.w3.org/1999/xlink" width="25px" height="35px" xmlns="http://www.w3.org/2000/svg">
  <g transform="matrix(1 0 0 1 -52 -765 )">
    <path d="M 7.14285714285714 16.5789473684211  C 7.14285714285714 19.6368421052632  9.53571428571428 22.1052631578947  12.5 22.1052631578947  C 15.4642857142857 22.1052631578947  17.8392857142857 19.6368421052632  17.8392857142857 16.5789473684211  L 17.8571428571429 5.52631578947368  C 17.8571428571429 2.46842105263158  15.4642857142857 0  12.5 0  C 9.53571428571428 0  7.14285714285714 2.46842105263158  7.14285714285714 5.52631578947368  L 7.14285714285714 16.5789473684211  Z M 25 16.5789473684211  L 21.9642857142857 16.5789473684211  C 21.9642857142857 22.1052631578947  17.4285714285714 25.9736842105263  12.5 25.9736842105263  C 7.57142857142857 25.9736842105263  3.03571428571429 22.1052631578947  3.03571428571429 16.5789473684211  L 0 16.5789473684211  C 0 22.8605263157895  4.85714285714286 28.0552631578947  10.7142857142857 28.9578947368421  L 10.7142857142857 35  L 14.2857142857143 35  L 14.2857142857143 28.9578947368421  C 20.1428571428571 28.0736842105263  25 22.878947368421  25 16.5789473684211  Z " fill-rule="nonzero" fill="#333333" stroke="none" fill-opacity="0.898039215686275" transform="matrix(1 0 0 1 52 765 )" />
  </g>
</svg>