<?xml version="1.0" encoding="utf-8"?>
<svg version="1.1" xmlns:xlink="http://www.w3.org/1999/xlink" width="12px" height="14px" xmlns="http://www.w3.org/2000/svg">
  <g transform="matrix(1 0 0 1 -929 -516 )">
    <path d="M 4 7.7  L 4 6.3  L 2.66666666666667 6.3  L 2.66666666666667 7.7  L 4 7.7  Z M 6.66666666666667 7.7  L 6.66666666666667 6.3  L 5.33333333333333 6.3  L 5.33333333333333 7.7  L 6.66666666666667 7.7  Z M 9.33333333333333 7.7  L 9.33333333333333 6.3  L 8 6.3  L 8 7.7  L 9.33333333333333 7.7  Z M 12 2.8  C 12 2.03  11.4 1.4  10.6666666666667 1.4  L 10 1.4  L 10 0  L 8.66666666666667 0  L 8.66666666666667 1.4  L 3.33333333333333 1.4  L 3.33333333333333 0  L 2 0  L 2 1.4  L 1.33333333333333 1.4  C 0.593333333333333 1.4  0.00666666666666652 2.03  0.00666666666666652 2.8  L 0 12.6  C 0 13.37  0.593333333333333 14  1.33333333333333 14  L 10.6666666666667 14  C 11.4 14  12 13.37  12 12.6  L 12 2.8  Z M 10.6666666666667 4.9  L 10.6666666666667 12.6  L 1.33333333333333 12.6  L 1.33333333333333 4.9  L 10.6666666666667 4.9  Z " fill-rule="nonzero" fill="#333333" stroke="none" transform="matrix(1 0 0 1 929 516 )" />
  </g>
</svg>