<?xml version="1.0" encoding="utf-8"?>
<svg version="1.1" xmlns:xlink="http://www.w3.org/1999/xlink" width="62px" height="20px" xmlns="http://www.w3.org/2000/svg">
  <g transform="matrix(1 0 0 1 -115 -1382 )">
    <path d="M 62 18  L 62 2  C 62 0.879999999999995  61.12 0  60 0  L 8 0  L 6 0.322580645161281  L 0 10  L 6 19.6774193548387  L 8 20  L 60 20  C 61.12 20  62 19.12  62 18  Z M 14 10  C 14 11.68  12.68 13  11 13  C 9.32000000000005 13  8 11.68  8 10  C 8 8.31999999999999  9.32000000000005 7  11 7  C 12.68 7  14 8.31999999999999  14 10  Z " fill-rule="nonzero" fill="#eea133" stroke="none" fill-opacity="0.0980392156862745" transform="matrix(1 0 0 1 115 1382 )" />
  </g>
</svg>