<?xml version="1.0" encoding="utf-8"?>
<svg version="1.1" xmlns:xlink="http://www.w3.org/1999/xlink" width="36px" height="40px" xmlns="http://www.w3.org/2000/svg">
  <g transform="matrix(1 0 0 1 -36 -728 )">
    <path d="M 35.9105113636364 30.5598958333333  C 35.9701704545455 31.4366319444444  36 32.3350694444444  36 33.2552083333333  C 36 35.3385416666667  35.3778409090909 36.9835069444444  34.1335227272727 38.1901041666667  C 32.8892045454545 39.3967013888889  31.2357954545455 40  29.1732954545455 40  L 6.82670454545455 40  C 4.76420454545455 40  3.11079545454545 39.3967013888889  1.86647727272727 38.1901041666667  C 0.622159090909091 36.9835069444444  0 35.3385416666667  0 33.2552083333333  C 0 32.3350694444444  0.0298295454545455 31.4366319444444  0.0894886363636364 30.5598958333333  C 0.149147727272727 29.6831597222222  0.268465909090909 28.7369791666667  0.447443181818182 27.7213541666667  C 0.626420454545454 26.7057291666667  0.852272727272727 25.7638888888889  1.125 24.8958333333333  C 1.39772727272727 24.0277777777778  1.76420454545455 23.1814236111111  2.22443181818182 22.3567708333333  C 2.68465909090909 21.5321180555556  3.21306818181818 20.8289930555556  3.80965909090909 20.2473958333333  C 4.40625 19.6657986111111  5.13494318181818 19.2013888888889  5.99573863636364 18.8541666666667  C 6.85653409090909 18.5069444444444  7.80681818181818 18.3333333333333  8.84659090909091 18.3333333333333  C 9 18.3333333333333  9.35795454545455 18.5199652777778  9.92045454545455 18.8932291666667  C 10.4829545454545 19.2664930555556  11.1178977272727 19.6831597222222  11.8252840909091 20.1432291666667  C 12.5326704545455 20.6032986111111  13.453125 21.0199652777778  14.5866477272727 21.3932291666667  C 15.7201704545455 21.7664930555556  16.8579545454545 21.953125  18 21.953125  C 19.1420454545455 21.953125  20.2798295454545 21.7664930555556  21.4133522727273 21.3932291666667  C 22.546875 21.0199652777778  23.4673295454545 20.6032986111111  24.1747159090909 20.1432291666667  C 24.8821022727273 19.6831597222222  25.5170454545455 19.2664930555556  26.0795454545455 18.8932291666667  C 26.6420454545455 18.5199652777778  27 18.3333333333333  27.1534090909091 18.3333333333333  C 28.1931818181818 18.3333333333333  29.1434659090909 18.5069444444444  30.0042613636364 18.8541666666667  C 30.8650568181818 19.2013888888889  31.59375 19.6657986111111  32.1903409090909 20.2473958333333  C 32.7869318181818 20.8289930555556  33.3153409090909 21.5321180555556  33.7755681818182 22.3567708333333  C 34.2357954545455 23.1814236111111  34.6022727272727 24.0277777777778  34.875 24.8958333333333  C 35.1477272727273 25.7638888888889  35.3735795454545 26.7057291666667  35.5525568181818 27.7213541666667  C 35.7315340909091 28.7369791666667  35.8508522727273 29.6831597222222  35.9105113636364 30.5598958333333  Z M 24.9417613636364 2.9296875  C 26.859375 4.8828125  27.8181818181818 7.23958333333333  27.8181818181818 10  C 27.8181818181818 12.7604166666667  26.859375 15.1171875  24.9417613636364 17.0703125  C 23.0241477272727 19.0234375  20.7102272727273 20  18 20  C 15.2897727272727 20  12.9758522727273 19.0234375  11.0582386363636 17.0703125  C 9.140625 15.1171875  8.18181818181818 12.7604166666667  8.18181818181818 10  C 8.18181818181818 7.23958333333333  9.140625 4.8828125  11.0582386363636 2.9296875  C 12.9758522727273 0.9765625  15.2897727272727 0  18 0  C 20.7102272727273 0  23.0241477272727 0.9765625  24.9417613636364 2.9296875  Z " fill-rule="nonzero" fill="#333333" stroke="none" transform="matrix(1 0 0 1 36 728 )" />
  </g>
</svg>