<?xml version="1.0" encoding="utf-8"?>
<svg version="1.1" xmlns:xlink="http://www.w3.org/1999/xlink" width="6px" height="9px" xmlns="http://www.w3.org/2000/svg">
  <g transform="matrix(1 0 0 1 -433 -362 )">
    <path d="M 6 4.5  C 6 4.59677419354839  5.96332046332046 4.68052109181141  5.88996138996139 4.75124069478908  L 1.59266409266409 8.8939205955335  C 1.51930501930502 8.96464019851117  1.43243243243243 9  1.33204633204633 9  C 1.23166023166023 9  1.14478764478765 8.96464019851117  1.07142857142857 8.8939205955335  L 0.11003861003861 7.96712158808933  C 0.0366795366795367 7.89640198511166  0 7.81265508684863  0 7.71588089330025  C 0 7.61910669975186  0.0366795366795367 7.53535980148883  0.11003861003861 7.46464019851117  L 3.18532818532819 4.5  L 0.11003861003861 1.53535980148883  C 0.0366795366795367 1.46464019851117  0 1.38089330024814  0 1.28411910669975  C 0 1.18734491315136  0.0366795366795367 1.10359801488834  0.11003861003861 1.03287841191067  L 1.07142857142857 0.106079404466501  C 1.14478764478765 0.0353598014888333  1.23166023166023 0  1.33204633204633 0  C 1.43243243243243 0  1.51930501930502 0.0353598014888333  1.59266409266409 0.106079404466501  L 5.88996138996139 4.24875930521092  C 5.96332046332046 4.31947890818858  6 4.40322580645161  6 4.5  Z " fill-rule="nonzero" fill="#000000" stroke="none" transform="matrix(1 0 0 1 433 362 )" />
  </g>
</svg>