<?xml version="1.0" encoding="utf-8"?>
<svg version="1.1" xmlns:xlink="http://www.w3.org/1999/xlink" width="21px" height="18px" xmlns="http://www.w3.org/2000/svg">
  <g transform="matrix(1 0 0 1 -351 -408 )">
    <path d="M 17.8206847720588 17.3757088627451  C 16.3630360147059 16.6478647843137  16.8818601617647 17.2251204705882  15.0042109411765 16.4219822745098  C 13.0524439191176 15.6188440784314  12.5830316911765 15.3427653333333  12.5830316911765 15.3427653333333  L 12.5583256544117 13.4855082352941  C 12.5583256544117 13.4855082352941  13.2995030514706 12.933350745098  13.5218563014706 11.1764859607843  C 13.9912685294118 11.3019763137255  14.1395039779412 10.6494265098039  14.1642100147059 10.222759372549  C 14.1889158970588 9.82119027450979  14.4359750294117 8.51609066666667  13.8677389632353 8.64158101960785  C 13.9912685294118 7.78824674509804  14.0900922132353 6.98510854901959  14.0159744117647 6.58353945098039  C 13.892445 5.12785145098038  12.8795025882353 3.621967372549  10.3842055367647 3.4964740392157  C 8.25949718382356 3.621967372549  6.87596622794116 5.12785145098038  6.72773077941173 6.58353945098039  C 6.67831886029412 6.98510854901959  6.77714254411764 7.78824674509804  6.87596622794116 8.64158101960785  C 6.30773016176474 8.51609066666667  6.5794951764706 9.82119027450979  6.5794951764706 10.222759372549  C 6.60420121323529 10.6494265098039  6.75243666176472 11.3270743529412  7.22184888970586 11.1764859607843  C 7.44420213970589 12.933350745098  8.16067349999997 13.5106062745098  8.16067349999997 13.5106062745098  L 8.13596761764705 15.3929614117647  C 8.13596761764705 15.3929614117647  7.66655538970584 15.6690401568627  5.71478836764709 16.4972763921569  C 3.81243326470587 17.3004145882353  4.35596329411768 16.6980610196078  2.89831453676468 17.4259050980392  C 1.26522019852938 15.5181038431372  0.362026102941211 13.077272627451  0.353605874999978 10.5490343529412  C 0.35743065441179 4.92287639215685  4.84610066911764 0.363018196078428  10.3842781102941 0.359219137254892  C 15.9224316176471 0.363104784313729  20.4110179411764 4.92297443137257  20.4148058161765 10.5490349803922  C 20.4148058161765 13.1843320784314  19.4265694411765 15.568648627451  17.8206852352941 17.3757094901961  Z " fill-rule="nonzero" fill="#ffffff" stroke="none" transform="matrix(1 0 0 1 351 408 )" />
  </g>
</svg>