<?xml version="1.0" encoding="utf-8"?>
<svg version="1.1" xmlns:xlink="http://www.w3.org/1999/xlink" width="12px" height="12px" xmlns="http://www.w3.org/2000/svg">
  <g transform="matrix(1 0 0 1 -160 -166 )">
    <path d="M 11.83359375 11.1508771929825  C 12.05390625 10.9309941520468  12.05390625 10.5754385964912  11.8359375 10.3555555555556  L 9.49921875 8.0233918128655  C 9.39375 7.91812865497076  9.25078125 7.85964912280702  9.10078125 7.85964912280702  L 8.71875 7.85964912280702  C 9.365625 7.03391812865497  9.75 5.9953216374269  9.75 4.86549707602339  C 9.75 2.17777777777778  7.56796875 0  4.875 0  C 2.18203125 0  0 2.17777777777778  0 4.86549707602339  C 0 7.55321637426901  2.18203125 9.73099415204678  4.875 9.73099415204678  C 6.00703125 9.73099415204678  7.04765625 9.34736842105263  7.875 8.70175438596491  L 7.875 9.08304093567251  C 7.875 9.23274853801169  7.93359375 9.37543859649123  8.0390625 9.48070175438597  L 10.37578125 11.812865497076  C 10.59609375 12.0327485380117  10.95234375 12.0327485380117  11.1703125 11.812865497076  L 11.83359375 11.1508771929825  Z M 7.875 4.86549707602339  C 7.875 6.51929824561403  6.534375 7.85964912280702  4.875 7.85964912280702  C 3.21796875 7.85964912280702  1.875 6.52163742690059  1.875 4.86549707602339  C 1.875 3.21169590643275  3.215625 1.87134502923977  4.875 1.87134502923977  C 6.53203125 1.87134502923977  7.875 3.2093567251462  7.875 4.86549707602339  Z " fill-rule="nonzero" fill="#666666" stroke="none" transform="matrix(1 0 0 1 160 166 )" />
  </g>
</svg>