<?xml version="1.0" encoding="utf-8"?>
<svg version="1.1" xmlns:xlink="http://www.w3.org/1999/xlink" width="16px" height="16px" viewBox="1166 650  16 16" xmlns="http://www.w3.org/2000/svg">
  <path d="M 1174 650  C 1178.48 650  1182 653.52  1182 658  C 1182 662.48  1178.48 666  1174 666  C 1169.52 666  1166 662.48  1166 658  C 1166 653.52  1169.52 650  1174 650  Z " fill-rule="nonzero" fill="#ffffff" stroke="none" />
  <path d="M 1174 650.5  C 1178.2 650.5  1181.5 653.8  1181.5 658  C 1181.5 662.2  1178.2 665.5  1174 665.5  C 1169.8 665.5  1166.5 662.2  1166.5 658  C 1166.5 653.8  1169.8 650.5  1174 650.5  Z " stroke-width="1" stroke="#1677ff" fill="none" />
  <path d="M 1174 662  C 1171.76 662  1170 660.24  1170 658  C 1170 655.76  1171.76 654  1174 654  C 1176.24 654  1178 655.76  1178 658  C 1178 660.24  1176.24 662  1174 662  " fill-rule="nonzero" fill="#1677ff" stroke="none" />
</svg>