<?xml version="1.0" encoding="utf-8"?>
<svg version="1.1" xmlns:xlink="http://www.w3.org/1999/xlink" width="175px" height="25px" xmlns="http://www.w3.org/2000/svg">
  <g transform="matrix(1 0 0 1 -109 -69 )">
    <path d="M 0.373931623931624 2.88461538461538  C 0.373931623931624 1.15384615384615  1.34615384615385 0.32051282051282  3.36538461538462 0.32051282051282  C 3.36538461538462 0.32051282051282  171.858974358974 0.32051282051282  171.858974358974 0.32051282051282  C 173.878205128205 0.32051282051282  174.850427350427 1.15384615384615  174.850427350427 2.88461538461538  C 174.850427350427 2.88461538461538  174.850427350427 21.9230769230769  174.850427350427 21.9230769230769  C 174.850427350427 23.6538461538462  173.878205128205 24.4871794871795  171.858974358974 24.4871794871795  C 171.858974358974 24.4871794871795  3.36538461538462 24.4871794871795  3.36538461538462 24.4871794871795  C 1.34615384615385 24.4871794871795  0.373931623931624 23.6538461538462  0.373931623931624 21.9230769230769  C 0.373931623931624 21.9230769230769  0.373931623931624 2.88461538461538  0.373931623931624 2.88461538461538  Z " fill-rule="nonzero" fill="#ebecf3" stroke="none" fill-opacity="0" transform="matrix(1 0 0 1 109 69 )" />
  </g>
</svg>