<?xml version="1.0" encoding="utf-8"?>
<svg version="1.1" xmlns:xlink="http://www.w3.org/1999/xlink" width="125px" height="38px" xmlns="http://www.w3.org/2000/svg">
  <g transform="matrix(1 0 0 1 -13 -13 )">
    <path d="M 0.347222222222222 2.85  C 0.347222222222222 1.14  1.25 0.316666666666667  3.125 0.316666666666667  C 3.125 0.316666666666667  121.666666666667 0.316666666666667  121.666666666667 0.316666666666667  C 123.541666666667 0.316666666666667  124.444444444444 1.14  124.444444444444 2.85  C 124.444444444444 2.85  124.444444444444 35.15  124.444444444444 35.15  C 124.444444444444 36.86  123.541666666667 37.6833333333333  121.666666666667 37.6833333333333  C 121.666666666667 37.6833333333333  3.125 37.6833333333333  3.125 37.6833333333333  C 1.25 37.6833333333333  0.347222222222222 36.86  0.347222222222222 35.15  C 0.347222222222222 35.15  0.347222222222222 2.85  0.347222222222222 2.85  Z " fill-rule="nonzero" fill="#4851a5" stroke="none" transform="matrix(1 0 0 1 13 13 )" />
  </g>
</svg>