<?xml version="1.0" encoding="utf-8"?>
<svg version="1.1" xmlns:xlink="http://www.w3.org/1999/xlink" width="6px" height="6px" xmlns="http://www.w3.org/2000/svg">
  <g transform="matrix(1 0 0 1 -933 -301 )">
    <path d="M 936 301  C 937.68 301  939 302.32  939 304  C 939 305.68  937.68 307  936 307  C 934.32 307  933 305.68  933 304  C 933 302.32  934.32 301  936 301  Z " fill-rule="nonzero" fill="#d9001b" stroke="none" />
    <path d="M 936 301.5  C 937.4 301.5  938.5 302.6  938.5 304  C 938.5 305.4  937.4 306.5  936 306.5  C 934.6 306.5  933.5 305.4  933.5 304  C 933.5 302.6  934.6 301.5  936 301.5  Z " stroke-width="1" stroke="#d9001b" fill="none" />
  </g>
</svg>