<?xml version="1.0" encoding="utf-8"?>
<svg version="1.1" xmlns:xlink="http://www.w3.org/1999/xlink" width="452px" height="200px" xmlns="http://www.w3.org/2000/svg">
  <g transform="matrix(1 0 0 1 -457 -182 )">
    <path d="M 457 182  L 909 182  L 909 382  L 457 382  L 457 182  " fill-rule="nonzero" fill="#cccccc" stroke="none" />
    <path d="M 471 196  L 895 196  L 895 368  L 471 368  L 471 196  " fill-rule="nonzero" fill="#ffffff" stroke="none" />
    <path d="M 707.04 242  C 698.64 242  692.04 235.4  692.04 227  C 692.04 218.6  698.64 212  707.04 212  C 715.44 212  722.04 218.6  722.04 227  C 722.04 235.4  715.44 242  707.04 242  " fill-rule="nonzero" fill="#cccccc" stroke="none" />
    <path d="M 476 363  L 476 273.9  L 579.5 233.4  L 724.4 319.991150442478  L 807.2 257.7  L 890 319.991150442478  L 890 363  L 476 363  " fill-rule="nonzero" fill="#169bd5" stroke="none" />
  </g>
</svg>