<?xml version="1.0" encoding="utf-8"?>
<svg version="1.1" xmlns:xlink="http://www.w3.org/1999/xlink" width="12px" height="12px" viewBox="613 190  12 12" xmlns="http://www.w3.org/2000/svg">
  <path d="M 619 190  C 622.36 190  625 192.64  625 196  C 625 199.36  622.36 202  619 202  C 615.64 202  613 199.36  613 196  C 613 192.64  615.64 190  619 190  Z " fill-rule="nonzero" fill="#ffffff" stroke="none" />
  <path d="M 619 190.5  C 622.08 190.5  624.5 192.92  624.5 196  C 624.5 199.08  622.08 201.5  619 201.5  C 615.92 201.5  613.5 199.08  613.5 196  C 613.5 192.92  615.92 190.5  619 190.5  Z " stroke-width="1" stroke="#173a85" fill="none" />
  <path d="M 619 199  C 617.32 199  616 197.68  616 196  C 616 194.32  617.32 193  619 193  C 620.68 193  622 194.32  622 196  C 622 197.68  620.68 199  619 199  " fill-rule="nonzero" fill="#173a85" stroke="none" />
</svg>