<?xml version="1.0" encoding="utf-8"?>
<svg version="1.1" xmlns:xlink="http://www.w3.org/1999/xlink" width="12px" height="12px" viewBox="516 190  12 12" xmlns="http://www.w3.org/2000/svg">
  <path d="M 522 190  C 525.36 190  528 192.64  528 196  C 528 199.36  525.36 202  522 202  C 518.64 202  516 199.36  516 196  C 516 192.64  518.64 190  522 190  Z " fill-rule="nonzero" fill="#f0f0f0" stroke="none" />
  <path d="M 522 190.5  C 525.08 190.5  527.5 192.92  527.5 196  C 527.5 199.08  525.08 201.5  522 201.5  C 518.92 201.5  516.5 199.08  516.5 196  C 516.5 192.92  518.92 190.5  522 190.5  Z " stroke-width="1" stroke="#173a85" fill="none" />
  <path d="M 522 199  C 520.32 199  519 197.68  519 196  C 519 194.32  520.32 193  522 193  C 523.68 193  525 194.32  525 196  C 525 197.68  523.68 199  522 199  " fill-rule="nonzero" fill="#173a85" stroke="none" />
</svg>