<?xml version="1.0" encoding="utf-8"?>
<svg version="1.1" xmlns:xlink="http://www.w3.org/1999/xlink" width="466px" height="179px" xmlns="http://www.w3.org/2000/svg">
  <g transform="matrix(1 0 0 1 -520 -394 )">
    <path d="M 521 398  A 3 3 0 0 1 524 395 L 982 395  A 3 3 0 0 1 985 398 L 985 569  A 3 3 0 0 1 982 572 L 524 572  A 3 3 0 0 1 521 569 L 521 398  Z " fill-rule="nonzero" fill="#ffffff" stroke="none" />
    <path d="M 520.5 398  A 3.5 3.5 0 0 1 524 394.5 L 982 394.5  A 3.5 3.5 0 0 1 985.5 398 L 985.5 569  A 3.5 3.5 0 0 1 982 572.5 L 524 572.5  A 3.5 3.5 0 0 1 520.5 569 L 520.5 398  Z " stroke-width="1" stroke-dasharray="17,8" stroke="#e7e7e7" fill="none" stroke-dashoffset="0.5" />
  </g>
</svg>