<?xml version="1.0" encoding="utf-8"?>
<svg version="1.1" xmlns:xlink="http://www.w3.org/1999/xlink" width="12px" height="12px" viewBox="710 190  12 12" xmlns="http://www.w3.org/2000/svg">
  <path d="M 716 190  C 719.36 190  722 192.64  722 196  C 722 199.36  719.36 202  716 202  C 712.64 202  710 199.36  710 196  C 710 192.64  712.64 190  716 190  Z " fill-rule="nonzero" fill="#ffffff" stroke="none" />
  <path d="M 716 190.5  C 719.08 190.5  721.5 192.92  721.5 196  C 721.5 199.08  719.08 201.5  716 201.5  C 712.92 201.5  710.5 199.08  710.5 196  C 710.5 192.92  712.92 190.5  716 190.5  Z " stroke-width="1" stroke="#173a85" fill="none" />
  <path d="M 716 199  C 714.32 199  713 197.68  713 196  C 713 194.32  714.32 193  716 193  C 717.68 193  719 194.32  719 196  C 719 197.68  717.68 199  716 199  " fill-rule="nonzero" fill="#173a85" stroke="none" />
</svg>