<?xml version="1.0" encoding="utf-8"?>
<svg version="1.1" xmlns:xlink="http://www.w3.org/1999/xlink" width="12px" height="12px" viewBox="807 190  12 12" xmlns="http://www.w3.org/2000/svg">
  <path d="M 813 190  C 816.36 190  819 192.64  819 196  C 819 199.36  816.36 202  813 202  C 809.64 202  807 199.36  807 196  C 807 192.64  809.64 190  813 190  Z " fill-rule="nonzero" fill="#ffffff" stroke="none" />
  <path d="M 813 190.5  C 816.08 190.5  818.5 192.92  818.5 196  C 818.5 199.08  816.08 201.5  813 201.5  C 809.92 201.5  807.5 199.08  807.5 196  C 807.5 192.92  809.92 190.5  813 190.5  Z " stroke-width="1" stroke="#173a85" fill="none" />
  <path d="M 813 199  C 811.32 199  810 197.68  810 196  C 810 194.32  811.32 193  813 193  C 814.68 193  816 194.32  816 196  C 816 197.68  814.68 199  813 199  " fill-rule="nonzero" fill="#173a85" stroke="none" />
</svg>