<?xml version="1.0" encoding="utf-8"?>
<svg version="1.1" xmlns:xlink="http://www.w3.org/1999/xlink" width="12px" height="12px" viewBox="904 190  12 12" xmlns="http://www.w3.org/2000/svg">
  <path d="M 910 190  C 913.36 190  916 192.64  916 196  C 916 199.36  913.36 202  910 202  C 906.64 202  904 199.36  904 196  C 904 192.64  906.64 190  910 190  Z " fill-rule="nonzero" fill="#f0f0f0" stroke="none" />
  <path d="M 910 190.5  C 913.08 190.5  915.5 192.92  915.5 196  C 915.5 199.08  913.08 201.5  910 201.5  C 906.92 201.5  904.5 199.08  904.5 196  C 904.5 192.92  906.92 190.5  910 190.5  Z " stroke-width="1" stroke="#173a85" fill="none" />
  <path d="M 910 199  C 908.32 199  907 197.68  907 196  C 907 194.32  908.32 193  910 193  C 911.68 193  913 194.32  913 196  C 913 197.68  911.68 199  910 199  " fill-rule="nonzero" fill="#173a85" stroke="none" />
</svg>