<?xml version="1.0" encoding="utf-8"?>
<svg version="1.1" xmlns:xlink="http://www.w3.org/1999/xlink" width="12px" height="12px" viewBox="709 265  12 12" xmlns="http://www.w3.org/2000/svg">
  <path d="M 715 266  C 717.8 266  720 268.2  720 271  C 720 273.8  717.8 276  715 276  C 712.2 276  710 273.8  710 271  C 710 268.2  712.2 266  715 266  Z " fill-rule="nonzero" fill="#f0f0f0" stroke="none" />
  <path d="M 715 266  C 717.8 266  720 268.2  720 271  C 720 273.8  717.8 276  715 276  C 712.2 276  710 273.8  710 271  C 710 268.2  712.2 266  715 266  Z " stroke-width="2" stroke="#4851a5" fill="none" />
  <path d="M 715 274  C 713.32 274  712 272.68  712 271  C 712 269.32  713.32 268  715 268  C 716.68 268  718 269.32  718 271  C 718 272.68  716.68 274  715 274  " fill-rule="nonzero" fill="#4851a5" stroke="none" />
</svg>