<?xml version="1.0" encoding="utf-8"?>
<svg version="1.1" xmlns:xlink="http://www.w3.org/1999/xlink" width="12px" height="12px" viewBox="709 301  12 12" xmlns="http://www.w3.org/2000/svg">
  <path d="M 715 302  C 717.8 302  720 304.2  720 307  C 720 309.8  717.8 312  715 312  C 712.2 312  710 309.8  710 307  C 710 304.2  712.2 302  715 302  Z " fill-rule="nonzero" fill="#f0f0f0" stroke="none" />
  <path d="M 715 302  C 717.8 302  720 304.2  720 307  C 720 309.8  717.8 312  715 312  C 712.2 312  710 309.8  710 307  C 710 304.2  712.2 302  715 302  Z " stroke-width="2" stroke="#4851a5" fill="none" />
  <path d="M 715 310  C 713.32 310  712 308.68  712 307  C 712 305.32  713.32 304  715 304  C 716.68 304  718 305.32  718 307  C 718 308.68  716.68 310  715 310  " fill-rule="nonzero" fill="#4851a5" stroke="none" />
</svg>