<?xml version="1.0" encoding="utf-8"?>
<svg version="1.1" xmlns:xlink="http://www.w3.org/1999/xlink" width="12px" height="12px" viewBox="709 481  12 12" xmlns="http://www.w3.org/2000/svg">
  <path d="M 715 482  C 717.8 482  720 484.2  720 487  C 720 489.8  717.8 492  715 492  C 712.2 492  710 489.8  710 487  C 710 484.2  712.2 482  715 482  Z " fill-rule="nonzero" fill="#ffffff" stroke="none" />
  <path d="M 715 482  C 717.8 482  720 484.2  720 487  C 720 489.8  717.8 492  715 492  C 712.2 492  710 489.8  710 487  C 710 484.2  712.2 482  715 482  Z " stroke-width="2" stroke="#4851a5" fill="none" />
  <path d="M 715 490  C 713.32 490  712 488.68  712 487  C 712 485.32  713.32 484  715 484  C 716.68 484  718 485.32  718 487  C 718 488.68  716.68 490  715 490  " fill-rule="nonzero" fill="#4851a5" stroke="none" />
</svg>