<?xml version="1.0" encoding="utf-8"?>
<svg version="1.1" xmlns:xlink="http://www.w3.org/1999/xlink" width="12px" height="12px" viewBox="709 373  12 12" xmlns="http://www.w3.org/2000/svg">
  <path d="M 715 374  C 717.8 374  720 376.2  720 379  C 720 381.8  717.8 384  715 384  C 712.2 384  710 381.8  710 379  C 710 376.2  712.2 374  715 374  Z " fill-rule="nonzero" fill="#f0f0f0" stroke="none" />
  <path d="M 715 374  C 717.8 374  720 376.2  720 379  C 720 381.8  717.8 384  715 384  C 712.2 384  710 381.8  710 379  C 710 376.2  712.2 374  715 374  Z " stroke-width="2" stroke="#4851a5" fill="none" />
  <path d="M 715 382  C 713.32 382  712 380.68  712 379  C 712 377.32  713.32 376  715 376  C 716.68 376  718 377.32  718 379  C 718 380.68  716.68 382  715 382  " fill-rule="nonzero" fill="#4851a5" stroke="none" />
</svg>