<?xml version="1.0" encoding="utf-8"?>
<svg version="1.1" xmlns:xlink="http://www.w3.org/1999/xlink" width="12px" height="12px" viewBox="709 445  12 12" xmlns="http://www.w3.org/2000/svg">
  <path d="M 715 446  C 717.8 446  720 448.2  720 451  C 720 453.8  717.8 456  715 456  C 712.2 456  710 453.8  710 451  C 710 448.2  712.2 446  715 446  Z " fill-rule="nonzero" fill="#ffffff" stroke="none" />
  <path d="M 715 446  C 717.8 446  720 448.2  720 451  C 720 453.8  717.8 456  715 456  C 712.2 456  710 453.8  710 451  C 710 448.2  712.2 446  715 446  Z " stroke-width="2" stroke="#4851a5" fill="none" />
  <path d="M 715 454  C 713.32 454  712 452.68  712 451  C 712 449.32  713.32 448  715 448  C 716.68 448  718 449.32  718 451  C 718 452.68  716.68 454  715 454  " fill-rule="nonzero" fill="#4851a5" stroke="none" />
</svg>