<?xml version="1.0" encoding="utf-8"?>
<svg version="1.1" xmlns:xlink="http://www.w3.org/1999/xlink" width="12px" height="12px" viewBox="709 229  12 12" xmlns="http://www.w3.org/2000/svg">
  <path d="M 715 230  C 717.8 230  720 232.2  720 235  C 720 237.8  717.8 240  715 240  C 712.2 240  710 237.8  710 235  C 710 232.2  712.2 230  715 230  Z " fill-rule="nonzero" fill="#f0f0f0" stroke="none" />
  <path d="M 715 230  C 717.8 230  720 232.2  720 235  C 720 237.8  717.8 240  715 240  C 712.2 240  710 237.8  710 235  C 710 232.2  712.2 230  715 230  Z " stroke-width="2" stroke="#4851a5" fill="none" />
  <path d="M 715 238  C 713.32 238  712 236.68  712 235  C 712 233.32  713.32 232  715 232  C 716.68 232  718 233.32  718 235  C 718 236.68  716.68 238  715 238  " fill-rule="nonzero" fill="#4851a5" stroke="none" />
</svg>