<?xml version="1.0" encoding="utf-8"?>
<svg version="1.1" xmlns:xlink="http://www.w3.org/1999/xlink" width="12px" height="12px" viewBox="649 373  12 12" xmlns="http://www.w3.org/2000/svg">
  <path d="M 655 374  C 657.8 374  660 376.2  660 379  C 660 381.8  657.8 384  655 384  C 652.2 384  650 381.8  650 379  C 650 376.2  652.2 374  655 374  Z " fill-rule="nonzero" fill="#ffffff" stroke="none" />
  <path d="M 655 374  C 657.8 374  660 376.2  660 379  C 660 381.8  657.8 384  655 384  C 652.2 384  650 381.8  650 379  C 650 376.2  652.2 374  655 374  Z " stroke-width="2" stroke="#4851a5" fill="none" />
  <path d="M 655 382  C 653.32 382  652 380.68  652 379  C 652 377.32  653.32 376  655 376  C 656.68 376  658 377.32  658 379  C 658 380.68  656.68 382  655 382  " fill-rule="nonzero" fill="#4851a5" stroke="none" />
</svg>