<?xml version="1.0" encoding="utf-8"?>
<svg version="1.1" xmlns:xlink="http://www.w3.org/1999/xlink" width="12px" height="12px" viewBox="649 481  12 12" xmlns="http://www.w3.org/2000/svg">
  <path d="M 655 482  C 657.8 482  660 484.2  660 487  C 660 489.8  657.8 492  655 492  C 652.2 492  650 489.8  650 487  C 650 484.2  652.2 482  655 482  Z " fill-rule="nonzero" fill="#f0f0f0" stroke="none" />
  <path d="M 655 482  C 657.8 482  660 484.2  660 487  C 660 489.8  657.8 492  655 492  C 652.2 492  650 489.8  650 487  C 650 484.2  652.2 482  655 482  Z " stroke-width="2" stroke="#4851a5" fill="none" />
  <path d="M 655 490  C 653.32 490  652 488.68  652 487  C 652 485.32  653.32 484  655 484  C 656.68 484  658 485.32  658 487  C 658 488.68  656.68 490  655 490  " fill-rule="nonzero" fill="#4851a5" stroke="none" />
</svg>