<?xml version="1.0" encoding="utf-8"?>
<svg version="1.1" xmlns:xlink="http://www.w3.org/1999/xlink" width="12px" height="12px" viewBox="649 553  12 12" xmlns="http://www.w3.org/2000/svg">
  <path d="M 655 554  C 657.8 554  660 556.2  660 559  C 660 561.8  657.8 564  655 564  C 652.2 564  650 561.8  650 559  C 650 556.2  652.2 554  655 554  Z " fill-rule="nonzero" fill="#f0f0f0" stroke="none" />
  <path d="M 655 554  C 657.8 554  660 556.2  660 559  C 660 561.8  657.8 564  655 564  C 652.2 564  650 561.8  650 559  C 650 556.2  652.2 554  655 554  Z " stroke-width="2" stroke="#4851a5" fill="none" />
  <path d="M 655 562  C 653.32 562  652 560.68  652 559  C 652 557.32  653.32 556  655 556  C 656.68 556  658 557.32  658 559  C 658 560.68  656.68 562  655 562  " fill-rule="nonzero" fill="#4851a5" stroke="none" />
</svg>