<?xml version="1.0" encoding="utf-8"?>
<svg version="1.1" xmlns:xlink="http://www.w3.org/1999/xlink" width="12px" height="12px" viewBox="709 337  12 12" xmlns="http://www.w3.org/2000/svg">
  <path d="M 715 338  C 717.8 338  720 340.2  720 343  C 720 345.8  717.8 348  715 348  C 712.2 348  710 345.8  710 343  C 710 340.2  712.2 338  715 338  Z " fill-rule="nonzero" fill="#f0f0f0" stroke="none" />
  <path d="M 715 338  C 717.8 338  720 340.2  720 343  C 720 345.8  717.8 348  715 348  C 712.2 348  710 345.8  710 343  C 710 340.2  712.2 338  715 338  Z " stroke-width="2" stroke="#4851a5" fill="none" />
  <path d="M 715 346  C 713.32 346  712 344.68  712 343  C 712 341.32  713.32 340  715 340  C 716.68 340  718 341.32  718 343  C 718 344.68  716.68 346  715 346  " fill-rule="nonzero" fill="#4851a5" stroke="none" />
</svg>