<?xml version="1.0" encoding="utf-8"?>
<svg version="1.1" xmlns:xlink="http://www.w3.org/1999/xlink" width="12px" height="12px" viewBox="709 553  12 12" xmlns="http://www.w3.org/2000/svg">
  <path d="M 715 554  C 717.8 554  720 556.2  720 559  C 720 561.8  717.8 564  715 564  C 712.2 564  710 561.8  710 559  C 710 556.2  712.2 554  715 554  Z " fill-rule="nonzero" fill="#f0f0f0" stroke="none" />
  <path d="M 715 554  C 717.8 554  720 556.2  720 559  C 720 561.8  717.8 564  715 564  C 712.2 564  710 561.8  710 559  C 710 556.2  712.2 554  715 554  Z " stroke-width="2" stroke="#4851a5" fill="none" />
  <path d="M 715 562  C 713.32 562  712 560.68  712 559  C 712 557.32  713.32 556  715 556  C 716.68 556  718 557.32  718 559  C 718 560.68  716.68 562  715 562  " fill-rule="nonzero" fill="#4851a5" stroke="none" />
</svg>