<?xml version="1.0" encoding="utf-8"?>
<svg version="1.1" xmlns:xlink="http://www.w3.org/1999/xlink" width="12px" height="12px" viewBox="649 409  12 12" xmlns="http://www.w3.org/2000/svg">
  <path d="M 655 410  C 657.8 410  660 412.2  660 415  C 660 417.8  657.8 420  655 420  C 652.2 420  650 417.8  650 415  C 650 412.2  652.2 410  655 410  Z " fill-rule="nonzero" fill="#f0f0f0" stroke="none" />
  <path d="M 655 410  C 657.8 410  660 412.2  660 415  C 660 417.8  657.8 420  655 420  C 652.2 420  650 417.8  650 415  C 650 412.2  652.2 410  655 410  Z " stroke-width="2" stroke="#4851a5" fill="none" />
  <path d="M 655 418  C 653.32 418  652 416.68  652 415  C 652 413.32  653.32 412  655 412  C 656.68 412  658 413.32  658 415  C 658 416.68  656.68 418  655 418  " fill-rule="nonzero" fill="#4851a5" stroke="none" />
</svg>