<?xml version="1.0" encoding="utf-8"?>
<svg version="1.1" xmlns:xlink="http://www.w3.org/1999/xlink" width="12px" height="12px" viewBox="649 229  12 12" xmlns="http://www.w3.org/2000/svg">
  <path d="M 655 230  C 657.8 230  660 232.2  660 235  C 660 237.8  657.8 240  655 240  C 652.2 240  650 237.8  650 235  C 650 232.2  652.2 230  655 230  Z " fill-rule="nonzero" fill="#ffffff" stroke="none" />
  <path d="M 655 230  C 657.8 230  660 232.2  660 235  C 660 237.8  657.8 240  655 240  C 652.2 240  650 237.8  650 235  C 650 232.2  652.2 230  655 230  Z " stroke-width="2" stroke="#4851a5" fill="none" />
  <path d="M 655 238  C 653.32 238  652 236.68  652 235  C 652 233.32  653.32 232  655 232  C 656.68 232  658 233.32  658 235  C 658 236.68  656.68 238  655 238  " fill-rule="nonzero" fill="#4851a5" stroke="none" />
</svg>