<?xml version="1.0" encoding="utf-8"?>
<svg version="1.1" xmlns:xlink="http://www.w3.org/1999/xlink" width="12px" height="12px" viewBox="649 445  12 12" xmlns="http://www.w3.org/2000/svg">
  <path d="M 655 446  C 657.8 446  660 448.2  660 451  C 660 453.8  657.8 456  655 456  C 652.2 456  650 453.8  650 451  C 650 448.2  652.2 446  655 446  Z " fill-rule="nonzero" fill="#f0f0f0" stroke="none" />
  <path d="M 655 446  C 657.8 446  660 448.2  660 451  C 660 453.8  657.8 456  655 456  C 652.2 456  650 453.8  650 451  C 650 448.2  652.2 446  655 446  Z " stroke-width="2" stroke="#4851a5" fill="none" />
  <path d="M 655 454  C 653.32 454  652 452.68  652 451  C 652 449.32  653.32 448  655 448  C 656.68 448  658 449.32  658 451  C 658 452.68  656.68 454  655 454  " fill-rule="nonzero" fill="#4851a5" stroke="none" />
</svg>