<?xml version="1.0" encoding="utf-8"?>
<svg version="1.1" xmlns:xlink="http://www.w3.org/1999/xlink" width="52px" height="18px" xmlns="http://www.w3.org/2000/svg">
  <defs>
    <mask fill="white" id="clip342">
      <path d="M 47 0  L 47.0000090952494 4.34315484575683  L 51.6568542494924 9  L 47 13.6568362131869  L 47 18  L 0 18  L 0 0  L 47 0  Z " fill-rule="evenodd" />
    </mask>
  </defs>
  <g transform="matrix(1 0 0 1 -859 -268 )">
    <path d="M 47 0  L 47.0000090952494 4.34315484575683  L 51.6568542494924 9  L 47 13.6568362131869  L 47 18  L 0 18  L 0 0  L 47 0  Z " fill-rule="nonzero" fill="#ff9900" stroke="none" transform="matrix(1 0 0 1 859 268 )" />
    <path d="M 47 0  L 47.0000090952494 4.34315484575683  L 51.6568542494924 9  L 47 13.6568362131869  L 47 18  L 0 18  L 0 0  L 47 0  Z " stroke-width="2" stroke="#ff9900" fill="none" transform="matrix(1 0 0 1 859 268 )" mask="url(#clip342)" />
  </g>
</svg>