<?xml version="1.0" encoding="utf-8"?>
<svg version="1.1" xmlns:xlink="http://www.w3.org/1999/xlink" width="16px" height="16px" viewBox="1050 661  16 16" xmlns="http://www.w3.org/2000/svg">
  <path d="M 1058 661  C 1062.48 661  1066 664.52  1066 669  C 1066 673.48  1062.48 677  1058 677  C 1053.52 677  1050 673.48  1050 669  C 1050 664.52  1053.52 661  1058 661  Z " fill-rule="nonzero" fill="#f0f0f0" stroke="none" />
  <path d="M 1058 661.5  C 1062.2 661.5  1065.5 664.8  1065.5 669  C 1065.5 673.2  1062.2 676.5  1058 676.5  C 1053.8 676.5  1050.5 673.2  1050.5 669  C 1050.5 664.8  1053.8 661.5  1058 661.5  Z " stroke-width="1" stroke="#1677ff" fill="none" />
  <path d="M 1058 673  C 1055.76 673  1054 671.24  1054 669  C 1054 666.76  1055.76 665  1058 665  C 1060.24 665  1062 666.76  1062 669  C 1062 671.24  1060.24 673  1058 673  " fill-rule="nonzero" fill="#1677ff" stroke="none" />
</svg>