<?xml version="1.0" encoding="utf-8"?>
<svg version="1.1" xmlns:xlink="http://www.w3.org/1999/xlink" width="16px" height="16px" viewBox="1166 661  16 16" xmlns="http://www.w3.org/2000/svg">
  <path d="M 1174 661  C 1178.48 661  1182 664.52  1182 669  C 1182 673.48  1178.48 677  1174 677  C 1169.52 677  1166 673.48  1166 669  C 1166 664.52  1169.52 661  1174 661  Z " fill-rule="nonzero" fill="#ffffff" stroke="none" />
  <path d="M 1174 661.5  C 1178.2 661.5  1181.5 664.8  1181.5 669  C 1181.5 673.2  1178.2 676.5  1174 676.5  C 1169.8 676.5  1166.5 673.2  1166.5 669  C 1166.5 664.8  1169.8 661.5  1174 661.5  Z " stroke-width="1" stroke="#1677ff" fill="none" />
  <path d="M 1174 673  C 1171.76 673  1170 671.24  1170 669  C 1170 666.76  1171.76 665  1174 665  C 1176.24 665  1178 666.76  1178 669  C 1178 671.24  1176.24 673  1174 673  " fill-rule="nonzero" fill="#1677ff" stroke="none" />
</svg>