<?xml version="1.0" encoding="utf-8"?>
<svg version="1.1" xmlns:xlink="http://www.w3.org/1999/xlink" width="26px" height="24px" xmlns="http://www.w3.org/2000/svg">
  <g transform="matrix(1 0 0 1 -350 -182 )">
    <path d="M 24.2265839223854 17.897  C 22.8875843671431 17.174  19.9994186598 15.613  18.6604191045577 14.889  C 18.2205859173179 14.651  17.6800027635429 14.656  17.2423362422501 14.896  L 15.0258369784752 16.115  C 14.5296704766136 16.388  13.9100040157733 16.356  13.4550041669045 16.028  C 12.6685044281457 15.461  11.4020881821277 14.507  10.3003385480812 13.49  C 9.19858891403474 12.473  8.16508925731858 11.304  7.55083946134577 10.578  C 7.19550624603875 10.158  7.16083959088684 9.586  7.45658949265153 9.128  L 8.7771723873444 7.082  C 9.03825563395718 6.678  9.04042229990417 6.175  8.78258905221188 5.769  L 5.53042346577383 0.641  C 5.2151735704862 0.145  4.58900711180492 -0.0990000000000002  3.98342397962009 0.0380000000000003  C 3.3951741750112 0.17  2.63142442869581 0.492  1.83084136128151 1.232  C -0.675991139390594 3.546  -2.00740736381843 7.449  7.41975617155263 16.151  C 16.8469197069237 24.853  21.0740849695091 23.625  23.5820008031547 21.31  C 24.3847505365159 20.569  24.7325004210085 19.863  24.8765837064836 19.319  C 25.0228336579057 18.761  24.7628337442664 18.187  24.2265839223854 17.897  Z " fill-rule="nonzero" fill="#05b157" stroke="none" transform="matrix(1 0 0 1 350 182 )" />
  </g>
</svg>