<?xml version="1.0" encoding="utf-8"?>
<svg version="1.1" xmlns:xlink="http://www.w3.org/1999/xlink" width="7px" height="9px" xmlns="http://www.w3.org/2000/svg">
  <g transform="matrix(1 0 0 1 -201 -223 )">
    <path d="M 7 3.70588235294118  C 7 1.65917647058824  5.433 0  3.5 0  C 1.567 0  0 1.65917647058824  0 3.70588235294118  C 0 6.14329411764706  2.2755 7.27676470588235  2.5605 7.54835294117647  C 2.8515 7.82576470588235  3.092 8.38217647058823  3.1895 8.73476470588235  C 3.2365 8.90576470588235  3.369 8.99258823529412  3.5 8.99629411764706  C 3.6315 8.99258823529412  3.7635 8.90576470588235  3.8105 8.73476470588235  C 3.9075 8.38270588235294  4.148 7.82576470588235  4.4395 7.54835294117647  C 4.7245 7.27676470588235  7 6.14329411764706  7 3.70588235294118  Z M 4.5 3.70588235294118  C 4.5 4.29088235294118  4.0525 4.76470588235294  3.5 4.76470588235294  C 2.9475 4.76470588235294  2.5 4.29088235294118  2.5 3.70588235294118  C 2.5 3.12088235294118  2.9475 2.64705882352941  3.5 2.64705882352941  C 4.0525 2.64705882352941  4.5 3.12088235294118  4.5 3.70588235294118  Z " fill-rule="nonzero" fill="#ffffff" stroke="none" transform="matrix(1 0 0 1 201 223 )" />
  </g>
</svg>