<?xml version="1.0" encoding="utf-8"?>
<svg version="1.1" xmlns:xlink="http://www.w3.org/1999/xlink" width="12px" height="12px" xmlns="http://www.w3.org/2000/svg">
  <g transform="matrix(1 0 0 1 -195 -224 )">
    <path d="M 12 5.80527272727273  L 11 6.67527272727273  L 11 10.7558181818182  L 8 9.93763636363636  L 8 8.20963636363637  L 7 6.67527272727273  L 7 9.95236363636364  L 4.5 10.7318181818182  L 4.5 2.06236363636364  L 4.5055 2.06072727272727  C 4.5145 1.65763636363636  4.569 1.26709090909091  4.6625 0.893454545454546  L 4.2685 1.00090909090909  C 4.0985 1.04727272727273  3.92 1.044  3.751 0.991636363636363  L 0.6695 0.0305454545454546  C 0.334 -0.0736363636363635  0 0.200727272727273  0 0.581454545454545  L 0 9.95181818181818  C 0 10.4389090909091  0.296 10.8670909090909  0.725 11.0007272727273  L 3.822 11.9661818181818  C 3.9385 12.0021818181818  4.0615 12.0021818181818  4.178 11.9661818181818  L 7.2515 11.0083636363636  C 7.42 10.956  7.5985 10.9527272727273  7.769 10.9990909090909  L 11.348 11.9754545454545  C 11.679 12.066  12 11.7921818181818  12 11.4196363636364  L 12 5.80527272727273  Z M 3.5 2.04763636363636  L 3.5 10.7312727272727  L 1 9.95236363636364  L 1 1.26872727272727  L 3.5 2.04763636363636  Z " fill-rule="nonzero" fill="#ffffff" stroke="none" transform="matrix(1 0 0 1 195 224 )" />
  </g>
</svg>