<?xml version="1.0" encoding="utf-8"?>
<svg version="1.1" xmlns:xlink="http://www.w3.org/1999/xlink" width="7px" height="7px" xmlns="http://www.w3.org/2000/svg">
  <g transform="matrix(1 0 0 1 -735 -64 )">
    <path d="M 738.5 64  C 740.46 64  742 65.54  742 67.5  C 742 69.46  740.46 71  738.5 71  C 736.54 71  735 69.46  735 67.5  C 735 65.54  736.54 64  738.5 64  Z " fill-rule="nonzero" fill="#797979" stroke="none" />
    <path d="M 738.5 64.5  C 740.18 64.5  741.5 65.82  741.5 67.5  C 741.5 69.18  740.18 70.5  738.5 70.5  C 736.82 70.5  735.5 69.18  735.5 67.5  C 735.5 65.82  736.82 64.5  738.5 64.5  Z " stroke-width="1" stroke="#797979" fill="none" />
  </g>
</svg>