<?xml version="1.0" encoding="utf-8"?>
<svg version="1.1" xmlns:xlink="http://www.w3.org/1999/xlink" width="343px" height="246px" xmlns="http://www.w3.org/2000/svg">
  <defs>
    <mask fill="white" id="clip470">
      <path d="M 54 478  C 51.78 478  50 476.22  50 474  L 50 236  C 50 233.78  51.78 232  54 232  L 389 232  C 391.22 232  393 233.78  393 236  L 393 474  C 393 476.22  391.22 478  389 478  " fill-rule="evenodd" />
    </mask>
  </defs>
  <g transform="matrix(1 0 0 1 -50 -232 )">
    <path d="M 50 232  L 393 232  L 393 478  L 50 478  L 50 232  " fill-rule="nonzero" fill="#cccccc" stroke="none" mask="url(#clip470)" />
    <path d="M 67 249  L 376 249  L 376 461  L 67 461  L 67 249  " fill-rule="nonzero" fill="#ffffff" stroke="none" mask="url(#clip470)" />
    <path d="M 246.81 305.8  C 236.478 305.8  228.36 297.682  228.36 287.35  C 228.36 277.018  236.478 268.9  246.81 268.9  C 257.142 268.9  265.26 277.018  265.26 287.35  C 265.26 297.682  257.142 305.8  246.81 305.8  " fill-rule="nonzero" fill="#cccccc" stroke="none" mask="url(#clip470)" />
    <path d="M 73 455  L 73 345  L 147.25 295  L 251.2 368.935860058309  L 310.6 325  L 370 368.935860058309  L 370 455  L 73 455  " fill-rule="nonzero" fill="#169bd5" stroke="none" mask="url(#clip470)" />
  </g>
</svg>