<?xml version="1.0" encoding="utf-8"?>
<svg version="1.1" xmlns:xlink="http://www.w3.org/1999/xlink" width="30px" height="30px" xmlns="http://www.w3.org/2000/svg">
  <g transform="matrix(1 0 0 1 -84 -548 )">
    <path d="M 99 548  C 107.4 548  114 554.6  114 563  C 114 571.4  107.4 578  99 578  C 90.6 578  84 571.4  84 563  C 84 554.6  90.6 548  99 548  Z " fill-rule="nonzero" fill="#cccccc" stroke="none" />
    <path d="M 99 548.5  C 107.12 548.5  113.5 554.88  113.5 563  C 113.5 571.12  107.12 577.5  99 577.5  C 90.88 577.5  84.5 571.12  84.5 563  C 84.5 554.88  90.88 548.5  99 548.5  Z " stroke-width="1" stroke="#cccccc" fill="none" />
  </g>
</svg>