<?xml version="1.0" encoding="utf-8"?>
<svg version="1.1" xmlns:xlink="http://www.w3.org/1999/xlink" width="16px" height="14px" xmlns="http://www.w3.org/2000/svg">
  <g transform="matrix(1 0 0 1 -470 -96 )">
    <path d="M 5.71428571428571 1.16666666666667  L 5.71428571428571 2.33333333333333  L 10.2857142857143 2.33333333333333  L 10.2857142857143 1.16666666666667  L 5.71428571428571 1.16666666666667  Z M 2 2.33333333333333  L 2.57142857142857 2.33333333333333  L 2.57142857142857 14  L 2 14  C 1.45238095238095 14  0.982142857142857 13.7994791666667  0.589285714285714 13.3984375  C 0.196428571428571 12.9973958333333  0 12.5173611111111  0 11.9583333333333  L 0 4.375  C 0 3.81597222222222  0.196428571428571 3.3359375  0.589285714285714 2.93489583333333  C 0.982142857142857 2.53385416666667  1.45238095238095 2.33333333333333  2 2.33333333333333  Z M 11.4285714285714 2.33333333333333  L 12.5714285714286 2.33333333333333  L 12.5714285714286 14  L 3.42857142857143 14  L 3.42857142857143 2.33333333333333  L 4.57142857142857 2.33333333333333  L 4.57142857142857 0.875  C 4.57142857142857 0.631944444444444  4.65476190476191 0.42534722222222  4.82142857142857 0.255208333333333  C 4.98809523809524 0.0850694444444438  5.19047619047619 0  5.42857142857143 0  L 10.5714285714286 0  C 10.8095238095238 0  11.0119047619048 0.0850694444444438  11.1785714285714 0.255208333333333  C 11.3452380952381 0.42534722222222  11.4285714285714 0.631944444444444  11.4285714285714 0.875  L 11.4285714285714 2.33333333333333  Z M 15.4107142857143 2.93489583333333  C 15.8035714285714 3.3359375  16 3.81597222222222  16 4.375  L 16 11.9583333333333  C 16 12.5173611111111  15.8035714285714 12.9973958333333  15.4107142857143 13.3984375  C 15.0178571428571 13.7994791666667  14.547619047619 14  14 14  L 13.4285714285714 14  L 13.4285714285714 2.33333333333333  L 14 2.33333333333333  C 14.547619047619 2.33333333333333  15.0178571428571 2.53385416666667  15.4107142857143 2.93489583333333  Z " fill-rule="nonzero" fill="#ffffff" stroke="none" transform="matrix(1 0 0 1 470 96 )" />
  </g>
</svg>