<?xml version="1.0" encoding="utf-8"?>
<svg version="1.1" xmlns:xlink="http://www.w3.org/1999/xlink" width="15px" height="16px" xmlns="http://www.w3.org/2000/svg">
  <g transform="matrix(1 0 0 1 -91 -555 )">
    <path d="M 7.5 15.2857142857143  C 7.59615384615385 15.2857142857143  7.64423076923077 15.2380952380952  7.64423076923077 15.1428571428571  C 7.64423076923077 15.047619047619  7.59615384615385 15  7.5 15  C 7.14543269230769 15  6.84044471153846 14.8735119047619  6.58503605769231 14.6205357142857  C 6.32962740384615 14.3675595238095  6.20192307692308 14.0654761904762  6.20192307692308 13.7142857142857  C 6.20192307692308 13.6190476190476  6.15384615384615 13.5714285714286  6.05769230769231 13.5714285714286  C 5.96153846153846 13.5714285714286  5.91346153846154 13.6190476190476  5.91346153846154 13.7142857142857  C 5.91346153846154 14.1488095238095  6.06820913461539 14.5193452380952  6.37770432692308 14.8258928571429  C 6.68719951923077 15.1324404761905  7.06129807692308 15.2857142857143  7.5 15.2857142857143  Z M 14.1796875 11.7857142857143  C 14.4260817307692 12.0595238095238  14.6995192307692 12.3214285714286  15 12.5714285714286  C 15 12.8809523809524  14.8858173076923 13.1488095238095  14.6574519230769 13.375  C 14.4290865384615 13.6011904761905  14.1586538461538 13.7142857142857  13.8461538461538 13.7142857142857  L 9.80769230769231 13.7142857142857  C 9.80769230769231 14.3452380952381  9.58233173076923 14.8839285714286  9.13161057692308 15.3303571428571  C 8.68088942307692 15.7767857142857  8.13701923076923 16  7.5 16  C 6.86298076923077 16  6.31911057692308 15.7767857142857  5.86838942307692 15.3303571428571  C 5.41766826923077 14.8839285714286  5.19230769230769 14.3452380952381  5.19230769230769 13.7142857142857  L 1.15384615384615 13.7142857142857  C 0.841346153846154 13.7142857142857  0.570913461538462 13.6011904761905  0.342548076923077 13.375  C 0.114182692307692 13.1488095238095  0 12.8809523809524  0 12.5714285714286  C 0.300480769230769 12.3214285714286  0.573918269230769 12.0595238095238  0.8203125 11.7857142857143  C 1.06670673076923 11.5119047619048  1.32211538461538 11.15625  1.58653846153846 10.71875  C 1.85096153846154 10.28125  2.07481971153846 9.80952380952381  2.25811298076923 9.30357142857143  C 2.44140625 8.79761904761905  2.59164663461538 8.18452380952381  2.70883413461538 7.46428571428571  C 2.82602163461538 6.74404761904762  2.88461538461538 5.97023809523809  2.88461538461538 5.14285714285714  C 2.88461538461538 4.23809523809524  3.23617788461538 3.39732142857143  3.93930288461538 2.62053571428571  C 4.64242788461538 1.84375  5.56490384615385 1.37202380952381  6.70673076923077 1.20535714285714  C 6.65865384615385 1.0922619047619  6.63461538461538 0.976190476190476  6.63461538461538 0.857142857142858  C 6.63461538461538 0.619047619047619  6.71875 0.416666666666666  6.88701923076923 0.25  C 7.05528846153846 0.0833333333333339  7.25961538461539 0  7.5 0  C 7.74038461538462 0  7.94471153846154 0.0833333333333339  8.11298076923077 0.25  C 8.28125 0.416666666666666  8.36538461538462 0.619047619047619  8.36538461538462 0.857142857142858  C 8.36538461538462 0.976190476190476  8.34134615384615 1.0922619047619  8.29326923076923 1.20535714285714  C 9.43509615384616 1.37202380952381  10.3575721153846 1.84375  11.0606971153846 2.62053571428571  C 11.7638221153846 3.39732142857143  12.1153846153846 4.23809523809524  12.1153846153846 5.14285714285714  C 12.1153846153846 5.97023809523809  12.1739783653846 6.74404761904762  12.2911658653846 7.46428571428571  C 12.4083533653846 8.18452380952381  12.55859375 8.79761904761905  12.7418870192308 9.30357142857143  C 12.9251802884615 9.80952380952381  13.1490384615385 10.28125  13.4134615384615 10.71875  C 13.6778846153846 11.15625  13.9332932692308 11.5119047619048  14.1796875 11.7857142857143  Z " fill-rule="nonzero" fill="#ffffff" stroke="none" transform="matrix(1 0 0 1 91 555 )" />
  </g>
</svg>