<?xml version="1.0" encoding="utf-8"?>
<svg version="1.1" xmlns:xlink="http://www.w3.org/1999/xlink" width="18px" height="18px" xmlns="http://www.w3.org/2000/svg">
  <g transform="matrix(1 0 0 1 -16 -1893 )">
    <path d="M 9 0  C 13.9702137096774 0  18 4.03123790322581  18 9  C 18 13.9716653225806  13.9702137096774 18  9 18  C 4.02978629032258 18  0 13.9716653225806  0 9  C 0 4.03123790322581  4.02978629032258 0  9 0  Z M 10.6693548387097 12.4838709677419  C 10.6693548387097 11.5619153225806  9.92195564516129 10.8145161290323  9 10.8145161290323  C 8.07804435483871 10.8145161290323  7.33064516129032 11.5619153225806  7.33064516129032 12.4838709677419  C 7.33064516129032 13.4058266129032  8.07804435483871 14.1532258064516  9 14.1532258064516  C 9.92195564516129 14.1532258064516  10.6693548387097 13.4058266129032  10.6693548387097 12.4838709677419  Z M 7.84988709677419 4.35483870967742  C 7.60006451612903 4.35483870967742  7.40148387096774 4.56459677419355  7.41509274193548 4.8140564516129  L 7.68429435483871 9.74954032258064  C 7.69688709677419 9.98049193548387  7.88784677419355 10.1612903225806  8.119125 10.1612903225806  L 9.880875 10.1612903225806  C 10.1121532258065 10.1612903225806  10.3031129032258 9.98049193548387  10.3157056451613 9.74954032258064  L 10.5849072580645 4.8140564516129  C 10.5985161290323 4.56459677419355  10.3998991935484 4.35483870967742  10.1500766129032 4.35483870967742  L 7.84988709677419 4.35483870967742  Z " fill-rule="nonzero" fill="#ff5050" stroke="none" transform="matrix(1 0 0 1 16 1893 )" />
  </g>
</svg>