<?xml version="1.0" encoding="utf-8"?>
<svg version="1.1" xmlns:xlink="http://www.w3.org/1999/xlink" width="40px" height="40px" xmlns="http://www.w3.org/2000/svg">
  <g transform="matrix(1 0 0 1 -1603 -1337 )">
    <path d="M 1623 1337  C 1634.2 1337  1643 1345.8  1643 1357  C 1643 1368.2  1634.2 1377  1623 1377  C 1611.8 1377  1603 1368.2  1603 1357  C 1603 1345.8  1611.8 1337  1623 1337  Z " fill-rule="nonzero" fill="#ffffff" stroke="none" />
    <path d="M 1623 1337.5  C 1633.92 1337.5  1642.5 1346.08  1642.5 1357  C 1642.5 1367.92  1633.92 1376.5  1623 1376.5  C 1612.08 1376.5  1603.5 1367.92  1603.5 1357  C 1603.5 1346.08  1612.08 1337.5  1623 1337.5  Z " stroke-width="1" stroke="#797979" fill="none" />
  </g>
</svg>