<?xml version="1.0" encoding="utf-8"?>
<svg version="1.1" xmlns:xlink="http://www.w3.org/1999/xlink" width="100px" height="52px" xmlns="http://www.w3.org/2000/svg">
  <g transform="matrix(1 0 0 1 -1994 -1307 )">
    <path d="M 1994 1330.72399859814  C 1994 1330.72399859814  1994 1312  1994 1312  C 1994 1309.23857625085  1996.23857625085 1307  1999 1307  C 1999 1307  2089 1307  2089 1307  C 2091.76142374915 1307  2094 1309.23857625085  2094 1312  C 2094 1312  2094 1330.72399859814  2094 1330.72399859814  C 2094 1333.48542234729  2091.76142374915 1335.72399859814  2089 1335.72399859814  C 2089 1335.72399859814  2052.66851629641 1335.72399859814  2052.66851629641 1335.72399859814  C 2052.66851629641 1335.72399859814  2043.57108721625 1358.85939759794  2043.57108721625 1358.85939759794  C 2043.57108721625 1358.85939759794  2032.66851629641 1335.72399859814  2032.66851629641 1335.72399859814  C 2032.66851629641 1335.72399859814  1999 1335.72399859814  1999 1335.72399859814  C 1996.23857625085 1335.72399859814  1994 1333.48542234729  1994 1330.72399859814  Z " fill-rule="nonzero" fill="#027db4" stroke="none" />
  </g>
</svg>