<?xml version="1.0" encoding="utf-8"?>
<svg version="1.1" xmlns:xlink="http://www.w3.org/1999/xlink" width="100px" height="52px" xmlns="http://www.w3.org/2000/svg">
  <g transform="matrix(1 0 0 1 -1728 -1305 )">
    <path d="M 1728 1324.80708969839  C 1728 1324.80708969839  1728 1310  1728 1310  C 1728 1307.23857625085  1730.23857625085 1305  1733 1305  C 1733 1305  1823 1305  1823 1305  C 1825.76142374915 1305  1828 1307.23857625085  1828 1310  C 1828 1310  1828 1324.80708969839  1828 1324.80708969839  C 1828 1327.56851344755  1825.76142374915 1329.80708969839  1823 1329.80708969839  C 1823 1329.80708969839  1786.66851629641 1329.80708969839  1786.66851629641 1329.80708969839  C 1786.66851629641 1329.80708969839  1777.83333333333 1356.6231884058  1777.83333333333 1356.6231884058  C 1777.83333333333 1356.6231884058  1766.66851629641 1329.80708969839  1766.66851629641 1329.80708969839  C 1766.66851629641 1329.80708969839  1733 1329.80708969839  1733 1329.80708969839  C 1730.23857625085 1329.80708969839  1728 1327.56851344755  1728 1324.80708969839  Z " fill-rule="nonzero" fill="#027db4" stroke="none" />
  </g>
</svg>