<?xml version="1.0" encoding="utf-8"?>
<svg version="1.1" xmlns:xlink="http://www.w3.org/1999/xlink" width="100px" height="44px" xmlns="http://www.w3.org/2000/svg">
  <g transform="matrix(1 0 0 1 -1939 -1235 )">
    <path d="M 1939 1258.72399859814  C 1939 1258.72399859814  1939 1240  1939 1240  C 1939 1237.23857625085  1941.23857625085 1235  1944 1235  C 1944 1235  2034 1235  2034 1235  C 2036.76142374915 1235  2039 1237.23857625085  2039 1240  C 2039 1240  2039 1258.72399859814  2039 1258.72399859814  C 2039 1261.48542234729  2036.76142374915 1263.72399859814  2034 1263.72399859814  C 2034 1263.72399859814  1997.66851629641 1263.72399859814  1997.66851629641 1263.72399859814  C 1997.66851629641 1263.72399859814  1988.92989985694 1278.77110157368  1988.92989985694 1278.77110157368  C 1988.92989985694 1278.77110157368  1977.66851629641 1263.72399859814  1977.66851629641 1263.72399859814  C 1977.66851629641 1263.72399859814  1944 1263.72399859814  1944 1263.72399859814  C 1941.23857625085 1263.72399859814  1939 1261.48542234729  1939 1258.72399859814  Z " fill-rule="nonzero" fill="#027db4" stroke="none" />
  </g>
</svg>