<?xml version="1.0" encoding="utf-8"?>
<svg version="1.1" xmlns:xlink="http://www.w3.org/1999/xlink" width="100px" height="45px" xmlns="http://www.w3.org/2000/svg">
  <g transform="matrix(1 0 0 1 -1866 -1307 )">
    <path d="M 1866 1326.80708969839  C 1866 1326.80708969839  1866 1312  1866 1312  C 1866 1309.23857625085  1868.23857625085 1307  1871 1307  C 1871 1307  1961 1307  1961 1307  C 1963.76142374915 1307  1966 1309.23857625085  1966 1312  C 1966 1312  1966 1326.80708969839  1966 1326.80708969839  C 1966 1329.56851344755  1963.76142374915 1331.80708969839  1961 1331.80708969839  C 1961 1331.80708969839  1924.66851629641 1331.80708969839  1924.66851629641 1331.80708969839  C 1924.66851629641 1331.80708969839  1913.33333333333 1351.53333333333  1913.33333333333 1351.53333333333  C 1913.33333333333 1351.53333333333  1904.66851629641 1331.80708969839  1904.66851629641 1331.80708969839  C 1904.66851629641 1331.80708969839  1871 1331.80708969839  1871 1331.80708969839  C 1868.23857625085 1331.80708969839  1866 1329.56851344755  1866 1326.80708969839  Z " fill-rule="nonzero" fill="#027db4" stroke="none" />
  </g>
</svg>