<?xml version="1.0" encoding="utf-8"?>
<svg version="1.1" xmlns:xlink="http://www.w3.org/1999/xlink" width="27px" height="27px" xmlns="http://www.w3.org/2000/svg">
  <defs>
    <filter x="1923px" y="1220px" width="27px" height="27px" filterUnits="userSpaceOnUse" id="filter375">
      <feOffset dx="1" dy="1" in="SourceAlpha" result="shadowOffsetInner" />
      <feGaussianBlur stdDeviation="2.5" in="shadowOffsetInner" result="shadowGaussian" />
      <feComposite in2="shadowGaussian" operator="atop" in="SourceAlpha" result="shadowComposite" />
      <feColorMatrix type="matrix" values="0 0 0 0 0  0 0 0 0 0  0 0 0 0 0  0 0 0 0.698039215686274 0  " in="shadowComposite" />
    </filter>
    <g id="widget376">
      <path d="M 1935.5 1224  C 1940.26 1224  1944 1227.74  1944 1232.5  C 1944 1237.26  1940.26 1241  1935.5 1241  C 1930.74 1241  1927 1237.26  1927 1232.5  C 1927 1227.74  1930.74 1224  1935.5 1224  Z " fill-rule="nonzero" fill="#ec808d" stroke="none" />
      <path d="M 1935.5 1224.5  C 1939.98 1224.5  1943.5 1228.02  1943.5 1232.5  C 1943.5 1236.98  1939.98 1240.5  1935.5 1240.5  C 1931.02 1240.5  1927.5 1236.98  1927.5 1232.5  C 1927.5 1228.02  1931.02 1224.5  1935.5 1224.5  Z " stroke-width="1" stroke="#ffffff" fill="none" />
    </g>
  </defs>
  <g transform="matrix(1 0 0 1 -1923 -1220 )">
    <use xlink:href="#widget376" filter="url(#filter375)" />
    <use xlink:href="#widget376" />
  </g>
</svg>