<?xml version="1.0" encoding="utf-8"?>
<svg version="1.1" xmlns:xlink="http://www.w3.org/1999/xlink" width="12px" height="12px" viewBox="117 430  12 12" xmlns="http://www.w3.org/2000/svg">
  <path d="M 123 430  C 126.36 430  129 432.64  129 436  C 129 439.36  126.36 442  123 442  C 119.64 442  117 439.36  117 436  C 117 432.64  119.64 430  123 430  Z " fill-rule="nonzero" fill="#ffffff" stroke="none" />
  <path d="M 123 430.5  C 126.08 430.5  128.5 432.92  128.5 436  C 128.5 439.08  126.08 441.5  123 441.5  C 119.92 441.5  117.5 439.08  117.5 436  C 117.5 432.92  119.92 430.5  123 430.5  Z " stroke-width="1" stroke="#4851a5" fill="none" />
  <path d="M 123 439  C 121.32 439  120 437.68  120 436  C 120 434.32  121.32 433  123 433  C 124.68 433  126 434.32  126 436  C 126 437.68  124.68 439  123 439  " fill-rule="nonzero" fill="#4851a5" stroke="none" />
</svg>