<?xml version="1.0" encoding="utf-8"?>
<svg version="1.1" xmlns:xlink="http://www.w3.org/1999/xlink" width="12px" height="12px" viewBox="432 197  12 12" xmlns="http://www.w3.org/2000/svg">
  <path d="M 438 197  C 441.36 197  444 199.64  444 203  C 444 206.36  441.36 209  438 209  C 434.64 209  432 206.36  432 203  C 432 199.64  434.64 197  438 197  Z " fill-rule="nonzero" fill="#ffffff" stroke="none" />
  <path d="M 438 197.5  C 441.08 197.5  443.5 199.92  443.5 203  C 443.5 206.08  441.08 208.5  438 208.5  C 434.92 208.5  432.5 206.08  432.5 203  C 432.5 199.92  434.92 197.5  438 197.5  Z " stroke-width="1" stroke="#163985" fill="none" />
  <path d="M 438 206  C 436.32 206  435 204.68  435 203  C 435 201.32  436.32 200  438 200  C 439.68 200  441 201.32  441 203  C 441 204.68  439.68 206  438 206  " fill-rule="nonzero" fill="#163985" stroke="none" />
</svg>