<?xml version="1.0" encoding="utf-8"?>
<svg version="1.1" xmlns:xlink="http://www.w3.org/1999/xlink" width="14px" height="14px" viewBox="496 589  14 14" xmlns="http://www.w3.org/2000/svg">
  <path d="M 503 589  C 506.92 589  510 592.08  510 596  C 510 599.92  506.92 603  503 603  C 499.08 603  496 599.92  496 596  C 496 592.08  499.08 589  503 589  Z " fill-rule="nonzero" fill="#ffffff" stroke="none" />
  <path d="M 503 589.5  C 506.64 589.5  509.5 592.36  509.5 596  C 509.5 599.64  506.64 602.5  503 602.5  C 499.36 602.5  496.5 599.64  496.5 596  C 496.5 592.36  499.36 589.5  503 589.5  Z " stroke-width="1" stroke="#163985" fill="none" />
  <path d="M 503 599.5  C 501.04 599.5  499.5 597.96  499.5 596  C 499.5 594.04  501.04 592.5  503 592.5  C 504.96 592.5  506.5 594.04  506.5 596  C 506.5 597.96  504.96 599.5  503 599.5  " fill-rule="nonzero" fill="#163985" stroke="none" />
</svg>