<?xml version="1.0" encoding="utf-8"?>
<svg version="1.1" xmlns:xlink="http://www.w3.org/1999/xlink" width="14px" height="14px" viewBox="420 628  14 14" xmlns="http://www.w3.org/2000/svg">
  <path d="M 427 628  C 430.92 628  434 631.08  434 635  C 434 638.92  430.92 642  427 642  C 423.08 642  420 638.92  420 635  C 420 631.08  423.08 628  427 628  Z " fill-rule="nonzero" fill="#ffffff" stroke="none" />
  <path d="M 427 628.5  C 430.64 628.5  433.5 631.36  433.5 635  C 433.5 638.64  430.64 641.5  427 641.5  C 423.36 641.5  420.5 638.64  420.5 635  C 420.5 631.36  423.36 628.5  427 628.5  Z " stroke-width="1" stroke="#163985" fill="none" />
  <path d="M 427 638.5  C 425.04 638.5  423.5 636.96  423.5 635  C 423.5 633.04  425.04 631.5  427 631.5  C 428.96 631.5  430.5 633.04  430.5 635  C 430.5 636.96  428.96 638.5  427 638.5  " fill-rule="nonzero" fill="#163985" stroke="none" />
</svg>