<?xml version="1.0" encoding="utf-8"?>
<svg version="1.1" xmlns:xlink="http://www.w3.org/1999/xlink" width="14px" height="14px" viewBox="584 628  14 14" xmlns="http://www.w3.org/2000/svg">
  <path d="M 591 628  C 594.92 628  598 631.08  598 635  C 598 638.92  594.92 642  591 642  C 587.08 642  584 638.92  584 635  C 584 631.08  587.08 628  591 628  Z " fill-rule="nonzero" fill="#ffffff" stroke="none" />
  <path d="M 591 628.5  C 594.64 628.5  597.5 631.36  597.5 635  C 597.5 638.64  594.64 641.5  591 641.5  C 587.36 641.5  584.5 638.64  584.5 635  C 584.5 631.36  587.36 628.5  591 628.5  Z " stroke-width="1" stroke="#163985" fill="none" />
  <path d="M 591 638.5  C 589.04 638.5  587.5 636.96  587.5 635  C 587.5 633.04  589.04 631.5  591 631.5  C 592.96 631.5  594.5 633.04  594.5 635  C 594.5 636.96  592.96 638.5  591 638.5  " fill-rule="nonzero" fill="#163985" stroke="none" />
</svg>