<?xml version="1.0" encoding="utf-8"?>
<svg version="1.1" xmlns:xlink="http://www.w3.org/1999/xlink" width="28px" height="28px" xmlns="http://www.w3.org/2000/svg">
  <g transform="matrix(1 0 0 1 -651 -130 )">
    <path d="M 665 131  C 672.28 131  678 136.72  678 144  C 678 151.28  672.28 157  665 157  C 657.72 157  652 151.28  652 144  C 652 136.72  657.72 131  665 131  Z " fill-rule="nonzero" fill="#4851a5" stroke="none" />
    <path d="M 665 131  C 672.28 131  678 136.72  678 144  C 678 151.28  672.28 157  665 157  C 657.72 157  652 151.28  652 144  C 652 136.72  657.72 131  665 131  Z " stroke-width="2" stroke="#4851a5" fill="none" />
  </g>
</svg>