<?xml version="1.0" encoding="utf-8"?>
<svg version="1.1" xmlns:xlink="http://www.w3.org/1999/xlink" width="12px" height="12px" viewBox="320 164  12 12" xmlns="http://www.w3.org/2000/svg">
  <path d="M 326 164  C 329.36 164  332 166.64  332 170  C 332 173.36  329.36 176  326 176  C 322.64 176  320 173.36  320 170  C 320 166.64  322.64 164  326 164  Z " fill-rule="nonzero" fill="#ffffff" stroke="none" />
  <path d="M 326 164.5  C 329.08 164.5  331.5 166.92  331.5 170  C 331.5 173.08  329.08 175.5  326 175.5  C 322.92 175.5  320.5 173.08  320.5 170  C 320.5 166.92  322.92 164.5  326 164.5  Z " stroke-width="1" stroke="#6271ff" fill="none" />
  <path d="M 326 173  C 324.32 173  323 171.68  323 170  C 323 168.32  324.32 167  326 167  C 327.68 167  329 168.32  329 170  C 329 171.68  327.68 173  326 173  " fill-rule="nonzero" fill="#6271ff" stroke="none" />
</svg>