<?xml version="1.0" encoding="utf-8"?>
<svg version="1.1" xmlns:xlink="http://www.w3.org/1999/xlink" width="12px" height="12px" viewBox="838 164  12 12" xmlns="http://www.w3.org/2000/svg">
  <path d="M 844 164  C 847.36 164  850 166.64  850 170  C 850 173.36  847.36 176  844 176  C 840.64 176  838 173.36  838 170  C 838 166.64  840.64 164  844 164  Z " fill-rule="nonzero" fill="#f0f0f0" stroke="none" />
  <path d="M 844 164.5  C 847.08 164.5  849.5 166.92  849.5 170  C 849.5 173.08  847.08 175.5  844 175.5  C 840.92 175.5  838.5 173.08  838.5 170  C 838.5 166.92  840.92 164.5  844 164.5  Z " stroke-width="1" stroke="#6271ff" fill="none" />
  <path d="M 844 173  C 842.32 173  841 171.68  841 170  C 841 168.32  842.32 167  844 167  C 845.68 167  847 168.32  847 170  C 847 171.68  845.68 173  844 173  " fill-rule="nonzero" fill="#6271ff" stroke="none" />
</svg>