<?xml version="1.0" encoding="utf-8"?>
<svg version="1.1" xmlns:xlink="http://www.w3.org/1999/xlink" width="18px" height="16px" xmlns="http://www.w3.org/2000/svg">
  <g transform="matrix(1 0 0 1 -366 -296 )">
    <path d="M 0.190848214285715 5.31  C 0.063616071428571 5.43666666666667  0 5.58666666666667  0 5.76  C 0 5.93333333333333  0.063616071428571 6.08333333333333  0.190848214285715 6.21  L 5.33370535714286 11.33  C 5.4609375 11.4566666666667  5.61160714285714 11.52  5.78571428571428 11.52  C 5.95982142857143 11.52  6.11049107142857 11.4566666666667  6.23772321428572 11.33  C 6.36495535714286 11.2033333333333  6.42857142857143 11.0533333333333  6.42857142857143 10.88  L 6.42857142857143 8.32  L 8.67857142857143 8.32  C 9.33482142857143 8.32  9.92243303571428 8.34  10.44140625 8.38  C 10.9603794642857 8.42  11.4760044642857 8.49166666666667  11.98828125 8.595  C 12.5005580357143 8.69833333333333  12.9458705357143 8.84  13.32421875 9.02  C 13.7025669642857 9.2  14.0558035714286 9.43166666666667  14.3839285714286 9.715  C 14.7120535714286 9.99833333333333  14.9799107142857 10.335  15.1875 10.725  C 15.3950892857143 11.115  15.5574776785714 11.5766666666667  15.6746651785714 12.11  C 15.7918526785714 12.6433333333333  15.8504464285714 13.2466666666667  15.8504464285714 13.92  C 15.8504464285714 14.2866666666667  15.8337053571429 14.6966666666667  15.8002232142857 15.15  C 15.8002232142857 15.19  15.7918526785714 15.2683333333333  15.7751116071429 15.385  C 15.7583705357143 15.5016666666667  15.75 15.59  15.75 15.65  C 15.75 15.75  15.7784598214286 15.8333333333333  15.8353794642857 15.9  C 15.8922991071429 15.9666666666667  15.9709821428571 16  16.0714285714286 16  C 16.1785714285714 16  16.2723214285714 15.9433333333333  16.3526785714286 15.83  C 16.3995535714286 15.77  16.4430803571429 15.6966666666667  16.4832589285714 15.61  C 16.5234375 15.5233333333333  16.5686383928571 15.4233333333333  16.6188616071429 15.31  C 16.6690848214286 15.1966666666667  16.7042410714286 15.1166666666667  16.7243303571429 15.07  C 17.5747767857143 13.17  18 11.6666666666667  18 10.56  C 18 9.23333333333333  17.8225446428571 8.12333333333333  17.4676339285714 7.23  C 16.3828125 4.54333333333333  13.453125 3.2  8.67857142857143 3.2  L 6.42857142857143 3.2  L 6.42857142857143 0.640000000000001  C 6.42857142857143 0.466666666666665  6.36495535714286 0.316666666666665  6.23772321428572 0.19  C 6.11049107142857 0.0633333333333326  5.95982142857143 0  5.78571428571428 0  C 5.61160714285714 0  5.4609375 0.0633333333333326  5.33370535714286 0.19  L 0.190848214285715 5.31  Z " fill-rule="nonzero" fill="#dddddd" stroke="none" transform="matrix(1 0 0 1 366 296 )" />
  </g>
</svg>