<?xml version="1.0" encoding="utf-8"?>
<svg version="1.1" xmlns:xlink="http://www.w3.org/1999/xlink" width="2px" height="8px" xmlns="http://www.w3.org/2000/svg">
  <g transform="matrix(1 0 0 1 -380 -183 )">
    <path d="M 1.77904761904762 6.64446153877706  C 1.56428571428572 7.89538461540896  1.295 8  1.03738095238095 8  C 0.779761904761905 8  0.510238095238094 7.89538461540897  0.295714285714287 6.64446153877706  C 0.160000000000001 5.85323076973046  0.0850000000000012 4.80246153920581  0.0850000000000012 3.68569230869652  C 0.0850000000000012 2.336307693626  0.194047619047618 0.875538463196784  0.350000000000001 0.133076924908064  C 0.366190476190479 0.0569230787719431  0.467142857142857 0  0.586190476190476 0  L 1.48880952380953 0  C 1.60789829578177 -1.18791598193675E-05  1.70868492177352 0.0568316840075803  1.72476190476191 0.133076924908064  C 1.88071428571429 0.875538463196783  1.98976190476191 2.336307693626  1.98976190476191 3.68569230869652  C 1.98976190476191 4.80246153920581  1.915 5.85323076973046  1.77904761904762 6.64446153877706  Z M 1.27880952380952 0.307692309482804  L 0.79595238095238 0.307692309482804  C 0.65642857142857 1.07076923238211  0.561190476190475 2.42569230898981  0.561190476190475 3.68569230869652  C 0.561190476190475 5.77569230821005  0.815 7.17923076942181  1.03738095238095 7.59661538470928  C 1.2597619047619 7.179076923268  1.51357142857143 5.77569230821005  1.51357142857143 3.68569230869652  C 1.51357142857143 2.42569230898981  1.41833333333333 1.07076923238211  1.27880952380952 0.307692309482804  Z " fill-rule="nonzero" fill="#dddddd" stroke="none" transform="matrix(1 0 0 1 380 183 )" />
  </g>
</svg>