<?xml version="1.0" encoding="utf-8"?>
<svg version="1.1" xmlns:xlink="http://www.w3.org/1999/xlink" width="7px" height="9px" xmlns="http://www.w3.org/2000/svg">
  <g transform="matrix(1 0 0 1 -370 -180 )">
    <path d="M 2.15104166666667 0.78126923076923  L 1.56296875 1.19007692307692  C 1.40688033734089 0.987899796798057  1.19613063998021 0.829544952371719  0.953020833333334 0.731769230769231  L 1.23703125 0.0938076923076926  C 1.60150800419348 0.240372731856871  1.91736308255384 0.4779391907736  2.15104166666667 0.78126923076923  Z M 7 3.04615384615385  C 7 4.0005  6.18223958333333 4.77692307692308  5.17708333333333 4.77692307692308  C 4.17192708333333 4.77692307692308  3.35416666666667 4.0005  3.35416666666667 3.04615384615385  C 3.35416666666667 2.09180769230769  4.17192708333333 1.31538461538462  5.17708333333333 1.31538461538462  C 6.18223958333333 1.31538461538462  7 2.09180769230769  7 3.04615384615385  Z M 6.27083333333333 3.04615384615385  C 6.27083333333333 2.47361538461539  5.78010416666667 2.00769230769231  5.17708333333333 2.00769230769231  C 4.5740625 2.00769230769231  4.08333333333333 2.47361538461539  4.08333333333333 3.04615384615385  C 4.08333333333333 3.61869230769231  4.5740625 4.08461538461538  5.17708333333333 4.08461538461538  C 5.78010416666667 4.08461538461538  6.27083333333333 3.61869230769231  6.27083333333333 3.04615384615385  Z M 4.44791666666667 6.85384615384616  C 4.44791666666667 7.99926923076923  3.46682291666667 8.93076923076923  2.26041666666667 8.93076923076923  C 1.05401041666667 8.93076923076923  0.0729166666666667 7.99926923076923  0.0729166666666667 6.85384615384616  C 0.0729166666666667 5.70842307692308  1.05401041666667 4.77692307692308  2.26041666666667 4.77692307692308  C 3.46682291666667 4.77692307692308  4.44791666666667 5.70842307692308  4.44791666666667 6.85384615384616  Z M 3.71875 6.85384615384616  C 3.71875 6.09023076923077  3.0646875 5.46923076923077  2.26041666666667 5.46923076923077  C 1.45614583333333 5.46923076923077  0.802083333333334 6.09023076923077  0.802083333333334 6.85384615384616  C 0.802083333333334 7.61746153846154  1.45614583333333 8.23846153846154  2.26041666666667 8.23846153846154  C 3.0646875 8.23846153846154  3.71875 7.61746153846154  3.71875 6.85384615384616  Z " fill-rule="nonzero" fill="#dddddd" stroke="none" transform="matrix(1 0 0 1 370 180 )" />
  </g>
</svg>