<?xml version="1.0" encoding="utf-8"?>
<svg version="1.1" xmlns:xlink="http://www.w3.org/1999/xlink" width="17px" height="17px" xmlns="http://www.w3.org/2000/svg">
  <g transform="matrix(1 0 0 1 -366 -175 )">
    <path d="M 8.82243801652893 16.9858333333333  C 8.71530991735537 16.9929166666667  8.60888429752066 17  8.5 17  C 3.85204545454545 17  0.070247933884298 13.1866875  0.070247933884298 8.5  C 0.070247933884298 3.8133125  3.85204545454545 0  8.5 0  C 9.25762396694215 0  10.0089256198347 0.101291666666667  10.732479338843 0.301395833333334  L 10.546673553719 0.984583333333334  C 9.87975962055447 0.800679292310049  9.19140282521894 0.707768254120347  8.5 0.708333333333333  C 4.23911157024793 0.708333333333333  0.772727272727273 4.20360416666667  0.772727272727273 8.5  C 0.772727272727273 12.7963958333333  4.23911157024793 16.2916666666667  8.5 16.2916666666667  L 8.54952479338843 16.2913125  C 8.53898760330579 16.1443333333333  8.53371900826446 16.0047916666667  8.53371900826446 15.8702083333333  C 8.53371900826446 12.25275  11.452520661157 9.309625  15.0397314049587 9.309625  C 15.4085330578512 9.309625  15.7864669421488 9.3446875  16.1672107438017 9.41339583333333  C 16.2072520661157 9.09110416666667  16.2272727272727 8.7900625  16.2272727272727 8.5  C 16.2272727272727 5.769375  14.8476033057851 3.28489583333333  12.5364462809917 1.85441666666667  L 12.904194214876 1.25091666666667  C 15.425041322314 2.81102083333333  16.9297520661157 5.52110416666667  16.9297520661157 8.5  C 16.9297520661157 8.93597916666667  16.8897107438017 9.3925  16.8068181818182 9.89470833333334  C 16.7791596214355 10.0656967085239  16.632668750743 10.1912677465057  16.4608526841532 10.1912677465057  C 16.4334059616212 10.1912677465057  16.4060542132693 10.1880173440553  16.3793595041322 10.1815833333333  C 15.9405895017049 10.0750586678029  15.491036258492 10.0202681384819  15.0397314049587 10.0183125  C 11.8395867768595 10.0183125  9.23619834710744 12.64375  9.23619834710744 15.8705625  C 9.23619834710744 16.0855416666667  9.25165289256198 16.3182291666667  9.28361570247934 16.581375  C 9.28531730049951 16.5955230526701  9.28617042644969 16.6097617716507  9.28617042644969 16.6240134834256  C 9.28617042644969 16.8123575235938  9.13997806744802 16.9677567684399  8.95345041322314 16.9776875  L 8.82243801652893 16.9858333333333  Z " fill-rule="nonzero" fill="#dddddd" stroke="none" transform="matrix(1 0 0 1 366 175 )" />
  </g>
</svg>