<?xml version="1.0" encoding="utf-8"?>
<svg version="1.1" xmlns:xlink="http://www.w3.org/1999/xlink" width="14px" height="14px" xmlns="http://www.w3.org/2000/svg">
  <g transform="matrix(1 0 0 1 -66 -171 )">
    <path d="M 13.805859375 13.0093567251462  C 14.062890625 12.7528265107212  14.062890625 12.3380116959064  13.80859375 12.0814814814815  L 11.082421875 9.36062378167641  C 10.959375 9.23781676413255  10.792578125 9.16959064327485  10.617578125 9.16959064327485  L 10.171875 9.16959064327485  C 10.9265625 8.20623781676413  11.375 6.99454191033138  11.375 5.67641325536062  C 11.375 2.54074074074074  8.829296875 0  5.6875 0  C 2.545703125 0  0 2.54074074074074  0 5.67641325536062  C 0 8.81208576998051  2.545703125 11.3528265107212  5.6875 11.3528265107212  C 7.008203125 11.3528265107212  8.222265625 10.9052631578947  9.1875 10.1520467836257  L 9.1875 10.5968810916179  C 9.1875 10.7715399610136  9.255859375 10.9380116959064  9.37890625 11.0608187134503  L 12.105078125 13.7816764132554  C 12.362109375 14.0382066276803  12.777734375 14.0382066276803  13.03203125 13.7816764132554  L 13.805859375 13.0093567251462  Z M 9.1875 5.67641325536062  C 9.1875 7.60584795321637  7.6234375 9.16959064327485  5.6875 9.16959064327485  C 3.754296875 9.16959064327485  2.1875 7.60857699805068  2.1875 5.67641325536062  C 2.1875 3.74697855750487  3.7515625 2.18323586744639  5.6875 2.18323586744639  C 7.620703125 2.18323586744639  9.1875 3.74424951267057  9.1875 5.67641325536062  Z " fill-rule="nonzero" fill="#666666" stroke="none" transform="matrix(1 0 0 1 66 171 )" />
  </g>
</svg>