<?xml version="1.0" encoding="utf-8"?>
<svg version="1.1" xmlns:xlink="http://www.w3.org/1999/xlink" width="16px" height="16px" xmlns="http://www.w3.org/2000/svg">
  <g transform="matrix(1 0 0 1 -50 -217 )">
    <path d="M 8 0  C 12.4179677419355 0  16 3.58332258064516  16 8  C 16 12.4192580645161  12.4179677419355 16  8 16  C 3.58203225806452 16  0 12.4192580645161  0 8  C 0 3.58332258064516  3.58203225806452 0  8 0  Z M 9.48387096774194 11.0967741935484  C 9.48387096774194 10.2772580645161  8.81951612903226 9.61290322580645  8 9.61290322580645  C 7.18048387096774 9.61290322580645  6.51612903225806 10.2772580645161  6.51612903225806 11.0967741935484  C 6.51612903225806 11.9162903225806  7.18048387096774 12.5806451612903  8 12.5806451612903  C 8.81951612903226 12.5806451612903  9.48387096774194 11.9162903225806  9.48387096774194 11.0967741935484  Z M 6.97767741935484 3.87096774193548  C 6.75561290322581 3.87096774193548  6.57909677419355 4.05741935483871  6.5911935483871 4.27916129032258  L 6.83048387096774 8.66625806451613  C 6.84167741935484 8.87154838709677  7.01141935483871 9.03225806451613  7.217 9.03225806451613  L 8.783 9.03225806451613  C 8.98858064516129 9.03225806451613  9.15832258064516 8.87154838709677  9.16951612903226 8.66625806451613  L 9.4088064516129 4.27916129032258  C 9.42090322580645 4.05741935483871  9.24435483870968 3.87096774193548  9.02229032258065 3.87096774193548  L 6.97767741935484 3.87096774193548  Z " fill-rule="nonzero" fill="#6271ff" stroke="none" transform="matrix(1 0 0 1 50 217 )" />
  </g>
</svg>