<?xml version="1.0" encoding="utf-8"?>
<svg version="1.1" xmlns:xlink="http://www.w3.org/1999/xlink" width="24px" height="30px" xmlns="http://www.w3.org/2000/svg">
  <g transform="matrix(1 0 0 1 -10 -8 )">
    <path d="M 24 30  C 24 21.25  16.4210526315789 23.75  15.1578947368421 20  L 15.1578947368421 17.5  C 15.7263157894737 17.22125  17.352 15.30625  17.5225263157895 13.81  C 17.9696842105263 13.77625  18.672 13.37  18.8791578947368 11.76625  C 18.9903157894737 10.905  18.5482105263158 10.42125  18.2804210526316 10.26875  C 18.2804210526316 10.26875  18.9473684210526 9.015  18.9473684210526 7.50125  C 18.9473684210526 4.46625  17.7435789473684 1.87625  15.1578947368421 1.87625  C 15.1578947368421 1.87625  14.6854736842105 0.00124999999999931  12 0.00124999999999931  C 7.5941052631579 0  5.05263157894737 3.40125  5.05263157894737 7.5  C 5.05263157894737 8.88  5.71957894736842 10.2675  5.71957894736842 10.2675  C 5.45178947368421 10.42  5.00968421052632 10.905  5.12084210526316 11.765  C 5.328 13.36875  6.03031578947369 13.775  6.47747368421053 13.80875  C 6.648 15.30625  8.27368421052632 17.22125  8.84210526315789 17.5  L 8.84210526315789 20  C 7.57894736842105 23.75  0 21.25  0 30  L 24 30  Z " fill-rule="nonzero" fill="#999999" stroke="none" transform="matrix(1 0 0 1 10 8 )" />
  </g>
</svg>