<?xml version="1.0" encoding="utf-8"?>
<svg version="1.1" xmlns:xlink="http://www.w3.org/1999/xlink" width="21px" height="30px" xmlns="http://www.w3.org/2000/svg">
  <g transform="matrix(1 0 0 1 -11 -80 )">
    <path d="M 21 30  L 0 30  C 0 23.4782608695652  6.5625 24.7826086956522  7.875 21.2517391304348  L 7.875 19.5886956521739  C 3.1224375 19.5886956521739  1.803375 17.6439130434783  1.803375 17.6439130434783  C 4.286625 15.5908695652174  -0.409499999999999 1.30434782608696  8.045625 1.30434782608696  C 8.045625 1.30434782608696  9.1875 0  10.66275 0  C 21 0  16.335375 15.5126086956522  19.0089375 17.6934782608696  C 19.0089375 17.6934782608696  17.9011875 19.5717391304348  13.125 19.5717391304348  L 13.125 21.2517391304348  C 14.4375 24.7826086956522  21 23.4782608695652  21 30  Z " fill-rule="nonzero" fill="#999999" stroke="none" transform="matrix(1 0 0 1 11 80 )" />
  </g>
</svg>