<?xml version="1.0" encoding="utf-8"?>
<svg version="1.1" xmlns:xlink="http://www.w3.org/1999/xlink" width="13px" height="13px" xmlns="http://www.w3.org/2000/svg">
  <g transform="matrix(1 0 0 1 -216 -261 )">
    <path d="M 5.85302734375 3.06982421875  C 5.85127830377657 4.60621980110678  4.60621980110678 5.85127830377657  3.06982421875 5.85302734375  C 1.53270357713109 5.85302734375  0.286621093749998 4.60694486036891  0.286621093749998 3.06982421875  C 0.286621093749998 1.53270357713109  1.53270357713109 0.286621093749998  3.06982421875 0.286621093749998  C 4.60694486036891 0.286621093749998  5.85302734375 1.53270357713109  5.85302734375 3.06982421875  Z M 4.63232421875 3.06982421875  C 4.63138234420359 2.20726973558788  3.93237870191212 1.50826609329641  3.06982421875 1.50732421875  C 2.20687929713939 1.50732421875  1.50732421875 2.20687929713939  1.50732421875 3.06982421875  C 1.50732421875 3.93276914036061  2.20687929713939 4.63232421875  3.06982421875 4.63232421875  C 3.93276914036061 4.63232421875  4.63232421875 3.93276914036061  4.63232421875 3.06982421875  Z M 12.10302734375 2.43505859375  L 7.85498046875 2.43505859375  C 7.51789260874586 2.43505859375  7.24462890625 2.16179489125415  7.24462890625 1.82470703125  C 7.24462890625 1.48761917124585  7.51789260874586 1.21435546875  7.85498046875 1.21435546875  L 12.10302734375 1.21435546875  C 12.4401152037541 1.21435546875  12.71337890625 1.48761917124585  12.71337890625 1.82470703125  C 12.71337890625 2.16179489125415  12.4401152037541 2.43505859375  12.10302734375 2.43505859375  Z M 12.10302734375 4.92529296875  L 7.85498046875 4.92529296875  C 7.51789260874586 4.92529296875  7.24462890625 4.65202926625415  7.24462890625 4.31494140625  C 7.24462890625 3.97785354624585  7.51789260874586 3.70458984375  7.85498046875 3.70458984375  L 12.10302734375 3.70458984375  C 12.4401152037541 3.70458984375  12.71337890625 3.97785354624585  12.71337890625 4.31494140625  C 12.71337890625 4.65202926625415  12.4401152037541 4.92529296875  12.10302734375 4.92529296875  Z M 5.85302734375 9.93017578125  C 5.85127830377657 11.4665713636068  4.60621980110678 12.7116298662766  3.06982421875 12.71337890625  C 1.53270357713109 12.71337890625  0.286621093749998 11.4672964228689  0.286621093749998 9.93017578125  C 0.286621093749998 8.39305513963109  1.53270357713109 7.14697265625  3.06982421875 7.14697265625  C 4.60694486036891 7.14697265625  5.85302734375 8.39305513963109  5.85302734375 9.93017578125  Z M 4.63232421875 9.93017578125  C 4.6313823442036 9.06762129808788  3.93237870191212 8.36861765579641  3.06982421875 8.36767578125  C 2.20687929713939 8.36767578125  1.50732421875 9.06723085963939  1.50732421875 9.93017578125  C 1.50732421875 10.7931207028606  2.20687929713939 11.49267578125  3.06982421875 11.49267578125  C 3.93276914036061 11.49267578125  4.63232421875 10.7931207028606  4.63232421875 9.93017578125  Z M 12.10302734375 9.29541015625  L 7.85498046875 9.29541015625  C 7.51789260874586 9.29541015625  7.24462890625 9.02214645375415  7.24462890625 8.68505859375  C 7.24462890625 8.34797073374585  7.51789260874585 8.07470703125  7.85498046875 8.07470703125  L 12.10302734375 8.07470703125  C 12.4401152037541 8.07470703125  12.71337890625 8.34797073374586  12.71337890625 8.68505859375  C 12.71337890625 9.02214645375415  12.4401152037541 9.29541015625  12.10302734375 9.29541015625  Z M 12.10302734375 11.78564453125  L 7.85498046875 11.78564453125  C 7.51789260874586 11.78564453125  7.24462890625 11.5123808287541  7.24462890625 11.17529296875  C 7.24462890625 10.8382051087459  7.51789260874586 10.56494140625  7.85498046875 10.56494140625  L 12.10302734375 10.56494140625  C 12.4401152037541 10.56494140625  12.71337890625 10.8382051087459  12.71337890625 11.17529296875  C 12.71337890625 11.5123808287541  12.4401152037541 11.78564453125  12.10302734375 11.78564453125  Z " fill-rule="nonzero" fill="#ffffff" stroke="none" transform="matrix(1 0 0 1 216 261 )" />
  </g>
</svg>