<?xml version="1.0" encoding="utf-8"?>
<svg version="1.1" xmlns:xlink="http://www.w3.org/1999/xlink" width="22px" height="22px" xmlns="http://www.w3.org/2000/svg">
  <g transform="matrix(1 0 0 1 -163 -820 )">
    <path d="M 1.57142857142857 6.875  L 0.589285714285715 6.875  C 0.265178571428569 6.875  0 6.64296875  0 6.359375  L 0 4.640625  C 0 4.35703125  0.265178571428569 4.125  0.589285714285715 4.125  L 1.57142857142857 4.125  L 1.57142857142857 2.0625  C 1.57142857142857 0.923828125  2.62723214285714 0  3.92857142857143 0  L 19.6428571428571 0  C 20.9441964285714 0  22 0.923828125  22 2.0625  L 22 19.9375  C 22 21.076171875  20.9441964285714 22  19.6428571428571 22  L 3.92857142857143 22  C 2.62723214285714 22  1.57142857142857 21.076171875  1.57142857142857 19.9375  L 1.57142857142857 17.875  L 0.589285714285715 17.875  C 0.265178571428569 17.875  0 17.64296875  0 17.359375  L 0 15.640625  C 0 15.35703125  0.265178571428569 15.125  0.589285714285715 15.125  L 1.57142857142857 15.125  L 1.57142857142857 12.375  L 0.589285714285715 12.375  C 0.265178571428569 12.375  0 12.14296875  0 11.859375  L 0 10.140625  C 0 9.85703125  0.265178571428569 9.625  0.589285714285715 9.625  L 1.57142857142857 9.625  L 1.57142857142857 6.875  Z M 4 2  L 4 20  L 19.6428571428571 20  L 19.6428571428571 2  L 4 2  Z M 14.9285714285714 8.25  C 14.9285714285714 9.766796875  13.5191964285714 11  11.7857142857143 11  C 10.0522321428571 11  8.64285714285714 9.766796875  8.64285714285714 8.25  C 8.64285714285714 6.733203125  10.0522321428571 5.5  11.7857142857143 5.5  C 13.5191964285714 5.5  14.9285714285714 6.733203125  14.9285714285714 8.25  Z M 17.2857142857143 15.675  C 17.2857142857143 16.13046875  16.7946428571429 16.5  16.1857142857143 16.5  L 7.38571428571428 16.5  C 6.77678571428571 16.5  6.28571428571429 16.13046875  6.28571428571429 15.675  L 6.28571428571429 14.85  C 6.28571428571429 13.48359375  7.76383928571429 12.375  9.58571428571429 12.375  C 10.1160714285714 12.375  10.5040178571429 12.71875  11.7857142857143 12.71875  C 13.1066964285714 12.71875  13.4258928571429 12.375  13.9857142857143 12.375  C 15.8075892857143 12.375  17.2857142857143 13.48359375  17.2857142857143 14.85  L 17.2857142857143 15.675  Z " fill-rule="nonzero" fill="#999999" stroke="none" transform="matrix(1 0 0 1 163 820 )" />
  </g>
</svg>