<?xml version="1.0" encoding="utf-8"?>
<svg version="1.1" xmlns:xlink="http://www.w3.org/1999/xlink" width="22px" height="22px" xmlns="http://www.w3.org/2000/svg">
  <g transform="matrix(1 0 0 1 -258 -820 )">
    <path d="M 22 2.2  C 22 0.99  21.01 0  19.8 0  L 2.2 0  C 0.99 0  0.0109999999999998 0.99  0 2.2  L 0 22  L 4.4 17.6  L 19.8 17.6  C 21.01 17.6  22 16.61  22 15.4  L 22 2.2  Z M 4.4 10  L 4.4 8  L 17.6 8  L 17.6 10  L 4.4 10  Z M 13.2 11  L 13.2 13.2  L 4.4 13.2  L 4.4 11  L 13.2 11  Z M 17.6 4.4  L 17.6 7  L 4.4 7  L 4.4 4.4  L 17.6 4.4  Z " fill-rule="nonzero" fill="#6271ff" stroke="none" transform="matrix(1 0 0 1 258 820 )" />
  </g>
</svg>