<?xml version="1.0" encoding="utf-8"?>
<svg version="1.1" xmlns:xlink="http://www.w3.org/1999/xlink" width="22px" height="22px" xmlns="http://www.w3.org/2000/svg">
  <g transform="matrix(1 0 0 1 -69 -820 )">
    <path d="M 22 2.2  C 22 0.99  21.1 0  20 0  L 2 0  C 0.9 0  0 0.99  0 2.2  L 0 15.4  C 0 16.61  0.9 17.6  2 17.6  L 9 17.6  L 9 19.8  L 7 19.8  L 7 22  L 15 22  L 15 19.8  L 13 19.8  L 13 17.6  L 20 17.6  C 21.1 17.6  22 16.61  22 15.4  L 22 2.2  Z M 20 2.2  L 20 15  L 2 15  L 2 2.2  L 20 2.2  Z " fill-rule="nonzero" fill="#999999" stroke="none" transform="matrix(1 0 0 1 69 820 )" />
  </g>
</svg>