<?xml version="1.0" encoding="utf-8"?>
<svg version="1.1" xmlns:xlink="http://www.w3.org/1999/xlink" width="20px" height="22px" xmlns="http://www.w3.org/2000/svg">
  <g transform="matrix(1 0 0 1 -353 -820 )">
    <path d="M 19.9502840909091 16.8079427083333  C 19.983428030303 17.2901475694444  20 17.7842881944444  20 18.2903645833333  C 20 19.4361979166667  19.6543560606061 20.3409288194444  18.9630681818182 21.0045572916667  C 18.2717803030303 21.6681857638889  17.3532196969697 22  16.2073863636364 22  L 3.79261363636364 22  C 2.6467803030303 22  1.7282196969697 21.6681857638889  1.03693181818182 21.0045572916667  C 0.345643939393939 20.3409288194444  0 19.4361979166667  0 18.2903645833333  C 0 17.7842881944444  0.0165719696969697 17.2901475694444  0.0497159090909091 16.8079427083333  C 0.0828598484848485 16.3257378472222  0.149147727272727 15.8053385416667  0.248579545454545 15.2467447916667  C 0.348011363636364 14.6881510416667  0.473484848484849 14.1701388888889  0.625 13.6927083333333  C 0.776515151515151 13.2152777777778  0.980113636363636 12.7497829861111  1.23579545454545 12.2962239583333  C 1.49147727272727 11.8426649305556  1.78503787878788 11.4559461805556  2.11647727272727 11.1360677083333  C 2.44791666666667 10.8161892361111  2.85274621212121 10.5607638888889  3.33096590909091 10.3697916666667  C 3.80918560606061 10.1788194444444  4.33712121212121 10.0833333333333  4.91477272727273 10.0833333333333  C 5 10.0833333333333  5.19886363636364 10.1859809027778  5.51136363636364 10.3912760416667  C 5.82386363636364 10.5965711805556  6.17660984848485 10.8257378472222  6.56960227272727 11.0787760416667  C 6.9625946969697 11.3318142361111  7.47395833333333 11.5609809027778  8.10369318181818 11.7662760416667  C 8.73342803030303 11.9715711805556  9.3655303030303 12.07421875  10 12.07421875  C 10.6344696969697 12.07421875  11.266571969697 11.9715711805556  11.8963068181818 11.7662760416667  C 12.5260416666667 11.5609809027778  13.0374053030303 11.3318142361111  13.4303977272727 11.0787760416667  C 13.8233901515152 10.8257378472222  14.1761363636364 10.5965711805556  14.4886363636364 10.3912760416667  C 14.8011363636364 10.1859809027778  15 10.0833333333333  15.0852272727273 10.0833333333333  C 15.6628787878788 10.0833333333333  16.1908143939394 10.1788194444444  16.6690340909091 10.3697916666667  C 17.1472537878788 10.5607638888889  17.5520833333333 10.8161892361111  17.8835227272727 11.1360677083333  C 18.2149621212121 11.4559461805556  18.5085227272727 11.8426649305556  18.7642045454545 12.2962239583333  C 19.0198863636364 12.7497829861111  19.2234848484849 13.2152777777778  19.375 13.6927083333333  C 19.5265151515152 14.1701388888889  19.6519886363636 14.6881510416667  19.7514204545455 15.2467447916667  C 19.8508522727273 15.8053385416667  19.9171401515152 16.3257378472222  19.9502840909091 16.8079427083333  Z M 13.8565340909091 1.611328125  C 14.921875 2.685546875  15.4545454545455 3.98177083333333  15.4545454545455 5.5  C 15.4545454545455 7.01822916666667  14.921875 8.314453125  13.8565340909091 9.388671875  C 12.7911931818182 10.462890625  11.5056818181818 11  10 11  C 8.49431818181818 11  7.20880681818182 10.462890625  6.14346590909091 9.388671875  C 5.078125 8.314453125  4.54545454545455 7.01822916666667  4.54545454545455 5.5  C 4.54545454545455 3.98177083333333  5.078125 2.685546875  6.14346590909091 1.611328125  C 7.20880681818182 0.537109375  8.49431818181818 0  10 0  C 11.5056818181818 0  12.7911931818182 0.537109375  13.8565340909091 1.611328125  Z " fill-rule="nonzero" fill="#6271ff" stroke="none" transform="matrix(1 0 0 1 353 820 )" />
  </g>
</svg>