<?xml version="1.0" encoding="utf-8"?>
<svg version="1.1" xmlns:xlink="http://www.w3.org/1999/xlink" width="40px" height="40px" xmlns="http://www.w3.org/2000/svg">
  <defs>
    <linearGradient gradientUnits="userSpaceOnUse" x1="20" y1="5.55111512312578E-16" x2="20" y2="40" id="LinearGradient453">
      <stop id="Stop454" stop-color="#ffd65d" offset="0" />
      <stop id="Stop455" stop-color="#ffad30" offset="1" />
    </linearGradient>
  </defs>
  <g transform="matrix(1 0 0 1 -138 -247 )">
    <path d="M 0 20  C 0 8.954305  8.954305 0  20 0  C 31.045695 0  40 8.954305  40 20  C 40 31.045695  31.045695 40  20 40  C 8.954305 40  0 31.045695  0 20  Z M 18.2118897 29.656379  C 21.0753214 28.4018415  22.8707136 26.9335062  23.5630116 25.204643  C 24.6063425 22.5991518  22.5137754 20.7450476  20.4171981 21.5980259  C 19.5305067 21.9587703  19.0758849 22.5416502  18.795804 23.4503384  C 18.6894382 23.795429  18.5965103 24.1598895  18.509084 24.5730236  L 18.4123356 25.0506383  L 18.3327362 25.4026565  L 18.2325867 25.8020799  L 18.1119103 26.2487419  L 17.9707302 26.7424755  L 17.7205663 27.5709706  L 17.5282283 28.1816537  L 17.3154677 28.8388248  L 17.2912918 28.9346144  C 17.2010746 29.4415274  17.7173111 29.8730657  18.2118897 29.656379  Z M 11.1611752 17.3154677  L 11.0653856 17.2912918  C 10.5584726 17.2010746  10.1269343 17.7173111  10.343621 18.2118897  C 11.5981585 21.0753214  13.0664938 22.8707136  14.795357 23.5630116  C 17.4008482 24.6063425  19.2549524 22.5137754  18.4019741 20.4171981  C 18.0412297 19.5305067  17.4583498 19.0758849  16.5496616 18.795804  C 16.204571 18.6894382  15.8401105 18.5965103  15.4269764 18.509084  L 14.9493617 18.4123356  L 14.5973435 18.3327362  L 14.1979201 18.2325867  L 13.7512581 18.1119103  L 13.2575245 17.9707302  L 12.4290294 17.7205663  L 11.8183463 17.5282283  L 11.1611752 17.3154677  Z M 22.6845323 11.1611752  L 22.7087082 11.0653856  C 22.7989254 10.5584726  22.2826889 10.1269343  21.7881103 10.343621  C 18.9246786 11.5981585  17.1292864 13.0664938  16.4369884 14.795357  C 15.3936575 17.4008482  17.4862246 19.2549524  19.5828019 18.4019741  C 20.4694933 18.0412297  20.9241151 17.4583498  21.204196 16.5496616  C 21.3105618 16.204571  21.4034897 15.8401105  21.490916 15.4269764  L 21.5876644 14.9493617  L 21.6672638 14.5973435  L 21.7674133 14.1979201  L 21.8880897 13.7512581  L 22.0292698 13.2575245  L 22.2794337 12.4290294  L 22.4717717 11.8183463  L 22.6845323 11.1611752  Z M 29.656379 21.7881103  C 28.4018415 18.9246786  26.9335062 17.1292864  25.204643 16.4369884  C 22.5991518 15.3936575  20.7450476 17.4862246  21.5980259 19.5828019  C 21.9587703 20.4694933  22.5416502 20.9241151  23.4503384 21.204196  C 23.795429 21.3105618  24.1598895 21.4034897  24.5730236 21.490916  L 25.0506383 21.5876644  L 25.4026565 21.6672638  L 25.8020799 21.7674133  L 26.2487419 21.8880897  L 26.7424755 22.0292698  L 27.5709706 22.2794337  L 28.1816537 22.4717717  L 28.8388248 22.6845323  L 28.9346144 22.7087082  C 29.4415274 22.7989254  29.8730657 22.2826889  29.656379 21.7881103  Z M 20.063865 23.8436924  C 20.2354843 23.2868947  20.4397007 23.0250647  20.9167378 22.8309854  C 21.9723134 22.4015316  22.9191515 23.2404707  22.3313189 24.7084542  C 21.9059172 25.7708023  20.8528904 26.7808464  19.1548458 27.7154007  L 19.0473965 27.7743286  L 19.1785374 27.3402049  L 19.3485427 26.7555714  L 19.4935939 26.2266841  L 19.6137218 25.7533209  L 19.6644491 25.5373915  L 19.7089572 25.33526  L 19.7472499 25.1468985  L 19.8064584 24.8541718  C 19.8861814 24.4769146  19.9696111 24.1494876  20.063865 23.8436924  Z M 12.2845993 19.1548458  L 12.2256714 19.0473965  L 12.6597951 19.1785374  L 13.2444286 19.3485427  L 13.7733159 19.4935939  L 14.2466791 19.6137218  L 14.4626085 19.6644491  L 14.66474 19.7089572  L 14.8531015 19.7472499  L 15.1458282 19.8064584  C 15.5230854 19.8861814  15.8505124 19.9696111  16.1563076 20.063865  C 16.7131053 20.2354843  16.9749353 20.4397007  17.1690146 20.9167378  C 17.5984684 21.9723134  16.7595293 22.9191515  15.2915458 22.3313189  C 14.2291977 21.9059172  13.2191536 20.8528904  12.2845993 19.1548458  Z M 20.8451542 12.2845993  L 20.9526035 12.2256714  L 20.8214626 12.6597951  L 20.6514573 13.2444286  L 20.5064061 13.7733159  L 20.3862782 14.2466791  L 20.3355509 14.4626085  L 20.2910428 14.66474  L 20.2527501 14.8531015  L 20.1935416 15.1458282  C 20.1138186 15.5230854  20.0303889 15.8505124  19.936135 16.1563076  C 19.7645157 16.7131053  19.5602993 16.9749353  19.0832622 17.1690146  C 18.0276866 17.5984684  17.0808485 16.7595293  17.6686811 15.2915458  C 18.0940828 14.2291977  19.1471096 13.2191536  20.8451542 12.2845993  Z " fill-rule="nonzero" fill="url(#LinearGradient453)" stroke="none" transform="matrix(1 0 0 1 138 247 )" />
  </g>
</svg>