<?xml version="1.0" encoding="utf-8"?>
<svg version="1.1" xmlns:xlink="http://www.w3.org/1999/xlink" width="40px" height="40px" xmlns="http://www.w3.org/2000/svg">
  <defs>
    <linearGradient gradientUnits="userSpaceOnUse" x1="20" y1="5.55111512312578E-16" x2="20" y2="40" id="LinearGradient462">
      <stop id="Stop463" stop-color="#fcaad4" offset="0" />
      <stop id="Stop464" stop-color="#f771a9" offset="1" />
    </linearGradient>
  </defs>
  <g transform="matrix(1 0 0 1 -202 -247 )">
    <path d="M 0 20  C 0 8.95430499999998  8.95430499999998 0  20 0  C 31.045695 0  40 8.95430499999998  40 20  C 40 31.045695  31.045695 40  20 40  C 8.95430499999998 40  0 31.045695  0 20  Z M 19.3666666666686 29.0000000000001  C 18.5382395666686 29.0000000000001  19.3666666666686 28.1715729000001  19.3666666666686 29.0000000000001  Z M 19.3666666666686 29.0000000000001  C 19.9189513666686 29.0000000000001  19.9189513666686 29.0000000000001  19.3666666666686 29.0000000000001  C 18.8143819666686 29.0000000000001  18.8143819666686 29.0000000000001  19.3666666666686 29.0000000000001  Z M 19.3666666666686 29.0000000000001  C 19.3666666666686 28.4477153000001  19.9189513666686 29.0000000000001  19.3666666666686 29.0000000000001  C 18.8143819666686 29.0000000000001  19.3666666666686 29.5522847  19.3666666666686 29.0000000000001  Z M 19.3666666666686 29.0000000000001  C 19.1334174666687 29.0423359000001  19.3666666666686 29.0000000000001  19.3666666666686 29.0000000000001  C 19.3666666666686 29.0000000000001  19.5999158666685 28.9576641  19.3666666666686 29.0000000000001  Z M 19.3666666666686 29.0000000000001  C 19.3666666666686 29.0000000000001  19.0905242666686 29.0000000000001  19.3666666666686 29.0000000000001  Z M 19.3666666666686 29.0000000000001  C 20.1325690514172 27.9290114763577  19.3666666666686 29.0000000000001  19.3666666666686 29.0000000000001  C 19.5682914362106 29.2747845967716  18.6982818683389 29.9346262169206  19.3666666666686 29.0000000000001  Z M 19.3666666666686 29.0000000000001  C 19.3666666666686 29.2761424000001  19.3666666666686 29.0000000000001  19.3666666666686 29.0000000000001  C 19.1334174666687 29.0423359000001  19.3666666666686 28.7545401  19.3666666666686 29.0000000000001  Z M 19.3666666666686 29.0000000000001  C 19.3666666666686 29.2761424000001  19.3804518211173 27.478561549102  19.3666666666686 29.0000000000001  C 19.3666666666686 29.0000000000001  19.3666666666686 28.7238576  19.3666666666686 29.0000000000001  Z M 19.3666666666686 29.0000000000001  C 19.0905242666686 29.0000000000001  19.0905242666686 29.0000000000001  19.3666666666686 29.0000000000001  C 19.6428090666686 29.0000000000001  19.6428090666686 29.0000000000001  19.3666666666686 29.0000000000001  Z " fill-rule="nonzero" fill="url(#LinearGradient462)" stroke="none" transform="matrix(1 0 0 1 202 247 )" />
  </g>
</svg>