<?xml version="1.0" encoding="utf-8"?>
<svg version="1.1" xmlns:xlink="http://www.w3.org/1999/xlink" width="18px" height="18px" xmlns="http://www.w3.org/2000/svg">
  <g transform="matrix(1 0 0 1 -342 -258 )">
    <path d="M 1.5 0  L 13.5 0  C 14.3284271 0  15 0.671572899999999  15 1.5  L 15.0008459 7.0460463  C 14.937546 7.0261028  14.8715286 7.0122856  14.803489 7.0052901  L 14.7 7  L 13.7 7  C 13.6315753 7  13.5647558 7.0068723  13.5001939 7.0199643  L 13.5 1.5  L 1.5 1.5  L 1.5 16.5  L 13.5 16.5  L 13.5001939 15.9800357  L 13.5986484 15.9949274  L 13.7 16  L 14.7 16  C 14.8048318 16  14.9058961 15.983869  15.0008459 15.9539537  L 15 16.5  C 15 17.3284271  14.3284271 18  13.5 18  L 1.5 18  C 0.671572899999999 18  0 17.3284271  0 16.5  L 0 1.5  C 0 0.671572899999999  0.671572899999999 0  1.5 0  Z M 13.65 8  L 14.85 8  C 15.0709139 8  15.25 8.1790861  15.25 8.4  L 15.25 10.5  L 17.35 10.5  C 17.5709139 10.5  17.75 10.6790861  17.75 10.9  L 17.75 12.1  C 17.75 12.3209139  17.5709139 12.5  17.35 12.5  L 15.25 12.5  L 15.25 14.6  C 15.25 14.8209139  15.0709139 15  14.85 15  L 13.65 15  C 13.4290861 15  13.25 14.8209139  13.25 14.6  L 13.25 12.5  L 11.15 12.5  C 10.9290861 12.5  10.75 12.3209139  10.75 12.1  L 10.75 10.9  C 10.75 10.6790861  10.9290861 10.5  11.15 10.5  L 13.25 10.5  L 13.25 8.4  C 13.25 8.1790861  13.4290861 8  13.65 8  Z M 3.2857143 13  L 6.7142857 13  C 6.8720814 13  7 13.2238576  7 13.5  C 7 13.7454599  6.8989285 13.9496084  6.7656432 13.9919443  L 6.7142857 14  L 3.2857143 14  C 3.1279186 14  3 13.7761424  3 13.5  C 3 13.2545401  3.1010715 13.0503916  3.2343568 13.0080557  L 3.2857143 13  Z M 3.4285714 9  L 8.5714286 9  C 8.808122 9  9 9.2238576  9 9.5  C 9 9.7454599  8.8483927 9.9496084  8.6484648 9.9919443  L 8.5714286 10  L 3.4285714 10  C 3.191878 10  3 9.7761424  3 9.5  C 3 9.2545401  3.1516073 9.0503916  3.3515352 9.0080557  L 3.4285714 9  Z M 3.5714286 5  L 10.4285714 5  C 10.7441627 5  11 5.2238576  11 5.5  C 11 5.7454599  10.797857 5.9496084  10.5312864 5.9919443  L 10.4285714 6  L 3.5714286 6  C 3.2558373 6  3 5.7761424  3 5.5  C 3 5.2545401  3.202143 5.0503916  3.4687136 5.0080557  L 3.5714286 5  Z " fill-rule="nonzero" fill="#ffffff" stroke="none" transform="matrix(1 0 0 1 342 258 )" />
  </g>
</svg>