<?xml version="1.0" encoding="utf-8"?>
<svg version="1.1" xmlns:xlink="http://www.w3.org/1999/xlink" width="40px" height="40px" xmlns="http://www.w3.org/2000/svg">
  <defs>
    <linearGradient gradientUnits="userSpaceOnUse" x1="20" y1="5.55111512312578E-16" x2="20" y2="40" id="LinearGradient448">
      <stop id="Stop449" stop-color="#abb9f8" offset="0" />
      <stop id="Stop450" stop-color="#7283ef" offset="1" />
    </linearGradient>
  </defs>
  <g transform="matrix(1 0 0 1 -74 -247 )">
    <path d="M 0 20  C 0 8.954305  8.954305 0  20 0  C 31.045695 0  40 8.954305  40 20  C 40 31.045695  31.045695 40  20 40  C 8.954305 40  0 31.045695  0 20  Z M 25 16  C 25 13.2385763  22.7614237 11  20 11  C 17.2385763 11  15 13.2385763  15 16  C 15 17.6753044  15.8239355 19.1581683  17.0879082 20.0653691  C 13.8883762 21.2141115  11.6 24.2745531  11.6 27.8694737  C 11.6 28.2618865  11.9181135 28.58  12.3105263 28.58  C 12.7029392 28.58  13.0210526 28.2618865  13.0210526 27.8694737  C 13.0210526 24.0761495  16.0961495 21.0010526  19.8894737 21.0010526  L 19.9264469 20.99947  L 20 21  C 22.7614237 21  25 18.7614237  25 16  Z M 24.388418 22.24253  L 24.3024253 22.2127727  C 23.9010215 22.1079643  23.5096491 22.470336  23.6111026 22.894775  L 24.8752203 28.1833137  L 24.8995205 28.2614061  L 24.9409372 28.3464461  C 25.1464857 28.6913345  25.6751723 28.7266029  25.9086426 28.3515726  L 27.1621396 26.3374294  L 29.363351 25.4527281  L 29.4507047 25.4091446  C 29.8297793 25.1790383  29.80855 24.592879  29.3771001 24.405788  L 24.388418 22.24253  Z M 16.4285714 16  C 16.4285714 14.0275545  18.0275545 12.4285714  20 12.4285714  C 21.9724455 12.4285714  23.5714286 14.0275545  23.5714286 16  C 23.5714286 17.9724455  21.9724455 19.5714286  20 19.5714286  C 18.0275545 19.5714286  16.4285714 17.9724455  16.4285714 16  Z " fill-rule="nonzero" fill="url(#LinearGradient448)" stroke="none" transform="matrix(1 0 0 1 74 247 )" />
  </g>
</svg>