<?xml version="1.0" encoding="utf-8"?>
<svg version="1.1" xmlns:xlink="http://www.w3.org/1999/xlink" width="40px" height="40px" xmlns="http://www.w3.org/2000/svg">
  <defs>
    <linearGradient gradientUnits="userSpaceOnUse" x1="20" y1="5.55111512312578E-16" x2="20" y2="40" id="LinearGradient456">
      <stop id="Stop457" stop-color="#97eae2" offset="0" />
      <stop id="Stop458" stop-color="#5ed0c1" offset="1" />
    </linearGradient>
  </defs>
  <g transform="matrix(1 0 0 1 -266 -247 )">
    <path d="M 0 20  C 0 8.954305  8.954305 0  20 0  C 31.045695 0  40 8.954305  40 20  C 40 31.045695  31.045695 40  20 40  C 8.954305 40  0 31.045695  0 20  Z M 16.9884499 12.4376082  C 16.6701483 12.1568129  16.2588843 12  15.8308022 12  L 12.25 12  L 12.1064728 12.0058012  C 11.2071103 12.0788077  10.5 12.8318266  11 13.75  L 11 25.7907116  L 10.5058012 25.9342388  C 10.5788077 26.8336013  11.3318266 27.5407116  12.25 27  L 22.25 27  L 22.25 26  L 12.25 26  L 12.1926773 26.0341089  C 12.0822334 26.0081984  12 25.9090584  12 25.7907116  L 12 18.119  L 27.947 18.119  L 27.9470215 25.7907116  L 27.9404188 25.8480343  C 27.9145083 25.9584782  27.8153682 26.0407116  27.6970215 26.0407116  L 26.25 26.0407116  L 26.25 27.5407116  L 27.6970215 27.5407116  L 27.8405487 27.5349104  C 28.7399112 27.461904  29.4470215 26.708885  29.4470215 25.7907116  L 29.4470215 15.916823  L 29.4412203 15.7732958  C 29.3682138 14.8739333  28.6151949 14.166823  27.6970215 14.166823  L 18.7387779 14.166823  L 18.6715662 14.1576196  C 18.628199 14.1455132  18.5884778 14.1217951  18.5569916 14.0884439  L 17.1033067 12.548654  L 16.9884499 12.4376082  Z M 24.3310082 20.1603439  C 24.3247824 20.1517409  24.3172259 20.1441844  24.3086229 20.1379586  C 24.2638813 20.10558  24.201363 20.1156023  24.1689844 20.1603439  L 21.7688992 23.4768508  C 21.7565561 23.4939069  21.7499111 23.5144236  21.7499111 23.5354774  C 21.7499111 23.5907058  21.7946826 23.6354774  21.8499111 23.6354774  L 23.0385802 23.6354774  L 23.0385802 28.0193249  C 23.0385802 28.0745534  23.0833517 28.1193249  23.1385802 28.1193249  L 25.3614125 28.1193249  C 25.4166409 28.1193249  25.4614125 28.0745534  25.4614125 28.0193249  L 25.4614125 23.6354774  L 26.6500815 23.6354774  C 26.6711353 23.6354774  26.691652 23.6288324  26.7087081 23.6164893  C 26.7534497 23.5841107  26.763472 23.5215924  26.7310934 23.4768508  L 24.3310082 20.1603439  Z M 12.25 13.5  L 15.8308022 13.5  L 15.8980139 13.5092034  C 15.9413811 13.5213098  15.9811023 13.5450279  16.0125885 13.5783791  L 17.4662734 15.1181691  L 17.5811302 15.2292149  C 17.8994318 15.5100102  18.3106958 15.666823  18.7387779 15.666823  L 27.6970215 15.666823  L 27.7543442 15.6734257  C 27.8647881 15.6993362  27.9470215 15.7984763  27.9470215 15.916823  L 27.947 17.119  L 12 17.119  L 12 13.75  L 12.0066027 13.6926773  C 12.0325132 13.5822334  12.1316533 13.5  12.25 13.5  Z " fill-rule="nonzero" fill="url(#LinearGradient456)" stroke="none" transform="matrix(1 0 0 1 266 247 )" />
  </g>
</svg>