<?xml version="1.0" encoding="utf-8"?>
<svg version="1.1" xmlns:xlink="http://www.w3.org/1999/xlink" width="28px" height="23px" xmlns="http://www.w3.org/2000/svg">
  <g transform="matrix(1 0 0 1 -347 -181 )">
    <path d="M 28 2.55555555555556  C 28 1.14361111111111  26.9558333333333 0  25.6666666666667 0  L 2.33333333333333 0  C 1.04416666666667 0  0 1.14361111111111  0 2.55555555555556  L 0 20.4444444444444  C 0 21.8563888888889  1.04416666666667 23  2.33333333333333 23  L 25.6666666666667 23  C 26.9558333333333 23  28 21.8563888888889  28 20.4444444444444  L 28 2.55555555555556  Z M 15.1666666666667 20.4444444444444  C 15.1666666666667 21.1497777777778  14.644 21.7222222222222  14 21.7222222222222  C 13.356 21.7222222222222  12.8333333333333 21.1497777777778  12.8333333333333 20.4444444444444  C 12.8333333333333 19.7391111111111  13.356 19.1666666666667  14 19.1666666666667  C 14.644 19.1666666666667  15.1666666666667 19.7391111111111  15.1666666666667 20.4444444444444  Z M 25.6666666666667 3  L 25.6666666666667 17.8888888888889  L 2.33333333333333 17.8888888888889  L 2.33333333333333 3  L 25.6666666666667 3  Z " fill-rule="nonzero" fill="#05b157" stroke="none" transform="matrix(1 0 0 1 347 181 )" />
  </g>
</svg>