<?xml version="1.0" encoding="utf-8"?>
<svg version="1.1" xmlns:xlink="http://www.w3.org/1999/xlink" width="13px" height="6px" xmlns="http://www.w3.org/2000/svg">
  <g transform="matrix(1 0 0 1 -367 -192 )">
    <path d="M 6.48808966861598 4.48453125  L 4.25781676413255 3.625078125  C 3.2411306042885 3.6553125  2.31846003898636 3.834375  1.79491228070175 4.47234375  C 1.73536062378168 4.5451171875  1.59218323586745 4.589296875  1.42518518518519 4.589296875  C 1.14364522417154 4.589296875  0.27317738791423 4.2650390625  0.0250877192982458 4.1867578125  C 0.0253411306042885 5.151796875  0.986530214424951 6  3.26900584795322 6  C 5.19138401559454 6  6.51267056530214 5.4870703125  6.51267056530214 4.5915234375  C 6.51267056530214 4.555078125  6.49619883040936 4.5202734375  6.48808966861598 4.48453125  Z M 13 0.5806640625  C 13 0.241875  12.3411306042885 0  11.6287914230019 0  C 11.2446198830409 0  10.884522417154 0.0786328125  10.6098245614035 0.1927734375  C 5.4298440545809 2.3326171875  4.89083820662768 2.382890625  4.89083820662768 3.0127734375  C 4.89083820662768 3.1733203125  4.97319688109162 3.3263671875  5.11206627680312 3.4662890625  L 6.72933723196881 4.0894921875  C 6.91204678362573 4.1105859375  7.10033138401559 4.125  7.29672514619883 4.125  C 8.87066276803119 4.125  9.78294346978558 3.5921484375  12.6477582846004 1.119609375  C 12.83477582846 0.9514453125  13 0.7698046875  13 0.5806640625  Z " fill-rule="nonzero" fill="#aaaaaa" stroke="none" transform="matrix(1 0 0 1 367 192 )" />
  </g>
</svg>