<?xml version="1.0" encoding="utf-8"?>
<svg version="1.1" xmlns:xlink="http://www.w3.org/1999/xlink" width="16px" height="16px" xmlns="http://www.w3.org/2000/svg">
  <g transform="matrix(1 0 0 1 -621 -254 )">
    <path d="M 621 254  L 637 254  L 637 270  L 621 270  L 621 254  " fill-rule="nonzero" fill="#cccccc" stroke="none" />
    <path d="M 622 255  L 636 255  L 636 269  L 622 269  L 622 255  " fill-rule="nonzero" fill="#ffffff" stroke="none" />
    <path d="M 630.52 258.8  C 629.848 258.8  629.32 258.272  629.32 257.6  C 629.32 256.928  629.848 256.4  630.52 256.4  C 631.192 256.4  631.72 256.928  631.72 257.6  C 631.72 258.272  631.192 258.8  630.52 258.8  " fill-rule="nonzero" fill="#cccccc" stroke="none" />
    <path d="M 623 269  L 623 261.85  L 626.25 258.6  L 630.8 261.2  L 633.4 260.55  L 636 261.2  L 636 269  L 623 269  " fill-rule="nonzero" fill="#169bd5" stroke="none" />
  </g>
</svg>