<?xml version="1.0" encoding="utf-8"?>
<svg version="1.1" xmlns:xlink="http://www.w3.org/1999/xlink" width="16px" height="16px" viewBox="328 261  16 16" xmlns="http://www.w3.org/2000/svg">
  <path d="M 336 261  C 340.48 261  344 264.52  344 269  C 344 273.48  340.48 277  336 277  C 331.52 277  328 273.48  328 269  C 328 264.52  331.52 261  336 261  Z " fill-rule="nonzero" fill="#ffffff" stroke="none" />
  <path d="M 336 261.5  C 340.2 261.5  343.5 264.8  343.5 269  C 343.5 273.2  340.2 276.5  336 276.5  C 331.8 276.5  328.5 273.2  328.5 269  C 328.5 264.8  331.8 261.5  336 261.5  Z " stroke-width="1" stroke="#163985" fill="none" />
  <path d="M 336 273  C 333.76 273  332 271.24  332 269  C 332 266.76  333.76 265  336 265  C 338.24 265  340 266.76  340 269  C 340 271.24  338.24 273  336 273  " fill-rule="nonzero" fill="#163985" stroke="none" />
</svg>