<?xml version="1.0" encoding="utf-8"?>
<svg version="1.1" xmlns:xlink="http://www.w3.org/1999/xlink" width="16px" height="16px" viewBox="490 261  16 16" xmlns="http://www.w3.org/2000/svg">
  <path d="M 498 261  C 502.48 261  506 264.52  506 269  C 506 273.48  502.48 277  498 277  C 493.52 277  490 273.48  490 269  C 490 264.52  493.52 261  498 261  Z " fill-rule="nonzero" fill="#ffffff" stroke="none" />
  <path d="M 498 261.5  C 502.2 261.5  505.5 264.8  505.5 269  C 505.5 273.2  502.2 276.5  498 276.5  C 493.8 276.5  490.5 273.2  490.5 269  C 490.5 264.8  493.8 261.5  498 261.5  Z " stroke-width="1" stroke="#163985" fill="none" />
  <path d="M 498 273  C 495.76 273  494 271.24  494 269  C 494 266.76  495.76 265  498 265  C 500.24 265  502 266.76  502 269  C 502 271.24  500.24 273  498 273  " fill-rule="nonzero" fill="#163985" stroke="none" />
</svg>