<?xml version="1.0" encoding="utf-8"?>
<svg version="1.1" xmlns:xlink="http://www.w3.org/1999/xlink" width="16px" height="16px" viewBox="652 261  16 16" xmlns="http://www.w3.org/2000/svg">
  <path d="M 660 261  C 664.48 261  668 264.52  668 269  C 668 273.48  664.48 277  660 277  C 655.52 277  652 273.48  652 269  C 652 264.52  655.52 261  660 261  Z " fill-rule="nonzero" fill="#ffffff" stroke="none" />
  <path d="M 660 261.5  C 664.2 261.5  667.5 264.8  667.5 269  C 667.5 273.2  664.2 276.5  660 276.5  C 655.8 276.5  652.5 273.2  652.5 269  C 652.5 264.8  655.8 261.5  660 261.5  Z " stroke-width="1" stroke="#163985" fill="none" />
  <path d="M 660 273  C 657.76 273  656 271.24  656 269  C 656 266.76  657.76 265  660 265  C 662.24 265  664 266.76  664 269  C 664 271.24  662.24 273  660 273  " fill-rule="nonzero" fill="#163985" stroke="none" />
</svg>