<?xml version="1.0" encoding="utf-8"?>
<svg version="1.1" xmlns:xlink="http://www.w3.org/1999/xlink" width="44px" height="44px" xmlns="http://www.w3.org/2000/svg">
  <g transform="matrix(1 0 0 1 -133 -182 )">
    <path d="M 33.1708620941176 31.9699196235294  C 30.7275651294118 30.7689768941176  31.5972132235294 31.7214487764706  28.4499154823529 30.3962707529412  C 25.1783821882353 29.0710927294118  24.3915578823529 28.6155628  24.3915578823529 28.6155628  L 24.3501458588235 25.5510885882353  C 24.3501458588235 25.5510885882353  25.5925003529412 24.6400287294118  25.9652067529412 21.7412018352941  C 26.7520310588235 21.9482609176471  27.0005019058824 20.8715537411765  27.0419139294118 20.1675529647059  C 27.0833256941176 19.5049639529412  27.4974438588235 17.3515496  26.5449719764706 17.5586086823529  C 26.7520310588235 16.1506071294118  26.9176783764706 14.8254291058824  26.7934428235294 14.1628400941176  C 26.586384 11.7609548941176  24.8884995764706 9.27624616470588  20.7059064235294 9.06918216470588  C 17.1444905176471 9.27624616470588  14.8254291058824 11.7609548941176  14.5769582588235 14.1628400941176  C 14.4941344705882 14.8254291058824  14.6597817882353 16.1506071294118  14.8254291058824 17.5586086823529  C 13.8729572235294 17.3515496  14.3284871529412 19.5049639529412  14.3284871529412 20.1675529647059  C 14.3698991764706 20.8715537411765  14.6183700235294 21.9896726823529  15.4051943294118 21.7412018352941  C 15.7779007294118 24.6400287294118  16.9788432 25.5925003529412  16.9788432 25.5925003529412  L 16.9374314352941 28.6983863294118  C 16.9374314352941 28.6983863294118  16.1506071294118 29.1539162588235  12.8790738352941 30.5205060470588  C 9.69036432941177 31.8456840705882  10.6014241882353 30.8518006823529  8.15812722352942 32.0527434117647  C 5.42075004705882 28.9048713411765  3.90682470588235 24.8774998352941  3.8927108 20.7059066823529  C 3.89912185882353 11.4227460470588  11.4229877882353 3.89898002352941  20.7060280705882 3.89271157647058  C 29.9890282352941 3.89912289411764  37.5127538823529 11.4229078117647  37.5191030823529 20.7059077176471  C 37.5191030823529 25.0541479294118  35.8626306823529 28.9882702352941  33.1708628705882 31.9699206588235  Z M 41.4118128470588 20.7058823529412  C 41.4118128470588 9.2348344  32.1769787058824 0  20.7058823529412 0  C 9.27624616470588 0  0 9.27624616470588  0 20.7058823529412  C 0 32.1355666823529  9.27624616470588 41.4118128470588  20.7058823529412 41.4118128470588  C 32.1355666823529 41.4118128470588  41.4118128470588 32.1355666823529  41.4118128470588 20.7058823529412  Z " fill-rule="nonzero" fill="#dddddd" stroke="none" transform="matrix(1 0 0 1 133 182 )" />
  </g>
</svg>