<?xml version="1.0" encoding="utf-8"?>
<svg version="1.1" xmlns:xlink="http://www.w3.org/1999/xlink" width="36px" height="36px" xmlns="http://www.w3.org/2000/svg">
  <g transform="matrix(1 0 0 1 -274 -186 )">
    <path d="M 27 16.2  L 9 16.2  L 9 19.8  L 27 19.8  L 27 16.2  Z M 36 18  C 36 8.064  27.936 0  18 0  C 8.064 0  0 8.064  0 18  C 0 27.936  8.064 36  18 36  C 27.936 36  36 27.936  36 18  Z M 32.4 18  C 32.4 25.938  25.938 32.4  18 32.4  C 10.062 32.4  3.6 25.938  3.6 18  C 3.6 10.062  10.062 3.6  18 3.6  C 25.938 3.6  32.4 10.062  32.4 18  Z " fill-rule="nonzero" fill="#333333" stroke="none" transform="matrix(1 0 0 1 274 186 )" />
  </g>
</svg>