<?xml version="1.0" encoding="utf-8"?>
<svg version="1.1" xmlns:xlink="http://www.w3.org/1999/xlink" width="6px" height="6px" xmlns="http://www.w3.org/2000/svg">
  <g transform="matrix(1 0 0 1 -363 -378 )">
    <path d="M 6 1.5  C 6 0.67125  5.32875 0  4.5 0  L 1.5 0  C 0.67125 0  0 0.67125  0 1.5  L 0 4.5  C 0 5.32875  0.67125 6  1.5 6  L 4.5 6  C 5.32875 6  6 5.32875  6 4.5  L 6 1.5  Z M 4.5 1.5  L 4.5 4.5  L 1.5 4.5  L 1.5 1.5  L 4.5 1.5  Z M 3.75 2.25  L 3.75 3.75  L 2.25 3.75  L 2.25 2.25  L 3.75 2.25  Z " fill-rule="nonzero" fill="#000000" stroke="none" transform="matrix(1 0 0 1 363 378 )" />
  </g>
</svg>