<?xml version="1.0" encoding="utf-8"?>
<svg version="1.1" xmlns:xlink="http://www.w3.org/1999/xlink" width="22px" height="22px" viewBox="112 425  22 22" xmlns="http://www.w3.org/2000/svg">
  <defs>
    <filter x="112px" y="425px" width="22px" height="22px" filterUnits="userSpaceOnUse" id="filter420">
      <feOffset dx="0" dy="0" in="SourceAlpha" result="shadowOffsetInner" />
      <feGaussianBlur stdDeviation="2.5" in="shadowOffsetInner" result="shadowGaussian" />
      <feComposite in2="shadowGaussian" operator="atop" in="SourceAlpha" result="shadowComposite" />
      <feColorMatrix type="matrix" values="0 0 0 0 0  0 0 0 0 0  0 0 0 0 0  0 0 0 0.349019607843137 0  " in="shadowComposite" />
    </filter>
    <g id="widget421">
      <path d="M 123 430  C 126.36 430  129 432.64  129 436  C 129 439.36  126.36 442  123 442  C 119.64 442  117 439.36  117 436  C 117 432.64  119.64 430  123 430  Z " fill-rule="nonzero" fill="#f0f0f0" stroke="none" />
      <path d="M 123 430.5  C 126.08 430.5  128.5 432.92  128.5 436  C 128.5 439.08  126.08 441.5  123 441.5  C 119.92 441.5  117.5 439.08  117.5 436  C 117.5 432.92  119.92 430.5  123 430.5  Z " stroke-width="1" stroke="#797979" fill="none" />
    </g>
  </defs>
  <use xlink:href="#widget421" filter="url(#filter420)" />
  <use xlink:href="#widget421" />
  <path d="M 123 439  C 121.32 439  120 437.68  120 436  C 120 434.32  121.32 433  123 433  C 124.68 433  126 434.32  126 436  C 126 437.68  124.68 439  123 439  " fill-rule="nonzero" fill="#797979" stroke="none" />
</svg>