<?xml version="1.0" encoding="utf-8"?>
<svg version="1.1" xmlns:xlink="http://www.w3.org/1999/xlink" width="16px" height="16px" xmlns="http://www.w3.org/2000/svg">
  <g transform="matrix(1 0 0 1 -165 -301 )">
    <path d="M 16 7.42857142857143  C 16 6.7975  15.4882142857143 6.28571428571429  14.8571428571429 6.28571428571429  L 9.71428571428571 6.28571428571429  L 9.71428571428571 1.14285714285714  C 9.71428571428571 0.511785714285714  9.2025 0  8.57142857142857 0  L 7.42857142857143 0  C 6.7975 0  6.28571428571429 0.511785714285714  6.28571428571429 1.14285714285714  L 6.28571428571429 6.28571428571429  L 1.14285714285714 6.28571428571429  C 0.511785714285714 6.28571428571429  0 6.7975  0 7.42857142857143  L 0 8.57142857142857  C 0 9.2025  0.511785714285714 9.71428571428571  1.14285714285714 9.71428571428571  L 6.28571428571429 9.71428571428571  L 6.28571428571429 14.8571428571429  C 6.28571428571429 15.4882142857143  6.7975 16  7.42857142857143 16  L 8.57142857142857 16  C 9.2025 16  9.71428571428571 15.4882142857143  9.71428571428571 14.8571428571429  L 9.71428571428571 9.71428571428571  L 14.8571428571429 9.71428571428571  C 15.4882142857143 9.71428571428571  16 9.2025  16 8.57142857142857  L 16 7.42857142857143  Z " fill-rule="nonzero" fill="#999999" stroke="none" transform="matrix(1 0 0 1 165 301 )" />
  </g>
</svg>