<?xml version="1.0" encoding="utf-8"?>
<svg version="1.1" xmlns:xlink="http://www.w3.org/1999/xlink" width="10px" height="10px" xmlns="http://www.w3.org/2000/svg">
  <g transform="matrix(1 0 0 1 -144 -335 )">
    <path d="M 149 336  C 151.24 336  153 337.76  153 340  C 153 342.24  151.24 344  149 344  C 146.76 344  145 342.24  145 340  C 145 337.76  146.76 336  149 336  Z " fill-rule="nonzero" fill="#999999" stroke="none" fill-opacity="0" />
    <path d="M 149 336  C 151.24 336  153 337.76  153 340  C 153 342.24  151.24 344  149 344  C 146.76 344  145 342.24  145 340  C 145 337.76  146.76 336  149 336  Z " stroke-width="2" stroke="#999999" fill="none" />
  </g>
</svg>