<?xml version="1.0" encoding="utf-8"?>
<svg version="1.1" xmlns:xlink="http://www.w3.org/1999/xlink" width="104px" height="94px" xmlns="http://www.w3.org/2000/svg">
  <g transform="matrix(1 0 0 1 -175 -307 )">
    <path d="M 103.38575 73.5585508241758  C 102.990289149927 73.1813366742061  102.460046565858 72.9757837307301  101.911875 73  L 90.406875 73  C 91.143 71.7169642857143  91.511875 70.2837225274725  91 68.8488667582418  L 91 8.47032967032967  C 91.511875 6.25913461538461  90.611625 4.16899038461538  89.054875 2.61308379120879  C 87.4923958615721 1.05916825434493  85.370473888281 0.18837132979386  83.159375 1  L 33.288125 1  C 28.70075 0.19690934065934  24.981125 3.91720467032967  24.97625 8.51067994505494  L 24.97625 10.5556318681319  L 18.7525 10.5556318681319  C 16.5425 10.5556318681319  14.45275 11.4158997252747  12.857 12.9718063186813  C 11.2881625413629 14.5416617977978  10.405387980535 16.6623464857009  11 18.8742445054945  L 11 79.2124313186813  C 10.4 80.6876373626374  10.76725 82.1208791208791  11.505 83.3507554945055  L 2.088125 83.3507554945055  C 0.958951787630918 83.3948561898973  0.066433602515824 84.3168817787858  0.066433602515824 85.4392857142857  C 0.066433602515824 86.5616896497856  0.958951787630926 87.4837152386742  2.088125 87  L 54.457 87  L 59.5335 92.6087225274725  C 61.173125 94.2065934065934  63.792625 94.2065934065934  65.39 92.6087225274725  C 66.729 91.2577953296703  66.99875 89.1757211538462  66.044875 87  L 76.97625 87  C 78.1318597739264 87.5186355602483  79.0637941798167 86.5855702682001  79.0637941798167 85.4377385557729  C 79.0637941798167 84.885499903758  78.8437575121685 84.355703197742  78.45175 83.9640796703297  C 78.0669634930696 83.5650594546647  77.532478825561 83.3428890933022  76.97625 83.3507554945055  L 75.87125 83.3507554945055  C 76.609 82.0805288461539  76.97625 80.6472870879121  76.97625 79.2124313186813  L 76.97625 77  L 101.911875 77  C 102.444875 77.1239010989011  102.977875 76.9189217032967  103.38575 76.5105769230769  C 103.79525 76.0990041208791  104 75.6067307692308  104 75.0337568681319  C 104 74.5011332417583  103.79525 73.9685096153846  103.38575 73.5585508241758  Z M 72 79.2140453296703  L 72.8 79.2156593406593  C 72.8 80.3212568681319  72.392125 81.3865041208791  71.61375 82.1644574175824  C 70.8342287868942 82.9474022379765  69.7729831377496 83.3899369955088  68.664375 83.3943337912088  L 62.07175 83.3943337912088  L 55.111875 76.4298763736264  C 54.0475 75.3646291208791  52.531375 74.9546703296703  51.098125 75.3646291208791  L 49.1335 73.3987637362638  C 53.638 67.417239010989  52.86125 58.9372252747253  47.29075 53.899896978022  C 41.7638726838164 48.8508092297299  33.2688100652649 48.8332936293253  27.720875 53.8595467032967  C 22.150375 58.896875  21.331375 67.3365384615385  25.79525 73.3567994505495  C 28.0874970876533 76.4648871588655  31.5385816467678 78.5304882541361  35.37625 79.0913804945055  C 39.2045338193352 79.6623566462342  43.102687317047 78.6728727302649  46.18575 76.3475618131868  L 48.152 78.3134271978022  C 47.783125 79.748282967033  48.192625 81.3041895604396  49.218 82.3290865384615  L 50.28075 83  L 18.711875 83  C 16.420625 83.3943337912088  14.57625 81.509168956044  15 79.2156593406593  L 15 18.793543956044  C 14.57625 16.5403846153846  16.378375 14.7375343406593  18.59 15  L 68.78625 15  C 70.99625 14.7375343406593  72.8 16.5403846153846  72 18.793543956044  L 72 79.2140453296703  Z M 44.793125 57.3409684065934  C 48.888125 61.396978021978  48.888125 67.9498626373626  44.793125 72.0478365384615  C 42.1748654914756 74.6614856158169  38.3526823132574 75.6911463587128  34.763625 74.7496909340659  C 31.159375 73.8087225274725  28.37575 70.9809752747253  27.391 67.3768887362638  C 26.4436506713937 63.7920292115268  27.4716163194993 59.9767254592983  30.095 57.3409684065934  C 32.0385937161018 55.394796603951  34.6841906883932 54.300117330063  37.4440625 54.300117330063  C 40.2039343116068 54.300117330063  42.8495312838982 55.394796603951  44.793125 57.3409684065934  Z M 87 68.8504807692308  L 87.37625 68.8520947802198  C 87.379203474204 71.1326345723592  85.5380299802187 72.9929860392419  83.24225 73.0291552197802  L 77 73.0291552197802  L 77 18.8742445054945  C 76.97625 16.6630494505495  76.076 14.5729052197802  74.51925 13.0169986263736  C 72.9564407278951 11.4639635274655  70.8344518459857 10.5943010186334  68.62375 11  L 29.1525 11  L 29.1525 8.51067994505495  C 29.1477923719816 6.22853755612005  30.9907014404188 4.36644487630403  33.288125 5  L 83.240625 5  C 85.5335 4.33200549450549  87.37625 6.17520604395604  87 8.51067994505495  L 87 68.8504807692308  Z M 47.864375 26  L 24.97625 26  C 23.821020098069 25.1342028705426  22.8889826541016 24.2019845561732  22.888125 23.054532967033  C 22.888125 22.4815590659341  23.092875 21.9892857142857  23.502375 21.5793269230769  C 23.892375 21.1871222527473  24.42375 20.9660027472527  24.97625 21  L 47.864375 21  C 49.01 20.9660027472527  49.9525 21.9069711538462  49.9525 23.054532967033  C 49.9525 24.2004807692308  49.01 25.1430631868132  47.864375 26  Z M 39.5525 42  L 39.5525 41.7754464285714  C 40.087125 41.7754464285714  40.6185 42.0207760989011  41.026375 42.3887706043956  C 41.435875 42.7987293956044  41.64225 43.331353021978  41.64225 43.8639766483517  C 41.64225 44.4369505494506  41.435875 44.9292239010989  41.026375 45.3391826923077  C 40.636375 45.7313873626374  40.106625 45.9525068681319  39.5525 46  L 24.97625 46  C 24.402625 45.9525068681319  23.911875 45.7071771978022  23.502375 45.3391826923077  C 23.1087249764564 44.9478368824123  22.8877646149434 44.4171701167978  22.888125 43.8639766483517  C 22.888125 43.2910027472527  23.092875 42.7987293956044  23.502375 42.3903846153846  C 23.892375 41.9965659340659  24.422125 41.7738324175824  24.97625 42  L 39.5525 42  Z M 24.97625 32  L 58.264375 32  C 58.797375 31.3699175824176  59.330375 31.6168612637363  59.697625 31.9832417582418  C 60.107125 32.3932005494506  60.311875 32.9274381868132  60.311875 33.4584478021978  C 60.312497521942 33.4788888326782  60.3128088362848 33.4993380436784  60.3128088362848 33.5197884235532  C 60.3128088362848 34.6402702482528  59.3982944734079 35.54860023674  58.2701838362848 35.54860023674  C 58.268247554588 35.54860023674  58.2663112738672 35.5485975021463  58.264375 36  L 24.97625 36  C 23.87125 35.548592032967  22.92875 34.6060096153846  22.92875 33.4584478021978  C 22.9281918076845 33.4390832768227  22.9279126686506 33.4197118084558  22.9279126686506 33.4003393480589  C 22.9279126686506 32.2789661297039  23.843154568809 31.369913523883  24.9721626686506 31.369913523883  C 24.9735251134543 31.369913523883  24.9748875579196 31.3699148767286  24.97625 32  Z " fill-rule="nonzero" fill="#999999" stroke="none" transform="matrix(1 0 0 1 175 307 )" />
  </g>
</svg>