<?xml version="1.0" encoding="utf-8"?>
<svg version="1.1" xmlns:xlink="http://www.w3.org/1999/xlink" width="10px" height="10px" xmlns="http://www.w3.org/2000/svg">
  <g transform="matrix(1 0 0 1 -162 -368 )">
    <path d="M 10 4.64285714285714  C 10 4.2484375  9.68013392857143 3.92857142857143  9.28571428571429 3.92857142857143  L 6.07142857142857 3.92857142857143  L 6.07142857142857 0.714285714285714  C 6.07142857142857 0.319866071428571  5.7515625 0  5.35714285714286 0  L 4.64285714285714 0  C 4.2484375 0  3.92857142857143 0.319866071428571  3.92857142857143 0.714285714285714  L 3.92857142857143 3.92857142857143  L 0.714285714285714 3.92857142857143  C 0.319866071428571 3.92857142857143  0 4.2484375  0 4.64285714285714  L 0 5.35714285714286  C 0 5.7515625  0.319866071428571 6.07142857142857  0.714285714285714 6.07142857142857  L 3.92857142857143 6.07142857142857  L 3.92857142857143 9.28571428571429  C 3.92857142857143 9.68013392857143  4.2484375 10  4.64285714285714 10  L 5.35714285714286 10  C 5.7515625 10  6.07142857142857 9.68013392857143  6.07142857142857 9.28571428571429  L 6.07142857142857 6.07142857142857  L 9.28571428571429 6.07142857142857  C 9.68013392857143 6.07142857142857  10 5.7515625  10 5.35714285714286  L 10 4.64285714285714  Z " fill-rule="nonzero" fill="#999999" stroke="none" transform="matrix(1 0 0 1 162 368 )" />
  </g>
</svg>