<?xml version="1.0" encoding="utf-8"?>
<svg version="1.1" xmlns:xlink="http://www.w3.org/1999/xlink" width="84px" height="65px" xmlns="http://www.w3.org/2000/svg">
  <g transform="matrix(1 0 0 1 -175 -382 )">
    <path d="M 0.62157012195122 29  L 0.62157012195122 22  L 17.6947408536585 22  L 17.6947408536585 29  L 0.62157012195122 29  Z M 3 15.4187911184211  L 3 0.451685855263158  L 10 0.451685855263158  L 10 15.4187911184211  L 3 15.4187911184211  Z M 83.8532774390244 58  L 83.8532774390244 64  L 51 64  L 51 41.0766858552632  L 42 41.0766858552632  L 42 18  L 30.499618902439 18  L 30.499618902439 23.9714226973684  L 24 23.9714226973684  L 24 12  L 47 12  L 47 34  L 58 34  L 58 58  L 83.8532774390244 58  Z " fill-rule="nonzero" fill="#1037ac" stroke="none" transform="matrix(1 0 0 1 175 382 )" />
  </g>
</svg>