<?xml version="1.0" encoding="utf-8"?>
<svg version="1.1" xmlns:xlink="http://www.w3.org/1999/xlink" width="14px" height="23px" xmlns="http://www.w3.org/2000/svg">
  <g transform="matrix(1 0 0 1 -226 -204 )">
    <path d="M 0.104363636363637 4.51438888888889  C 2.16109090909091 5.62094444444444  3.5 8.00783333333333  3.5 11.0118888888889  C 3.5 11.9510555555556  3.28109090909091 12.8531666666667  3.04436363636364 13.5533888888889  C 3.13218181818182 13.8996666666667  3.18181818181818 14.2855555555556  3.18181818181818 14.7136111111111  C 3.18181818181818 17.8697222222222  0 21.0181666666667  0 21.0181666666667  C 0.691090909090908 21.321  2.90181818181818 22.4492777777778  3.80545454545455 23  L 14 23  C 14 16.2916666666667  8.57436363636364 18.2083333333333  7.63636363636364 15.3333333333333  L 7.63636363636364 13.4166666666667  C 8.05890909090909 13.2032777777778  9.06436363636364 11.7351111111111  9.19163636363636 10.5876666666667  C 9.52254545454545 10.5621111111111  10.1818181818182 9.74816666666667  10.1818181818182 9.02111111111111  C 10.1818181818182 8.29405555555556  9.95272727272727 7.98994444444445  9.75290909090909 7.87238888888889  C 9.75290909090909 7.87238888888889  10.1818181818182 6.9115  10.1818181818182 5.75  C 10.1818181818182 3.42316666666667  9.55563636363636 1.27777777777778  7.63636363636364 1.27777777777778  C 7.63636363636364 1.27777777777778  7.08527272727273 0  5.09090909090909 0  C 2.26163636363636 0  0.524363636363635 1.95372222222222  0.104363636363637 4.51438888888889  Z " fill-rule="nonzero" fill="#000000" stroke="none" transform="matrix(1 0 0 1 226 204 )" />
  </g>
</svg>