<?xml version="1.0" encoding="utf-8"?>
<svg version="1.1" xmlns:xlink="http://www.w3.org/1999/xlink" width="135px" height="118px" xmlns="http://www.w3.org/2000/svg">
  <g transform="matrix(1 0 0 1 -154 -335 )">
    <path d="M 100 64.5658869219653  L 100 47.513863800578  L 107 47.513863800578  L 107 64.5658869219653  L 100 64.5658869219653  Z M 113 88.0124187138728  L 113 70.9603955924855  L 119 70.9603955924855  L 119 88.0124187138728  L 113 88.0124187138728  Z M 6.84215198863636 75.2234013728324  L 6.84215198863636 79.4864071531792  L 1 79.4864071531792  L 1 68  L 15.3648792613636 68  L 15.3648792613636 75.2234013728324  L 6.84215198863636 75.2234013728324  Z M 134 46  L 134 58.1713782514451  L 128.291015625 58.1713782514451  L 128.291015625 51.7768695809249  L 121.898970170455 51.7768695809249  L 121.898970170455 46  L 134 46  Z M 98 117.853459176301  L 98 96.5384302745665  L 104 96.5384302745665  L 104 117.853459176301  L 98 117.853459176301  Z M 51.5864701704545 7  L 51.5864701704545 1  L 70.7626065340909 1  L 70.7626065340909 7  L 51.5864701704545 7  Z M 85.6773792613636 85  L 85.6773792613636 79  L 104.853515625 79  L 104.853515625 85  L 85.6773792613636 85  Z " fill-rule="nonzero" fill="#1037ac" stroke="none" transform="matrix(1 0 0 1 154 335 )" />
  </g>
</svg>