<?xml version="1.0" encoding="utf-8"?>
<svg version="1.1" xmlns:xlink="http://www.w3.org/1999/xlink" width="20px" height="25px" xmlns="http://www.w3.org/2000/svg">
  <g transform="matrix(1 0 0 1 -211 -209 )">
    <path d="M 20 25  C 20 17.63125  13.5525 19.73625  12.5 16.57875  L 12.5 14.47375  C 12.5 14.47375  14.46 12.62625  14.6025 11.36625  C 14.6025 11.36625  15.625 10.66  15.625 9.39375  C 15.625 8.51625  15.23375 8.38375  15.23375 8.38375  C 15.23375 8.38375  15.9375 7.0475  15.9375 5.7725  C 15.9375 3.21625  14.655 1.25  12.5 1.25  C 12.5 1.25  11.585 0  10 0  C 6.635 0  3.90625 2.0275  3.90625 5.655  C 3.90625 7.18875  4.76625 8.38375  4.76625 8.38375  C 4.76625 8.38375  4.375 8.575  4.375 9.39375  C 4.375 10.985  5.3975 11.36625  5.3975 11.36625  C 5.54 12.62625  7.5 14.47375  7.5 14.47375  L 7.5 16.57875  C 6.4475 19.73625  0 17.65625  0 25  L 20 25  Z " fill-rule="nonzero" fill="#000000" stroke="none" transform="matrix(1 0 0 1 211 209 )" />
  </g>
</svg>