<?xml version="1.0" encoding="utf-8"?>
<svg version="1.1" xmlns:xlink="http://www.w3.org/1999/xlink" width="43px" height="129px" xmlns="http://www.w3.org/2000/svg">
  <g transform="matrix(1 0 0 1 -195 -331 )">
    <path d="M 10.6886780753968 128  L 10.6886780753968 122  L 25.6192336309524 122  L 25.6192336309524 128  L 10.6886780753968 128  Z M 29.8851066468254 26  L 29.8851066468254 56  L 0.0239955357142857 56  L 0.0239955357142857 50  L 23 50  L 23 33  L 11 33  L 11 1  L 29.8851066468254 1  L 29.8851066468254 13.2482018849206  L 36 13.2482018849206  L 36 0.450582837301587  L 42 0.450582837301587  L 42 20  L 23 20  L 23 6.84939236111111  L 17 6.84939236111111  L 17 26  L 29.8851066468254 26  Z " fill-rule="nonzero" fill="#1037ac" stroke="none" transform="matrix(1 0 0 1 195 331 )" />
  </g>
</svg>