<?xml version="1.0" encoding="utf-8"?>
<svg version="1.1" xmlns:xlink="http://www.w3.org/1999/xlink" width="14px" height="23px" xmlns="http://www.w3.org/2000/svg">
  <g transform="matrix(1 0 0 1 -202 -204 )">
    <path d="M 10.2110909090909 23  C 11.1070909090909 22.4556666666667  14 20.9453333333333  14 20.9453333333333  C 13.3089090909091 20.2042222222222  12.3110909090909 18.9238888888889  11.9483636363636 17.9540555555556  C 11.1541818181818 17.5541111111111  10.4834545454545 17.0826111111111  10.1818181818182 16.2929444444444  L 10.1818181818182 15.0049444444444  C 10.4236363636364 15.0049444444444  11.1376363636364 14.9487222222222  11.3883636363636 14.8925  C 10.8207272727273 14.0146666666667  10.3409090909091 12.0136666666667  10.3409090909091 10.8917777777778  C 10.3409090909091 8.0385  11.564 5.69122222222222  13.594 4.2205  C 12.9818181818182 1.86811111111111  11.6225454545455 0  8.40127272727273 0  C 7.238 0  6.36363636363637 1.27777777777778  6.36363636363637 1.27777777777778  C -0.299090909090908 1.27777777777778  3.37781818181818 11.9536111111111  1.42036363636364 13.5278333333333  C 1.42036363636364 13.5278333333333  2.61927272727273 15.019  6.36363636363637 15.019  L 6.36363636363637 16.2942222222222  C 5.32890909090909 19.0005555555556  0 18.0000555555556  0 23  L 10.2110909090909 23  Z " fill-rule="nonzero" fill="#000000" stroke="none" transform="matrix(1 0 0 1 202 204 )" />
  </g>
</svg>