<?xml version="1.0" encoding="utf-8"?>
<svg version="1.1" xmlns:xlink="http://www.w3.org/1999/xlink" width="30px" height="30px" xmlns="http://www.w3.org/2000/svg">
  <g transform="matrix(1 0 0 1 -344 -417 )">
    <path d="M 345 421  A 3 3 0 0 1 348 418 L 370 418  A 3 3 0 0 1 373 421 L 373 443  A 3 3 0 0 1 370 446 L 348 446  A 3 3 0 0 1 345 443 L 345 421  Z " fill-rule="nonzero" fill="#ffffff" stroke="none" />
    <path d="M 344.5 421  A 3.5 3.5 0 0 1 348 417.5 L 370 417.5  A 3.5 3.5 0 0 1 373.5 421 L 373.5 443  A 3.5 3.5 0 0 1 370 446.5 L 348 446.5  A 3.5 3.5 0 0 1 344.5 443 L 344.5 421  Z " stroke-width="1" stroke-dasharray="3,1" stroke="#797979" fill="none" stroke-dashoffset="0.5" />
  </g>
</svg>