<?xml version="1.0" encoding="utf-8"?>
<svg version="1.1" xmlns:xlink="http://www.w3.org/1999/xlink" width="16px" height="16px" xmlns="http://www.w3.org/2000/svg">
  <g transform="matrix(1 0 0 1 -24 -360 )">
    <path d="M 8.0000218 0  C 12.4185004 0  16 3.16053069729106  16 7.06578259394381  C 15.9588233 9.25499969206741  14.8710696 11.2865266903262  13.0845343 12.5209507892681  C 13.0316586 12.5574849892368  13.0003713 12.6182952891847  13.0003713 12.6829832891292  L 13.0003713 15.8025570864554  C 13.0003713 15.9562091863237  12.8339501 16.0507975862426  12.7038007 15.9711112863109  L 9.5567041 14.0442515879625  C 9.5169966 14.0200428879832  9.4700608 14.0108600879911  9.4242688 14.0183410879847  C 8.9532282 14.0942395879196  8.4770294 14.1328411878865  8.0000258 14.1337924878857  C 3.5814996 14.1338084878857  0 10.9732778905946  0 7.06808999394184  C 0 3.16283809728908  3.5807376 0  8.0000258 0  Z M 5.5007863 8.99999999228597  L 10.4991589 8.99999999228597  C 10.6780968 9.00001529228596  10.8434439 8.90470669236765  10.9328954 8.74998809250026  C 11.0223682 8.59529839263285  11.0223682 8.40470079279621  10.9328954 8.2500118929288  C 10.8434437 8.09529329306141  10.6780968 7.9999841931431  10.4991589 7.99999999314309  L 5.5007863 7.99999999314309  C 5.2241922 7.99999999314309  5 8.22388579295119  5 8.50002369271451  C 5 8.77616169247782  5.2241922 8.99999999228597  5.5007863 8.99999999228597  Z M 4 5.50004749528583  C 4 5.77611769504921  4.2242118 5.99999999485731  4.5007668 5.99999999485731  L 11.4992332 5.99999999485731  C 11.7757723 5.99999999485731  12 5.77611769504921  12 5.50004749528583  C 12 5.22391389552251  11.7757723 5.00007919571436  11.4992332 4.99999999571443  L 4.5007668 4.99999999571443  C 4.2242118 5.00007919571436  4 5.22391389552251  4 5.50004749528583  Z " fill-rule="nonzero" fill="#163985" stroke="none" transform="matrix(1 0 0 1 24 360 )" />
  </g>
</svg>