<?xml version="1.0" encoding="utf-8"?>
<svg version="1.1" xmlns:xlink="http://www.w3.org/1999/xlink" width="16px" height="16px" xmlns="http://www.w3.org/2000/svg">
  <g transform="matrix(1 0 0 1 -24 -204 )">
    <path d="M 2.2727858 0  L 13.7703869 0  C 15.0181841 0  16.0431639 1.0222271  16 2.2666697  L 16 13.7333303  C 15.9985996 14.9777791  14.9736142 16  13.7258138 16  L 2.2727858 16  C 1.0249791 16  0 14.9777807  0 13.6888929  L 0 2.2666853  C 0 1.0222365  1.0249854 0  2.2727858 0  Z M 8.6911505 3.0714305  C 8.4978621 3.0237381  8.2994855 2.9997521  8.1003998 2.9999299  C 7.9301694 3.0002195  7.7601832 3.0128721  7.591798 3.0378589  C 7.4154286 3.0676236  7.2425984 3.1154959  7.0760517 3.1807164  C 6.8972378 3.2513921  6.727655 3.3434927  6.57102 3.4550016  C 6.398352 3.5787672  6.2462419 3.7289391  6.1202769 3.9000046  C 5.9768744 4.0945817  5.8672413 4.311902  5.7959705 4.5428619  C 5.7250498 4.7634018  5.6736582 4.9897494  5.6423896 5.2192906  C 5.6053177 5.4689233  5.5897861 5.7212826  5.5959664 5.9735743  C 5.5405823 6.0352236  5.496782 6.1063646  5.4666732 6.1835742  C 5.4359428 6.2578945  5.4164424 6.3363726  5.4088126 6.4164313  C 5.3979197 6.5187301  5.4098747 6.622171  5.4438148 6.7192887  C 5.4708819 6.8126032  5.5146926 6.9002191  5.5731091 6.97786  C 5.6150414 7.0308484  5.6629841 7.0787884  5.7159753 7.1207173  C 5.7613629 7.1532058  5.8121524 7.1773897  5.8659847 7.1921458  C 5.900987 7.2971458  5.9374178 7.4000022  5.97242 7.4992883  C 6.0074224 7.5850032  6.0452819 7.6685743  6.088856 7.7521457  C 6.1247762 7.8266515  6.1758712 7.8928281  6.2388654 7.9464318  C 6.3617295 8.0392892  6.4674505 8.1285749  6.5631707 8.2142891  C 6.6625405 8.3096309  6.7213768 8.4395742  6.7274671 8.5771465  C 6.7338961 8.6785752  6.7381821 8.7714322  6.7381821 8.8571464  C 6.7392994 8.9428222  6.7240242 9.027921  6.6931793 9.1078602  C 6.6534766 9.1985955  6.5953378 9.2800822  6.5224548 9.3471463  C 6.4183389 9.444157  6.3024196 9.5276709  6.1774331 9.5957175  C 5.9778953 9.7148347  5.7609853 9.802075  5.5345355 9.8542888  C 5.2895202 9.9142888  4.2201674 10.2607176  3.9894391 10.3321461  C 3.7740595 10.3971041  3.5710224 10.4975288  3.3886876 10.6292887  C 3.2137607 10.7655123  3.0995538 10.9651695  3.0708104 11.1850025  C 2.9993774 11.6085736  2.9815192 11.6778588  3.0193787 11.9492874  C 3.0572384 12.2207151  3.1150989 12.3807154  3.1943896 12.4350011  C 3.2586797 12.4792873  3.4415485 12.5335728  3.7472815 12.5978585  C 5.218799 12.8630889  6.710894 12.9976606  8.2061248 12.9999299  C 10.6477028 12.9999299  12.3849567 12.5364197  12.5513958 12.4821339  C 12.7178349 12.4278478  12.8199838 12.3792763  12.854986 12.3328478  C 12.9123365 12.2357375  12.9497354 12.1281614  12.9649928 12.0164193  C 12.9886121 11.8699887  13.0003174 11.7218843  13 11.5735716  C 13 11.4178572  12.9914216 11.5428568  12.9749919 11.3871429  C 12.9633875 11.2568969  12.9367811 11.1284272  12.8957013 11.0042855  C 12.8314353 10.8363277  12.7205202 10.6877896  12.5756781 10.5778541  C 12.4142999 10.468524  12.2395204 10.3804193  12.0556459 10.3157117  C 11.8620596 10.2457117  11.0198684 9.9078547  10.8098553 9.8571405  C 10.613053 9.8121229  10.4193163 9.7546253  10.2298191 9.684998  C 10.0649397 9.6270214  9.9103675 9.5431093  9.7719331 9.4364267  C 9.6701904 9.3572324  9.5866364 9.2571191  9.5269179 9.1428556  C 9.4793664 9.0464543  9.4514438 8.9415666  9.4447716 8.8342841  C 9.4380749 8.7328603  9.4450425 8.6309961  9.4654871 8.5314276  C 9.4777473 8.4607792  9.4993674 8.3920799  9.5297768 8.3271424  C 9.5557149 8.2732964  9.5915828 8.2248293  9.6354973 8.1842851  C 9.6818185 8.1420064  9.7320465 8.104218  9.7855067 8.0714277  C 9.84812 8.029879  9.9077883 7.9840561  9.9640871 7.9342862  C 10.026455 7.8791973  10.0784674 7.8133998  10.1176679 7.7400001  C 10.1612416 7.6578566  10.2033871 7.572857  10.2383893 7.4871428  C 10.2753 7.3863889  10.3072452 7.283885  10.3341095 7.1800002  C 10.4084238 7.1590605  10.4772039 7.1219896  10.5355508 7.0714289  C 10.5980409 7.0168274  10.6502907 6.9515188  10.6898466 6.8785716  C 10.7413913 6.7741771  10.775189 6.6619271  10.7898528 6.5464293  C 10.8044587 6.4573668  10.8030072 6.3664093  10.7855668 6.2778581  C 10.7710795 6.2150153  10.7469852 6.154784  10.7141338 6.0992868  C 10.689505 6.0476202  10.6486002 6.0054632  10.5976978 5.9792868  C 10.6045071 5.7131727  10.5863312 5.4470057  10.5434088 5.1842865  C 10.5047658 4.939185  10.4428144 4.6983306  10.3583972 4.4650015  C 10.2684873 4.2097662  10.1332123 3.9728688  9.9590871 3.7657164  C 9.8681645 3.6611471  9.7639382 3.5689346  9.6490678 3.4914304  C 9.5121745 3.3967293  9.3664955 3.3154027  9.2140408 3.2485731  C 9.0453262 3.1741786  8.8703436 3.1148983  8.6911505 3.0714305  Z M 7.7945397 10  L 8.2071152 10  C 8.2567563 10.0388407  8.3019853 10.0759924  8.3466627 10.1125812  C 8.3862038 10.1446403  8.420789 10.1825926  8.4492553 10.2251624  L 8.4731245 10.2644452  C 8.4862189 10.2921195  8.4935642 10.3224455  8.4944841 10.3535049  L 8.4875377 10.4084623  C 8.4789366 10.4442298  8.4625522 10.4778193  8.4393269 10.506615  L 8.3735493 10.5789905  L 8.2997794 10.6428382  L 8.3154277 10.7067172  C 8.3272354 10.7524166  8.3413312 10.8049544  8.3549366 10.8679997  C 8.3753448 10.9625677  8.4023718 11.0576983  8.4205737 11.1494519  C 8.4387756 11.2412055  8.4597354 11.3284554  8.4757309 11.4066995  C 8.4900963 11.4607136  8.498241 11.5162537  8.5 11.5721935  L 8.4874282 11.6138878  C 8.4762847 11.6405711  8.459767 11.6647517  8.4387754 11.684774  L 8.3696927 11.7576173  L 8.2959182 11.8255001  L 8.2140521 11.889679  L 8.1271372 11.9465245  L 8.0665338 11.9792304  L 8.0002752 11.997186  C 7.9573802 11.9923455  7.9153537 11.9756872  7.8778269 11.9510273  L 7.7914429 11.8934107  L 7.7090459 11.8300029  L 7.632049 11.7630165  L 7.5612246 11.6892769  L 7.5331838 11.656345  C 7.5168833 11.6325812  7.5055202 11.6054763  7.5 11.5766956  L 7.5071689 11.4800684  L 7.527027 11.3853078  L 7.5588114 11.25394  L 7.5926641 11.1111731  C 7.614727 11.0104137  7.6456151 10.9209112  7.6698842 10.8297209  C 7.6880861 10.7604834  7.7123553 10.6934981  7.7355213 10.6259495  C 7.6795624 10.5826882  7.6288312 10.5328043  7.5843909 10.4773428  L 7.5550413 10.4399419  C 7.5382922 10.4130645  7.5273406 10.3826381  7.5231664 10.3506895  L 7.5288371 10.3061948  C 7.5354789 10.2771347  7.5477496 10.2495616  7.5650859 10.2251623  L 7.6065612 10.1659787  L 7.6549923 10.1125811  L 7.7224382 10.0532856  L 7.7945397 10  Z " fill-rule="nonzero" fill="#ffffff" stroke="none" transform="matrix(1 0 0 1 24 204 )" />
  </g>
</svg>