<?xml version="1.0" encoding="utf-8"?>
<svg version="1.1" xmlns:xlink="http://www.w3.org/1999/xlink" width="17px" height="17px" xmlns="http://www.w3.org/2000/svg">
  <g transform="matrix(1 0 0 1 -24 -308 )">
    <path d="M 12.8160149 12.3520144  C 11.8720138 11.8880138  12.2080142 12.2560143  10.9920128 11.7440137  C 9.7280113 11.2320131  9.424011 11.0560129  9.424011 11.0560129  L 9.4080109 9.8720115  C 9.4080109 9.8720115  9.8880115 9.5200111  10.0320117 8.4000098  C 10.336012 8.4800099  10.4320121 8.0640094  10.4480122 7.7920091  C 10.4640122 7.5360088  10.6240124 6.7040078  10.2560119 6.7840079  C 10.336012 6.2400073  10.4000121 5.7280067  10.352012 5.4720064  C 10.272012 4.5440053  9.6160112 3.5840042  8.0000093 3.5040022  C 6.6240077 3.5840042  5.7280067 4.5440053  5.6320066 5.4720064  C 5.6000065 5.7280067  5.6640066 6.2400073  5.7280067 6.7840079  C 5.3600062 6.7040078  5.5360064 7.5360088  5.5360064 7.7920091  C 5.5520065 8.0640094  5.6480066 8.4960099  5.9520069 8.4000098  C 6.0960071 9.5200111  6.5600076 9.8880115  6.5600076 9.8880115  L 6.5440076 11.0880129  C 6.5440076 11.0880129  6.2400073 11.2640131  4.9760058 11.7920137  C 3.7440044 12.3040143  4.0960048 11.9200139  3.1520037 12.3840145  C 2.0943807 11.1677912  1.509455 9.6117613  1.5040019 8.0000094  C 1.5064789 4.4133337  4.4134271 1.5064241  8.0000563 1.5040022  C 11.58667 1.5064793  14.493564 4.4133962  14.4960171 8.0000098  C 14.4960171 9.6800117  13.8560164 11.2000135  12.8160152 12.3520148  Z M 16.0000186 8  C 16.0000186 3.5680042  12.4320145 0  8 0  C 3.5840042 0  0 3.5840042  0 8  C 0 12.4160144  3.5840042 16.0000186  8 16.0000186  C 12.4160144 16.0000186  16.0000186 12.4160144  16.0000186 8  Z " fill-rule="nonzero" fill="#ffffff" stroke="none" transform="matrix(1 0 0 1 24 308 )" />
  </g>
</svg>