<?xml version="1.0" encoding="utf-8"?>
<svg version="1.1" xmlns:xlink="http://www.w3.org/1999/xlink" width="16px" height="16px" xmlns="http://www.w3.org/2000/svg">
  <g transform="matrix(1 0 0 1 -24 -152 )">
    <path d="M 11.8578393 12.2782061  C 10.6343099 12.6407553  9.3362783 12.8248623  8 12.8248623  C 6.6637217 12.8248623  5.3656901 12.6407553  4.142153 12.2782061  C 2.9509766 11.9250983  1.8784237 11.418096  0.954902000000001 10.7713611  C 0.6088235 10.5296617  0.290196099999999 10.2719119  0 10  L 0 15.0558615  C 0 15.5751377  0.441176500000001 16  0.980392200000001 16  L 15.0196078 16  C 15.5588235 16  16 15.5751377  16 15.0558615  L 16 10  C 15.7088235 10.2719119  15.3901961 10.5287175  15.045098 10.7713611  C 14.1215686 11.418096  13.0490234 11.9250983  11.857847 12.2782061  Z M 15.0196222 3  L 0.980393100000001 3  C 0.441176899999999 3  0 3.4479841  0 3.9955202  L 0 7.2160279  C 0.415686699999998 7.9069189  1.0088245 8.5450473  1.7627468 9.1015431  C 3.4205915 10.3260329  5.6352995 11  8 11  C 10.3647005 11  12.5803889 10.3260329  14.2372532 9.1015431  C 14.9911755 8.5450473  15.5843133 7.9059233  16 7.2160279  L 16 3.9955202  C 16 3.4479841  15.5588231 3  15.0196069 3  Z M 9 7  C 9 7.5525554  8.5515911 8  8 8  C 7.4474446 8  7 7.5525554  7 7  C 7 6.4474446  7.4474446 6  8 6  C 8.5525554 6  9 6.4474446  9 7  Z M 8.0009716 0  C 6.0676497 0  4.5 1.4140351  4.5 3.1578947  C 4.5 3.4491228  4.5437621 3.7315789  4.6254515 4  L 6.2495133 4  C 6.100722 3.7491228  6.0161152 3.4622807  6.0161152 3.1578947  C 6.0161152 2.1692982  6.9040005 1.3684211  8 1.3684211  C 9.0959977 1.3684211  9.983883 2.1692982  9.983883 3.1578947  C 9.983883 3.4622807  9.8992762 3.7491228  9.7504849 4  L 11.3745467 4  C 11.456236 3.7315789  11.5 3.4491228  11.5 3.1578947  C 11.5019432 1.4140282  9.9342859 0  8.000964 0  Z " fill-rule="nonzero" fill="#ffffff" stroke="none" transform="matrix(1 0 0 1 24 152 )" />
  </g>
</svg>