<?xml version="1.0" encoding="utf-8"?>
<svg version="1.1" xmlns:xlink="http://www.w3.org/1999/xlink" width="15px" height="16px" xmlns="http://www.w3.org/2000/svg">
  <g transform="matrix(1 0 0 1 -24 -256 )">
    <path d="M 4 0  L 4.9150866 0  L 4.915 1  L 10.084 1  L 10.0849134 0  L 11 0  L 11 1  L 12.6853212 1  C 13.9066734 1  14.9110079 1.8268737  14.9944024 2.8718367  L 15 3.0156262  L 15 13.9843738  C 15 15.0962475  13.9621738 16  12.6843718 16  L 2.3146738 16  C 1.0378056 16  0 15.0962631  0 13.9843738  L 0 3.0156262  C 0 1.9037525  1.0378212 1  2.3156232 1  L 4 1  L 4 0  Z M 8.8246626 12.175935  L 8.8246626 11.3696907  L 3.0984131 11.3696907  L 3.0984131 12.175935  L 8.8246626 12.175935  Z M 11.7871711 8.9087485  L 11.7871711 8.1025042  L 3.0965454 8.1025042  L 3.0965454 8.9087485  L 11.7871711 8.9087485  Z M 11.7871711 5.7099967  L 11.7871711 4.9037525  L 3.0965454 4.9037525  L 3.0965454 5.7099967  L 11.7871711 5.7099967  Z " fill-rule="nonzero" fill="#163985" stroke="none" transform="matrix(1 0 0 1 24 256 )" />
  </g>
</svg>