<?xml version="1.0" encoding="utf-8"?>
<svg version="1.1" xmlns:xlink="http://www.w3.org/1999/xlink" width="14px" height="16px" xmlns="http://www.w3.org/2000/svg">
  <g transform="matrix(1 0 0 1 -15 -11 )">
    <path d="M 5.25 10.6666666666667  C 5.25 11.5047619047619  6.0375 12.1904761904762  7 12.1904761904762  C 7.9625 12.1904761904762  8.75 11.5047619047619  8.75 10.6666666666667  C 8.75 9.82857142857143  7.9625 9.14285714285714  7 9.14285714285714  C 6.0375 9.14285714285714  5.25 9.82857142857143  5.25 10.6666666666667  Z M 14 6.85714285714286  C 14 6.01904761904762  13.2125 5.33333333333333  12.25 5.33333333333333  L 11.375 5.33333333333333  L 11.375 3.80952380952381  C 11.375 1.70666666666667  9.415 0  7 0  C 4.585 0  2.625 1.70666666666667  2.625 3.80952380952381  L 2.625 5.33333333333333  L 1.75 5.33333333333333  C 0.7875 5.33333333333333  0 6.01904761904762  0 6.85714285714286  L 0 14.4761904761905  C 0 15.3142857142857  0.7875 16  1.75 16  L 12.25 16  C 13.2125 16  14 15.3142857142857  14 14.4761904761905  L 14 6.85714285714286  Z M 4.2875 5.33333333333333  L 4.2875 3.80952380952381  C 4.2875 2.50666666666667  5.50375 1.44761904761905  7 1.44761904761905  C 8.49625 1.44761904761905  9.7125 2.50666666666667  9.7125 3.80952380952381  L 9.7125 5.33333333333333  L 4.2875 5.33333333333333  Z M 12.25 7  L 12.25 14.4761904761905  L 1.75 14.4761904761905  L 1.75 7  L 12.25 7  Z " fill-rule="nonzero" fill="#999999" stroke="none" transform="matrix(1 0 0 1 15 11 )" />
  </g>
</svg>