<?xml version="1.0" encoding="utf-8"?>
<svg version="1.1" xmlns:xlink="http://www.w3.org/1999/xlink" width="18px" height="18px" xmlns="http://www.w3.org/2000/svg">
  <g transform="matrix(1 0 0 1 -13 -51 )">
    <path d="M 10 10  L 10 0  L 8 0  L 8 10  L 10 10  Z M 18 9  C 18 6.26  16.77 3.82  14.83 2.17  L 13.41 3.59  C 14.99 4.86  16 6.81  16 9  C 16 12.87  12.87 16  9 16  C 5.13 16  2 12.87  2 9  C 2 6.81  3.01 4.86  4.58 3.58  L 3.17 2.17  C 1.23 3.82  0 6.26  0 9  C 0 13.97  4.03 18  9 18  C 13.97 18  18 13.97  18 9  Z " fill-rule="nonzero" fill="#1677ff" stroke="none" transform="matrix(1 0 0 1 13 51 )" />
  </g>
</svg>