<?xml version="1.0" encoding="utf-8"?>
<svg version="1.1" xmlns:xlink="http://www.w3.org/1999/xlink" width="14px" height="14px" viewBox="266 642  14 14" xmlns="http://www.w3.org/2000/svg">
  <path d="M 273 643  C 276.36 643  279 645.64  279 649  C 279 652.36  276.36 655  273 655  C 269.64 655  267 652.36  267 649  C 267 645.64  269.64 643  273 643  Z " fill-rule="nonzero" fill="#f0f0f0" stroke="none" />
  <path d="M 273 643  C 276.36 643  279 645.64  279 649  C 279 652.36  276.36 655  273 655  C 269.64 655  267 652.36  267 649  C 267 645.64  269.64 643  273 643  Z " stroke-width="2" stroke="#666666" fill="none" />
  <path d="M 273 652.5  C 271.04 652.5  269.5 650.96  269.5 649  C 269.5 647.04  271.04 645.5  273 645.5  C 274.96 645.5  276.5 647.04  276.5 649  C 276.5 650.96  274.96 652.5  273 652.5  " fill-rule="nonzero" fill="#666666" stroke="none" />
</svg>