<?xml version="1.0" encoding="utf-8"?>
<svg version="1.1" xmlns:xlink="http://www.w3.org/1999/xlink" width="14px" height="14px" viewBox="266 601  14 14" xmlns="http://www.w3.org/2000/svg">
  <path d="M 273 602  C 276.36 602  279 604.64  279 608  C 279 611.36  276.36 614  273 614  C 269.64 614  267 611.36  267 608  C 267 604.64  269.64 602  273 602  Z " fill-rule="nonzero" fill="#ffffff" stroke="none" />
  <path d="M 273 602  C 276.36 602  279 604.64  279 608  C 279 611.36  276.36 614  273 614  C 269.64 614  267 611.36  267 608  C 267 604.64  269.64 602  273 602  Z " stroke-width="2" stroke="#163985" fill="none" />
  <path d="M 273 611.5  C 271.04 611.5  269.5 609.96  269.5 608  C 269.5 606.04  271.04 604.5  273 604.5  C 274.96 604.5  276.5 606.04  276.5 608  C 276.5 609.96  274.96 611.5  273 611.5  " fill-rule="nonzero" fill="#163985" stroke="none" />
</svg>