<?xml version="1.0" encoding="utf-8"?>
<svg version="1.1" xmlns:xlink="http://www.w3.org/1999/xlink" width="14px" height="14px" viewBox="266 560  14 14" xmlns="http://www.w3.org/2000/svg">
  <path d="M 273 561  C 276.36 561  279 563.64  279 567  C 279 570.36  276.36 573  273 573  C 269.64 573  267 570.36  267 567  C 267 563.64  269.64 561  273 561  Z " fill-rule="nonzero" fill="#f0f0f0" stroke="none" />
  <path d="M 273 561  C 276.36 561  279 563.64  279 567  C 279 570.36  276.36 573  273 573  C 269.64 573  267 570.36  267 567  C 267 563.64  269.64 561  273 561  Z " stroke-width="2" stroke="#666666" fill="none" />
  <path d="M 273 570.5  C 271.04 570.5  269.5 568.96  269.5 567  C 269.5 565.04  271.04 563.5  273 563.5  C 274.96 563.5  276.5 565.04  276.5 567  C 276.5 568.96  274.96 570.5  273 570.5  " fill-rule="nonzero" fill="#666666" stroke="none" />
</svg>