<?xml version="1.0" encoding="utf-8"?>
<svg version="1.1" xmlns:xlink="http://www.w3.org/1999/xlink" width="14px" height="14px" viewBox="266 519  14 14" xmlns="http://www.w3.org/2000/svg">
  <path d="M 273 520  C 276.36 520  279 522.64  279 526  C 279 529.36  276.36 532  273 532  C 269.64 532  267 529.36  267 526  C 267 522.64  269.64 520  273 520  Z " fill-rule="nonzero" fill="#ffffff" stroke="none" />
  <path d="M 273 520  C 276.36 520  279 522.64  279 526  C 279 529.36  276.36 532  273 532  C 269.64 532  267 529.36  267 526  C 267 522.64  269.64 520  273 520  Z " stroke-width="2" stroke="#163985" fill="none" />
  <path d="M 273 529.5  C 271.04 529.5  269.5 527.96  269.5 526  C 269.5 524.04  271.04 522.5  273 522.5  C 274.96 522.5  276.5 524.04  276.5 526  C 276.5 527.96  274.96 529.5  273 529.5  " fill-rule="nonzero" fill="#163985" stroke="none" />
</svg>