<?xml version="1.0" encoding="utf-8"?>
<svg version="1.1" xmlns:xlink="http://www.w3.org/1999/xlink" width="14px" height="14px" viewBox="266 683  14 14" xmlns="http://www.w3.org/2000/svg">
  <path d="M 273 684  C 276.36 684  279 686.64  279 690  C 279 693.36  276.36 696  273 696  C 269.64 696  267 693.36  267 690  C 267 686.64  269.64 684  273 684  Z " fill-rule="nonzero" fill="#f0f0f0" stroke="none" />
  <path d="M 273 684  C 276.36 684  279 686.64  279 690  C 279 693.36  276.36 696  273 696  C 269.64 696  267 693.36  267 690  C 267 686.64  269.64 684  273 684  Z " stroke-width="2" stroke="#666666" fill="none" />
  <path d="M 273 693.5  C 271.04 693.5  269.5 691.96  269.5 690  C 269.5 688.04  271.04 686.5  273 686.5  C 274.96 686.5  276.5 688.04  276.5 690  C 276.5 691.96  274.96 693.5  273 693.5  " fill-rule="nonzero" fill="#666666" stroke="none" />
</svg>