<?xml version="1.0" encoding="utf-8"?>
<svg version="1.1" xmlns:xlink="http://www.w3.org/1999/xlink" width="14px" height="14px" viewBox="410 517  14 14" xmlns="http://www.w3.org/2000/svg">
  <path d="M 417 517  C 420.92 517  424 520.08  424 524  C 424 527.92  420.92 531  417 531  C 413.08 531  410 527.92  410 524  C 410 520.08  413.08 517  417 517  Z " fill-rule="nonzero" fill="#ffffff" stroke="none" />
  <path d="M 417 517.5  C 420.64 517.5  423.5 520.36  423.5 524  C 423.5 527.64  420.64 530.5  417 530.5  C 413.36 530.5  410.5 527.64  410.5 524  C 410.5 520.36  413.36 517.5  417 517.5  Z " stroke-width="1" stroke="#163985" fill="none" />
  <path d="M 417 527.5  C 415.04 527.5  413.5 525.96  413.5 524  C 413.5 522.04  415.04 520.5  417 520.5  C 418.96 520.5  420.5 522.04  420.5 524  C 420.5 525.96  418.96 527.5  417 527.5  " fill-rule="nonzero" fill="#163985" stroke="none" />
</svg>