<?xml version="1.0" encoding="utf-8"?>
<svg version="1.1" xmlns:xlink="http://www.w3.org/1999/xlink" width="102px" height="43px" xmlns="http://www.w3.org/2000/svg">
  <defs>
    <mask fill="white" id="clip287">
      <path d="M 0.329375000000002 21.6  C 0.329375000000002 32.9  10.104375 42.1  22.110625 42.1  C 22.110625 42.1  79.485625 42.1  79.485625 42.1  C 91.491875 42.1  101.266875 32.9  101.266875 21.6  C 101.266875 10.3  91.491875 0.100000000000001  79.485625 0.100000000000001  C 79.485625 0.100000000000001  22.110625 0.100000000000001  22.110625 0.100000000000001  C 10.104375 0.100000000000001  0.329375000000002 10.3  0.329375000000002 21.6  Z " fill-rule="evenodd" />
    </mask>
  </defs>
  <g transform="matrix(1 0 0 1 -402 -75 )">
    <path d="M 0.329375000000002 21.6  C 0.329375000000002 32.9  10.104375 42.1  22.110625 42.1  C 22.110625 42.1  79.485625 42.1  79.485625 42.1  C 91.491875 42.1  101.266875 32.9  101.266875 21.6  C 101.266875 10.3  91.491875 0.100000000000001  79.485625 0.100000000000001  C 79.485625 0.100000000000001  22.110625 0.100000000000001  22.110625 0.100000000000001  C 10.104375 0.100000000000001  0.329375000000002 10.3  0.329375000000002 21.6  Z " fill-rule="nonzero" fill="#3498db" stroke="none" transform="matrix(1 0 0 1 402 75 )" />
    <path d="M 0.329375000000002 21.6  C 0.329375000000002 32.9  10.104375 42.1  22.110625 42.1  C 22.110625 42.1  79.485625 42.1  79.485625 42.1  C 91.491875 42.1  101.266875 32.9  101.266875 21.6  C 101.266875 10.3  91.491875 0.100000000000001  79.485625 0.100000000000001  C 79.485625 0.100000000000001  22.110625 0.100000000000001  22.110625 0.100000000000001  C 10.104375 0.100000000000001  0.329375000000002 10.3  0.329375000000002 21.6  Z " stroke-width="2" stroke="#3498db" fill="none" transform="matrix(1 0 0 1 402 75 )" mask="url(#clip287)" />
  </g>
</svg>