<?xml version="1.0" encoding="utf-8"?>
<svg version="1.1" xmlns:xlink="http://www.w3.org/1999/xlink" width="95px" height="39px" xmlns="http://www.w3.org/2000/svg">
  <defs>
    <mask fill="white" id="clip316">
      <path d="M 0.533707865168539 38.43  C 0.533707865168539 38.43  94.5730337078652 38.43  94.5730337078652 38.43  C 94.5730337078652 38.43  94.5730337078652 0.430000000000007  94.5730337078652 0.430000000000007  C 94.5730337078652 0.430000000000007  0.533707865168539 0.430000000000007  0.533707865168539 0.430000000000007  C 0.533707865168539 0.430000000000007  0.533707865168539 38.43  0.533707865168539 38.43  Z " fill-rule="evenodd" />
    </mask>
  </defs>
  <g transform="matrix(1 0 0 1 -697 -310 )">
    <path d="M 0.533707865168539 38.43  C 0.533707865168539 38.43  94.5730337078652 38.43  94.5730337078652 38.43  C 94.5730337078652 38.43  94.5730337078652 0.430000000000007  94.5730337078652 0.430000000000007  C 94.5730337078652 0.430000000000007  0.533707865168539 0.430000000000007  0.533707865168539 0.430000000000007  C 0.533707865168539 0.430000000000007  0.533707865168539 38.43  0.533707865168539 38.43  Z " fill-rule="nonzero" fill="#3498db" stroke="none" transform="matrix(1 0 0 1 697 310 )" />
    <path d="M 0.533707865168539 38.43  C 0.533707865168539 38.43  94.5730337078652 38.43  94.5730337078652 38.43  C 94.5730337078652 38.43  94.5730337078652 0.430000000000007  94.5730337078652 0.430000000000007  C 94.5730337078652 0.430000000000007  0.533707865168539 0.430000000000007  0.533707865168539 0.430000000000007  C 0.533707865168539 0.430000000000007  0.533707865168539 38.43  0.533707865168539 38.43  Z " stroke-width="2" stroke="#3498db" fill="none" transform="matrix(1 0 0 1 697 310 )" mask="url(#clip316)" />
  </g>
</svg>