<?xml version="1.0" encoding="utf-8"?>
<svg version="1.1" xmlns:xlink="http://www.w3.org/1999/xlink" width="81px" height="39px" xmlns="http://www.w3.org/2000/svg">
  <defs>
    <mask fill="white" id="clip321">
      <path d="M 0.714078947368438 38.43  C 0.714078947368438 38.43  80.4351315789474 38.43  80.4351315789474 38.43  C 80.4351315789474 38.43  80.4351315789474 0.430000000000007  80.4351315789474 0.430000000000007  C 80.4351315789474 0.430000000000007  0.714078947368438 0.430000000000007  0.714078947368438 0.430000000000007  C 0.714078947368438 0.430000000000007  0.714078947368438 38.43  0.714078947368438 38.43  Z " fill-rule="evenodd" />
    </mask>
  </defs>
  <g transform="matrix(1 0 0 1 -456 -382 )">
    <path d="M 0.714078947368438 38.43  C 0.714078947368438 38.43  80.4351315789474 38.43  80.4351315789474 38.43  C 80.4351315789474 38.43  80.4351315789474 0.430000000000007  80.4351315789474 0.430000000000007  C 80.4351315789474 0.430000000000007  0.714078947368438 0.430000000000007  0.714078947368438 0.430000000000007  C 0.714078947368438 0.430000000000007  0.714078947368438 38.43  0.714078947368438 38.43  Z " fill-rule="nonzero" fill="#3498db" stroke="none" transform="matrix(1 0 0 1 456 382 )" />
    <path d="M 0.714078947368438 38.43  C 0.714078947368438 38.43  80.4351315789474 38.43  80.4351315789474 38.43  C 80.4351315789474 38.43  80.4351315789474 0.430000000000007  80.4351315789474 0.430000000000007  C 80.4351315789474 0.430000000000007  0.714078947368438 0.430000000000007  0.714078947368438 0.430000000000007  C 0.714078947368438 0.430000000000007  0.714078947368438 38.43  0.714078947368438 38.43  Z " stroke-width="2" stroke="#3498db" fill="none" transform="matrix(1 0 0 1 456 382 )" mask="url(#clip321)" />
  </g>
</svg>