<?xml version="1.0" encoding="utf-8"?>
<svg version="1.1" xmlns:xlink="http://www.w3.org/1999/xlink" width="102px" height="40px" xmlns="http://www.w3.org/2000/svg">
  <defs>
    <mask fill="white" id="clip290">
      <path d="M 0.892499999999973 39.43  C 0.892499999999973 39.43  101.83 39.43  101.83 39.43  C 101.83 39.43  101.83 0.430000000000007  101.83 0.430000000000007  C 101.83 0.430000000000007  0.892499999999973 0.430000000000007  0.892499999999973 0.430000000000007  C 0.892499999999973 0.430000000000007  0.892499999999973 39.43  0.892499999999973 39.43  Z " fill-rule="evenodd" />
    </mask>
  </defs>
  <g transform="matrix(1 0 0 1 -405 -472 )">
    <path d="M 0.892499999999973 39.43  C 0.892499999999973 39.43  101.83 39.43  101.83 39.43  C 101.83 39.43  101.83 0.430000000000007  101.83 0.430000000000007  C 101.83 0.430000000000007  0.892499999999973 0.430000000000007  0.892499999999973 0.430000000000007  C 0.892499999999973 0.430000000000007  0.892499999999973 39.43  0.892499999999973 39.43  Z " fill-rule="nonzero" fill="#3498db" stroke="none" transform="matrix(1 0 0 1 405 472 )" />
    <path d="M 0.892499999999973 39.43  C 0.892499999999973 39.43  101.83 39.43  101.83 39.43  C 101.83 39.43  101.83 0.430000000000007  101.83 0.430000000000007  C 101.83 0.430000000000007  0.892499999999973 0.430000000000007  0.892499999999973 0.430000000000007  C 0.892499999999973 0.430000000000007  0.892499999999973 39.43  0.892499999999973 39.43  Z " stroke-width="2" stroke="#3498db" fill="none" transform="matrix(1 0 0 1 405 472 )" mask="url(#clip290)" />
  </g>
</svg>