<?xml version="1.0" encoding="utf-8"?>
<svg version="1.1" xmlns:xlink="http://www.w3.org/1999/xlink" width="154px" height="39px" xmlns="http://www.w3.org/2000/svg">
  <defs>
    <mask fill="white" id="clip315">
      <path d="M 0.531034482758621 38.43  C 0.531034482758621 38.43  153.044137931034 38.43  153.044137931034 38.43  C 153.044137931034 38.43  153.044137931034 0.430000000000007  153.044137931034 0.430000000000007  C 153.044137931034 0.430000000000007  0.531034482758621 0.430000000000007  0.531034482758621 0.430000000000007  C 0.531034482758621 0.430000000000007  0.531034482758621 38.43  0.531034482758621 38.43  Z " fill-rule="evenodd" />
    </mask>
  </defs>
  <g transform="matrix(1 0 0 1 -529 -310 )">
    <path d="M 0.531034482758621 38.43  C 0.531034482758621 38.43  153.044137931034 38.43  153.044137931034 38.43  C 153.044137931034 38.43  153.044137931034 0.430000000000007  153.044137931034 0.430000000000007  C 153.044137931034 0.430000000000007  0.531034482758621 0.430000000000007  0.531034482758621 0.430000000000007  C 0.531034482758621 0.430000000000007  0.531034482758621 38.43  0.531034482758621 38.43  Z " fill-rule="nonzero" fill="#3498db" stroke="none" transform="matrix(1 0 0 1 529 310 )" />
    <path d="M 0.531034482758621 38.43  C 0.531034482758621 38.43  153.044137931034 38.43  153.044137931034 38.43  C 153.044137931034 38.43  153.044137931034 0.430000000000007  153.044137931034 0.430000000000007  C 153.044137931034 0.430000000000007  0.531034482758621 0.430000000000007  0.531034482758621 0.430000000000007  C 0.531034482758621 0.430000000000007  0.531034482758621 38.43  0.531034482758621 38.43  Z " stroke-width="2" stroke="#3498db" fill="none" transform="matrix(1 0 0 1 529 310 )" mask="url(#clip315)" />
  </g>
</svg>