<?xml version="1.0" encoding="utf-8"?>
<svg version="1.1" xmlns:xlink="http://www.w3.org/1999/xlink" width="159px" height="39px" xmlns="http://www.w3.org/2000/svg">
  <defs>
    <mask fill="white" id="clip314">
      <path d="M 0.704295302013419 38.43  C 0.704295302013419 38.43  158.103624161074 38.43  158.103624161074 38.43  C 158.103624161074 38.43  158.103624161074 0.430000000000007  158.103624161074 0.430000000000007  C 158.103624161074 0.430000000000007  0.704295302013419 0.430000000000007  0.704295302013419 0.430000000000007  C 0.704295302013419 0.430000000000007  0.704295302013419 38.43  0.704295302013419 38.43  Z " fill-rule="evenodd" />
    </mask>
  </defs>
  <g transform="matrix(1 0 0 1 -245 -310 )">
    <path d="M 0.704295302013419 38.43  C 0.704295302013419 38.43  158.103624161074 38.43  158.103624161074 38.43  C 158.103624161074 38.43  158.103624161074 0.430000000000007  158.103624161074 0.430000000000007  C 158.103624161074 0.430000000000007  0.704295302013419 0.430000000000007  0.704295302013419 0.430000000000007  C 0.704295302013419 0.430000000000007  0.704295302013419 38.43  0.704295302013419 38.43  Z " fill-rule="nonzero" fill="#3498db" stroke="none" transform="matrix(1 0 0 1 245 310 )" />
    <path d="M 0.704295302013419 38.43  C 0.704295302013419 38.43  158.103624161074 38.43  158.103624161074 38.43  C 158.103624161074 38.43  158.103624161074 0.430000000000007  158.103624161074 0.430000000000007  C 158.103624161074 0.430000000000007  0.704295302013419 0.430000000000007  0.704295302013419 0.430000000000007  C 0.704295302013419 0.430000000000007  0.704295302013419 38.43  0.704295302013419 38.43  Z " stroke-width="2" stroke="#3498db" fill="none" transform="matrix(1 0 0 1 245 310 )" mask="url(#clip314)" />
  </g>
</svg>