<?xml version="1.0" encoding="utf-8"?>
<svg version="1.1" xmlns:xlink="http://www.w3.org/1999/xlink" width="102px" height="40px" xmlns="http://www.w3.org/2000/svg">
  <defs>
    <mask fill="white" id="clip288">
      <path d="M 0.329375000000002 39.1  C 0.329375000000002 39.1  101.266875 39.1  101.266875 39.1  C 101.266875 39.1  101.266875 0.0999999999999943  101.266875 0.0999999999999943  C 101.266875 0.0999999999999943  0.329375000000002 0.0999999999999943  0.329375000000002 0.0999999999999943  C 0.329375000000002 0.0999999999999943  0.329375000000002 39.1  0.329375000000002 39.1  Z " fill-rule="evenodd" />
    </mask>
  </defs>
  <g transform="matrix(1 0 0 1 -402 -141 )">
    <path d="M 0.329375000000002 39.1  C 0.329375000000002 39.1  101.266875 39.1  101.266875 39.1  C 101.266875 39.1  101.266875 0.0999999999999943  101.266875 0.0999999999999943  C 101.266875 0.0999999999999943  0.329375000000002 0.0999999999999943  0.329375000000002 0.0999999999999943  C 0.329375000000002 0.0999999999999943  0.329375000000002 39.1  0.329375000000002 39.1  Z " fill-rule="nonzero" fill="#3498db" stroke="none" transform="matrix(1 0 0 1 402 141 )" />
    <path d="M 0.329375000000002 39.1  C 0.329375000000002 39.1  101.266875 39.1  101.266875 39.1  C 101.266875 39.1  101.266875 0.0999999999999943  101.266875 0.0999999999999943  C 101.266875 0.0999999999999943  0.329375000000002 0.0999999999999943  0.329375000000002 0.0999999999999943  C 0.329375000000002 0.0999999999999943  0.329375000000002 39.1  0.329375000000002 39.1  Z " stroke-width="2" stroke="#3498db" fill="none" transform="matrix(1 0 0 1 402 141 )" mask="url(#clip288)" />
  </g>
</svg>