<?xml version="1.0" encoding="utf-8"?>
<svg version="1.1" xmlns:xlink="http://www.w3.org/1999/xlink" width="328px" height="58px" xmlns="http://www.w3.org/2000/svg">
  <defs>
    <mask fill="white" id="clip313">
      <path d="M 0.0745454545454473 57.1  C 0.0745454545454473 57.1  327.755064935065 57.1  327.755064935065 57.1  C 327.755064935065 57.1  327.755064935065 0.0999999999999943  327.755064935065 0.0999999999999943  C 327.755064935065 0.0999999999999943  0.0745454545454473 0.0999999999999943  0.0745454545454473 0.0999999999999943  C 0.0745454545454473 0.0999999999999943  0.0745454545454473 57.1  0.0745454545454473 57.1  Z " fill-rule="evenodd" />
    </mask>
  </defs>
  <g transform="matrix(1 0 0 1 -289 -200 )">
    <path d="M 0.0745454545454473 57.1  C 0.0745454545454473 57.1  327.755064935065 57.1  327.755064935065 57.1  C 327.755064935065 57.1  327.755064935065 0.0999999999999943  327.755064935065 0.0999999999999943  C 327.755064935065 0.0999999999999943  0.0745454545454473 0.0999999999999943  0.0745454545454473 0.0999999999999943  C 0.0745454545454473 0.0999999999999943  0.0745454545454473 57.1  0.0745454545454473 57.1  Z " fill-rule="nonzero" fill="#ffffff" stroke="none" fill-opacity="0" transform="matrix(1 0 0 1 289 200 )" />
    <path d="M 0.0745454545454473 57.1  C 0.0745454545454473 57.1  327.755064935065 57.1  327.755064935065 57.1  C 327.755064935065 57.1  327.755064935065 0.0999999999999943  327.755064935065 0.0999999999999943  C 327.755064935065 0.0999999999999943  0.0745454545454473 0.0999999999999943  0.0745454545454473 0.0999999999999943  C 0.0745454545454473 0.0999999999999943  0.0745454545454473 57.1  0.0745454545454473 57.1  Z " stroke-width="2" stroke="#ff0000" fill="none" transform="matrix(1 0 0 1 289 200 )" mask="url(#clip313)" />
  </g>
</svg>