<?xml version="1.0" encoding="utf-8"?>
<svg version="1.1" xmlns:xlink="http://www.w3.org/1999/xlink" width="724px" height="192px" xmlns="http://www.w3.org/2000/svg">
  <defs>
    <mask fill="white" id="clip322">
      <path d="M 0.532352941176471 191.5  C 0.532352941176471 191.5  723.041764705882 191.5  723.041764705882 191.5  C 723.041764705882 191.5  723.041764705882 0.5  723.041764705882 0.5  C 723.041764705882 0.5  0.532352941176471 0.5  0.532352941176471 0.5  C 0.532352941176471 0.5  0.532352941176471 191.5  0.532352941176471 191.5  Z " fill-rule="evenodd" />
    </mask>
  </defs>
  <g transform="matrix(1 0 0 1 -96 -269 )">
    <path d="M 0.532352941176471 191.5  C 0.532352941176471 191.5  723.041764705882 191.5  723.041764705882 191.5  C 723.041764705882 191.5  723.041764705882 0.5  723.041764705882 0.5  C 723.041764705882 0.5  0.532352941176471 0.5  0.532352941176471 0.5  C 0.532352941176471 0.5  0.532352941176471 191.5  0.532352941176471 191.5  Z " fill-rule="nonzero" fill="#ffffff" stroke="none" fill-opacity="0" transform="matrix(1 0 0 1 96 269 )" />
    <path d="M 0.532352941176471 191.5  C 0.532352941176471 191.5  723.041764705882 191.5  723.041764705882 191.5  C 723.041764705882 191.5  723.041764705882 0.5  723.041764705882 0.5  C 723.041764705882 0.5  0.532352941176471 0.5  0.532352941176471 0.5  C 0.532352941176471 0.5  0.532352941176471 191.5  0.532352941176471 191.5  Z " stroke-width="2" stroke="#ff0000" fill="none" transform="matrix(1 0 0 1 96 269 )" mask="url(#clip322)" />
  </g>
</svg>