<?xml version="1.0" encoding="utf-8"?>
<svg version="1.1" xmlns:xlink="http://www.w3.org/1999/xlink" width="138px" height="58px" xmlns="http://www.w3.org/2000/svg">
  <defs>
    <mask fill="white" id="clip299">
      <path d="M 0.891692307692281 29.4300000000001  C 0.891692307692281 29.4300000000001  69.8916923076923 57.4300000000001  69.8916923076923 57.4300000000001  C 69.8916923076923 57.4300000000001  137.830153846154 29.4300000000001  137.830153846154 29.4300000000001  C 137.830153846154 29.4300000000001  69.8916923076923 0.430000000000064  69.8916923076923 0.430000000000064  C 69.8916923076923 0.430000000000064  0.891692307692281 29.4300000000001  0.891692307692281 29.4300000000001  Z " fill-rule="evenodd" />
    </mask>
  </defs>
  <g transform="matrix(1 0 0 1 -402 -803 )">
    <path d="M 0.891692307692281 29.4300000000001  C 0.891692307692281 29.4300000000001  69.8916923076923 57.4300000000001  69.8916923076923 57.4300000000001  C 69.8916923076923 57.4300000000001  137.830153846154 29.4300000000001  137.830153846154 29.4300000000001  C 137.830153846154 29.4300000000001  69.8916923076923 0.430000000000064  69.8916923076923 0.430000000000064  C 69.8916923076923 0.430000000000064  0.891692307692281 29.4300000000001  0.891692307692281 29.4300000000001  Z " fill-rule="nonzero" fill="#3498db" stroke="none" transform="matrix(1 0 0 1 402 803 )" />
    <path d="M 0.891692307692281 29.4300000000001  C 0.891692307692281 29.4300000000001  69.8916923076923 57.4300000000001  69.8916923076923 57.4300000000001  C 69.8916923076923 57.4300000000001  137.830153846154 29.4300000000001  137.830153846154 29.4300000000001  C 137.830153846154 29.4300000000001  69.8916923076923 0.430000000000064  69.8916923076923 0.430000000000064  C 69.8916923076923 0.430000000000064  0.891692307692281 29.4300000000001  0.891692307692281 29.4300000000001  Z " stroke-width="2" stroke="#3498db" fill="none" transform="matrix(1 0 0 1 402 803 )" mask="url(#clip299)" />
  </g>
</svg>