<?xml version="1.0" encoding="utf-8"?>
<svg version="1.1" xmlns:xlink="http://www.w3.org/1999/xlink" width="102px" height="58px" xmlns="http://www.w3.org/2000/svg">
  <defs>
    <mask fill="white" id="clip296">
      <path d="M 0.892499999999973 29.5  C 0.892499999999973 29.5  51.8925 57.5  51.8925 57.5  C 51.8925 57.5  101.83 29.5  101.83 29.5  C 101.83 29.5  51.8925 0.5  51.8925 0.5  C 51.8925 0.5  0.892499999999973 29.5  0.892499999999973 29.5  Z " fill-rule="evenodd" />
    </mask>
  </defs>
  <g transform="matrix(1 0 0 1 -420 -955 )">
    <path d="M 0.892499999999973 29.5  C 0.892499999999973 29.5  51.8925 57.5  51.8925 57.5  C 51.8925 57.5  101.83 29.5  101.83 29.5  C 101.83 29.5  51.8925 0.5  51.8925 0.5  C 51.8925 0.5  0.892499999999973 29.5  0.892499999999973 29.5  Z " fill-rule="nonzero" fill="#3498db" stroke="none" transform="matrix(1 0 0 1 420 955 )" />
    <path d="M 0.892499999999973 29.5  C 0.892499999999973 29.5  51.8925 57.5  51.8925 57.5  C 51.8925 57.5  101.83 29.5  101.83 29.5  C 101.83 29.5  51.8925 0.5  51.8925 0.5  C 51.8925 0.5  0.892499999999973 29.5  0.892499999999973 29.5  Z " stroke-width="2" stroke="#3498db" fill="none" transform="matrix(1 0 0 1 420 955 )" mask="url(#clip296)" />
  </g>
</svg>