<?xml version="1.0" encoding="utf-8"?>
<svg version="1.1" xmlns:xlink="http://www.w3.org/1999/xlink" width="78px" height="39px" xmlns="http://www.w3.org/2000/svg">
  <defs>
    <mask fill="white" id="clip317">
      <path d="M 0.224383561643829 38.43  C 0.224383561643829 38.43  77.7969863013699 38.43  77.7969863013699 38.43  C 77.7969863013699 38.43  77.7969863013699 0.430000000000007  77.7969863013699 0.430000000000007  C 77.7969863013699 0.430000000000007  0.224383561643829 0.430000000000007  0.224383561643829 0.430000000000007  C 0.224383561643829 0.430000000000007  0.224383561643829 38.43  0.224383561643829 38.43  Z " fill-rule="evenodd" />
    </mask>
  </defs>
  <g transform="matrix(1 0 0 1 -114 -382 )">
    <path d="M 0.224383561643829 38.43  C 0.224383561643829 38.43  77.7969863013699 38.43  77.7969863013699 38.43  C 77.7969863013699 38.43  77.7969863013699 0.430000000000007  77.7969863013699 0.430000000000007  C 77.7969863013699 0.430000000000007  0.224383561643829 0.430000000000007  0.224383561643829 0.430000000000007  C 0.224383561643829 0.430000000000007  0.224383561643829 38.43  0.224383561643829 38.43  Z " fill-rule="nonzero" fill="#3498db" stroke="none" transform="matrix(1 0 0 1 114 382 )" />
    <path d="M 0.224383561643829 38.43  C 0.224383561643829 38.43  77.7969863013699 38.43  77.7969863013699 38.43  C 77.7969863013699 38.43  77.7969863013699 0.430000000000007  77.7969863013699 0.430000000000007  C 77.7969863013699 0.430000000000007  0.224383561643829 0.430000000000007  0.224383561643829 0.430000000000007  C 0.224383561643829 0.430000000000007  0.224383561643829 38.43  0.224383561643829 38.43  Z " stroke-width="2" stroke="#3498db" fill="none" transform="matrix(1 0 0 1 114 382 )" mask="url(#clip317)" />
  </g>
</svg>