<?xml version="1.0" encoding="utf-8"?>
<svg version="1.1" xmlns:xlink="http://www.w3.org/1999/xlink" width="143px" height="67px" xmlns="http://www.w3.org/2000/svg">
  <defs>
    <mask fill="white" id="clip291">
      <path d="M 0.896417910447795 33.9300000000001  C 0.896417910447795 33.9300000000001  72.3964179104478 66.33  72.3964179104478 66.33  C 72.3964179104478 66.33  142.829253731343 33.9300000000001  142.829253731343 33.9300000000001  C 142.829253731343 33.9300000000001  72.3964179104478 0.430000000000064  72.3964179104478 0.430000000000064  C 72.3964179104478 0.430000000000064  0.896417910447795 33.9300000000001  0.896417910447795 33.9300000000001  Z " fill-rule="evenodd" />
    </mask>
  </defs>
  <g transform="matrix(1 0 0 1 -321 -681 )">
    <path d="M 0.896417910447795 33.9300000000001  C 0.896417910447795 33.9300000000001  72.3964179104478 66.33  72.3964179104478 66.33  C 72.3964179104478 66.33  142.829253731343 33.9300000000001  142.829253731343 33.9300000000001  C 142.829253731343 33.9300000000001  72.3964179104478 0.430000000000064  72.3964179104478 0.430000000000064  C 72.3964179104478 0.430000000000064  0.896417910447795 33.9300000000001  0.896417910447795 33.9300000000001  Z " fill-rule="nonzero" fill="#3498db" stroke="none" transform="matrix(1 0 0 1 321 681 )" />
    <path d="M 0.896417910447795 33.9300000000001  C 0.896417910447795 33.9300000000001  72.3964179104478 66.33  72.3964179104478 66.33  C 72.3964179104478 66.33  142.829253731343 33.9300000000001  142.829253731343 33.9300000000001  C 142.829253731343 33.9300000000001  72.3964179104478 0.430000000000064  72.3964179104478 0.430000000000064  C 72.3964179104478 0.430000000000064  0.896417910447795 33.9300000000001  0.896417910447795 33.9300000000001  Z " stroke-width="2" stroke="#3498db" fill="none" transform="matrix(1 0 0 1 321 681 )" mask="url(#clip291)" />
  </g>
</svg>