<?xml version="1.0" encoding="utf-8"?>
<svg version="1.1" xmlns:xlink="http://www.w3.org/1999/xlink" width="9px" height="7px" xmlns="http://www.w3.org/2000/svg">
  <defs>
    <mask fill="white" id="clip325">
      <path d="M 0.922499999999928 0.199999999999989  C 0.922499999999928 0.199999999999989  5.42249999999993 6.39999999999998  5.42249999999993 6.39999999999998  C 5.42249999999993 6.39999999999998  8.79749999999993 0.199999999999989  8.79749999999993 0.199999999999989  C 7.78499999999995 0.699999999999989  6.65999999999995 1  5.42249999999993 1  C 4.18500000000003 1  1.93500000000003 0.699999999999989  0.922499999999928 0.199999999999989  Z " fill-rule="evenodd" />
    </mask>
  </defs>
  <g transform="matrix(1 0 0 1 -601 -305 )">
    <path d="M 0.922499999999928 0.199999999999989  C 0.922499999999928 0.199999999999989  5.42249999999993 6.39999999999998  5.42249999999993 6.39999999999998  C 5.42249999999993 6.39999999999998  8.79749999999993 0.199999999999989  8.79749999999993 0.199999999999989  C 7.78499999999995 0.699999999999989  6.65999999999995 1  5.42249999999993 1  C 4.18500000000003 1  1.93500000000003 0.699999999999989  0.922499999999928 0.199999999999989  Z " fill-rule="nonzero" fill="#236ea1" stroke="none" transform="matrix(1 0 0 1 601 305 )" />
    <path d="M 0.922499999999928 0.199999999999989  C 0.922499999999928 0.199999999999989  5.42249999999993 6.39999999999998  5.42249999999993 6.39999999999998  C 5.42249999999993 6.39999999999998  8.79749999999993 0.199999999999989  8.79749999999993 0.199999999999989  C 7.78499999999995 0.699999999999989  6.65999999999995 1  5.42249999999993 1  C 4.18500000000003 1  1.93500000000003 0.699999999999989  0.922499999999928 0.199999999999989  Z " stroke-width="2" stroke="#236ea1" fill="none" transform="matrix(1 0 0 1 601 305 )" mask="url(#clip325)" />
  </g>
</svg>