<?xml version="1.0" encoding="utf-8"?>
<svg version="1.1" xmlns:xlink="http://www.w3.org/1999/xlink" width="9px" height="7px" xmlns="http://www.w3.org/2000/svg">
  <defs>
    <mask fill="white" id="clip326">
      <path d="M 0.135000000000005 0.199999999999989  C 0.135000000000005 0.199999999999989  4.63500000000001 6.39999999999998  4.63500000000001 6.39999999999998  C 4.63500000000001 6.39999999999998  8.01000000000001 0.199999999999989  8.01000000000001 0.199999999999989  C 6.99750000000003 0.699999999999989  5.76000000000001 1  4.63500000000001 1  C 3.39749999999998 1  1.03500000000008 0.699999999999989  0.135000000000005 0.199999999999989  Z " fill-rule="evenodd" />
    </mask>
  </defs>
  <g transform="matrix(1 0 0 1 -741 -305 )">
    <path d="M 0.135000000000005 0.199999999999989  C 0.135000000000005 0.199999999999989  4.63500000000001 6.39999999999998  4.63500000000001 6.39999999999998  C 4.63500000000001 6.39999999999998  8.01000000000001 0.199999999999989  8.01000000000001 0.199999999999989  C 6.99750000000003 0.699999999999989  5.76000000000001 1  4.63500000000001 1  C 3.39749999999998 1  1.03500000000008 0.699999999999989  0.135000000000005 0.199999999999989  Z " fill-rule="nonzero" fill="#236ea1" stroke="none" transform="matrix(1 0 0 1 741 305 )" />
    <path d="M 0.135000000000005 0.199999999999989  C 0.135000000000005 0.199999999999989  4.63500000000001 6.39999999999998  4.63500000000001 6.39999999999998  C 4.63500000000001 6.39999999999998  8.01000000000001 0.199999999999989  8.01000000000001 0.199999999999989  C 6.99750000000003 0.699999999999989  5.76000000000001 1  4.63500000000001 1  C 3.39749999999998 1  1.03500000000008 0.699999999999989  0.135000000000005 0.199999999999989  Z " stroke-width="2" stroke="#236ea1" fill="none" transform="matrix(1 0 0 1 741 305 )" mask="url(#clip326)" />
  </g>
</svg>