<?xml version="1.0" encoding="utf-8"?>
<svg version="1.1" xmlns:xlink="http://www.w3.org/1999/xlink" width="9px" height="7px" xmlns="http://www.w3.org/2000/svg">
  <defs>
    <mask fill="white" id="clip324">
      <path d="M 1.03499999999995 0.199999999999989  C 1.03499999999995 0.199999999999989  5.53499999999995 6.39999999999998  5.53499999999995 6.39999999999998  C 5.53499999999995 6.39999999999998  8.90999999999995 0.199999999999989  8.90999999999995 0.199999999999989  C 7.89749999999998 0.699999999999989  6.77249999999998 1  5.53499999999995 1  C 4.29749999999999 1  2.04749999999999 0.699999999999989  1.03499999999995 0.199999999999989  Z " fill-rule="evenodd" />
    </mask>
  </defs>
  <g transform="matrix(1 0 0 1 -319 -305 )">
    <path d="M 1.03499999999995 0.199999999999989  C 1.03499999999995 0.199999999999989  5.53499999999995 6.39999999999998  5.53499999999995 6.39999999999998  C 5.53499999999995 6.39999999999998  8.90999999999995 0.199999999999989  8.90999999999995 0.199999999999989  C 7.89749999999998 0.699999999999989  6.77249999999998 1  5.53499999999995 1  C 4.29749999999999 1  2.04749999999999 0.699999999999989  1.03499999999995 0.199999999999989  Z " fill-rule="nonzero" fill="#236ea1" stroke="none" transform="matrix(1 0 0 1 319 305 )" />
    <path d="M 1.03499999999995 0.199999999999989  C 1.03499999999995 0.199999999999989  5.53499999999995 6.39999999999998  5.53499999999995 6.39999999999998  C 5.53499999999995 6.39999999999998  8.90999999999995 0.199999999999989  8.90999999999995 0.199999999999989  C 7.89749999999998 0.699999999999989  6.77249999999998 1  5.53499999999995 1  C 4.29749999999999 1  2.04749999999999 0.699999999999989  1.03499999999995 0.199999999999989  Z " stroke-width="2" stroke="#236ea1" fill="none" transform="matrix(1 0 0 1 319 305 )" mask="url(#clip324)" />
  </g>
</svg>