<?xml version="1.0" encoding="utf-8"?>
<svg version="1.1" xmlns:xlink="http://www.w3.org/1999/xlink" width="9px" height="7px" xmlns="http://www.w3.org/2000/svg">
  <defs>
    <mask fill="white" id="clip327">
      <path d="M 0.0224999999999795 0.100000000000023  C 0.0224999999999795 0.100000000000023  3.17249999999999 6.39999999999998  3.17249999999999 6.39999999999998  C 3.17249999999999 6.39999999999998  7.89749999999998 0.399999999999977  7.89749999999998 0.399999999999977  C 6.88500000000001 0.800000000000011  4.63500000000001 1.10000000000002  3.39749999999998 1  C 2.16000000000002 1  1.03500000000002 0.699999999999989  0.0224999999999795 0.100000000000023  Z " fill-rule="evenodd" />
    </mask>
  </defs>
  <g transform="matrix(1 0 0 1 -453 -467 )">
    <path d="M 0.0224999999999795 0.100000000000023  C 0.0224999999999795 0.100000000000023  3.17249999999999 6.39999999999998  3.17249999999999 6.39999999999998  C 3.17249999999999 6.39999999999998  7.89749999999998 0.399999999999977  7.89749999999998 0.399999999999977  C 6.88500000000001 0.800000000000011  4.63500000000001 1.10000000000002  3.39749999999998 1  C 2.16000000000002 1  1.03500000000002 0.699999999999989  0.0224999999999795 0.100000000000023  Z " fill-rule="nonzero" fill="#236ea1" stroke="none" transform="matrix(1 0 0 1 453 467 )" />
    <path d="M 0.0224999999999795 0.100000000000023  C 0.0224999999999795 0.100000000000023  3.17249999999999 6.39999999999998  3.17249999999999 6.39999999999998  C 3.17249999999999 6.39999999999998  7.89749999999998 0.399999999999977  7.89749999999998 0.399999999999977  C 6.88500000000001 0.800000000000011  4.63500000000001 1.10000000000002  3.39749999999998 1  C 2.16000000000002 1  1.03500000000002 0.699999999999989  0.0224999999999795 0.100000000000023  Z " stroke-width="2" stroke="#236ea1" fill="none" transform="matrix(1 0 0 1 453 467 )" mask="url(#clip327)" />
  </g>
</svg>