<?xml version="1.0" encoding="utf-8"?>
<svg version="1.1" xmlns:xlink="http://www.w3.org/1999/xlink" width="7px" height="7px" xmlns="http://www.w3.org/2000/svg">
  <defs>
    <mask fill="white" id="clip329">
      <path d="M 0 0.230000000000018  C 0 0.230000000000018  3.99999999999998 6.43000000000001  3.99999999999998 6.43000000000001  C 3.99999999999998 6.43000000000001  6.99999999999997 0.230000000000018  6.99999999999997 0.230000000000018  C 6.09999999999997 0.730000000000018  5.09999999999997 1.03000000000003  3.99999999999998 1.03000000000003  C 2.89999999999999 1.03000000000003  0.900000000000002 0.730000000000018  0 0.230000000000018  Z " fill-rule="evenodd" />
    </mask>
  </defs>
  <g transform="matrix(1 0 0 1 -149 -377 )">
    <path d="M 0 0.230000000000018  C 0 0.230000000000018  3.99999999999998 6.43000000000001  3.99999999999998 6.43000000000001  C 3.99999999999998 6.43000000000001  6.99999999999997 0.230000000000018  6.99999999999997 0.230000000000018  C 6.09999999999997 0.730000000000018  5.09999999999997 1.03000000000003  3.99999999999998 1.03000000000003  C 2.89999999999999 1.03000000000003  0.900000000000002 0.730000000000018  0 0.230000000000018  Z " fill-rule="nonzero" fill="#236ea1" stroke="none" transform="matrix(1 0 0 1 149 377 )" />
    <path d="M 0 0.230000000000018  C 0 0.230000000000018  3.99999999999998 6.43000000000001  3.99999999999998 6.43000000000001  C 3.99999999999998 6.43000000000001  6.99999999999997 0.230000000000018  6.99999999999997 0.230000000000018  C 6.09999999999997 0.730000000000018  5.09999999999997 1.03000000000003  3.99999999999998 1.03000000000003  C 2.89999999999999 1.03000000000003  0.900000000000002 0.730000000000018  0 0.230000000000018  Z " stroke-width="2" stroke="#236ea1" fill="none" transform="matrix(1 0 0 1 149 377 )" mask="url(#clip329)" />
  </g>
</svg>