<?xml version="1.0" encoding="utf-8"?>
<svg version="1.1" xmlns:xlink="http://www.w3.org/1999/xlink" width="9px" height="7px" xmlns="http://www.w3.org/2000/svg">
  <defs>
    <mask fill="white" id="clip328">
      <path d="M 0.449999999999974 0.230000000000018  C 0.449999999999974 0.230000000000018  4.94999999999997 6.43000000000001  4.94999999999997 6.43000000000001  C 4.94999999999997 6.43000000000001  8.32499999999997 0.230000000000018  8.32499999999997 0.230000000000018  C 7.31249999999997 0.730000000000018  6.18749999999997 1.03000000000003  4.94999999999997 1.03000000000003  C 3.71249999999998 1.03000000000003  1.46249999999998 0.730000000000018  0.449999999999974 0.230000000000018  Z " fill-rule="evenodd" />
    </mask>
  </defs>
  <g transform="matrix(1 0 0 1 -229 -377 )">
    <path d="M 0.449999999999974 0.230000000000018  C 0.449999999999974 0.230000000000018  4.94999999999997 6.43000000000001  4.94999999999997 6.43000000000001  C 4.94999999999997 6.43000000000001  8.32499999999997 0.230000000000018  8.32499999999997 0.230000000000018  C 7.31249999999997 0.730000000000018  6.18749999999997 1.03000000000003  4.94999999999997 1.03000000000003  C 3.71249999999998 1.03000000000003  1.46249999999998 0.730000000000018  0.449999999999974 0.230000000000018  Z " fill-rule="nonzero" fill="#236ea1" stroke="none" transform="matrix(1 0 0 1 229 377 )" />
    <path d="M 0.449999999999974 0.230000000000018  C 0.449999999999974 0.230000000000018  4.94999999999997 6.43000000000001  4.94999999999997 6.43000000000001  C 4.94999999999997 6.43000000000001  8.32499999999997 0.230000000000018  8.32499999999997 0.230000000000018  C 7.31249999999997 0.730000000000018  6.18749999999997 1.03000000000003  4.94999999999997 1.03000000000003  C 3.71249999999998 1.03000000000003  1.46249999999998 0.730000000000018  0.449999999999974 0.230000000000018  Z " stroke-width="2" stroke="#236ea1" fill="none" transform="matrix(1 0 0 1 229 377 )" mask="url(#clip328)" />
  </g>
</svg>