<?xml version="1.0" encoding="utf-8"?>
<svg version="1.1" xmlns:xlink="http://www.w3.org/1999/xlink" width="9px" height="7px" xmlns="http://www.w3.org/2000/svg">
  <defs>
    <mask fill="white" id="clip331">
      <path d="M 0.674999999999962 0.230000000000018  C 0.674999999999962 0.230000000000018  5.17499999999996 6.43000000000001  5.17499999999996 6.43000000000001  C 5.17499999999996 6.43000000000001  8.54999999999996 0.230000000000018  8.54999999999996 0.230000000000018  C 7.53749999999999 0.730000000000018  6.41249999999999 1.03000000000003  5.17499999999996 1.03000000000003  C 3.9375 1.03000000000003  1.6875 0.730000000000018  0.674999999999962 0.230000000000018  Z " fill-rule="evenodd" />
    </mask>
  </defs>
  <g transform="matrix(1 0 0 1 -493 -377 )">
    <path d="M 0.674999999999962 0.230000000000018  C 0.674999999999962 0.230000000000018  5.17499999999996 6.43000000000001  5.17499999999996 6.43000000000001  C 5.17499999999996 6.43000000000001  8.54999999999996 0.230000000000018  8.54999999999996 0.230000000000018  C 7.53749999999999 0.730000000000018  6.41249999999999 1.03000000000003  5.17499999999996 1.03000000000003  C 3.9375 1.03000000000003  1.6875 0.730000000000018  0.674999999999962 0.230000000000018  Z " fill-rule="nonzero" fill="#236ea1" stroke="none" transform="matrix(1 0 0 1 493 377 )" />
    <path d="M 0.674999999999962 0.230000000000018  C 0.674999999999962 0.230000000000018  5.17499999999996 6.43000000000001  5.17499999999996 6.43000000000001  C 5.17499999999996 6.43000000000001  8.54999999999996 0.230000000000018  8.54999999999996 0.230000000000018  C 7.53749999999999 0.730000000000018  6.41249999999999 1.03000000000003  5.17499999999996 1.03000000000003  C 3.9375 1.03000000000003  1.6875 0.730000000000018  0.674999999999962 0.230000000000018  Z " stroke-width="2" stroke="#236ea1" fill="none" transform="matrix(1 0 0 1 493 377 )" mask="url(#clip331)" />
  </g>
</svg>