<?xml version="1.0" encoding="utf-8"?>
<svg version="1.1" xmlns:xlink="http://www.w3.org/1999/xlink" width="200px" height="78px" xmlns="http://www.w3.org/2000/svg">
  <defs>
    <mask fill="white" id="clip285">
      <path d="M 0.0106417112299368 76.1  C 0.0106417112299368 76.1  143.035240641711 76.1  143.035240641711 76.1  C 143.035240641711 76.1  143.035240641711 0.399999999999977  143.035240641711 0.399999999999977  C 143.035240641711 0.399999999999977  0.0106417112299368 0.399999999999977  0.0106417112299368 0.399999999999977  C 0.0106417112299368 0.399999999999977  0.0106417112299368 76.1  0.0106417112299368 76.1  Z " fill-rule="evenodd" />
    </mask>
  </defs>
  <g transform="matrix(1 0 0 1 -94 -915 )">
    <path d="M 0.0106417112299368 76.1  C 0.0106417112299368 76.1  143.035240641711 76.1  143.035240641711 76.1  C 143.035240641711 76.1  143.035240641711 0.399999999999977  143.035240641711 0.399999999999977  C 143.035240641711 0.399999999999977  0.0106417112299368 0.399999999999977  0.0106417112299368 0.399999999999977  C 0.0106417112299368 0.399999999999977  0.0106417112299368 76.1  0.0106417112299368 76.1  Z " fill-rule="nonzero" fill="#fff2e7" stroke="none" transform="matrix(1 0 0 1 94 915 )" />
    <path d="M 0.0106417112299368 76.1  C 0.0106417112299368 76.1  143.035240641711 76.1  143.035240641711 76.1  C 143.035240641711 76.1  143.035240641711 0.399999999999977  143.035240641711 0.399999999999977  C 143.035240641711 0.399999999999977  0.0106417112299368 0.399999999999977  0.0106417112299368 0.399999999999977  C 0.0106417112299368 0.399999999999977  0.0106417112299368 76.1  0.0106417112299368 76.1  Z " stroke-width="2" stroke="#e19a00" fill="none" transform="matrix(1 0 0 1 94 915 )" mask="url(#clip285)" />
    <path d="M 142.503155080214 38.3000000000001  L 198.159304812834 18  " stroke-width="1" stroke="#e19a00" fill="none" transform="matrix(1 0 0 1 94 915 )" mask="url(#clip285)" />
  </g>
</svg>