<?xml version="1.0" encoding="utf-8"?>
<svg version="1.1" xmlns:xlink="http://www.w3.org/1999/xlink" width="11px" height="10px" xmlns="http://www.w3.org/2000/svg">
  <defs>
    <mask fill="white" id="clip286">
      <path d="M 7.82100000000002 9.30000000000007  C 10.131 8.5  11.231 5.10000000000002  10.351 3.10000000000002  C 9.47100000000001 1  5.841 0  3.53099999999998 0.800000000000068  C 1.33099999999998 1.60000000000002  0.121000000000015 4.89999999999998  1.001 7  C 1.88099999999998 9  5.62100000000001 10.1  7.82100000000002 9.30000000000007  Z " fill-rule="evenodd" />
    </mask>
  </defs>
  <g transform="matrix(1 0 0 1 -286 -928 )">
    <path d="M 7.82100000000002 9.30000000000007  C 10.131 8.5  11.231 5.10000000000002  10.351 3.10000000000002  C 9.47100000000001 1  5.841 0  3.53099999999998 0.800000000000068  C 1.33099999999998 1.60000000000002  0.121000000000015 4.89999999999998  1.001 7  C 1.88099999999998 9  5.62100000000001 10.1  7.82100000000002 9.30000000000007  Z " fill-rule="nonzero" fill="#e19a00" stroke="none" transform="matrix(1 0 0 1 286 928 )" />
    <path d="M 7.82100000000002 9.30000000000007  C 10.131 8.5  11.231 5.10000000000002  10.351 3.10000000000002  C 9.47100000000001 1  5.841 0  3.53099999999998 0.800000000000068  C 1.33099999999998 1.60000000000002  0.121000000000015 4.89999999999998  1.001 7  C 1.88099999999998 9  5.62100000000001 10.1  7.82100000000002 9.30000000000007  Z " stroke-width="2" stroke="#e19a00" fill="none" transform="matrix(1 0 0 1 286 928 )" mask="url(#clip286)" />
  </g>
</svg>