<?xml version="1.0" encoding="utf-8"?>
<svg version="1.1" xmlns:xlink="http://www.w3.org/1999/xlink" width="9px" height="8px" xmlns="http://www.w3.org/2000/svg">
  <defs>
    <mask fill="white" id="clip289">
      <path d="M 0.348750000000003 0.899999999999991  C 0.348750000000003 0.899999999999991  4.84875 7.09999999999999  4.84875 7.09999999999999  C 4.84875 7.09999999999999  8.22375 0.899999999999991  8.22375 0.899999999999991  C 7.21125000000003 1.39999999999999  6.08625000000003 1.69999999999999  4.84875 1.69999999999999  C 3.61124999999998 1.69999999999999  1.36124999999998 1.39999999999999  0.348750000000003 0.899999999999991  Z " fill-rule="evenodd" />
    </mask>
  </defs>
  <g transform="matrix(1 0 0 1 -449 -135 )">
    <path d="M 0.348750000000003 0.899999999999991  C 0.348750000000003 0.899999999999991  4.84875 7.09999999999999  4.84875 7.09999999999999  C 4.84875 7.09999999999999  8.22375 0.899999999999991  8.22375 0.899999999999991  C 7.21125000000003 1.39999999999999  6.08625000000003 1.69999999999999  4.84875 1.69999999999999  C 3.61124999999998 1.69999999999999  1.36124999999998 1.39999999999999  0.348750000000003 0.899999999999991  Z " fill-rule="nonzero" fill="#236ea1" stroke="none" transform="matrix(1 0 0 1 449 135 )" />
    <path d="M 0.348750000000003 0.899999999999991  C 0.348750000000003 0.899999999999991  4.84875 7.09999999999999  4.84875 7.09999999999999  C 4.84875 7.09999999999999  8.22375 0.899999999999991  8.22375 0.899999999999991  C 7.21125000000003 1.39999999999999  6.08625000000003 1.69999999999999  4.84875 1.69999999999999  C 3.61124999999998 1.69999999999999  1.36124999999998 1.39999999999999  0.348750000000003 0.899999999999991  Z " stroke-width="2" stroke="#236ea1" fill="none" transform="matrix(1 0 0 1 449 135 )" mask="url(#clip289)" />
  </g>
</svg>