<?xml version="1.0" encoding="utf-8"?>
<svg version="1.1" xmlns:xlink="http://www.w3.org/1999/xlink" width="9px" height="7px" xmlns="http://www.w3.org/2000/svg">
  <defs>
    <mask fill="white" id="clip293">
      <path d="M 0.944999999999972 0.230000000000018  C 0.944999999999972 0.230000000000018  5.44499999999997 6.43000000000006  5.44499999999997 6.43000000000006  C 5.44499999999997 6.43000000000006  8.81999999999997 0.230000000000018  8.81999999999997 0.230000000000018  C 7.8075 0.730000000000018  6.6825 1.03000000000009  5.44499999999997 1.03000000000009  C 4.20749999999995 1.03000000000009  1.95749999999995 0.730000000000018  0.944999999999972 0.230000000000018  Z " fill-rule="evenodd" />
    </mask>
  </defs>
  <g transform="matrix(1 0 0 1 -388 -676 )">
    <path d="M 0.944999999999972 0.230000000000018  C 0.944999999999972 0.230000000000018  5.44499999999997 6.43000000000006  5.44499999999997 6.43000000000006  C 5.44499999999997 6.43000000000006  8.81999999999997 0.230000000000018  8.81999999999997 0.230000000000018  C 7.8075 0.730000000000018  6.6825 1.03000000000009  5.44499999999997 1.03000000000009  C 4.20749999999995 1.03000000000009  1.95749999999995 0.730000000000018  0.944999999999972 0.230000000000018  Z " fill-rule="nonzero" fill="#236ea1" stroke="none" transform="matrix(1 0 0 1 388 676 )" />
    <path d="M 0.944999999999972 0.230000000000018  C 0.944999999999972 0.230000000000018  5.44499999999997 6.43000000000006  5.44499999999997 6.43000000000006  C 5.44499999999997 6.43000000000006  8.81999999999997 0.230000000000018  8.81999999999997 0.230000000000018  C 7.8075 0.730000000000018  6.6825 1.03000000000009  5.44499999999997 1.03000000000009  C 4.20749999999995 1.03000000000009  1.95749999999995 0.730000000000018  0.944999999999972 0.230000000000018  Z " stroke-width="2" stroke="#236ea1" fill="none" transform="matrix(1 0 0 1 388 676 )" mask="url(#clip293)" />
  </g>
</svg>