<?xml version="1.0" encoding="utf-8"?>
<svg version="1.1" xmlns:xlink="http://www.w3.org/1999/xlink" width="7px" height="8px" xmlns="http://www.w3.org/2000/svg">
  <defs>
    <mask fill="white" id="clip294">
      <path d="M 0.640000000000043 7.39999999999998  C 0.640000000000043 7.39999999999998  6.84000000000003 4.39999999999998  6.84000000000003 4.39999999999998  C 6.84000000000003 4.39999999999998  0.640000000000043 0.399999999999977  0.640000000000043 0.399999999999977  C 1.14000000000004 1.29999999999995  1.44000000000005 3.29999999999995  1.44000000000005 4.39999999999998  C 1.44000000000005 5.5  1.14000000000004 6.59999999999991  0.640000000000043 7.39999999999998  Z " fill-rule="evenodd" />
    </mask>
  </defs>
  <g transform="matrix(1 0 0 1 -400 -563 )">
    <path d="M 0.640000000000043 7.39999999999998  C 0.640000000000043 7.39999999999998  6.84000000000003 4.39999999999998  6.84000000000003 4.39999999999998  C 6.84000000000003 4.39999999999998  0.640000000000043 0.399999999999977  0.640000000000043 0.399999999999977  C 1.14000000000004 1.29999999999995  1.44000000000005 3.29999999999995  1.44000000000005 4.39999999999998  C 1.44000000000005 5.5  1.14000000000004 6.59999999999991  0.640000000000043 7.39999999999998  Z " fill-rule="nonzero" fill="#236ea1" stroke="none" transform="matrix(1 0 0 1 400 563 )" />
    <path d="M 0.640000000000043 7.39999999999998  C 0.640000000000043 7.39999999999998  6.84000000000003 4.39999999999998  6.84000000000003 4.39999999999998  C 6.84000000000003 4.39999999999998  0.640000000000043 0.399999999999977  0.640000000000043 0.399999999999977  C 1.14000000000004 1.29999999999995  1.44000000000005 3.29999999999995  1.44000000000005 4.39999999999998  C 1.44000000000005 5.5  1.14000000000004 6.59999999999991  0.640000000000043 7.39999999999998  Z " stroke-width="2" stroke="#236ea1" fill="none" transform="matrix(1 0 0 1 400 563 )" mask="url(#clip294)" />
  </g>
</svg>