<?xml version="1.0" encoding="utf-8"?>
<svg version="1.1" xmlns:xlink="http://www.w3.org/1999/xlink" width="9px" height="7px" xmlns="http://www.w3.org/2000/svg">
  <defs>
    <mask fill="white" id="clip295">
      <path d="M 0.944999999999972 0.269999999999982  C 0.944999999999972 0.269999999999982  5.44499999999997 6.47000000000003  5.44499999999997 6.47000000000003  C 5.44499999999997 6.47000000000003  8.81999999999997 0.269999999999982  8.81999999999997 0.269999999999982  C 7.80749999999993 0.769999999999982  6.68249999999993 1.07000000000005  5.44499999999997 1.07000000000005  C 4.20750000000001 1.07000000000005  1.95750000000001 0.769999999999982  0.944999999999972 0.269999999999982  Z " fill-rule="evenodd" />
    </mask>
  </defs>
  <g transform="matrix(1 0 0 1 -467 -798 )">
    <path d="M 0.944999999999972 0.269999999999982  C 0.944999999999972 0.269999999999982  5.44499999999997 6.47000000000003  5.44499999999997 6.47000000000003  C 5.44499999999997 6.47000000000003  8.81999999999997 0.269999999999982  8.81999999999997 0.269999999999982  C 7.80749999999993 0.769999999999982  6.68249999999993 1.07000000000005  5.44499999999997 1.07000000000005  C 4.20750000000001 1.07000000000005  1.95750000000001 0.769999999999982  0.944999999999972 0.269999999999982  Z " fill-rule="nonzero" fill="#236ea1" stroke="none" transform="matrix(1 0 0 1 467 798 )" />
    <path d="M 0.944999999999972 0.269999999999982  C 0.944999999999972 0.269999999999982  5.44499999999997 6.47000000000003  5.44499999999997 6.47000000000003  C 5.44499999999997 6.47000000000003  8.81999999999997 0.269999999999982  8.81999999999997 0.269999999999982  C 7.80749999999993 0.769999999999982  6.68249999999993 1.07000000000005  5.44499999999997 1.07000000000005  C 4.20750000000001 1.07000000000005  1.95750000000001 0.769999999999982  0.944999999999972 0.269999999999982  Z " stroke-width="2" stroke="#236ea1" fill="none" transform="matrix(1 0 0 1 467 798 )" mask="url(#clip295)" />
  </g>
</svg>