<?xml version="1.0" encoding="utf-8"?>
<svg version="1.1" xmlns:xlink="http://www.w3.org/1999/xlink" width="9px" height="7px" xmlns="http://www.w3.org/2000/svg">
  <defs>
    <mask fill="white" id="clip297">
      <path d="M 0.944999999999972 0.299999999999955  C 0.944999999999972 0.299999999999955  5.44499999999997 6.5  5.44499999999997 6.5  C 5.44499999999997 6.5  8.81999999999997 0.299999999999955  8.81999999999997 0.299999999999955  C 7.8075 0.799999999999955  6.6825 1.10000000000002  5.44499999999997 1.10000000000002  C 4.20749999999995 1.10000000000002  1.95749999999995 0.799999999999955  0.944999999999972 0.299999999999955  Z " fill-rule="evenodd" />
    </mask>
  </defs>
  <g transform="matrix(1 0 0 1 -467 -950 )">
    <path d="M 0.944999999999972 0.299999999999955  C 0.944999999999972 0.299999999999955  5.44499999999997 6.5  5.44499999999997 6.5  C 5.44499999999997 6.5  8.81999999999997 0.299999999999955  8.81999999999997 0.299999999999955  C 7.8075 0.799999999999955  6.6825 1.10000000000002  5.44499999999997 1.10000000000002  C 4.20749999999995 1.10000000000002  1.95749999999995 0.799999999999955  0.944999999999972 0.299999999999955  Z " fill-rule="nonzero" fill="#236ea1" stroke="none" transform="matrix(1 0 0 1 467 950 )" />
    <path d="M 0.944999999999972 0.299999999999955  C 0.944999999999972 0.299999999999955  5.44499999999997 6.5  5.44499999999997 6.5  C 5.44499999999997 6.5  8.81999999999997 0.299999999999955  8.81999999999997 0.299999999999955  C 7.8075 0.799999999999955  6.6825 1.10000000000002  5.44499999999997 1.10000000000002  C 4.20749999999995 1.10000000000002  1.95749999999995 0.799999999999955  0.944999999999972 0.299999999999955  Z " stroke-width="2" stroke="#236ea1" fill="none" transform="matrix(1 0 0 1 467 950 )" mask="url(#clip297)" />
  </g>
</svg>