<?xml version="1.0" encoding="utf-8"?>
<svg version="1.1" xmlns:xlink="http://www.w3.org/1999/xlink" width="7px" height="8px" xmlns="http://www.w3.org/2000/svg">
  <defs>
    <mask fill="white" id="clip298">
      <path d="M 0.639999999999986 7.5  C 0.639999999999986 7.5  6.83999999999998 4.5  6.83999999999998 4.5  C 6.83999999999998 4.5  0.639999999999986 0.5  0.639999999999986 0.5  C 1.13999999999999 1.39999999999998  1.44 3.39999999999998  1.44 4.5  C 1.44 5.60000000000002  1.13999999999999 6.60000000000002  0.639999999999986 7.5  Z " fill-rule="evenodd" />
    </mask>
  </defs>
  <g transform="matrix(1 0 0 1 -415 -911 )">
    <path d="M 0.639999999999986 7.5  C 0.639999999999986 7.5  6.83999999999998 4.5  6.83999999999998 4.5  C 6.83999999999998 4.5  0.639999999999986 0.5  0.639999999999986 0.5  C 1.13999999999999 1.39999999999998  1.44 3.39999999999998  1.44 4.5  C 1.44 5.60000000000002  1.13999999999999 6.60000000000002  0.639999999999986 7.5  Z " fill-rule="nonzero" fill="#236ea1" stroke="none" transform="matrix(1 0 0 1 415 911 )" />
    <path d="M 0.639999999999986 7.5  C 0.639999999999986 7.5  6.83999999999998 4.5  6.83999999999998 4.5  C 6.83999999999998 4.5  0.639999999999986 0.5  0.639999999999986 0.5  C 1.13999999999999 1.39999999999998  1.44 3.39999999999998  1.44 4.5  C 1.44 5.60000000000002  1.13999999999999 6.60000000000002  0.639999999999986 7.5  Z " stroke-width="2" stroke="#236ea1" fill="none" transform="matrix(1 0 0 1 415 911 )" mask="url(#clip298)" />
  </g>
</svg>