<?xml version="1.0" encoding="utf-8"?>
<svg version="1.1" xmlns:xlink="http://www.w3.org/1999/xlink" width="9px" height="7px" xmlns="http://www.w3.org/2000/svg">
  <defs>
    <mask fill="white" id="clip300">
      <path d="M 0.944999999999972 0.330000000000041  C 0.944999999999972 0.330000000000041  5.44499999999997 6.53000000000009  5.44499999999997 6.53000000000009  C 5.44499999999997 6.53000000000009  8.81999999999997 0.330000000000041  8.81999999999997 0.330000000000041  C 7.8075 0.830000000000041  6.6825 1.13000000000011  5.44499999999997 1.13000000000011  C 4.20749999999995 1.13000000000011  1.95749999999995 0.830000000000041  0.944999999999972 0.330000000000041  Z " fill-rule="evenodd" />
    </mask>
  </defs>
  <g transform="matrix(1 0 0 1 -467 -890 )">
    <path d="M 0.944999999999972 0.330000000000041  C 0.944999999999972 0.330000000000041  5.44499999999997 6.53000000000009  5.44499999999997 6.53000000000009  C 5.44499999999997 6.53000000000009  8.81999999999997 0.330000000000041  8.81999999999997 0.330000000000041  C 7.8075 0.830000000000041  6.6825 1.13000000000011  5.44499999999997 1.13000000000011  C 4.20749999999995 1.13000000000011  1.95749999999995 0.830000000000041  0.944999999999972 0.330000000000041  Z " fill-rule="nonzero" fill="#236ea1" stroke="none" transform="matrix(1 0 0 1 467 890 )" />
    <path d="M 0.944999999999972 0.330000000000041  C 0.944999999999972 0.330000000000041  5.44499999999997 6.53000000000009  5.44499999999997 6.53000000000009  C 5.44499999999997 6.53000000000009  8.81999999999997 0.330000000000041  8.81999999999997 0.330000000000041  C 7.8075 0.830000000000041  6.6825 1.13000000000011  5.44499999999997 1.13000000000011  C 4.20749999999995 1.13000000000011  1.95749999999995 0.830000000000041  0.944999999999972 0.330000000000041  Z " stroke-width="2" stroke="#236ea1" fill="none" transform="matrix(1 0 0 1 467 890 )" mask="url(#clip300)" />
  </g>
</svg>