<?xml version="1.0" encoding="utf-8"?>
<svg version="1.1" xmlns:xlink="http://www.w3.org/1999/xlink" width="335px" height="47px" xmlns="http://www.w3.org/2000/svg">
  <defs>
    <mask fill="white" id="clip301">
      <path d="M 88.4036305732484 0.300000000000011  C 88.4036305732484 0.300000000000011  333.478789808917 0.300000000000011  333.478789808917 0.300000000000011  C 333.478789808917 0.300000000000011  333.478789808917 45.3  333.478789808917 45.3  C 333.478789808917 45.3  88.4036305732484 45.3  88.4036305732484 45.3  C 88.4036305732484 45.3  88.4036305732484 0.300000000000011  88.4036305732484 0.300000000000011  Z " fill-rule="evenodd" />
    </mask>
  </defs>
  <g transform="matrix(1 0 0 1 -506 -472 )">
    <path d="M 88.4036305732484 0.300000000000011  C 88.4036305732484 0.300000000000011  333.478789808917 0.300000000000011  333.478789808917 0.300000000000011  C 333.478789808917 0.300000000000011  333.478789808917 45.3  333.478789808917 45.3  C 333.478789808917 45.3  88.4036305732484 45.3  88.4036305732484 45.3  C 88.4036305732484 45.3  88.4036305732484 0.300000000000011  88.4036305732484 0.300000000000011  Z " fill-rule="nonzero" fill="#fff2e7" stroke="none" transform="matrix(1 0 0 1 506 472 )" />
    <path d="M 88.4036305732484 0.300000000000011  C 88.4036305732484 0.300000000000011  333.478789808917 0.300000000000011  333.478789808917 0.300000000000011  C 333.478789808917 0.300000000000011  333.478789808917 45.3  333.478789808917 45.3  C 333.478789808917 45.3  88.4036305732484 45.3  88.4036305732484 45.3  C 88.4036305732484 45.3  88.4036305732484 0.300000000000011  88.4036305732484 0.300000000000011  Z " stroke-width="2" stroke="#e19a00" fill="none" transform="matrix(1 0 0 1 506 472 )" mask="url(#clip301)" />
    <path d="M 88.9354777070064 22.8  L 0.329745222929939 19.9  " stroke-width="1" stroke="#e19a00" fill="none" transform="matrix(1 0 0 1 506 472 )" mask="url(#clip301)" />
  </g>
</svg>