<?xml version="1.0" encoding="utf-8"?>
<svg version="1.1" xmlns:xlink="http://www.w3.org/1999/xlink" width="11px" height="10px" xmlns="http://www.w3.org/2000/svg">
  <defs>
    <mask fill="white" id="clip302">
      <path d="M 5.18099999999998 9.40000000000003  C 2.76099999999999 9.30000000000001  0.891000000000002 6.5  0.891000000000002 4.19999999999999  C 1.00099999999997 2  4.191 0.300000000000011  6.61099999999999 0.400000000000034  C 9.03099999999998 0.5  10.901 3.30000000000001  10.791 5.5  C 10.791 7.69999999999999  7.60099999999997 9.5  5.18099999999998 9.40000000000003  Z " fill-rule="evenodd" />
    </mask>
  </defs>
  <g transform="matrix(1 0 0 1 -501 -487 )">
    <path d="M 5.18099999999998 9.40000000000003  C 2.76099999999999 9.30000000000001  0.891000000000002 6.5  0.891000000000002 4.19999999999999  C 1.00099999999997 2  4.191 0.300000000000011  6.61099999999999 0.400000000000034  C 9.03099999999998 0.5  10.901 3.30000000000001  10.791 5.5  C 10.791 7.69999999999999  7.60099999999997 9.5  5.18099999999998 9.40000000000003  Z " fill-rule="nonzero" fill="#e19a00" stroke="none" transform="matrix(1 0 0 1 501 487 )" />
    <path d="M 5.18099999999998 9.40000000000003  C 2.76099999999999 9.30000000000001  0.891000000000002 6.5  0.891000000000002 4.19999999999999  C 1.00099999999997 2  4.191 0.300000000000011  6.61099999999999 0.400000000000034  C 9.03099999999998 0.5  10.901 3.30000000000001  10.791 5.5  C 10.791 7.69999999999999  7.60099999999997 9.5  5.18099999999998 9.40000000000003  Z " stroke-width="2" stroke="#e19a00" fill="none" transform="matrix(1 0 0 1 501 487 )" mask="url(#clip302)" />
  </g>
</svg>