<?xml version="1.0" encoding="utf-8"?>
<svg version="1.1" xmlns:xlink="http://www.w3.org/1999/xlink" width="335px" height="47px" xmlns="http://www.w3.org/2000/svg">
  <defs>
    <mask fill="white" id="clip303">
      <path d="M 87.7654140127388 0.899999999999977  C 87.7654140127388 0.899999999999977  333.478789808917 0.899999999999977  333.478789808917 0.899999999999977  C 333.478789808917 0.899999999999977  333.478789808917 45.9  333.478789808917 45.9  C 333.478789808917 45.9  87.7654140127388 45.9  87.7654140127388 45.9  C 87.7654140127388 45.9  87.7654140127388 0.899999999999977  87.7654140127388 0.899999999999977  Z " fill-rule="evenodd" />
    </mask>
  </defs>
  <g transform="matrix(1 0 0 1 -506 -547 )">
    <path d="M 87.7654140127388 0.899999999999977  C 87.7654140127388 0.899999999999977  333.478789808917 0.899999999999977  333.478789808917 0.899999999999977  C 333.478789808917 0.899999999999977  333.478789808917 45.9  333.478789808917 45.9  C 333.478789808917 45.9  87.7654140127388 45.9  87.7654140127388 45.9  C 87.7654140127388 45.9  87.7654140127388 0.899999999999977  87.7654140127388 0.899999999999977  Z " fill-rule="nonzero" fill="#fff2e7" stroke="none" transform="matrix(1 0 0 1 506 547 )" />
    <path d="M 87.7654140127388 0.899999999999977  C 87.7654140127388 0.899999999999977  333.478789808917 0.899999999999977  333.478789808917 0.899999999999977  C 333.478789808917 0.899999999999977  333.478789808917 45.9  333.478789808917 45.9  C 333.478789808917 45.9  87.7654140127388 45.9  87.7654140127388 45.9  C 87.7654140127388 45.9  87.7654140127388 0.899999999999977  87.7654140127388 0.899999999999977  Z " stroke-width="2" stroke="#e19a00" fill="none" transform="matrix(1 0 0 1 506 547 )" mask="url(#clip303)" />
    <path d="M 88.2972611464968 23.4  L 0.329745222929939 19.9  " stroke-width="1" stroke="#e19a00" fill="none" transform="matrix(1 0 0 1 506 547 )" mask="url(#clip303)" />
  </g>
</svg>