<?xml version="1.0" encoding="utf-8"?>
<svg version="1.1" xmlns:xlink="http://www.w3.org/1999/xlink" width="11px" height="10px" xmlns="http://www.w3.org/2000/svg">
  <defs>
    <mask fill="white" id="clip304">
      <path d="M 5.18099999999998 9.39999999999998  C 2.76099999999999 9.29999999999995  0.780999999999977 6.39999999999998  0.891000000000002 4.19999999999993  C 1.00099999999997 2  4.191 0.299999999999955  6.61099999999999 0.399999999999977  C 9.03099999999998 0.5  10.901 3.39999999999998  10.791 5.60000000000002  C 10.681 7.79999999999995  7.60099999999997 9.5  5.18099999999998 9.39999999999998  Z " fill-rule="evenodd" />
    </mask>
  </defs>
  <g transform="matrix(1 0 0 1 -501 -562 )">
    <path d="M 5.18099999999998 9.39999999999998  C 2.76099999999999 9.29999999999995  0.780999999999977 6.39999999999998  0.891000000000002 4.19999999999993  C 1.00099999999997 2  4.191 0.299999999999955  6.61099999999999 0.399999999999977  C 9.03099999999998 0.5  10.901 3.39999999999998  10.791 5.60000000000002  C 10.681 7.79999999999995  7.60099999999997 9.5  5.18099999999998 9.39999999999998  Z " fill-rule="nonzero" fill="#e19a00" stroke="none" transform="matrix(1 0 0 1 501 562 )" />
    <path d="M 5.18099999999998 9.39999999999998  C 2.76099999999999 9.29999999999995  0.780999999999977 6.39999999999998  0.891000000000002 4.19999999999993  C 1.00099999999997 2  4.191 0.299999999999955  6.61099999999999 0.399999999999977  C 9.03099999999998 0.5  10.901 3.39999999999998  10.791 5.60000000000002  C 10.681 7.79999999999995  7.60099999999997 9.5  5.18099999999998 9.39999999999998  Z " stroke-width="2" stroke="#e19a00" fill="none" transform="matrix(1 0 0 1 501 562 )" mask="url(#clip304)" />
  </g>
</svg>