<?xml version="1.0" encoding="utf-8"?>
<svg version="1.1" xmlns:xlink="http://www.w3.org/1999/xlink" width="320px" height="62px" xmlns="http://www.w3.org/2000/svg">
  <defs>
    <mask fill="white" id="clip305">
      <path d="M 73.1679666666666 0.300000000000068  C 73.1679666666666 0.300000000000068  318.478966666667 0.300000000000068  318.478966666667 0.300000000000068  C 318.478966666667 0.300000000000068  318.478966666667 60.6  318.478966666667 60.6  C 318.478966666667 60.6  73.1679666666666 60.6  73.1679666666666 60.6  C 73.1679666666666 60.6  73.1679666666666 0.300000000000068  73.1679666666666 0.300000000000068  Z " fill-rule="evenodd" />
    </mask>
  </defs>
  <g transform="matrix(1 0 0 1 -521 -880 )">
    <path d="M 73.1679666666666 0.300000000000068  C 73.1679666666666 0.300000000000068  318.478966666667 0.300000000000068  318.478966666667 0.300000000000068  C 318.478966666667 0.300000000000068  318.478966666667 60.6  318.478966666667 60.6  C 318.478966666667 60.6  73.1679666666666 60.6  73.1679666666666 60.6  C 73.1679666666666 60.6  73.1679666666666 0.300000000000068  73.1679666666666 0.300000000000068  Z " fill-rule="nonzero" fill="#fff2e7" stroke="none" transform="matrix(1 0 0 1 521 880 )" />
    <path d="M 73.1679666666666 0.300000000000068  C 73.1679666666666 0.300000000000068  318.478966666667 0.300000000000068  318.478966666667 0.300000000000068  C 318.478966666667 0.300000000000068  318.478966666667 60.6  318.478966666667 60.6  C 318.478966666667 60.6  73.1679666666666 60.6  73.1679666666666 60.6  C 73.1679666666666 60.6  73.1679666666666 0.300000000000068  73.1679666666666 0.300000000000068  Z " stroke-width="2" stroke="#e19a00" fill="none" transform="matrix(1 0 0 1 521 880 )" mask="url(#clip305)" />
    <path d="M 73.6996333333333 30.5000000000001  L 0.329633333333336 35.0000000000001  " stroke-width="1" stroke="#e19a00" fill="none" transform="matrix(1 0 0 1 521 880 )" mask="url(#clip305)" />
  </g>
</svg>