<?xml version="1.0" encoding="utf-8"?>
<svg version="1.1" xmlns:xlink="http://www.w3.org/1999/xlink" width="11px" height="10px" xmlns="http://www.w3.org/2000/svg">
  <defs>
    <mask fill="white" id="clip306">
      <path d="M 6.72100000000001 9.50000000000011  C 4.30099999999996 9.70000000000005  1.11099999999999 8.00000000000011  0.891000000000002 5.80000000000007  C 0.780999999999977 3.60000000000002  2.65099999999997 0.700000000000045  5.07100000000001 0.500000000000114  C 7.491 0.400000000000091  10.681 2.10000000000002  10.791 4.30000000000007  C 11.011 6.50000000000011  9.141 9.40000000000009  6.72100000000001 9.50000000000011  Z " fill-rule="evenodd" />
    </mask>
  </defs>
  <g transform="matrix(1 0 0 1 -516 -910 )">
    <path d="M 6.72100000000001 9.50000000000011  C 4.30099999999996 9.70000000000005  1.11099999999999 8.00000000000011  0.891000000000002 5.80000000000007  C 0.780999999999977 3.60000000000002  2.65099999999997 0.700000000000045  5.07100000000001 0.500000000000114  C 7.491 0.400000000000091  10.681 2.10000000000002  10.791 4.30000000000007  C 11.011 6.50000000000011  9.141 9.40000000000009  6.72100000000001 9.50000000000011  Z " fill-rule="nonzero" fill="#e19a00" stroke="none" transform="matrix(1 0 0 1 516 910 )" />
    <path d="M 6.72100000000001 9.50000000000011  C 4.30099999999996 9.70000000000005  1.11099999999999 8.00000000000011  0.891000000000002 5.80000000000007  C 0.780999999999977 3.60000000000002  2.65099999999997 0.700000000000045  5.07100000000001 0.500000000000114  C 7.491 0.400000000000091  10.681 2.10000000000002  10.791 4.30000000000007  C 11.011 6.50000000000011  9.141 9.40000000000009  6.72100000000001 9.50000000000011  Z " stroke-width="2" stroke="#e19a00" fill="none" transform="matrix(1 0 0 1 516 910 )" mask="url(#clip306)" />
  </g>
</svg>