<?xml version="1.0" encoding="utf-8"?>
<svg version="1.1" xmlns:xlink="http://www.w3.org/1999/xlink" width="320px" height="78px" xmlns="http://www.w3.org/2000/svg">
  <defs>
    <mask fill="white" id="clip307">
      <path d="M 74.2312999999999 0.899999999999977  C 74.2312999999999 0.899999999999977  318.478966666667 0.899999999999977  318.478966666667 0.899999999999977  C 318.478966666667 0.899999999999977  318.478966666667 76.5999999999999  318.478966666667 76.5999999999999  C 318.478966666667 76.5999999999999  74.2312999999999 76.5999999999999  74.2312999999999 76.5999999999999  C 74.2312999999999 76.5999999999999  74.2312999999999 0.899999999999977  74.2312999999999 0.899999999999977  Z " fill-rule="evenodd" />
    </mask>
  </defs>
  <g transform="matrix(1 0 0 1 -521 -1003 )">
    <path d="M 74.2312999999999 0.899999999999977  C 74.2312999999999 0.899999999999977  318.478966666667 0.899999999999977  318.478966666667 0.899999999999977  C 318.478966666667 0.899999999999977  318.478966666667 76.5999999999999  318.478966666667 76.5999999999999  C 318.478966666667 76.5999999999999  74.2312999999999 76.5999999999999  74.2312999999999 76.5999999999999  C 74.2312999999999 76.5999999999999  74.2312999999999 0.899999999999977  74.2312999999999 0.899999999999977  Z " fill-rule="nonzero" fill="#fff2e7" stroke="none" transform="matrix(1 0 0 1 521 1003 )" />
    <path d="M 74.2312999999999 0.899999999999977  C 74.2312999999999 0.899999999999977  318.478966666667 0.899999999999977  318.478966666667 0.899999999999977  C 318.478966666667 0.899999999999977  318.478966666667 76.5999999999999  318.478966666667 76.5999999999999  C 318.478966666667 76.5999999999999  74.2312999999999 76.5999999999999  74.2312999999999 76.5999999999999  C 74.2312999999999 76.5999999999999  74.2312999999999 0.899999999999977  74.2312999999999 0.899999999999977  Z " stroke-width="2" stroke="#e19a00" fill="none" transform="matrix(1 0 0 1 521 1003 )" mask="url(#clip307)" />
    <path d="M 74.7629666666666 38.6999999999999  L 0.329633333333336 69  " stroke-width="1" stroke="#e19a00" fill="none" transform="matrix(1 0 0 1 521 1003 )" mask="url(#clip307)" />
  </g>
</svg>