<?xml version="1.0" encoding="utf-8"?>
<svg version="1.1" xmlns:xlink="http://www.w3.org/1999/xlink" width="11px" height="10px" xmlns="http://www.w3.org/2000/svg">
  <defs>
    <mask fill="white" id="clip308">
      <path d="M 8.15099999999996 9.20000000000005  C 5.95099999999997 10.0999999999999  2.21099999999999 9.20000000000005  1.33099999999998 7.09999999999991  C 0.341000000000003 5.09999999999991  1.33099999999998 1.70000000000005  3.53099999999998 0.900000000000091  C 5.841 0  9.47100000000001 0.900000000000091  10.461 2.90000000000009  C 11.451 5  10.461 8.29999999999995  8.15099999999996 9.20000000000005  Z " fill-rule="evenodd" />
    </mask>
  </defs>
  <g transform="matrix(1 0 0 1 -516 -1067 )">
    <path d="M 8.15099999999996 9.20000000000005  C 5.95099999999997 10.0999999999999  2.21099999999999 9.20000000000005  1.33099999999998 7.09999999999991  C 0.341000000000003 5.09999999999991  1.33099999999998 1.70000000000005  3.53099999999998 0.900000000000091  C 5.841 0  9.47100000000001 0.900000000000091  10.461 2.90000000000009  C 11.451 5  10.461 8.29999999999995  8.15099999999996 9.20000000000005  Z " fill-rule="nonzero" fill="#e19a00" stroke="none" transform="matrix(1 0 0 1 516 1067 )" />
    <path d="M 8.15099999999996 9.20000000000005  C 5.95099999999997 10.0999999999999  2.21099999999999 9.20000000000005  1.33099999999998 7.09999999999991  C 0.341000000000003 5.09999999999991  1.33099999999998 1.70000000000005  3.53099999999998 0.900000000000091  C 5.841 0  9.47100000000001 0.900000000000091  10.461 2.90000000000009  C 11.451 5  10.461 8.29999999999995  8.15099999999996 9.20000000000005  Z " stroke-width="2" stroke="#e19a00" fill="none" transform="matrix(1 0 0 1 516 1067 )" mask="url(#clip308)" />
  </g>
</svg>