<?xml version="1.0" encoding="utf-8"?>
<svg version="1.1" xmlns:xlink="http://www.w3.org/1999/xlink" width="7px" height="8px" xmlns="http://www.w3.org/2000/svg">
  <defs>
    <mask fill="white" id="clip309">
      <path d="M 0.639999999999986 7.52999999999997  C 0.639999999999986 7.52999999999997  6.83999999999998 4.52999999999997  6.83999999999998 4.52999999999997  C 6.83999999999998 4.52999999999997  0.639999999999986 0.529999999999973  0.639999999999986 0.529999999999973  C 1.13999999999999 1.33000000000015  1.44 3.43000000000006  1.44 4.52999999999997  C 1.44 5.63000000000011  1.13999999999999 6.63000000000011  0.639999999999986 7.52999999999997  Z " fill-rule="evenodd" />
    </mask>
  </defs>
  <g transform="matrix(1 0 0 1 -415 -1068 )">
    <path d="M 0.639999999999986 7.52999999999997  C 0.639999999999986 7.52999999999997  6.83999999999998 4.52999999999997  6.83999999999998 4.52999999999997  C 6.83999999999998 4.52999999999997  0.639999999999986 0.529999999999973  0.639999999999986 0.529999999999973  C 1.13999999999999 1.33000000000015  1.44 3.43000000000006  1.44 4.52999999999997  C 1.44 5.63000000000011  1.13999999999999 6.63000000000011  0.639999999999986 7.52999999999997  Z " fill-rule="nonzero" fill="#236ea1" stroke="none" transform="matrix(1 0 0 1 415 1068 )" />
    <path d="M 0.639999999999986 7.52999999999997  C 0.639999999999986 7.52999999999997  6.83999999999998 4.52999999999997  6.83999999999998 4.52999999999997  C 6.83999999999998 4.52999999999997  0.639999999999986 0.529999999999973  0.639999999999986 0.529999999999973  C 1.13999999999999 1.33000000000015  1.44 3.43000000000006  1.44 4.52999999999997  C 1.44 5.63000000000011  1.13999999999999 6.63000000000011  0.639999999999986 7.52999999999997  Z " stroke-width="2" stroke="#236ea1" fill="none" transform="matrix(1 0 0 1 415 1068 )" mask="url(#clip309)" />
  </g>
</svg>