<?xml version="1.0" encoding="utf-8"?>
<svg version="1.1" xmlns:xlink="http://www.w3.org/1999/xlink" width="399px" height="127px" xmlns="http://www.w3.org/2000/svg">
  <defs>
    <mask fill="white" id="clip310">
      <path d="M 152.293529411765 49.6  C 152.293529411765 49.6  397.478556149733 49.6  397.478556149733 49.6  C 397.478556149733 49.6  397.478556149733 125.3  397.478556149733 125.3  C 397.478556149733 125.3  152.293529411765 125.3  152.293529411765 125.3  C 152.293529411765 125.3  152.293529411765 49.6  152.293529411765 49.6  Z " fill-rule="evenodd" />
    </mask>
  </defs>
  <g transform="matrix(1 0 0 1 -443 -643 )">
    <path d="M 152.293529411765 49.6  C 152.293529411765 49.6  397.478556149733 49.6  397.478556149733 49.6  C 397.478556149733 49.6  397.478556149733 125.3  397.478556149733 125.3  C 397.478556149733 125.3  152.293529411765 125.3  152.293529411765 125.3  C 152.293529411765 125.3  152.293529411765 49.6  152.293529411765 49.6  Z " fill-rule="nonzero" fill="#fff2e7" stroke="none" transform="matrix(1 0 0 1 443 643 )" />
    <path d="M 152.293529411765 49.6  C 152.293529411765 49.6  397.478556149733 49.6  397.478556149733 49.6  C 397.478556149733 49.6  397.478556149733 125.3  397.478556149733 125.3  C 397.478556149733 125.3  152.293529411765 125.3  152.293529411765 125.3  C 152.293529411765 125.3  152.293529411765 49.6  152.293529411765 49.6  Z " stroke-width="2" stroke="#e19a00" fill="none" transform="matrix(1 0 0 1 443 643 )" mask="url(#clip310)" />
    <path d="M 152.825614973262 87.4  L 0.329893048128345 0.899999999999977  " stroke-width="1" stroke="#e19a00" fill="none" transform="matrix(1 0 0 1 443 643 )" mask="url(#clip310)" />
  </g>
</svg>