<?xml version="1.0" encoding="utf-8"?>
<svg version="1.1" xmlns:xlink="http://www.w3.org/1999/xlink" width="11px" height="10px" xmlns="http://www.w3.org/2000/svg">
  <defs>
    <mask fill="white" id="clip311">
      <path d="M 3.091 8.89999999999998  C 1.00099999999997 7.70000000000005  0.341000000000003 4.30000000000007  1.55099999999997 2.39999999999998  C 2.87100000000001 0.5  6.61099999999999 -0.100000000000023  8.70099999999997 1  C 10.791 2.20000000000005  11.451 5.60000000000002  10.241 7.5  C 8.92100000000002 9.39999999999998  5.18099999999998 10  3.091 8.89999999999998  Z " fill-rule="evenodd" />
    </mask>
  </defs>
  <g transform="matrix(1 0 0 1 -437 -639 )">
    <path d="M 3.091 8.89999999999998  C 1.00099999999997 7.70000000000005  0.341000000000003 4.30000000000007  1.55099999999997 2.39999999999998  C 2.87100000000001 0.5  6.61099999999999 -0.100000000000023  8.70099999999997 1  C 10.791 2.20000000000005  11.451 5.60000000000002  10.241 7.5  C 8.92100000000002 9.39999999999998  5.18099999999998 10  3.091 8.89999999999998  Z " fill-rule="nonzero" fill="#e19a00" stroke="none" transform="matrix(1 0 0 1 437 639 )" />
    <path d="M 3.091 8.89999999999998  C 1.00099999999997 7.70000000000005  0.341000000000003 4.30000000000007  1.55099999999997 2.39999999999998  C 2.87100000000001 0.5  6.61099999999999 -0.100000000000023  8.70099999999997 1  C 10.791 2.20000000000005  11.451 5.60000000000002  10.241 7.5  C 8.92100000000002 9.39999999999998  5.18099999999998 10  3.091 8.89999999999998  Z " stroke-width="2" stroke="#e19a00" fill="none" transform="matrix(1 0 0 1 437 639 )" mask="url(#clip311)" />
  </g>
</svg>