<?xml version="1.0" encoding="utf-8"?>
<svg version="1.1" xmlns:xlink="http://www.w3.org/1999/xlink" width="9px" height="8px" xmlns="http://www.w3.org/2000/svg">
  <defs>
    <mask fill="white" id="clip312">
      <path d="M 0.348750000000003 0.900000000000006  C 0.348750000000003 0.900000000000006  4.96125000000003 7.09999999999999  4.96125000000003 7.09999999999999  C 4.96125000000003 7.09999999999999  8.22375 0.900000000000006  8.22375 0.900000000000006  C 7.32374999999999 1.40000000000001  6.08625000000003 1.69999999999999  4.84875 1.69999999999999  C 3.72375 1.69999999999999  1.36124999999998 1.40000000000001  0.348750000000003 0.900000000000006  Z " fill-rule="evenodd" />
    </mask>
  </defs>
  <g transform="matrix(1 0 0 1 -449 -194 )">
    <path d="M 0.348750000000003 0.900000000000006  C 0.348750000000003 0.900000000000006  4.96125000000003 7.09999999999999  4.96125000000003 7.09999999999999  C 4.96125000000003 7.09999999999999  8.22375 0.900000000000006  8.22375 0.900000000000006  C 7.32374999999999 1.40000000000001  6.08625000000003 1.69999999999999  4.84875 1.69999999999999  C 3.72375 1.69999999999999  1.36124999999998 1.40000000000001  0.348750000000003 0.900000000000006  Z " fill-rule="nonzero" fill="#236ea1" stroke="none" transform="matrix(1 0 0 1 449 194 )" />
    <path d="M 0.348750000000003 0.900000000000006  C 0.348750000000003 0.900000000000006  4.96125000000003 7.09999999999999  4.96125000000003 7.09999999999999  C 4.96125000000003 7.09999999999999  8.22375 0.900000000000006  8.22375 0.900000000000006  C 7.32374999999999 1.40000000000001  6.08625000000003 1.69999999999999  4.84875 1.69999999999999  C 3.72375 1.69999999999999  1.36124999999998 1.40000000000001  0.348750000000003 0.900000000000006  Z " stroke-width="2" stroke="#236ea1" fill="none" transform="matrix(1 0 0 1 449 194 )" mask="url(#clip312)" />
  </g>
</svg>