<?xml version="1.0" encoding="utf-8"?>
<svg version="1.1" xmlns:xlink="http://www.w3.org/1999/xlink" width="9px" height="7px" xmlns="http://www.w3.org/2000/svg">
  <defs>
    <mask fill="white" id="clip323">
      <path d="M 1.01249999999997 0.230000000000018  C 1.01249999999997 0.230000000000018  5.51249999999997 6.43000000000001  5.51249999999997 6.43000000000001  C 5.51249999999997 6.43000000000001  8.88749999999997 0.230000000000018  8.88749999999997 0.230000000000018  C 7.875 0.730000000000018  6.75 1.03000000000003  5.51249999999997 1.03000000000003  C 4.27499999999995 1.03000000000003  2.02499999999995 0.730000000000018  1.01249999999997 0.230000000000018  Z " fill-rule="evenodd" />
    </mask>
  </defs>
  <g transform="matrix(1 0 0 1 -319 -377 )">
    <path d="M 1.01249999999997 0.230000000000018  C 1.01249999999997 0.230000000000018  5.51249999999997 6.43000000000001  5.51249999999997 6.43000000000001  C 5.51249999999997 6.43000000000001  8.88749999999997 0.230000000000018  8.88749999999997 0.230000000000018  C 7.875 0.730000000000018  6.75 1.03000000000003  5.51249999999997 1.03000000000003  C 4.27499999999995 1.03000000000003  2.02499999999995 0.730000000000018  1.01249999999997 0.230000000000018  Z " fill-rule="nonzero" fill="#236ea1" stroke="none" transform="matrix(1 0 0 1 319 377 )" />
    <path d="M 1.01249999999997 0.230000000000018  C 1.01249999999997 0.230000000000018  5.51249999999997 6.43000000000001  5.51249999999997 6.43000000000001  C 5.51249999999997 6.43000000000001  8.88749999999997 0.230000000000018  8.88749999999997 0.230000000000018  C 7.875 0.730000000000018  6.75 1.03000000000003  5.51249999999997 1.03000000000003  C 4.27499999999995 1.03000000000003  2.02499999999995 0.730000000000018  1.01249999999997 0.230000000000018  Z " stroke-width="2" stroke="#236ea1" fill="none" transform="matrix(1 0 0 1 319 377 )" mask="url(#clip323)" />
  </g>
</svg>