<?xml version="1.0" encoding="utf-8"?>
<svg version="1.1" xmlns:xlink="http://www.w3.org/1999/xlink" width="14px" height="14px" viewBox="186 439  14 14" xmlns="http://www.w3.org/2000/svg">
  <path d="M 193 440  C 196.36 440  199 442.64  199 446  C 199 449.36  196.36 452  193 452  C 189.64 452  187 449.36  187 446  C 187 442.64  189.64 440  193 440  Z " fill-rule="nonzero" fill="#ffffff" stroke="none" />
  <path d="M 193 440  C 196.36 440  199 442.64  199 446  C 199 449.36  196.36 452  193 452  C 189.64 452  187 449.36  187 446  C 187 442.64  189.64 440  193 440  Z " stroke-width="2" stroke="#163985" fill="none" />
  <path d="M 193 449.5  C 191.04 449.5  189.5 447.96  189.5 446  C 189.5 444.04  191.04 442.5  193 442.5  C 194.96 442.5  196.5 444.04  196.5 446  C 196.5 447.96  194.96 449.5  193 449.5  " fill-rule="nonzero" fill="#163985" stroke="none" />
</svg>