<?xml version="1.0" encoding="utf-8"?>
<svg version="1.1" xmlns:xlink="http://www.w3.org/1999/xlink" width="24px" height="27px" xmlns="http://www.w3.org/2000/svg">
  <defs>
    <filter x="712px" y="131px" width="24px" height="27px" filterUnits="userSpaceOnUse" id="filter442">
      <feOffset dx="3" dy="8" in="SourceAlpha" result="shadowOffsetInner" />
      <feGaussianBlur stdDeviation="2.5" in="shadowOffsetInner" result="shadowGaussian" />
      <feComposite in2="shadowGaussian" operator="atop" in="SourceAlpha" result="shadowComposite" />
      <feColorMatrix type="matrix" values="0 0 0 0 0  0 0 0 0 0  0 0 0 0 0  0 0 0 0.349019607843137 0  " in="shadowComposite" />
    </filter>
    <g id="widget443">
      <path d="M 11.5390625 5.93359375  C 11.6484375 5.82421875  11.703125 5.6875  11.703125 5.5234375  C 11.703125 5.35329861111111  11.6484375 5.21354166666667  11.5390625 5.10416666666667  L 10.7096354166667 4.28385416666667  C 10.5941840277778 4.16840277777778  10.4574652777778 4.11067708333333  10.2994791666667 4.11067708333333  C 10.1414930555556 4.11067708333333  10.0047743055556 4.16840277777778  9.88932291666667 4.28385416666667  L 6.17057291666667 7.99348958333333  L 4.11067708333333 5.93359375  C 3.99522569444444 5.81814236111111  3.85850694444444 5.76041666666667  3.70052083333333 5.76041666666667  C 3.54253472222222 5.76041666666667  3.40581597222222 5.81814236111111  3.29036458333333 5.93359375  L 2.4609375 6.75390625  C 2.3515625 6.86328125  2.296875 7.00303819444444  2.296875 7.17317708333333  C 2.296875 7.33723958333333  2.3515625 7.47395833333333  2.4609375 7.58333333333333  L 5.76041666666667 10.8828125  C 5.87586805555556 10.9982638888889  6.01258680555556 11.0559895833333  6.17057291666667 11.0559895833333  C 6.33463541666667 11.0559895833333  6.47439236111111 10.9982638888889  6.58984375 10.8828125  L 11.5390625 5.93359375  Z M 13.0611979166667 3.486328125  C 13.6870659722222 4.55881076388889  14 5.73003472222222  14 7  C 14 8.26996527777778  13.6870659722222 9.44118923611111  13.0611979166667 10.513671875  C 12.4353298611111 11.5861545138889  11.5861545138889 12.4353298611111  10.513671875 13.0611979166667  C 9.44118923611111 13.6870659722222  8.26996527777778 14  7 14  C 5.73003472222222 14  4.55881076388889 13.6870659722222  3.486328125 13.0611979166667  C 2.41384548611111 12.4353298611111  1.56467013888889 11.5861545138889  0.938802083333333 10.513671875  C 0.312934027777778 9.44118923611111  0 8.26996527777778  0 7  C 0 5.73003472222222  0.312934027777778 4.55881076388889  0.938802083333333 3.486328125  C 1.56467013888889 2.41384548611111  2.41384548611111 1.56467013888889  3.486328125 0.938802083333333  C 4.55881076388889 0.312934027777777  5.73003472222222 0  7 0  C 8.26996527777778 0  9.44118923611111 0.312934027777777  10.513671875 0.938802083333333  C 11.5861545138889 1.56467013888889  12.4353298611111 2.41384548611111  13.0611979166667 3.486328125  Z " fill-rule="nonzero" fill="#163985" stroke="none" transform="matrix(1 0 0 1 714 131 )" />
    </g>
  </defs>
  <g transform="matrix(1 0 0 1 -712 -131 )">
    <use xlink:href="#widget443" filter="url(#filter442)" />
    <use xlink:href="#widget443" />
  </g>
</svg>