<?xml version="1.0" encoding="utf-8"?>
<svg version="1.1" xmlns:xlink="http://www.w3.org/1999/xlink" width="36px" height="13px" xmlns="http://www.w3.org/2000/svg">
  <g transform="matrix(1 0 0 1 -203 -785 )">
    <path d="M 24.885 3.94333333333333  C 22.725 3.25  20.4 2.88888888888889  18 2.88888888888889  C 15.6 2.88888888888889  13.275 3.25  11.1 3.92888888888889  L 11.1 8.40666666666667  C 11.1 8.97  10.755 9.47555555555556  10.26 9.70666666666667  C 8.79 10.4144444444444  7.455 11.3244444444444  6.27 12.3788888888889  C 6 12.6388888888889  5.625 12.7833333333333  5.22 12.7833333333333  C 4.8 12.7833333333333  4.425 12.6244444444444  4.155 12.3644444444444  L 0.435 8.78222222222222  C 0.165 8.53666666666667  0 8.17555555555556  0 7.77111111111111  C 0 7.36666666666667  0.165 7.00555555555556  0.435 6.74555555555556  C 5.01 2.57111111111111  11.19 0  18 0  C 24.81 0  30.99 2.57111111111111  35.565 6.74555555555555  C 35.835 7.00555555555556  36 7.36666666666667  36 7.77111111111111  C 36 8.17555555555555  35.835 8.53666666666667  35.565 8.79666666666667  L 31.845 12.3788888888889  C 31.575 12.6388888888889  31.2 12.7977777777778  30.78 12.7977777777778  C 30.375 12.7977777777778  30 12.6388888888889  29.73 12.3933333333333  C 28.545 11.3244444444444  27.195 10.4288888888889  25.725 9.72111111111111  C 25.23 9.49  24.885 8.99888888888889  24.885 8.42111111111111  L 24.885 3.94333333333333  Z " fill-rule="nonzero" fill="#ffffff" stroke="none" transform="matrix(1 0 0 1 203 785 )" />
  </g>
</svg>