<?xml version="1.0" encoding="utf-8"?>
<svg version="1.1" xmlns:xlink="http://www.w3.org/1999/xlink" width="24px" height="24px" xmlns="http://www.w3.org/2000/svg">
  <g transform="matrix(1 0 0 1 -140 -201 )">
    <path d="M 9.20526782226564 22.4567857177735  L 9.20499997558593 22.9786606933594  L 6.60705358886718 22.5699106933594  L 6.85312499999999 22.0341964599609  C 7.34112366595858 20.9717190283669  7.83133305281122 19.9102583799287  8.32374997558594 18.8498214111328  L 5.50821430664062 14.4600892822266  L 5.33794643554687 14.5692856933594  C 4.77866074218749 14.9279463867188  4.29428569335937 15.3199999511719  3.89803571777343 15.7345535888672  L 3.73669643554687 15.9033928710938  L 1.38107145996093 15.5330356933594  L 4.82098212890624 13.3266071777344  L 5.20553569335937 11.9595535400391  L 7.62785712890625 12.3406250244141  L 7.24776782226562 13.415625  L 10.0461607177734 17.7786607177734  C 10.7035714599609 17.8316071289063  11.3964285644531 17.7970535888672  12.1154464599609 17.6764285400391  C 12.9000892822266 17.54625  13.8461607421875 17.1700892578125  14.9280357421875 16.558125  C 15.845625 16.0390178466797  16.6828571777344 15.5433035888672  17.4244642822266 15.0802678710938  L 17.4024106933594 15.0651785888672  C 16.8481249511719 14.6853571289062  15.8836606933594 14.7368750244141  14.593125 15.21  L 14.2569643066406 15.3332143066406  L 13.6421428710937 14.3745535400391  L 14.0809821533203 14.150625  C 15.6841071533203 13.3325000244141  16.2334821533203 13.0241964111328  16.4120535644531 12.9096428466797  C 16.4197109379648 12.9047946212887  16.4271302584023 12.8995802500567  16.4342857177734 12.8940178710938  C 16.4274106933594 12.8725000488281  16.4116964355469 12.8347321289063  16.3757143066406 12.7786606933594  L 12.6110714355469 6.90910715332032  L 8.27696425781249 9.68883925781251  C 8.1543019741254 9.76827259976802  8.03575620843356 9.85388899832382  7.92178571777343 9.94535712890625  L 8.22339287109374 9.93473217773438  C 8.56383933105467 9.92276791992188  8.88651789550779 9.91669643554689  9.1823214111328 9.91669643554689  C 10.0733928222656 9.91669643554689  10.7530357177734 9.96937500000001  11.2599106933594 10.0776785888672  C 12.0361606933594 10.2458036132813  12.522678515625 10.5324107666016  12.748125 10.9540178466797  C 12.9621428466797 11.3575892578125  13.0195535888672 11.7417856933594  12.9193749755859 12.0973214355469  C 12.8182142578125 12.4577678466797  12.6822321533203 12.6828571289063  12.4914285644531 12.8051785400391  C 12.3779463867187 12.8779464111328  12.2474107177734 12.9149107177734  12.1034821289062 12.9149107177734  C 11.7892856689453 12.9149107177734  11.4263392822266 12.7392856933594  10.9268750244141 12.3454464111328  C 10.2383036132812 11.8324999511719  9.28758933105468 11.4069642333984  8.10098217773436 11.0808928710938  L 7.7472321533203 10.9836607177734  L 7.81714284667967 10.0308928710938  C 7.61375002441405 10.2012500244141  7.40017858886718 10.4032143310547  7.17848217773437 10.6353571289063  L 7.01705354003905 10.8041964111328  L 5.0613392578125 10.4965178466797  C 5.0508950323227 10.5461383118723  5.03693116438319 10.5949522017883  5.01955356445312 10.6425892822266  C 4.89964284667968 10.9690178466797  4.76098212890625 11.173749975586  4.58241071777344 11.2883035400391  C 4.46535717773438 11.3633928222656  4.33080358886719 11.4013392333984  4.18232145996094 11.4013393066406  C 3.88071430664063 11.4013393066406  3.52437502441407 11.2396428955078  3.06080354003907 10.8925892578125  C 2.47044638671875 10.4335713867188  1.72767854003907 10.1154464355469  0.846875024414068 9.94232145996095  L 0.458660742187508 9.86598215332032  L 0.533839306640632 8.84750002441408  L 0.885178564453133 8.79357143554689  C 1.63848215332032 8.67785712890626  2.28178571777345 8.61919643554689  2.79714287109376 8.61919643554689  C 3.02732145996094 8.61919643554689  3.23821428222657 8.6308928466797  3.42410712890626 8.65392854003907  C 4.13142854003907 8.74249995117188  4.61330354003907 9.01553569335938  4.85714282226563 9.46535712890626  C 4.98937500000001 9.71160710449219  5.06419636230468 9.94508928222657  5.08160712890626 10.1640178710938  L 11.8952678466797 5.79383928222657  C 10.8996428466797 4.24830358886719  10.1929464111328 3.19589282226563  9.79258930664064 2.66276784667969  L 9.35321425781251 2.07741071777345  L 12.7681250244141 1.49633928222657  L 12.3964285400391 2.81794643554688  L 13.6028571533203 4.69866071777345  L 14.5858928466797 4.06812502441407  L 15.0321428466797 2.48187502441407  L 18.5102678466797 3.12535715332032  L 14.3182142578125 5.81410715332032  L 18.2774107177735 11.986875  C 18.6197321777344 12.5207143066406  18.7613392822266 13.0343750244141  18.6982142578125 13.5139285400391  C 18.6571428222656 13.8260713623047  18.5338392333984 14.155803515625  18.3305356933594 14.4991071533203  C 18.8469642333984 14.158125  19.4040178710938 13.7738392822266  19.9925893066406 13.3524106933594  C 20.758571484375 12.8052678222656  21.669375 12.1349107177734  22.7002678710938 11.3598214599609  L 23.0847321533203 11.0707142578125  L 23.7020535644531 12.0333928710938  L 23.426874975586 12.2873214111328  C 23.0775892822266 12.6095535644531  22.5260714355469 13.2040178466797  22.7569642822266 13.5639285644531  L 23.0027678466797 13.9472321777344  L 22.6146428466797 14.1854464599609  C 20.5344643066406 15.4619643310547  18.7876785644531 16.5102678955078  17.4225892822266 17.3012499755859  C 16.0197321533203 18.1141071533203  14.8279464111328 18.6701785400391  13.8805357177735 18.9539285888672  C 12.9079464111328 19.2443750244141  11.9664285644531 19.3400000244141  11.0806250244141 19.2389285888672  C 10.7514285644531 19.2016964355469  10.4726786132813 19.1827678710938  10.2525892822266 19.1827678710938  C 9.95955358886721 19.1827678710938  9.84794641113282 19.2162500244141  9.81991069335939 19.226874975586  C 9.7887499511719 19.2598214355469  9.63357143554689 19.4566964355469  9.45035712890626 20.2527678222656  C 9.28803566894532 20.9573214111328  9.20562495117188 21.6988392333985  9.20526782226564 22.4567857177735  Z M 8.45437500000001 20.6922321533203  C 8.27625 21.0779464599609  8.09535717773438 21.4701785888672  7.91080356445313 21.8712500244141  L 8.32464287109376 21.9363392578125  C 8.34428569335938 21.5149999511719  8.38767861328126 21.0992857177734  8.45437500000001 20.6922321533203  Z M 5.77651787109374 13.2272321777344  L 5.77776782226562 13.2265178466797  L 9.20857141113281 18.575625  C 9.24781982831145 18.5381463491709  9.29054170408882 18.5044830554054  9.33616069335938 18.4750892578125  C 9.35848212890625 18.460803515625  9.38187495117187 18.4474106689453  9.40625002441406 18.4348214355469  L 6.26044643554688 13.53  L 6.42812497558593 13.0557142822266  L 5.85026784667969 12.9648214599609  L 5.77651787109374 13.2272321777344  Z M 21.8260714599609 13.6215178710938  C 21.7915179199219 13.4619643066406  21.7902678955078 13.2969643066406  21.8224107421875 13.126875  C 21.3878908831416 13.4473150918906  20.9510640284692 13.7646150300467  20.5119643066406 14.0787500244141  C 19.7440178466797 14.6285714355469  19.0274107177734 15.1172321777344  18.3821428710937 15.5309821289062  C 17.5158035888672 16.0866963867187  16.5015178710938 16.6937499755859  15.3675 17.3353571777344  C 15.1208370117492 17.4752313255592  14.8703857789233 17.608317011228  14.6164285400391 17.7344642578125  C 15.3036607177734 17.443125  16.0927677978516 17.0398214355469  16.9748214111328 16.5287499755859  C 18.2625892822266 15.7825892578125  19.8933928710937 14.8051785644531  21.8260714599609 13.6215178710938  Z M 16.8943749755859 13.6613392822266  C 16.7997321533203 13.7218749755859  16.651875 13.8076785644531  16.4489285888672 13.9194643066406  C 16.8470535644531 13.9210714599609  17.2049107177734 13.9876785644531  17.5178571533203 14.1180357421875  C 17.6858928955078 13.852946484375  17.7849106933594 13.6115178955078  17.8131249755859 13.3975892578125  C 17.8479464355469 13.1330356933594  17.7513392578125 12.8205356689453  17.5258928466797 12.4691071289063  L 11.4285714111328 2.9625  L 11.5266964599609 2.61348215332031  L 10.9284821777344 2.71526784667969  C 11.3936607421875 3.3850892578125  12.0499107421875 4.38026784667969  12.8883928710938 5.6875892578125  L 17.1275000244141 12.2968749755859  C 17.5344643066406 12.9315177978516  17.2739285888672 13.4178571289063  16.8943749755859 13.6613392822266  Z M 11.0721428466797 10.9506249755859  C 10.8096428466797 10.8945535400391  10.4754464355469 10.8549999755859  10.0737500244141 10.8323214111328  C 10.6057143310547 11.0710713867187  11.0710714599609 11.3387499755859  11.4659821289062 11.6337500244141  L 11.4755356933594 11.6410714599609  C 11.7529464111328 11.8602678955078  11.922678515625 11.953571484375  12.0151785644531 11.9931249755859  C 12.0282142822266 11.9592856933594  12.0433928466797 11.9144642578125  12.0598214355469 11.8557142822266  C 12.0957142822266 11.7283035644531  12.0621428466797 11.5663393066406  11.9600893066406 11.3738392822266  C 11.9185714599609 11.2962500244141  11.7475000488281 11.0968749755859  11.0721428466797 10.9506249755859  Z M 3.31392854003907 9.54008928222656  C 3.08874997558594 9.51214284667969  2.80901784667969 9.50499997558594  2.48375002441406 9.51955356445312  C 2.89499999999999 9.70187497558594  3.26883933105468 9.92339282226563  3.6025892578125 10.1829464355469  C 3.87366071777343 10.3858928466797  4.03366069335938 10.4624107177734  4.11500002441406 10.4912499755859  C 4.13241071777344 10.4571428466797  4.15482143554687 10.4074106689453  4.18098215332032 10.3362500244141  C 4.21473215332031 10.2433035644531  4.17598212890626 10.084196484375  4.07142854003907 9.88955354003906  C 3.94928569335938 9.66410712890624  3.59196423339844 9.57499995117187  3.31392854003907 9.54008928222656  Z M 16.1280357421875 3.59276784667969  L 15.6709821533203 3.50821428222656  L 15.5414285888672 3.96901787109375  L 16.1280357421875 3.59276784667969  Z " fill-rule="nonzero" fill="#05c05e" stroke="none" transform="matrix(1 0 0 1 140 201 )" />
  </g>
</svg>