<?xml version="1.0" encoding="utf-8"?>
<svg version="1.1" xmlns:xlink="http://www.w3.org/1999/xlink" width="24px" height="21px" xmlns="http://www.w3.org/2000/svg">
  <g transform="matrix(1 0 0 1 -140 -202 )">
    <path d="M 3.32857141113281 9.03526787109374  C 2.68589282226562 8.53562504882812  1.88741066894531 8.19196428222656  0.933125024414059 8.004375  L 0.95303569335937 7.73491069335937  C 2.00544638671875 7.57330356445313  2.81026787109375 7.52785715332031  3.36937499999999 7.59705358886719  C 3.92758930664062 7.66696428222656  4.29267854003906 7.86071433105469  4.46482141113281 8.17821430664062  C 4.6357142578125 8.49642861328125  4.68124995117187 8.7667857421875  4.6000892578125 8.99000002441406  C 4.51785710449218 9.21383928222656  4.43196423339843 9.35455356445313  4.34142854003906 9.41267856445312  C 4.15901784667969 9.52964282226562  3.82107136230469 9.40401782226562  3.32857141113281 9.03526787109374  Z M 6.75401784667969 11.9731250244141  L 9.78758928222656 16.7025  C 10.5472321289063 16.7862500244141  11.3480356933594 16.7579464599609  12.1891964355469 16.6168749755859  C 13.0300892578125 16.4774107177734  14.0166964599609 16.0866071044922  15.1477678710937 15.4468749755859  C 16.27875 14.8069642822266  17.27625 14.2099999511719  18.1411606933594 13.6552678710938  C 18.7779464355469 13.2469642822266  19.4818749755859 12.7673214111328  20.2524106933594 12.215625  C 21.0225 11.6654464599609  21.9285714111328 10.99875  22.9684821533203 10.2167857177734  L 23.1240178710937 10.4593749755859  C 22.3164285644531 11.204553515625  22.0699107421875 11.82  22.3810714599609 12.3050893066406  C 20.3071428955078 13.5777678955078  18.5791964355469 14.6151785888672  17.1986607421875 15.4151785400391  C 15.8169643066406 16.2157142578125  14.6677678710937 16.7523213867187  13.7523214599609 17.0265178710937  C 12.8352678955078 17.3004464355469  11.9627679199219 17.390625  11.1311607421875 17.2956249755859  C 10.3000893310547 17.2015178466797  9.78196428222655 17.2197321533203  9.57714287109373 17.3510714355469  C 9.37241074218749 17.4824107177734  9.18455361328123 17.9170535888672  9.01517856445311 18.6528571289062  C 8.84535710449218 19.3902678222656  8.75910710449218 20.1569642578125  8.75874997558591 20.9567857177734  L 7.25874997558591 20.7208035644531  C 7.78054491438119 19.5845538839737  8.30492126834207 18.4494914317123  8.83187497558591 17.315625  L 5.64285717773437 12.3434821289063  L 5.09678569335937 12.69375  C 4.50482138671875 13.0733928222656  3.99758928222656 13.4842857421875  3.57517858886719 13.9263392578125  L 2.61089282226563 13.7747321777344  L 5.20473215332031 12.1110714111328  L 5.52776784667969 10.9625000244141  L 7.02785712890625 11.1984821777344  L 6.75401784667969 11.9731250244141  Z M 5.89133928222656 8.67517858886719  L 12.5124999755859 4.42857143554687  C 11.3719642822266 2.65035717773437  10.5834821044922 1.4725892578125  10.1497321289063 0.894910693359372  L 12.1474107421875 0.554999999999996  L 11.9124999755859 1.39026782226562  L 13.468125 3.815625  L 14.9697321533203 2.85249997558594  L 15.3515178222656 1.4950892578125  L 17.3191071533203 1.85910717773437  L 13.7013392578125 4.17946428222656  L 17.9015178222656 10.7280357421875  C 18.187053515625 11.1733035644531  18.3047321044922 11.5819642822266  18.2555356933594 11.9558035400391  C 18.20625 12.3296427978516  18.005625 12.7444642822266  17.6546428710937 13.1969642578125  C 16.9672321289063 12.7259821289063  15.8945535644531 12.7575  14.439375 13.2908928222656  L 14.2838392822266 13.0483035644531  C 15.5903571533203 12.3815178222656  16.3800892822266 11.9605357177734  16.6530357421875 11.7854464599609  C 16.926071484375 11.6102679199219  16.9592857177734 11.3616964599609  16.7515178466797 11.0376785888672  L 12.7458035888672 4.79232143554688  L 8.03598215332032 7.813125  C 7.67124997558594 8.04714287109375  7.27821430664063 8.38473215332031  6.8557142578125 8.82687502441406  L 5.89133928222656 8.67517858886719  Z M 11.1989285888672 10.4914285400391  C 10.4591964111328 9.938928515625  9.46571433105468 9.49303571777344  8.21937502441407 9.15053569335937  L 8.23919641113282 8.88098217773437  C 9.55812495117188 8.83455358886718  10.5334821533203 8.87901789550781  11.1666964599609 9.01437502441406  C 11.7995536376953 9.15142858886719  12.1958036132813 9.367946484375  12.3545535644531 9.66473217773437  C 12.5126785400391 9.96294645996094  12.5582143066406 10.2334821533203  12.4898214111328 10.4764285400391  C 12.4210713867188 10.72125  12.34125 10.8714285644531  12.2505357421875 10.9295535644531  C 12.0681250488281 11.0465178222656  11.7174107666016 10.9010714355469  11.1989285888672 10.4914285400391  Z " fill-rule="nonzero" fill="#05c05e" stroke="none" transform="matrix(1 0 0 1 140 202 )" />
  </g>
</svg>