<?xml version="1.0" encoding="utf-8"?>
<svg version="1.1" xmlns:xlink="http://www.w3.org/1999/xlink" width="24px" height="23px" xmlns="http://www.w3.org/2000/svg">
  <g transform="matrix(1 0 0 1 -122 -213 )">
    <path d="M 3.73696428222657 10.3866904654948  C 3.26375002441407 9.93946826822916  2.44875000000001 9.51141266276042  1.29312502441406 9.10188493489583  L 1.35196428222656 8.88840472981771  C 2.17035710449219 8.76053566080729  2.86392854003906 8.71444439453125  3.43223217773438 8.74930953450521  C 4.00000004882813 8.78572620117187  4.37580358886719 8.94809527018229  4.55687497558594 9.23669046549479  C 4.73857141113282 9.52628966471354  4.79580351562501 9.82364679687499  4.73107141113281 10.128488063151  C 4.66544641113282 10.4341507259115  4.58723210449219 10.6165079329427  4.49651784667969 10.6759245996094  C 4.31419643554688 10.795488063151  4.06098215332032 10.6991071321615  3.73696428222657 10.3866904654948  Z M 6.88062502441406 12.7869047298177  L 9.95294641113281 17.6833491992188  C 10.7184821044922 17.8813134635417  11.5882142578125 17.9096983984375  12.5591071289063 17.7680475976562  C 13.5305356933594 17.6274008007812  15.0133928466797 16.9462539290365  17.0093750244141 15.7250634635417  C 19.0042857421875 14.5046031282552  21.15375 12.9642420670573  23.4554464599609 11.1051666666667  L 23.6109821777344 11.353146796875  C 22.8295535888672 12.1565039290365  22.6308928710937 12.8116388639323  23.0140178466797 13.3190991992187  C 20.8745535644531 14.7218254003906  19.1078571533203 15.8212618619792  17.7144643066406 16.6186865364583  C 16.3195535888672 17.4157460709635  15.1174107421875 17.9565198697917  14.1075892822266 18.2400040039063  C 13.0960714599609 18.5232143391927  12.1858035644531 18.581444469401  11.3745535400391 18.4135079329427  C 10.5173214111328 18.2756904654948  9.9813392578125 18.2921190690104  9.766875 18.4614245996094  C 9.55205354003907 18.6323729980469  9.35571430664062 19.1109920670573  9.1755357421875 19.8989245996094  C 8.99607143554688 20.6877698697917  8.92133928222656 21.3628016015625  8.95374997558593 21.9252063313802  L 7.42419645996094 21.7905833333333  C 7.717946484375 20.7233650651042  8.29107143554687 19.590341266276  9.14348217773437 18.3889563313802  L 5.87669641113281 13.1824682682292  L 5.3988392578125 13.4957063313802  C 4.80687495117187 13.8837856608073  4.29964284667969 14.3039008007813  3.87732143554687 14.7558690690104  L 2.91294645996094 14.6008016015625  L 5.57499997558594 12.8554483984375  L 5.59562497558594 11.9671190690104  L 7.15437502441407 11.9948650651042  L 6.88062502441406 12.7869047298177  Z M 17.8512500244141 12.7674642643229  L 17.6956250244141 12.5196666666667  C 18.4491071777344 12.0843095345052  19.0079464599609 11.7466111360677  19.3726785644531 11.5074841341146  C 19.7363392822266 11.2689960709635  19.8154464111328 10.9846904654948  19.6076785400391 10.6536547298177  L 18.4020535400391 8.73215080078125  L 15.1938392578125 10.835555530599  L 16.9439285888672 13.624853203125  L 16.29 14.5784404654948  L 14.3065178466797 11.4173095345052  L 11.3031249755859 13.3864563313802  L 13.1698214355469 16.3615793294271  L 12.4475893066406 17.3599801302083  C 11.792321484375 16.215  10.8697321289063 14.6917063313802  9.67687500000001 12.790555530599  C 8.48455356445314 10.8905  7.56660717773438 9.4801983984375  6.92517854003907 8.55855553059896  L 8.4745535888672 8.4175436686198  L 11.4096428466797 6.49321033528646  C 10.9034821289063 5.89283733723958  10.0175000244141 5.65635713216146  8.75080356445314 5.78696426432292  L 8.77071430664063 5.511603203125  C 9.62169645996095 5.1285436686198  10.5415178466797 4.90548020507813  11.5288393066406 4.84040472981771  L 12.643125 2.01021826822917  L 8.06982143554689 5.00870633138021  C 7.43196430664064 5.42690472981771  6.90249997558595 5.86153173177084  6.48000000000001 6.3135  L 5.51562502441407 6.15834126627604  L 12.4780357177734 1.59357139648437  L 12.7424107177734 0.63304759765625  L 14.7099106933594 1.00515472981771  C 13.9558928466797 1.44206346354167  13.002678515625 2.73690873372396  11.8501785644531 4.89215472981771  C 11.9472321533203 4.94600392903646  12.0485714355469 5.05461506510417  12.151875 5.21926586588542  C 12.281874975586 5.42653966471355  12.2843750244141 5.68729759765625  12.1606250244141 6.00090080078125  L 15.2322321533203 3.98703173177084  L 15.3210714111328 3.05398013020833  L 16.7727678222656 3.06456746744792  L 16.5671428710938 3.81161113606771  L 20.6895535400391 10.381761936849  C 21.1754463867188 11.0554245996094  21.0546428466797 11.8345040039063  20.3259821777344 12.7195475976563  C 19.9174107421875 12.1715634635417  19.0921428955078 12.1877182682292  17.8512500244141 12.7674642643229  Z M 11.5065178710938 6.95467067057292  L 8.503125 8.92381746744792  L 9.66973212890625 10.7832579329427  L 12.673125 8.81411113606771  L 11.5065178710938 6.95467067057292  Z M 12.9065178222656 9.18594446940103  L 9.90312502441406 11.155091266276  L 11.0698214355469 13.0146229980469  L 14.0732143066406 11.0454762011719  L 12.9065178222656 9.18594446940103  Z M 15.6019642822266 4.26951193684896  L 12.3938392822266 6.37291666666667  L 13.5604464111328 8.23235713216146  L 16.7686606933594 6.12895240234376  L 15.6019642822266 4.26951193684896  Z M 17.0020535888672 6.50078573567708  L 13.7938393066406 8.6041904654948  L 14.9605357177734 10.4637221972656  L 18.16875 8.36031746744792  L 17.0020535888672 6.50078573567708  Z " fill-rule="nonzero" fill="#05c05e" stroke="none" transform="matrix(1 0 0 1 122 213 )" />
  </g>
</svg>