<?xml version="1.0" encoding="utf-8"?>
<svg version="1.1" xmlns:xlink="http://www.w3.org/1999/xlink" width="23px" height="20px" xmlns="http://www.w3.org/2000/svg">
  <g transform="matrix(1 0 0 1 -105 -225 )">
    <path d="M 2.25783333333333 8.56877291165864  L 1.27211906901042 8.41318682391827  L 11.4592936686198 1.85732602163462  L 11.5404325325521 0.751831505408655  L 13.2831388639323 0.85915752704327  L 12.9334841341146 1.69853478064904  C 14.5235873372396 4.18608060396635  15.5937262011719 5.80979852764424  16.1438095345052 6.56666669170674  L 15.3357063313802 7.61336996694712  L 14.7393491992188 6.68049451622596  L 5.87786906901042 12.38305859375  L 9.33653966471354 17.7936813401442  C 9.71384919921875 18.4874542518029  10.3084721972656 18.5435897686298  11.1190396647135 17.9630952524038  L 19.4920436686198 12.5748168569712  C 20.3560952701823 12.0777472956731  20.6347420670573 11.4882783954327  20.3309047298177 10.8061355168269  C 20.0260634635417 10.1247252854567  19.5262697949219 9.18855310997597  18.8307936686198 7.9971612079327  L 19.1796270019531 7.77271063701924  C 20.5313333333333 9.88717953725963  21.5826706705729 10.7616300330529  22.3332737988281 10.395329702524  C 22.3916864615885 11.4110806039664  21.7890317317708 12.2663919771635  20.5272262011719 12.9619047475962  L 10.8286190690104 19.2032967247596  C 9.8778611360677 19.8728022085337  9.08189687174479 19.655494516226  8.43926586588541 18.5465201322115  C 5.70984126627604 14.2768315054087  4.10878573567708 11.8252747145433  3.63865472981771 11.1908424729567  L 5.60132139648437 10.7179486929086  L 5.321396796875 11.5124541766827  L 5.63938093098958 12.0100732421875  L 14.5008611360677 6.30741759314904  L 11.8373333333333 2.14075090144231  L 3.81316266276041 7.30457872596153  C 3.20813486002604 7.69395597956731  2.68963093098958 8.11547618689904  2.25783333333333 8.56877291165864  Z " fill-rule="nonzero" fill="#05c05e" stroke="none" transform="matrix(1 0 0 1 105 225 )" />
  </g>
</svg>