<?xml version="1.0" encoding="utf-8"?>
<svg version="1.1" xmlns:xlink="http://www.w3.org/1999/xlink" width="26px" height="23px" xmlns="http://www.w3.org/2000/svg">
  <g transform="matrix(1 0 0 1 -122 -213 )">
    <path d="M 9.58340337201287 21.8989206705729  L 9.61453780445772 22.4252737988281  L 6.98258400160845 22.198103203125  L 7.13161061580882 21.6671865364583  C 7.4224719496783 20.6308174674479  7.97433471966911 19.5247182682292  8.77354339958639 18.3759959960937  L 5.85446075942095 13.8131428678385  L 5.7504061695772 13.8800436686198  C 5.18033615579044 14.2466745996094  4.68637252412683 14.6473491992187  4.28244397403492 15.0712975976563  L 4.11785014361212 15.2439801302083  L 1.7160364430147 14.8652103352865  L 5.23495796185661 12.6024483984375  L 5.26108543772977 11.503103203125  L 7.93436972656249 11.5497420670573  L 7.51887955537683 12.7285833333333  L 10.4314075310202 17.2812142643229  C 10.8012884478401 17.3603451953125  11.2006652056526 17.4005039290365  11.6216176470588 17.4005040039062  C 11.8005042336857 17.4005040039062  11.9852170726103 17.3932936686198  12.1745728113511 17.3788729980469  C 11.5107352941176 16.2515079329427  10.6062885225184 14.7924682682292  9.48335437729778 13.0371666666667  C 8.28658967141543 11.166591266276  7.34672969898896 9.748896796875  6.68990193589154 8.82342067057292  L 6.22962188074448 8.17485713216146  L 8.48878149126838 7.97324206705729  L 10.8494467715993 6.45533333333333  C 10.4057352941176 6.23208733723959  9.77121147748161 6.16007540039063  8.96781513671874 6.24130553059896  L 8.42824232536764 6.29588493489584  L 8.49579132008271 5.378896796875  L 8.47348737362132 5.39313493489584  C 7.85698880974264 5.78961113606771  7.33962883731616 6.20534527018229  6.93588235294117 6.62911113606771  L 6.77128852251837 6.8017936686198  L 4.3695658547794 6.42284126627605  L 12.3309733857996 1.30342459960938  L 12.6662604721967 0.108884934895837  L 16.3096288373162 0.784738063151047  L 15.2224720243566 1.4025436686198  C 14.7669258272059 1.66138493489584  13.9563375919118 2.46519839843751  12.6519677906709 4.80252780273438  C 12.6928431123621 4.85418653645834  12.7331722369026 4.91104767252605  12.7728641314338 4.97320240234376  C 12.806729698989 5.02613893880209  12.8395027975643 5.08756353841147  12.8673599724265 5.15765873372396  L 15.0989355813419 3.72271426432292  L 15.2083613338695 2.59498413411459  L 17.7010294117647 2.61278173177084  L 17.3852241038603 3.7381388639323  L 21.4704832146139 10.1240158658854  C 21.8264355813419 10.6150475976563  22.075784363511 11.3694841341146  21.5296568876378 12.3582103352865  C 22.2397548338633 11.8332118125018  22.9409566270158 11.2962251449738  23.6329621955423 10.7474801302083  L 24.0271498563878 10.4352459960938  L 24.6541176470588 11.4155754003906  L 24.3965756089154 11.6753293294271  C 23.7905461971507 12.2862896647135  23.5983682904411 12.7457419921875  23.8255042336856 13.0407262011719  L 24.1289285500919 13.4348293294271  L 23.7108893841912 13.7036190690104  C 21.538760546875 15.1004127376302  19.7128431870404 16.2153650651042  18.2840266142004 17.017353203125  C 16.8348179342831 17.8294722721354  15.5633123391544 18.38895640625  14.5045588235294 18.6804721972656  C 13.4111204446232 18.980658733724  12.407261908318 19.0419920670573  11.5171988511029 18.8632857356771  C 11.1556022231158 18.8066071321615  10.8539075310202 18.7778571321615  10.6205812040441 18.7778571321615  C 10.3193416762408 18.7778571321615  10.2314915326287 18.8266864615885  10.2305812040441 18.8271428678385  C 10.2295797679228 18.8284206705729  10.0346708754596 18.9900595345052  9.79843134765625 20.0032459960937  C 9.62573529411765 20.7479166666667  9.55336133386948 21.3858015266927  9.58340337201287 21.8989206705729  Z M 8.89179971277573 19.8846865364583  C 8.59447474724264 20.4005436686198  8.35659662798713 20.901797672526  8.17943974034926 21.3852540039063  L 8.67121850873162 21.4277857356771  C 8.68969892578125 20.9690635384115  8.76280114889705 20.45895640625  8.89179971277573 19.8846865364583  Z M 6.14987396024816 12.431408733724  L 6.14632352941177 12.5787182682292  L 9.67926470588235 18.101091266276  C 9.72283738912463 18.0675401422438  9.76940229475127 18.0380874813709  9.81836836511949 18.0131071321615  L 6.51238091681985 12.845408733724  L 6.65521707261029 12.440261936849  L 6.14987396024816 12.431408733724  Z M 22.8731722369026 13.1571865364583  C 22.8157282628677 12.9713611360677  22.7961554515166 12.7576984733073  22.8405812040441 12.5156508007812  C 20.9874439740349 13.9214801302083  19.2220657801011 15.1294365364583  17.5766736730239 16.1166111360677  C 16.3591526539522 16.8473174674479  15.3311694393382 17.385353203125  14.4756092543658 17.7385674674479  C 15.4219327837776 17.4518888639323  16.5523319221048 16.9418729980469  17.8398599724265 16.2202936686198  C 19.1762745346967 15.4701468717448  20.8683683651195 14.4404404654948  22.8731722369026 13.1571865364583  Z M 14.449754877068 12.0478928678385  L 12.1537254653033 13.5241825325521  L 13.9806442612592 16.3799245996094  L 13.4055672162224 17.1597341341146  C 14.3146568876379 16.8774365364583  15.5556652803309 16.2657460709635  17.1092926815257 15.3335158658854  C 18.1778781192555 14.6923451953125  19.2993557387408 13.9554325325521  20.4640756089154 13.1297142643229  L 20.3625700137868 12.9961865364583  C 20.2909243910846 12.9019048046875  20.1563725241268 12.776591266276  19.8168067440257 12.776591266276  C 19.458214275046 12.776591266276  18.9783613338695 12.9132221972656  18.3906302734375 13.1825595345052  L 18.031491607307 13.3471190690104  L 17.399698851103 12.359944469401  L 17.8188305606618 12.1224603352865  C 18.570245122932 11.6966865364583  19.1381302734375 11.3605396647135  19.5070098288143 11.1234206705729  C 19.6274510052849 11.0459326074219  19.6508473460478 10.9961905403646  19.6529411764706 10.9916270019531  C 19.652030847886 10.991444469401  19.6482983513327 10.9611428678385  19.6092436868107 10.9000833333333  L 18.6256862994026 9.36273413411458  L 16.1207282628676 10.9733729980469  L 17.8242016486673 13.6361706705729  L 16.5926610466452 15.3974959960937  L 14.449754877068 12.0478928678385  Z M 8.12773106043199 8.92153573567708  L 7.88393558134191 8.94325793294271  C 8.50298321461397 9.84646426432291  9.29600143612132 11.0534166666667  10.2497898839614 12.5442182682292  C 11.257016785386 14.1186229980469  12.0901820657169 15.4573690690104  12.7338095415901 16.5354483984375  L 12.8756442612592 16.3432341341146  L 8.12773106043199 8.92153573567708  Z M 12.1231372300092 6.72047219726562  L 14.7244117647059 10.7868174674479  L 16.626253515625 13.7593849348958  L 16.728214275046 13.613444469401  L 12.2616036592371 6.63139286783854  L 12.1231372300092 6.72047219726562  Z M 13.022030847886 9.81643653645833  L 10.7261835018382 11.292908733724  L 11.4242507180607 12.3841309309896  L 13.7201890969669 10.907658733724  L 13.022030847886 9.81643653645833  Z M 20.3751330710018 10.4073174674479  C 20.7171568876379 10.9415198697917  20.5824229549632 11.5010952701823  20.02500703125 11.8741150651042  C 20.277268939568 11.899488063151  20.4820098288143 11.9702221972656  20.6471498563879 12.0619483984375  C 21.109523816636 11.3443849348958  20.9253571748621 10.9197975976562  20.7287185087316 10.6526508007812  L 20.7118767578125 10.6281904654948  L 16.3982073184743 3.8854483984375  L 16.5017157111673 3.51662700195312  L 16.0340616210938 3.51325  L 16.0203151367188 3.65499206705729  L 16.0450770450368 3.63901986979167  L 20.3751330710018 10.4073174674479  Z M 11.5946708754596 7.58516266276041  L 9.29873249655331 9.06154366861979  L 9.99670867991728 10.1527658658854  L 12.2926470588235 8.67638493489583  L 11.5946708754596 7.58516266276041  Z M 17.1979621955423 7.13127780273437  L 14.6931862994026 8.74191666666666  L 15.3913445484835 9.83323013020833  L 17.8961204446232 8.22259126627603  L 17.1979621955423 7.13127780273437  Z M 15.7705111902574 4.90000400390625  L 13.2657352941176 6.51064286783854  L 13.9638025103401 7.60186506510416  L 16.4685784064798 5.99122620117187  L 15.7705111902574 4.90000400390625  Z M 11.7841176470588 5.29593253255208  C 11.425134509363 5.31872068672114  11.0679878335192 5.36466365586412  10.7148949793198 5.43347620117187  C 11.186554664522 5.56152780273437  11.5743698012408 5.77865873372395  11.8749720243566 6.08331746744791  L 11.9768417509191 5.83022620117187  C 12.0442997127757 5.66265480468749  12.0544048081342 5.53998813802083  12.0068837890625 5.465603203125  C 11.9175770450368 5.32605160156249  11.8648670036765 5.293103203125  11.8644117647059 5.29273806315103  L 11.8611344324448 5.29091266276041  L 11.7841176470588 5.29593253255208  Z M 11.4377241038603 4.4080595345052  L 11.9361484949448 3.16642459960937  L 9.24110645680147 4.8994563313802  C 9.93234598460478 4.64572620117186  10.668284363511 4.48107540039061  11.4377241038603 4.4080595345052  Z M 13.9600700137868 1.27668253255207  L 13.6957913200827 1.22767067057291  L 13.4225 1.90854366861978  C 13.6076680778952 1.66896033528645  13.7868277630974 1.45840080078124  13.9600700137868 1.27668253255207  Z M 13.3614145622702 1.16560713216145  L 13.3178991383272 1.15757540039061  L 13.3055182215073 1.20156746744791  L 13.3614145622702 1.16560713216145  Z M 4.83039218175551 11.059896796875  C 4.70601463975204 11.1397836691206  4.5613400532899 11.1821123925891  4.41362747587316 11.1818333333333  C 4.12704483570772 11.1818333333333  3.82744397403492 11.0302341341146  3.49780114889705 10.7184563313802  C 3.06801822150734 10.3201547298177  2.28346642922794 9.92030160156249  1.1693627699908 9.53304366861979  L 0.763977619485288 9.39221426432291  L 1.01978988396139 8.4817063313802  L 1.30964985638786 8.43734919921874  C 2.17112747587315 8.30537299804686  2.91607840647977 8.25718253255207  3.5266596852022 8.29378173177082  C 4.25795523897059 8.33978173177083  4.7631162856158 8.57416266276041  5.02930674402573 8.99035320312499  C 5.28047618336397 9.3829048046875  5.36095236672793 9.79836513997395  5.2685504308364 10.2251428678385  C 5.16968486328124 10.6766548046875  5.03868350183823 10.9260040039063  4.83039218175551 11.059896796875  Z M 3.47094541015624 9.2046547298177  C 3.26438378906249 9.19233333333333  3.03360645680147 9.19105553059895  2.78589634076286 9.20127780273437  C 3.35787811925551 9.47298813802083  3.79876750344669 9.75455560546874  4.11912467830882 10.0513650651042  C 4.2106162856158 10.1378888639323  4.27998601217831 10.1903690690104  4.32932776309742 10.2222221972656  C 4.34398465073529 10.1757658658854  4.36100846737132 10.1133372623698  4.37912467830882 10.0304642643229  C 4.41945380284926 9.84427379882812  4.38258407628676 9.6699483984375  4.26296219554227 9.48293653645833  C 4.16473393267462 9.32932940429687  3.88352245519301 9.23057540039062  3.47094541015624 9.2046547298177  Z " fill-rule="nonzero" fill="#05c05e" stroke="none" transform="matrix(1 0 0 1 122 213 )" />
  </g>
</svg>