<?xml version="1.0" encoding="utf-8"?>
<svg version="1.1" xmlns:xlink="http://www.w3.org/1999/xlink" width="23px" height="21px" xmlns="http://www.w3.org/2000/svg">
  <g transform="matrix(1 0 0 1 -105 -225 )">
    <path d="M 11.0827142643229 19.0940178222656  C 10.6502777278646 19.3892856445312  10.2251428678385 19.5390177978516  9.81899206705729 19.5390178710937  C 9.12990472981771 19.5390178710937  8.53473413411458 19.1275893310547  8.04990873372396 18.3159821777344  C 5.34923413411458 14.1969643066406  3.7416983984375 11.7950000244141  3.27238886393229 11.1774999755859  L 2.86003173177083 10.6349107177734  L 6.31149206705729 9.82410717773437  L 5.87513093098958 11.0314285400391  L 13.8702778027344 6.01482143554688  L 11.6995158658854 2.70392856445312  L 4.0595 7.49758930664062  C 3.4880595345052 7.85616071777343  2.99282932942708 8.24812499999999  2.58768253255208 8.66285712890624  L 2.4227579329427 8.83169641113281  L 0.0146944694010354 8.46151787109374  L 11.0209245996094 1.55562502441405  L 11.1184008007812 0.26044643554687  L 13.9515991992187 0.430535742187491  L 13.4467857356771 1.61205358886718  C 14.9586706705729 3.91544641113281  15.9897460709635 5.43812504882811  16.5124483984375 6.1394642578125  L 16.7145198697917 6.41053571777343  L 15.3005674674479 8.19624997558592  L 14.6016229980469 7.13026787109374  L 6.50845240234375 12.2083035644531  L 9.73721426432291 17.135000024414  C 9.91546426432291 17.4546428466797  10.076738063151 17.4546428466797  10.145555530599 17.4546428466797  C 10.2702301302083 17.4546428466797  10.4942975976562 17.401875  10.8539920670573 17.1507142822266  L 10.8727936686198 17.1382142578125  L 19.265238063151 11.8731249755859  C 20.2020317317708 11.3476785644531  20.0078094596354 10.9224999755859  19.9144404654948 10.7180356933594  C 19.6176309309896 10.0711606933594  19.1204841341146 9.16410710449217  18.437238063151 8.02267858886718  L 18.2157262011719 7.65267854003905  L 19.3176270019531 6.96142858886718  L 19.5639642643229 7.33723212890624  C 21.0023769270833 9.5310714111328  21.7337221972656 9.76794638671875  21.9814286035156 9.76794645996093  C 22.0365556054687 9.76794645996093  22.0850198697917 9.75714287109375  22.1338491992187 9.73383925781249  L 22.749646796875 9.44080356445313  L 22.7890754003906 10.1095535888672  C 22.8578928678385 11.2775893066406  22.1755595345052 12.2573214111328  20.7609682682292 13.0215178710937  L 11.0827142643229 19.0940178222656  Z M 4.89096826822916 11.0758928466797  L 4.39747219726563 11.191875  C 5.13548013020833 12.2508035888672  6.61888886393229 14.4794642578125  8.82332932942708 17.8417857421875  L 8.83373413411458 17.8583928222656  C 9.14441666666667 18.3810714111328  9.47590873372396 18.6460713867187  9.81899206705729 18.6460714599609  C 10.036305530599 18.6460714599609  10.2878452701823 18.5490178710937  10.5664920670573 18.3577678710937  L 10.5822817317708 18.3474106933594  L 10.8216825325521 18.1971428466797  C 10.5855674674479 18.2978571533203  10.361591266276 18.3474999755859  10.145555530599 18.3474999755859  C 9.79608333333333 18.3474999755859  9.30523413411458 18.2133927978516  8.94417067057291 17.5773214599609  L 4.81667459960937 11.2816964355469  L 4.89096826822916 11.0758928466797  Z M 21.8338452701823 10.6529464599609  C 21.4443056054687 10.6111607666016  21.033408733724 10.4042857177734  20.5896547298177 10.0222321289063  C 20.6437292072293 10.1318381919261  20.6963053394479 10.2421456548585  20.7473690690104 10.3531250244141  C 20.9451508007813 10.7863393066406  21.1020436686198 11.55375  20.2703016015625 12.2687499755859  L 20.3076309309896 12.2466071777344  C 21.1809008007812 11.7772322021484  21.6848016015625 11.2524107666016  21.8338452701823 10.6529464599609  Z M 11.9750595345052 1.47035712890625  L 15.131353203125 6.28446430664062  L 15.3708452701823 6.64973217773437  L 15.5749245996094 6.391875  C 14.981944469401 5.56812502441405  13.9876508007812 4.09089287109374  12.5493293294271 1.89705358886718  L 12.420091266276 1.70000002441406  L 12.6144959960937 1.24473215332031  L 11.9623729980469 1.205625  L 11.9408333333333 1.4917857421875  L 11.9750595345052 1.47035712890625  Z " fill-rule="nonzero" fill="#05c05e" stroke="none" transform="matrix(1 0 0 1 105 225 )" />
  </g>
</svg>