<?xml version="1.0" encoding="utf-8"?>
<svg version="1.1" xmlns:xlink="http://www.w3.org/1999/xlink" width="452px" height="250px" xmlns="http://www.w3.org/2000/svg">
  <g transform="matrix(1 0 0 1 -874 -216 )">
    <path d="M 874 216  L 1326 216  L 1326 466  L 874 466  L 874 216  " fill-rule="nonzero" fill="#cccccc" stroke="none" />
    <path d="M 892 234  L 1308 234  L 1308 448  L 892 448  L 892 234  " fill-rule="nonzero" fill="#ffffff" stroke="none" />
    <path d="M 1127.79 291  C 1117.29 291  1109.04 282.75  1109.04 272.25  C 1109.04 261.75  1117.29 253.5  1127.79 253.5  C 1138.29 253.5  1146.54 261.75  1146.54 272.25  C 1146.54 282.75  1138.29 291  1127.79 291  " fill-rule="nonzero" fill="#cccccc" stroke="none" />
    <path d="M 899 442  L 899 331.45  L 999.75 281.2  L 1140.8 375.296460176991  L 1221.4 311.35  L 1302 375.296460176991  L 1302 442  L 899 442  " fill-rule="nonzero" fill="#169bd5" stroke="none" />
  </g>
</svg>