<?xml version="1.0" encoding="utf-8"?>
<svg version="1.1" xmlns:xlink="http://www.w3.org/1999/xlink" width="10px" height="12px" xmlns="http://www.w3.org/2000/svg">
  <g transform="matrix(1 0 0 1 -741 -232 )">
    <path d="M 10 4.94117647058824  C 10 2.21223529411765  7.76142857142857 0  5 0  C 2.23857142857143 0  0 2.21223529411765  0 4.94117647058824  C 0 8.19105882352941  3.25071428571429 9.70235294117647  3.65785714285714 10.0644705882353  C 4.07357142857143 10.4343529411765  4.41714285714286 11.1762352941176  4.55642857142857 11.6463529411765  C 4.62357142857143 11.8743529411765  4.81285714285714 11.9901176470588  5 11.9950588235294  C 5.18785714285714 11.9901176470588  5.37642857142857 11.8743529411765  5.44357142857143 11.6463529411765  C 5.58214285714286 11.1769411764706  5.92571428571429 10.4343529411765  6.34214285714286 10.0644705882353  C 6.74928571428572 9.70235294117647  10 8.19105882352941  10 4.94117647058824  Z M 6.42857142857143 4.94117647058824  C 6.42857142857143 5.72117647058824  5.78928571428571 6.35294117647059  5 6.35294117647059  C 4.21071428571429 6.35294117647059  3.57142857142857 5.72117647058824  3.57142857142857 4.94117647058824  C 3.57142857142857 4.16117647058824  4.21071428571429 3.52941176470588  5 3.52941176470588  C 5.78928571428571 3.52941176470588  6.42857142857143 4.16117647058824  6.42857142857143 4.94117647058824  Z " fill-rule="nonzero" fill="#666666" stroke="none" transform="matrix(1 0 0 1 741 232 )" />
  </g>
</svg>