<?xml version="1.0" encoding="utf-8"?>
<svg version="1.1" xmlns:xlink="http://www.w3.org/1999/xlink" width="17px" height="16px" xmlns="http://www.w3.org/2000/svg">
  <g transform="matrix(1 0 0 1 -733 -234 )">
    <path d="M 17 7.74036363636364  L 15.5833333333333 8.90036363636364  L 15.5833333333333 14.3410909090909  L 11.3333333333333 13.2501818181818  L 11.3333333333333 10.9461818181818  L 9.91666666666667 8.90036363636364  L 9.91666666666667 13.2698181818182  L 6.375 14.3090909090909  L 6.375 2.74981818181818  L 6.38279166666667 2.74763636363636  C 6.39554166666667 2.21018181818182  6.47275 1.68945454545455  6.60520833333333 1.19127272727273  L 6.04704166666667 1.33454545454545  C 5.80620833333333 1.39636363636364  5.55333333333333 1.392  5.31391666666667 1.32218181818182  L 0.948458333333334 0.0407272727272728  C 0.473166666666667 -0.098181818181818  0 0.267636363636364  0 0.775272727272727  L 0 13.2690909090909  C 0 13.9185454545455  0.419333333333333 14.4894545454545  1.02708333333333 14.6676363636364  L 5.4145 15.9549090909091  C 5.57954166666667 16.0029090909091  5.75379166666667 16.0029090909091  5.91883333333333 15.9549090909091  L 10.2729583333333 14.6778181818182  C 10.5116666666667 14.608  10.7645416666667 14.6036363636364  11.0060833333333 14.6654545454545  L 16.0763333333333 15.9672727272727  C 16.54525 16.088  17 15.7229090909091  17 15.2261818181818  L 17 7.74036363636364  Z M 5 2.73018181818182  L 5 14.3083636363636  L 1.41666666666667 13.2698181818182  L 1.41666666666667 1.69163636363636  L 5 2.73018181818182  Z " fill-rule="nonzero" fill="#666666" stroke="none" transform="matrix(1 0 0 1 733 234 )" />
  </g>
</svg>