<?xml version="1.0" encoding="utf-8"?>
<svg version="1.1" xmlns:xlink="http://www.w3.org/1999/xlink" width="8px" height="8px" xmlns="http://www.w3.org/2000/svg">
  <g transform="matrix(1 0 0 1 -1392 -279 )">
    <path d="M 1396 279  C 1398.24 279  1400 280.76  1400 283  C 1400 285.24  1398.24 287  1396 287  C 1393.76 287  1392 285.24  1392 283  C 1392 280.76  1393.76 279  1396 279  Z " fill-rule="nonzero" fill="#797979" stroke="none" />
    <path d="M 1396 279.5  C 1397.96 279.5  1399.5 281.04  1399.5 283  C 1399.5 284.96  1397.96 286.5  1396 286.5  C 1394.04 286.5  1392.5 284.96  1392.5 283  C 1392.5 281.04  1394.04 279.5  1396 279.5  Z " stroke-width="1" stroke="#797979" fill="none" />
  </g>
</svg>