<?xml version="1.0" encoding="utf-8"?>
<svg version="1.1" xmlns:xlink="http://www.w3.org/1999/xlink" width="16px" height="16px" xmlns="http://www.w3.org/2000/svg">
  <g transform="matrix(1 0 0 1 -1032 -79 )">
    <path d="M 15.4742857142857 14.48  L 9.19142857142857 8.19714285714286  L 15.4742857142857 1.91428571428571  C 15.7914285714286 1.59714285714286  15.7914285714286 1.07428571428571  15.4742857142857 0.757142857142857  L 15.44 0.722857142857143  C 15.1228571428571 0.405714285714285  14.6 0.405714285714285  14.2828571428571 0.722857142857143  L 8 7.01428571428571  L 1.71714285714286 0.722857142857143  C 1.4 0.405714285714286  0.877142857142857 0.405714285714286  0.56 0.722857142857143  L 0.525714285714286 0.757142857142857  C 0.2 1.07428571428571  0.2 1.59714285714286  0.525714285714286 1.91428571428571  L 6.80857142857143 8.19714285714286  L 0.525714285714286 14.48  C 0.208571428571429 14.7971428571429  0.208571428571429 15.32  0.525714285714286 15.6371428571429  L 0.56 15.6714285714286  C 0.877142857142857 15.9885714285714  1.4 15.9885714285714  1.71714285714286 15.6714285714286  L 8 9.38857142857143  L 14.2828571428571 15.6714285714286  C 14.6 15.9885714285714  15.1228571428571 15.9885714285714  15.44 15.6714285714286  L 15.4742857142857 15.6371428571429  C 15.7914285714286 15.32  15.7914285714286 14.7971428571429  15.4742857142857 14.48  Z " fill-rule="nonzero" fill="#000000" stroke="none" transform="matrix(1 0 0 1 1032 79 )" />
  </g>
</svg>