<?xml version="1.0" encoding="utf-8"?>
<svg version="1.1" xmlns:xlink="http://www.w3.org/1999/xlink" width="452px" height="200px" xmlns="http://www.w3.org/2000/svg">
  <g transform="matrix(1 0 0 1 -457 -182 )">
    <path d="M 458 186  A 3 3 0 0 1 461 183 L 905 183  A 3 3 0 0 1 908 186 L 908 378  A 3 3 0 0 1 905 381 L 461 381  A 3 3 0 0 1 458 378 L 458 186  Z " fill-rule="nonzero" fill="#f7f8f9" stroke="none" />
    <path d="M 457.5 186  A 3.5 3.5 0 0 1 461 182.5 L 905 182.5  A 3.5 3.5 0 0 1 908.5 186 L 908.5 378  A 3.5 3.5 0 0 1 905 381.5 L 461 381.5  A 3.5 3.5 0 0 1 457.5 378 L 457.5 186  Z " stroke-width="1" stroke-dasharray="17,8" stroke="#dddddd" fill="none" stroke-dashoffset="0.5" />
  </g>
</svg>