<?xml version="1.0" encoding="utf-8"?>
<svg version="1.1" xmlns:xlink="http://www.w3.org/1999/xlink" width="25px" height="20px" xmlns="http://www.w3.org/2000/svg">
  <g transform="matrix(1 0 0 1 -165 -728 )">
    <path d="M 25 2.22222222222222  C 25 0.994444444444444  24.0677083333333 0  22.9166666666667 0  L 2.08333333333333 0  C 0.932291666666667 0  0 0.994444444444444  0 2.22222222222222  L 0 17.7777777777778  C 0 19.0055555555556  0.932291666666667 20  2.08333333333333 20  L 22.9166666666667 20  C 24.0677083333333 20  25 19.0055555555556  25 17.7777777777778  L 25 2.22222222222222  Z M 13.5416666666667 17.7777777777778  C 13.5416666666667 18.3911111111111  13.075 18.8888888888889  12.5 18.8888888888889  C 11.925 18.8888888888889  11.4583333333333 18.3911111111111  11.4583333333333 17.7777777777778  C 11.4583333333333 17.1644444444444  11.925 16.6666666666667  12.5 16.6666666666667  C 13.075 16.6666666666667  13.5416666666667 17.1644444444444  13.5416666666667 17.7777777777778  Z M 23 2.22222222222222  L 23 15.5555555555556  L 2 15.5555555555556  L 2 2.22222222222222  L 23 2.22222222222222  Z " fill-rule="nonzero" fill="#808080" stroke="none" transform="matrix(1 0 0 1 165 728 )" />
  </g>
</svg>