<?xml version="1.0" encoding="utf-8"?>
<svg version="1.1" xmlns:xlink="http://www.w3.org/1999/xlink" width="6px" height="4px" xmlns="http://www.w3.org/2000/svg">
  <g transform="matrix(1 0 0 1 -169 -738 )">
    <path d="M 0.375 3.66666666666667  L 6 3.66666666666667  L 6 4  L 0 4  L 0 0  L 0.375 0  L 0.375 3.66666666666667  Z M 5.5986328125 0.356770833333333  C 5.6162109375 0.372395833333333  5.625 0.392361111111111  5.625 0.416666666666667  L 5.625 1.54947916666667  C 5.625 1.5859375  5.60595703125 1.61154513888889  5.56787109375 1.62630208333333  C 5.52978515625 1.64105902777778  5.4951171875 1.63454861111111  5.4638671875 1.60677083333333  L 5.109375 1.29166666666667  L 3.2548828125 2.94010416666667  C 3.2353515625 2.95746527777778  3.212890625 2.96614583333333  3.1875 2.96614583333333  C 3.162109375 2.96614583333333  3.1396484375 2.95746527777778  3.1201171875 2.94010416666667  L 2.4375 2.33333333333333  L 1.21875 3.41666666666667  L 0.65625 2.91666666666667  L 2.3701171875 1.39322916666667  C 2.3896484375 1.37586805555556  2.412109375 1.3671875  2.4375 1.3671875  C 2.462890625 1.3671875  2.4853515625 1.37586805555556  2.5048828125 1.39322916666667  L 3.1875 2  L 4.546875 0.791666666666667  L 4.1923828125 0.4765625  C 4.1611328125 0.448784722222222  4.15380859375 0.41796875  4.17041015625 0.384114583333333  C 4.18701171875 0.350260416666667  4.2158203125 0.333333333333333  4.2568359375 0.333333333333333  L 5.53125 0.333333333333333  C 5.55859375 0.333333333333333  5.5810546875 0.341145833333333  5.5986328125 0.356770833333333  Z " fill-rule="nonzero" fill="#aaaaaa" stroke="none" transform="matrix(1 0 0 1 169 738 )" />
  </g>
</svg>