<?xml version="1.0" encoding="utf-8"?>
<svg version="1.1" xmlns:xlink="http://www.w3.org/1999/xlink" width="23px" height="23px" xmlns="http://www.w3.org/2000/svg">
  <g transform="matrix(1 0 0 1 -252 -640 )">
    <path d="M 23 2.19688109161793  C 23 1.69473684210526  22.65477582846 1.2598440545809  22.166081871345 1.14775828460039  L 17.5033138401559 0.0717348927875244  C 16.9966861598441 -0.0448343079922027  16.4766081871345 0.219688109161793  16.2703703703704 0.694931773879142  L 14.1183235867446 5.71637426900585  C 13.9300194931774 6.15575048732943  14.0555555555556 6.67134502923977  14.4276803118908 6.97173489278752  L 17.1446393762183 9.19551656920078  C 15.530604288499 12.6343079922027  12.7105263157895 15.4947368421053  9.2 17.1401559454191  L 6.97621832358674 14.4231968810916  C 6.67134502923976 14.0510721247563  6.16023391812866 13.9255360623782  5.72085769980507 14.1138401559454  L 0.699415204678362 16.2658869395712  C 0.219688109161793 16.4766081871345  -0.0448343079922027 16.9966861598441  0.0717348927875244 17.5033138401559  L 1.14775828460039 22.166081871345  C 1.2598440545809 22.6502923976608  1.69025341130604 23  2.19688109161793 23  C 13.6789473684211 23  23 13.6968810916179  23 2.19688109161793  Z " fill-rule="nonzero" fill="#808080" stroke="none" transform="matrix(1 0 0 1 252 640 )" />
  </g>
</svg>