<?xml version="1.0" encoding="utf-8"?>
<svg version="1.1" xmlns:xlink="http://www.w3.org/1999/xlink" width="6px" height="4px" xmlns="http://www.w3.org/2000/svg">
  <g transform="matrix(1 0 0 1 -169 -732 )">
    <path d="M 6 2.7690859375  C 6 2.50190625  5.80247916666667 2.2550859375  5.41085416666667 2.2550859375  C 4.97836458333333 2.2550859375  4.7910625 2.50190625  4.55608333333333 2.50190625  C 3.93134375 2.50190625  4.5 1.125  4.5 1.125  C 4.5 1.125  2.45533333333333 1.75  2.45533333333333 1.0992421875  C 2.45533333333333 0.81934375  2.83333333333333 0.7379140625  2.83333333333333 0.427484375  C 2.83333333333333 0.150125  2.54046875 0  2.19311458333333 0  C 1.83213541666667 0  1.50180208333333 0.1475859375  1.50180208333333 0.440203125  C 1.50180208333333 0.763359375  1.832125 0.9033046875  1.832125 1.078875  C 1.83213541666667 1.6228046875  0 1.302796875  0 1.302796875  L 0 3.9062109375  C 0 3.9062109375  1.86078125 4.226890625  1.86078125 3.6822890625  C 1.86078125 3.50671875  1.44411458333333 3.368953125  1.44411458333333 3.045796875  C 1.44411458333333 2.753171875  1.74880208333333 2.60559375  2.106375 2.60559375  C 2.45713541666667 2.60559375  2.75 2.75571875  2.75 3.0330703125  C 2.75 3.3435  2.372 3.4249296875  2.372 3.704828125  C 2.372 4.1798515625  3.72278125 3.90584375  4.2598125 3.90584375  C 4.2598125 3.90584375  3.89809375 2.9675546875  4.52884375 2.9675546875  C 4.90344791666667 2.9675546875  5.01241666666667 3.2499921875  5.42788541666667 3.2499921875  C 5.79908333333333 3.25  6 3.031171875  6 2.7690859375  Z " fill-rule="nonzero" fill="#aaaaaa" stroke="none" fill-opacity="0.847058823529412" transform="matrix(1 0 0 1 169 732 )" />
  </g>
</svg>