<?xml version="1.0" encoding="utf-8"?>
<svg version="1.1" xmlns:xlink="http://www.w3.org/1999/xlink" width="30px" height="15px" xmlns="http://www.w3.org/2000/svg">
  <g transform="matrix(1 0 0 1 -332 -644 )">
    <path d="M 20 1.8671875  C 20 0.8359375  18.8854166666667 0  17.5104166666667 0  L 2.48958333333333 0  C 1.11458333333333 0  0 0.8359375  0 1.8671875  L 0 13.1328125  C 0 14.1640625  1.11458333333333 15  2.48958333333333 15  L 17.5104166666667 15  C 18.8854166666667 15  20 14.1640625  20 13.1328125  L 20 1.8671875  Z M 30 2.48046875  C 30 1.48828125  28.484375 0.90234375  27.375 1.47265625  L 21.6666666666667 4.42578125  L 21.6666666666667 10.57421875  L 27.375 13.5234375  C 28.4791666666667 14.09375  30 13.51171875  30 12.515625  L 30 2.48046875  Z " fill-rule="nonzero" fill="#808080" stroke="none" transform="matrix(1 0 0 1 332 644 )" />
  </g>
</svg>