<?xml version="1.0" encoding="utf-8"?>
<svg version="1.1" xmlns:xlink="http://www.w3.org/1999/xlink" width="48px" height="48px" xmlns="http://www.w3.org/2000/svg">
  <g transform="matrix(1 0 0 1 -155 -627 )">
    <path d="M 156 632  A 4 4 0 0 1 160 628 L 198 628  A 4 4 0 0 1 202 632 L 202 670  A 4 4 0 0 1 198 674 L 160 674  A 4 4 0 0 1 156 670 L 156 632  Z " fill-rule="nonzero" fill="#ffffff" stroke="none" />
    <path d="M 155.5 632  A 4.5 4.5 0 0 1 160 627.5 L 198 627.5  A 4.5 4.5 0 0 1 202.5 632 L 202.5 670  A 4.5 4.5 0 0 1 198 674.5 L 160 674.5  A 4.5 4.5 0 0 1 155.5 670 L 155.5 632  Z " stroke-width="1" stroke-dasharray="3,1" stroke="#797979" fill="none" stroke-dashoffset="0.5" />
  </g>
</svg>