<?xml version="1.0" encoding="utf-8"?>
<svg version="1.1" xmlns:xlink="http://www.w3.org/1999/xlink" width="9px" height="4px" xmlns="http://www.w3.org/2000/svg">
  <g transform="matrix(1 0 0 1 -183 -739 )">
    <path d="M 4.49175438596491 2.9896875  L 2.94771929824561 2.41671875  C 2.24385964912281 2.436875  1.60508771929825 2.55625  1.24263157894737 2.9815625  C 1.20140350877193 3.030078125  1.10228070175439 3.05953125  0.986666666666667 3.05953125  C 0.791754385964912 3.05953125  0.189122807017544 2.843359375  0.0173684210526317 2.791171875  C 0.0175438596491228 3.43453125  0.682982456140351 4  2.26315789473684 4  C 3.5940350877193 4  4.50877192982456 3.658046875  4.50877192982456 3.061015625  C 4.50877192982456 3.03671875  4.49736842105263 3.013515625  4.49175438596491 2.9896875  Z M 9 0.387109375  C 9 0.16125  8.54385964912281 0  8.05070175438597 0  C 7.78473684210526 0  7.53543859649123 0.052421875  7.34526315789474 0.128515625  C 3.75912280701754 1.555078125  3.3859649122807 1.58859375  3.3859649122807 2.008515625  C 3.3859649122807 2.115546875  3.44298245614035 2.217578125  3.53912280701754 2.310859375  L 4.65877192982456 2.726328125  C 4.78526315789474 2.740390625  4.91561403508772 2.75  5.05157894736842 2.75  C 6.14122807017544 2.75  6.77280701754386 2.394765625  8.75614035087719 0.74640625  C 8.88561403508772 0.634296875  9 0.513203125  9 0.387109375  Z " fill-rule="nonzero" fill="#2b2a2a" stroke="none" fill-opacity="0.933333333333333" transform="matrix(1 0 0 1 183 739 )" />
  </g>
</svg>