<?xml version="1.0" encoding="utf-8"?>
<svg version="1.1" xmlns:xlink="http://www.w3.org/1999/xlink" width="27px" height="22px" xmlns="http://www.w3.org/2000/svg">
  <g transform="matrix(1 0 0 1 -82 -640 )">
    <path d="M 27 2.75  C 27 1.23119791666667  25.86673828125 0  24.46875 0  L 2.53125 0  C 1.13326171875 0  0 1.23119791666667  0 2.75  L 0 19.25  C 0 20.7688020833333  1.13326171875 22  2.53125 22  L 24.46875 22  C 25.86673828125 22  27 20.7688020833333  27 19.25  L 27 2.75  Z M 24 18.90625  C 24.46875 19.0960978827543  24.3270900966261 19.25  24.15234375 19  L 2.84765625 19  C 2.67290990337385 19.25  2.53125 19.0960978827543  3 18.90625  L 3 3.09375  C 2.53125 2.90390211724566  2.67290990337385 2.75  2.84765625 3  L 24.15234375 3  C 24.3270900966261 2.75  24.46875 2.90390211724566  24 3.09375  L 24 18.90625  Z M 8.859375 7.33333333333333  C 8.859375 6.067703125  7.914955078125 5.04166666666667  6.75 5.04166666666667  C 5.585044921875 5.04166666666667  4.640625 6.067703125  4.640625 7.33333333333333  C 4.640625 8.59896354166667  5.585044921875 9.625  6.75 9.625  C 7.914955078125 9.625  8.859375 8.59896354166667  8.859375 7.33333333333333  Z M 5.0625 13.75  L 5.0625 16.5  L 21.9375 16.5  L 21.9375 11.9166666666667  L 17.322451171875 6.90278645833333  C 17.075337890625 6.63431770833333  16.674662109375 6.63431770833333  16.42749609375 6.90278645833333  L 10.125 13.75  L 8.041201171875 11.4861197916667  C 7.794087890625 11.2176510416667  7.393412109375 11.2176510416667  7.14624609375 11.4861197916667  L 5.0625 13.75  Z " fill-rule="nonzero" fill="#808080" stroke="none" transform="matrix(1 0 0 1 82 640 )" />
  </g>
</svg>