<?xml version="1.0" encoding="utf-8"?>
<svg version="1.1" xmlns:xlink="http://www.w3.org/1999/xlink" width="60px" height="60px" xmlns="http://www.w3.org/2000/svg">
  <g transform="matrix(1 0 0 1 -50 -414 )">
    <path d="M 51 418  A 3 3 0 0 1 54 415 L 106 415  A 3 3 0 0 1 109 418 L 109 470  A 3 3 0 0 1 106 473 L 54 473  A 3 3 0 0 1 51 470 L 51 418  Z " fill-rule="nonzero" fill="#f2f2f2" stroke="none" />
    <path d="M 50.5 418  A 3.5 3.5 0 0 1 54 414.5 L 106 414.5  A 3.5 3.5 0 0 1 109.5 418 L 109.5 470  A 3.5 3.5 0 0 1 106 473.5 L 54 473.5  A 3.5 3.5 0 0 1 50.5 470 L 50.5 418  Z " stroke-width="1" stroke-dasharray="3,1" stroke="#d8d8d8" fill="none" stroke-dashoffset="0.5" />
  </g>
</svg>