<?xml version="1.0" encoding="utf-8"?>
<svg version="1.1" xmlns:xlink="http://www.w3.org/1999/xlink" width="22px" height="22px" xmlns="http://www.w3.org/2000/svg">
  <g transform="matrix(1 0 0 1 -499 -331 )">
    <path d="M 11 0  C 17.0751491935484 0  22 4.92485080645161  22 11  C 22 17.0751491935484  17.0751491935484 22  11 22  C 4.92485080645161 22  0 17.0751491935484  0 11  C 0 4.92485080645161  4.92485080645161 0  11 0  Z M 8.72397580645161 16.8243669354839  C 9.00114919354839 17.1015403225806  9.45046370967742 17.1015403225806  9.72763709677419 16.8244112903226  L 17.8889274193548 8.66312096774194  C 18.1660564516129 8.38599193548387  18.1660564516129 7.93663306451613  17.8889274193548 7.65950403225806  L 16.885310483871 6.65588709677419  C 16.6081814516129 6.37871370967742  16.1588225806452 6.37871370967742  15.8816491935484 6.65588709677419  L 9.2258064516129 13.311685483871  L 6.11835080645161 10.2042298387097  C 5.84122177419355 9.92710080645161  5.39186290322581 9.92710080645161  5.11468951612903 10.2042298387097  L 4.11107258064516 11.2078467741935  C 3.8339435483871 11.4849758064516  3.8339435483871 11.9343346774194  4.11107258064516 12.2114637096774  L 8.72397580645161 16.8243669354839  Z " fill-rule="nonzero" fill="#163985" stroke="none" transform="matrix(1 0 0 1 499 331 )" />
  </g>
</svg>