<?xml version="1.0" encoding="utf-8"?>
<svg version="1.1" xmlns:xlink="http://www.w3.org/1999/xlink" width="14px" height="14px" xmlns="http://www.w3.org/2000/svg">
  <g transform="matrix(1 0 0 1 -741 -161 )">
    <path d="M 7 0  C 10.8660040322581 0  14 3.13399596774194  14 7  C 14 10.8660040322581  10.8660040322581 14  7 14  C 3.13399596774194 14  0 10.8660040322581  0 7  C 0 3.13399596774194  3.13399596774194 0  7 0  Z M 5.55162096774194 10.7064153225806  C 5.72800403225806 10.8827983870968  6.0139314516129 10.8827983870968  6.19031451612903 10.7064435483871  L 11.3838629032258 5.51289516129032  C 11.5602177419355 5.33654032258065  11.5602177419355 5.05058467741936  11.3838629032258 4.87422983870968  L 10.7451975806452 4.23556451612903  C 10.5688427419355 4.0591814516129  10.2828870967742 4.0591814516129  10.1065040322581 4.23556451612903  L 5.87096774193548 8.47107258064516  L 3.89349596774194 6.49360080645161  C 3.71714112903226 6.31724596774194  3.43118548387097 6.31724596774194  3.25480241935484 6.49360080645161  L 2.61613709677419 7.13226612903226  C 2.43978225806452 7.30862096774193  2.43978225806452 7.59457661290323  2.61613709677419 7.7709314516129  L 5.55162096774194 10.7064153225806  Z " fill-rule="nonzero" fill="#163985" stroke="none" transform="matrix(1 0 0 1 741 161 )" />
  </g>
</svg>