<?xml version="1.0" encoding="utf-8"?>
<svg version="1.1" xmlns:xlink="http://www.w3.org/1999/xlink" width="14px" height="14px" xmlns="http://www.w3.org/2000/svg">
  <g transform="matrix(1 0 0 1 -223 -206 )">
    <path d="M 14 7  C 14 3.13425  10.86575 0  7 0  C 3.13425 0  0 3.13425  0 7  C 0 10.86575  3.13425 14  7 14  C 10.86575 14  14 10.86575  14 7  Z M 6.293 2.91666666666667  L 7.707 2.91666666666667  L 7.59033333333333 8.16666666666667  L 6.40966666666667 8.16666666666667  L 6.293 2.91666666666667  Z M 7.76941666666667 10.5040833333333  C 7.76941666666667 10.9363333333333  7.48125 11.1935833333333  7.00175 11.1935833333333  C 6.51875 11.1935833333333  6.23 10.9363333333333  6.23 10.5040833333333  C 6.23 10.0636666666667  6.51816666666667 9.80641666666667  7.00175 9.80641666666667  C 7.48125 9.80641666666667  7.76941666666667 10.0636666666667  7.76941666666667 10.5040833333333  Z " fill-rule="nonzero" fill="#eb5d5e" stroke="none" transform="matrix(1 0 0 1 223 206 )" />
  </g>
</svg>