<?xml version="1.0" encoding="utf-8"?>
<svg version="1.1" xmlns:xlink="http://www.w3.org/1999/xlink" width="460px" height="179px" xmlns="http://www.w3.org/2000/svg">
  <g transform="matrix(1 0 0 1 -504 -380 )">
    <path d="M 505 384  A 3 3 0 0 1 508 381 L 960 381  A 3 3 0 0 1 963 384 L 963 555  A 3 3 0 0 1 960 558 L 508 558  A 3 3 0 0 1 505 555 L 505 384  Z " fill-rule="nonzero" fill="#ffffff" stroke="none" />
    <path d="M 504.5 384  A 3.5 3.5 0 0 1 508 380.5 L 960 380.5  A 3.5 3.5 0 0 1 963.5 384 L 963.5 555  A 3.5 3.5 0 0 1 960 558.5 L 508 558.5  A 3.5 3.5 0 0 1 504.5 555 L 504.5 384  Z " stroke-width="1" stroke-dasharray="17,8" stroke="#e7e7e7" fill="none" stroke-dashoffset="0.5" />
  </g>
</svg>