<?xml version="1.0" encoding="utf-8"?>
<svg version="1.1" xmlns:xlink="http://www.w3.org/1999/xlink" width="8px" height="8px" xmlns="http://www.w3.org/2000/svg">
  <g transform="matrix(1 0 0 1 -206 -461 )">
    <path d="M 210 461  C 212.24 461  214 462.76  214 465  C 214 467.24  212.24 469  210 469  C 207.76 469  206 467.24  206 465  C 206 462.76  207.76 461  210 461  Z " fill-rule="nonzero" fill="#999999" stroke="none" />
    <path d="M 210 461.5  C 211.96 461.5  213.5 463.04  213.5 465  C 213.5 466.96  211.96 468.5  210 468.5  C 208.04 468.5  206.5 466.96  206.5 465  C 206.5 463.04  208.04 461.5  210 461.5  Z " stroke-width="1" stroke="#999999" fill="none" />
  </g>
</svg>