<?xml version="1.0" encoding="utf-8"?>
<svg version="1.1" xmlns:xlink="http://www.w3.org/1999/xlink" width="2px" height="15px" xmlns="http://www.w3.org/2000/svg">
  <g transform="matrix(1 0 0 1 -374 -753 )">
    <path d="M 1.87807018229167 14.3447990126722  C 1.83632369584735 14.6813051105081  1.43540769789248 14.9380376251893  0.958771940104171 14.9334852977362  C 0.941306222427139 14.9342312842987  0.923812775378508 14.934604531109  0.906315363914267 14.934604531109  C 0.424761822671212 14.934604531109  0.0343855462059347 14.6579599257399  0.0343855462059347 14.3167015106858  C 0.0343855462059347 14.304301770278  0.0349122389271178 14.2919048392987  0 14.2795275590551  L 0 0.744716112512303  C 0.034795590579435 0.731296857350345  0.0342105143229195 0.717855238933028  0.0342105143229195 0.704410423160383  C 0.0342105143229195 0.343239537052979  0.447365295176915 0.0504526844792812  0.957017545572922 0.0504526844792812  C 1.46666979596892 0.0504526844792812  1.87982457682292 0.343239537052979  1.87982457682292 0.704410423160383  C 1.87982457682292 0.717855238933028  1.87923950056639 0.731296857350345  1.87807018229167 0.744716112512303  L 1.87807018229167 14.3447990126722  Z " fill-rule="nonzero" fill="#6271ff" stroke="none" transform="matrix(1 0 0 1 374 753 )" />
  </g>
</svg>