<?xml version="1.0" encoding="utf-8"?>
<svg version="1.1" xmlns:xlink="http://www.w3.org/1999/xlink" width="14px" height="8px" xmlns="http://www.w3.org/2000/svg">
  <g transform="matrix(1 0 0 1 -368 -176 )">
    <path d="M 13.9255319148936 4.48275862068966  C 13.9255319148936 5.62379310344828  12.9235638297872 6.55172413793103  11.6914893617021 6.55172413793103  C 10.459414893617 6.55172413793103  9.45744680851064 5.62379310344828  9.45744680851064 4.48275862068966  C 9.45744680851064 3.34172413793103  10.459414893617 2.41379310344828  11.6914893617021 2.41379310344828  C 12.9235638297872 2.41379310344828  13.9255319148936 3.34172413793103  13.9255319148936 4.48275862068966  Z M 13.1808510638298 4.48275862068966  C 13.1808510638298 3.72206896551724  12.5128723404255 3.10344827586207  11.6914893617021 3.10344827586207  C 10.8701063829787 3.10344827586207  10.2021276595745 3.72206896551724  10.2021276595745 4.48275862068966  C 10.2021276595745 5.24344827586207  10.8701063829787 5.86206896551724  11.6914893617021 5.86206896551724  C 12.5128723404255 5.86206896551724  13.1808510638298 5.24344827586207  13.1808510638298 4.48275862068966  Z M 9.08510638297872 2.06896551724138  C 9.08510638297872 3.21  8.08313829787234 4.13793103448276  6.85106382978723 4.13793103448276  C 5.61898936170213 4.13793103448276  4.61702127659574 3.21  4.61702127659574 2.06896551724138  C 4.61702127659574 0.927931034482758  5.61898936170213 0  6.85106382978723 0  C 8.08313829787234 0  9.08510638297872 0.927931034482758  9.08510638297872 2.06896551724138  Z M 8.34042553191489 2.06896551724138  C 8.34042553191489 1.30827586206897  7.67244680851064 0.689655172413794  6.85106382978723 0.689655172413794  C 6.02968085106383 0.689655172413794  5.36170212765957 1.30827586206897  5.36170212765957 2.06896551724138  C 5.36170212765957 2.82965517241379  6.02968085106383 3.44827586206897  6.85106382978723 3.44827586206897  C 7.67244680851064 3.44827586206897  8.34042553191489 2.82965517241379  8.34042553191489 2.06896551724138  Z M 4.563822535365 5.86000099138398  C 4.563822535365 7.00301046620738  3.56394049105432 7.92991609588782  2.32973404255319 7.93103448275862  C 1.09765957446809 7.93103448275862  0.0956914893617029 7.00310344827586  0.0956914893617029 5.86206896551724  C 0.0956914893617029 4.72103448275862  1.09765957446808 3.79310344827586  2.32973404255319 3.79310344827586  L 2.32973404255319 4.48275862068966  C 1.50835106382979 4.48275862068966  0.840372340425533 5.10137931034483  0.840372340425533 5.86206896551724  C 0.840372340425533 6.62275862068965  1.50835106382979 7.24137931034483  2.32973404255319 7.24137931034483  C 3.15254714819027 7.24064522397298  3.8191488955182 6.62270475711655  3.8191488955182 5.86069029584195  C 3.8191488955182 5.76779964958212  3.80902670413339 5.67514610918802  3.78893617021277 5.58413793103448  L 4.51835106382979 5.44448275862069  C 4.54858793425252 5.58121600475804  4.563822535365 5.72042976488912  4.563822535365 5.86000099138398  Z " fill-rule="nonzero" fill="#6271ff" stroke="none" transform="matrix(1 0 0 1 368 176 )" />
  </g>
</svg>