<?xml version="1.0" encoding="utf-8"?>
<svg version="1.1" xmlns:xlink="http://www.w3.org/1999/xlink" width="20px" height="30px" xmlns="http://www.w3.org/2000/svg">
  <g transform="matrix(1 0 0 1 -211 -748 )">
    <path d="M 4.54545454545455 15  C 4.54545454545455 18.106640625  6.9875 20.625  10 20.625  C 13.0125 20.625  15.4545454545455 18.106640625  15.4545454545455 15  L 15.4545454545455 5.625  C 15.4545454545455 2.518359375  13.0125 0  10 0  C 6.9875 0  4.54545454545455 2.518359375  4.54545454545455 5.625  L 4.54545454545455 15  Z M 20 12.1875  C 20 11.66953125  19.5931818181818 11.25  19.0909090909091 11.25  L 18.1818181818182 11.25  C 17.6795454545455 11.25  17.2727272727273 11.66953125  17.2727272727273 12.1875  L 17.2727272727273 15  C 17.2727272727273 19.3828125  13.6085227272727 22.899609375  9.27329545454545 22.463671875  C 5.49488636363636 22.0833984375  2.72727272727273 18.5806640625  2.72727272727273 14.666015625  L 2.72727272727273 12.1875  C 2.72727272727273 11.66953125  2.32045454545455 11.25  1.81818181818182 11.25  L 0.909090909090909 11.25  C 0.406818181818182 11.25  0 11.66953125  0 12.1875  L 0 14.540625  C 0 19.79296875  3.63465909090909 24.4751953125  8.63636363636364 25.1865234375  L 8.63636363636364 27.1875  L 5.45454545454545 27.1875  C 4.95227272727273 27.1875  4.54545454545455 27.60703125  4.54545454545455 28.125  L 4.54545454545455 29.0625  C 4.54545454545455 29.58046875  4.95227272727273 30  5.45454545454545 30  L 14.5454545454545 30  C 15.0477272727273 30  15.4545454545455 29.58046875  15.4545454545455 29.0625  L 15.4545454545455 28.125  C 15.4545454545455 27.60703125  15.0477272727273 27.1875  14.5454545454545 27.1875  L 11.3636363636364 27.1875  L 11.3636363636364 25.2087890625  C 16.2335227272727 24.5197265625  20 20.208984375  20 15  L 20 12.1875  Z " fill-rule="nonzero" fill="#6271ff" stroke="none" transform="matrix(1 0 0 1 211 748 )" />
  </g>
</svg>