<?xml version="1.0" encoding="utf-8"?>
<svg version="1.1" xmlns:xlink="http://www.w3.org/1999/xlink" width="14px" height="8px" xmlns="http://www.w3.org/2000/svg">
  <g transform="matrix(1 0 0 1 -368 -762 )">
    <path d="M 13.6423949756307 1.33212341056035  L 7.03244810063073 7.97676950431035  L 0.277836783256881 1.33357532327586  C 0.127852846693235 1.18978240695152  0.0420988154788697 0.984118310979043  0.0420988154788697 0.768204397351012  C 0.0420988154788697 0.349630686734595  0.358072073912892 0.0103096505837729  0.747844841138272 0.0103096505837729  C 0.913965886677712 0.0103096505837729  1.07476265962687 0.0732393547396555  1.2019314327695 0.188021767241378  L 6.95876389406537 5.91361161099138  L 12.7183003261181 0.186569881465518  C 12.8454690292372 0.0717877392106218  13.0062656077346 0.00885819805134737  13.1723864377535 0.00885819805134737  C 13.5621592049788 0.00885819805134737  13.8781324634129 0.348179234202172  13.8781324634129 0.766752944818591  C 13.8781324634129 0.982666617600448  13.7923786228122 1.18833050778474  13.6423949756307 1.33212341056035  Z " fill-rule="nonzero" fill="#6271ff" stroke="none" transform="matrix(1 0 0 1 368 762 )" />
  </g>
</svg>