<?xml version="1.0" encoding="utf-8"?>
<svg version="1.1" xmlns:xlink="http://www.w3.org/1999/xlink" width="2px" height="2px" xmlns="http://www.w3.org/2000/svg">
  <g transform="matrix(1 0 0 1 -383 -189 )">
    <path d="M 1.74825 1.8236  C 1.7333042434665 1.92421925042851  1.62665895376122 1.9999986224487  1.5 2  L 0.5 2  C 0.373942732260096 1.99997153900108  0.26763109680204 1.92486751266135  0.251999999999998 1.8248  L 0.00200000000000102 0.2248  C 0.00073689836791857 0.216638875481644  0.000103547671028537 0.208423243881001  0.000103547671028537 0.200199800206165  C 0.000103547671028537 0.0897428323374286  0.111928927955171 0.000156051163791986  0.25 0  L 1.73925 0  C 1.8773761406328 0.000249507909148789  1.98918437958571 0.0898982949419933  1.98918437958571 0.200399489138745  C 1.98918437958571 0.208152547787065  1.98862197430999 0.215899073462315  1.9875 0.2236  L 1.74825 1.8236  Z M 0.533249999999998 0.4  L 0.720749999999998 1.6  L 1.278 1.6  L 1.4575 0.4  L 0.533249999999998 0.4  Z " fill-rule="nonzero" fill="#6271ff" stroke="none" transform="matrix(1 0 0 1 383 189 )" />
  </g>
</svg>