<?xml version="1.0" encoding="utf-8"?>
<svg version="1.1" xmlns:xlink="http://www.w3.org/1999/xlink" width="16px" height="17px" xmlns="http://www.w3.org/2000/svg">
  <g transform="matrix(1 0 0 1 -368 -356 )">
    <path d="M 5.71590909090909 6.474609375  C 5.78409090909091 6.541015625  5.81818181818182 6.62586805555556  5.81818181818182 6.72916666666667  L 5.81818181818182 13.1041666666667  C 5.81818181818182 13.2074652777778  5.78409090909091 13.2923177083333  5.71590909090909 13.3587239583333  C 5.64772727272727 13.4251302083333  5.56060606060606 13.4583333333333  5.45454545454545 13.4583333333333  L 4.72727272727273 13.4583333333333  C 4.62121212121212 13.4583333333333  4.53409090909091 13.4251302083333  4.46590909090909 13.3587239583333  C 4.39772727272727 13.2923177083333  4.36363636363636 13.2074652777778  4.36363636363636 13.1041666666667  L 4.36363636363636 6.72916666666667  C 4.36363636363636 6.62586805555556  4.39772727272727 6.541015625  4.46590909090909 6.474609375  C 4.53409090909091 6.408203125  4.62121212121212 6.375  4.72727272727273 6.375  L 5.45454545454545 6.375  C 5.56060606060606 6.375  5.64772727272727 6.408203125  5.71590909090909 6.474609375  Z M 8.625 6.474609375  C 8.69318181818182 6.541015625  8.72727272727273 6.62586805555556  8.72727272727273 6.72916666666667  L 8.72727272727273 13.1041666666667  C 8.72727272727273 13.2074652777778  8.69318181818182 13.2923177083333  8.625 13.3587239583333  C 8.55681818181818 13.4251302083333  8.46969696969697 13.4583333333333  8.36363636363636 13.4583333333333  L 7.63636363636364 13.4583333333333  C 7.53030303030303 13.4583333333333  7.44318181818182 13.4251302083333  7.375 13.3587239583333  C 7.30681818181818 13.2923177083333  7.27272727272727 13.2074652777778  7.27272727272727 13.1041666666667  L 7.27272727272727 6.72916666666667  C 7.27272727272727 6.62586805555556  7.30681818181818 6.541015625  7.375 6.474609375  C 7.44318181818182 6.408203125  7.53030303030303 6.375  7.63636363636364 6.375  L 8.36363636363636 6.375  C 8.46969696969697 6.375  8.55681818181818 6.408203125  8.625 6.474609375  Z M 11.5340909090909 6.474609375  C 11.6022727272727 6.541015625  11.6363636363636 6.62586805555556  11.6363636363636 6.72916666666667  L 11.6363636363636 13.1041666666667  C 11.6363636363636 13.2074652777778  11.6022727272727 13.2923177083333  11.5340909090909 13.3587239583333  C 11.4659090909091 13.4251302083333  11.3787878787879 13.4583333333333  11.2727272727273 13.4583333333333  L 10.5454545454545 13.4583333333333  C 10.4393939393939 13.4583333333333  10.3522727272727 13.4251302083333  10.2840909090909 13.3587239583333  C 10.2159090909091 13.2923177083333  10.1818181818182 13.2074652777778  10.1818181818182 13.1041666666667  L 10.1818181818182 6.72916666666667  C 10.1818181818182 6.62586805555556  10.2159090909091 6.541015625  10.2840909090909 6.474609375  C 10.3522727272727 6.408203125  10.4393939393939 6.375  10.5454545454545 6.375  L 11.2727272727273 6.375  C 11.3787878787879 6.375  11.4659090909091 6.408203125  11.5340909090909 6.474609375  Z M 13.0113636363636 15.1904296875  C 13.0643939393939 15.0539279513889  13.0909090909091 14.9045138888889  13 14.7421875  L 13 4.25  L 3 4.25  L 3 14.7421875  C 2.90909090909091 14.9045138888889  2.93560606060606 15.0539279513889  2.98863636363636 15.1904296875  C 3.04166666666667 15.3269314236111  3.09659090909091 15.4265407986111  3.15340909090909 15.4892578125  C 3.21022727272727 15.5519748263889  3.25 15.5833333333333  3.27272727272727 15.5833333333333  L 12.7272727272727 15.5833333333333  C 12.75 15.5833333333333  12.7897727272727 15.5519748263889  12.8465909090909 15.4892578125  C 12.9034090909091 15.4265407986111  12.9583333333333 15.3269314236111  13.0113636363636 15.1904296875  Z M 6.01136363636364 1.53841145833333  L 5.45454545454545 2.83333333333333  L 10.5454545454545 2.83333333333333  L 10 1.53841145833333  C 9.9469696969697 1.47200520833333  9.88257575757576 1.43142361111111  9.80681818181818 1.41666666666667  L 6.20454545454545 1.41666666666667  C 6.12878787878788 1.43142361111111  6.06439393939394 1.47200520833333  6.01136363636364 1.53841145833333  Z M 15.8977272727273 2.93294270833333  C 15.9659090909091 2.99934895833333  16 3.08420138888889  16 3.1875  L 16 3.89583333333333  C 16 3.99913194444444  15.9659090909091 4.083984375  15.8977272727273 4.150390625  C 15.8295454545455 4.216796875  15.7424242424242 4.25  15.6363636363636 4.25  L 14.5454545454545 4.25  L 14.5454545454545 14.7421875  C 14.5454545454545 15.3546006944444  14.3674242424242 15.8840060763889  14.0113636363636 16.3304036458333  C 13.655303030303 16.7768012152778  13.2272727272727 17  12.7272727272727 17  L 3.27272727272727 17  C 2.77272727272727 17  2.34469696969697 16.7841796875  1.98863636363636 16.3525390625  C 1.63257575757576 15.9208984375  1.45454545454545 15.3988715277778  1.45454545454545 14.7864583333333  L 1.45454545454545 4.25  L 0.363636363636364 4.25  C 0.257575757575758 4.25  0.170454545454545 4.216796875  0.102272727272727 4.150390625  C 0.0340909090909091 4.083984375  0 3.99913194444444  0 3.89583333333333  L 0 3.1875  C 0 3.08420138888889  0.0340909090909091 2.99934895833333  0.102272727272727 2.93294270833333  C 0.170454545454545 2.86653645833333  0.257575757575758 2.83333333333333  0.363636363636364 2.83333333333333  L 3.875 2.83333333333333  L 4.67045454545455 0.985026041666667  C 4.78409090909091 0.712022569444443  4.98863636363636 0.479600694444443  5.28409090909091 0.287760416666667  C 5.57954545454546 0.0959201388888878  5.87878787878788 0  6.18181818181818 0  L 9.81818181818182 0  C 10.1212121212121 0  10.4204545454545 0.0959201388888878  10.7159090909091 0.287760416666667  C 11.0113636363636 0.479600694444443  11.2159090909091 0.712022569444443  11.3295454545455 0.985026041666667  L 12.125 2.83333333333333  L 15.6363636363636 2.83333333333333  C 15.7424242424242 2.83333333333333  15.8295454545455 2.86653645833333  15.8977272727273 2.93294270833333  Z " fill-rule="nonzero" fill="#6271ff" stroke="none" transform="matrix(1 0 0 1 368 356 )" />
  </g>
</svg>