<?xml version="1.0" encoding="utf-8"?>
<svg version="1.1" xmlns:xlink="http://www.w3.org/1999/xlink" width="16px" height="18px" xmlns="http://www.w3.org/2000/svg">
  <g transform="matrix(1 0 0 1 -367 -235 )">
    <path d="M 15.8759374999414 16.8031875000586  C 15.8759374999414 16.5035625001172  15.6329374999414 16.2603750000586  15.3331249999414 16.2603750000586  L 6.313625 16.2603750000586  C 6.40437500005859 16.2031875001172  6.491375 16.1388750000586  6.56918750005859 16.0610625  L 8.660375 13.9698750000586  C 8.81206249994141 14.025375  8.9725625 14.0585625  9.13887499994141 14.0585625  C 9.51049999988281 14.0585625  9.85999999994141 13.914  10.122875 13.6511249999414  L 15.5052499999414 8.26875  C 15.768125 8.00587499994141  15.9130624999414 7.65656249994141  15.9130624999414 7.284375  C 15.9130624999414 6.91293749994141  15.7683124998828 6.56343750005859  15.5054375 6.30037499994141  L 10.2700624999414 1.065375  C 9.7274375 0.522937499941406  8.844875 0.523312500058594  8.30225000005859 1.065375  L 2.91987499994141 6.4479375  C 2.52481249988281 6.8428125  2.421125 7.417125  2.601125 7.91024999994141  L 0.509937500058594 10.0016249999414  C -0.0325000000000002 10.5440625  -0.0508749999414062 11.4082499998828  0.468875000058594 11.9285625000586  L 4.6424375 16.102125  C 4.7020625 16.16175  4.76693750005859 16.2142500000586  4.835375 16.2603750000586  L 0.65375 16.2603750000586  C 0.3539375 16.2603750000586  0.1109375 16.5035625001172  0.1109375 16.8031875000586  C 0.1109375 17.1028125  0.3539375 17.3460000000586  0.65375 17  L 15.3331249999414 17  C 15.6329374999414 17.3460000000586  15.8759374999414 17.1028125  15.8759374999414 16.8031875000586  Z M 3.597875 7.43193750005859  C 3.597875 7.35037500005859  3.62974999994141 7.27350000011719  3.68750000005859 7.21556249994141  L 9.06968749994141 1.83337500005859  C 9.1295 1.7735625  9.20787499988281 1.74356250011719  9.28624999994141 1.74356249994141  C 9.364625 1.74356249994141  9.4428125 1.7735625  9.5024375 1.83299999994141  L 14.737625 7.06818749994141  C 14.7953749999414 7.12612499994141  14.8272500000586 7.2028125  14.8272500000586 7.28456250005859  C 14.8272500000586 7.36612500005859  14.7953750001172 7.44281250011719  14.737625 7.5009375  L 9.35525000005859 12.8835  C 9.23975 12.9986249999414  9.03800000005859 12.999375  8.92287499994141 12.8835  L 3.68750000005859 7.6483125  C 3.62975000011719 7.590375  3.597875 7.51368749994141  3.597875 7.43193750005859  Z M 5.41025 15.3345000000586  L 1.23668750005859 11.1609374999414  C 1.14162500005859 11.0658749999414  1.16037500011719 10.886625  1.2775625 10.7694374999414  L 3.27537499994141 8.77125000005859  L 7.79937500005859 13.2956249999414  L 5.80156249994141 15.2934375000586  C 5.73875 15.3564375000586  5.6594375 15.3924375000586  5.5784375 15.3952500000586  C 5.53025000005859 15.4020000000586  5.4636875 15.3881250001172  5.41025 15.3345000000586  Z " fill-rule="nonzero" fill="#6271ff" stroke="none" transform="matrix(1 0 0 1 367 235 )" />
  </g>
</svg>