<?xml version="1.0" encoding="utf-8"?>
<svg version="1.1" xmlns:xlink="http://www.w3.org/1999/xlink" width="16px" height="11px" xmlns="http://www.w3.org/2000/svg">
  <g transform="matrix(1 0 0 1 -98 -758 )">
    <path d="M 4.86666666666667 2.234375  C 5.17777777777778 2.50173611111111  5.33333333333333 2.82638888888889  5.33333333333333 3.20833333333333  C 5.33333333333333 3.59027777777778  5.17777777777778 3.91493055555556  4.86666666666667 4.18229166666667  C 4.55555555555556 4.44965277777778  4.17777777777778 4.58333333333333  3.73333333333333 4.58333333333333  C 3.28888888888889 4.58333333333333  2.91111111111111 4.44965277777778  2.6 4.18229166666667  C 2.28888888888889 3.91493055555556  2.13333333333333 3.59027777777778  2.13333333333333 3.20833333333333  C 2.13333333333333 2.82638888888889  2.28888888888889 2.50173611111111  2.6 2.234375  C 2.91111111111111 1.96701388888889  3.28888888888889 1.83333333333333  3.73333333333333 1.83333333333333  C 4.17777777777778 1.83333333333333  4.55555555555556 1.96701388888889  4.86666666666667 2.234375  Z M 10.4 2.97916666666667  L 13.8666666666667 5.95833333333333  L 13.8666666666667 9  L 2.13333333333333 9  L 2.13333333333333 7.79166666666667  L 4.8 5.5  L 6.13333333333333 6.64583333333333  L 10.4 2.97916666666667  Z M 14.8541666666667 0.984700520833333  C 14.8013888888889 0.939344618055554  14.7388888888889 0.916666666666667  14.6666666666667 1  L 1.33333333333333 1  C 1.26111111111111 0.916666666666667  1.19861111111111 0.939344618055554  1.14583333333333 0.984700520833333  C 1.09305555555556 1.03005642361111  1.06666666666667 1.08376736111111  1.06666666666667 1.14583333333333  L 1.06666666666667 9.85416666666667  C 1.06666666666667 9.91623263888889  1.09305555555556 9.96994357638889  1.14583333333333 10.0152994791667  C 1.19861111111111 10.0606553819444  1.26111111111111 10.0833333333333  1.33333333333333 10  L 14.6666666666667 10  C 14.7388888888889 10.0833333333333  14.8013888888889 10.0606553819444  14.8541666666667 10.0152994791667  C 14.9069444444444 9.96994357638889  14.9333333333333 9.91623263888889  14.9333333333333 9.85416666666667  L 14.9333333333333 1.14583333333333  C 14.9333333333333 1.08376736111111  14.9069444444444 1.03005642361111  14.8541666666667 0.984700520833333  Z M 15.6083333333333 0.336588541666667  C 15.8694444444444 0.560980902777777  16 0.830729166666667  16 1.14583333333333  L 16 9.85416666666667  C 16 10.1692708333333  15.8694444444444 10.4390190972222  15.6083333333333 10.6634114583333  C 15.3472222222222 10.8878038194444  15.0333333333333 11  14.6666666666667 11  L 1.33333333333333 11  C 0.966666666666667 11  0.652777777777778 10.8878038194444  0.391666666666667 10.6634114583333  C 0.130555555555556 10.4390190972222  0 10.1692708333333  0 9.85416666666667  L 0 1.14583333333333  C 0 0.830729166666667  0.130555555555556 0.560980902777777  0.391666666666667 0.336588541666667  C 0.652777777777778 0.112196180555554  0.966666666666667 0  1.33333333333333 0  L 14.6666666666667 0  C 15.0333333333333 0  15.3472222222222 0.112196180555554  15.6083333333333 0.336588541666667  Z " fill-rule="nonzero" fill="#6271ff" stroke="none" transform="matrix(1 0 0 1 98 758 )" />
  </g>
</svg>