<?xml version="1.0" encoding="utf-8"?>
<svg version="1.1" xmlns:xlink="http://www.w3.org/1999/xlink" width="20px" height="14px" xmlns="http://www.w3.org/2000/svg">
  <g transform="matrix(1 0 0 1 -340 -534 )">
    <path d="M 19.892 7.3808  L 19.8686666666667 6.5856  C 19.8686666666667 6.5856  16 0  10 0  C 4 0  0.131333333333333 6.5856  0.131333333333333 6.5856  L 0.108666666666667 7.3808  C 0.108 7.3808  3.33333333333333 14  10 14  C 16.6666666666667 14  19.892 7.3808  19.892 7.3808  Z M 14.6666666666667 7  C 14.6666666666667 9.7062  12.5773333333333 11.9  10 11.9  C 7.42266666666667 11.9  5.33333333333333 9.7062  5.33333333333333 7  C 5.33333333333333 4.2938  7.42266666666667 2.1  10 2.1  C 12.5773333333333 2.1  14.6666666666667 4.2938  14.6666666666667 7  Z " fill-rule="nonzero" fill="#000000" stroke="none" transform="matrix(1 0 0 1 340 534 )" />
  </g>
</svg>