<?xml version="1.0" encoding="utf-8"?>
<svg version="1.1" xmlns:xlink="http://www.w3.org/1999/xlink" width="38px" height="47px" xmlns="http://www.w3.org/2000/svg">
  <g transform="matrix(1 0 0 1 -66 -162 )">
    <path d="M 38 47  C 38 33.2916666666667  26 37.2083333333333  24 31.3333333333333  L 24 27.4166666666667  C 24.9 26.9799583333333  27.474 23.9797916666667  27.744 21.6356666666667  C 28.452 21.5827916666667  29.564 20.9463333333333  29.892 18.4337916666667  C 30.068 17.0845  29.368 16.326625  28.944 16.0877083333333  C 28.944 16.0877083333333  30 14.1235  30 11.7519583333333  C 30 6.997125  28.094 2.93945833333333  24 2.93945833333333  C 24 2.93945833333333  23.252 0.00195833333333225  19 0.00195833333333225  C 12.024 0  8 5.328625  8 11.75  C 8 13.912  9.056 16.08575  9.056 16.08575  C 8.632 16.3246666666667  7.932 17.0845  8.108 18.4318333333333  C 8.436 20.944375  9.548 21.5808333333333  10.256 21.6337083333333  C 10.526 23.9797916666667  13.1 26.9799583333333  14 27.4166666666667  L 14 31.3333333333333  C 12 37.2083333333333  0 33.2916666666667  0 47  L 38 47  Z " fill-rule="nonzero" fill="#999999" stroke="none" transform="matrix(1 0 0 1 66 162 )" />
  </g>
</svg>