<?xml version="1.0" encoding="utf-8"?>
<svg version="1.1" xmlns:xlink="http://www.w3.org/1999/xlink" width="14px" height="14px" xmlns="http://www.w3.org/2000/svg">
  <g transform="matrix(1 0 0 1 -266 -469 )">
    <path d="M 14 1.4  C 14 0.63  13.37 0  12.6 0  L 1.4 0  C 0.63 0  0.00699999999999985 0.63  0 1.4  L 0 14  L 2.8 11.2  L 12.6 11.2  C 13.37 11.2  14 10.57  14 9.8  L 14 1.4  Z M 4.9 4.9  L 4.9 6.3  L 3.5 6.3  L 3.5 4.9  L 4.9 4.9  Z M 7.7 4.9  L 7.7 6.3  L 6.3 6.3  L 6.3 4.9  L 7.7 4.9  Z M 10.5 4.9  L 10.5 6.3  L 9.1 6.3  L 9.1 4.9  L 10.5 4.9  Z " fill-rule="nonzero" fill="#f57937" stroke="none" transform="matrix(1 0 0 1 266 469 )" />
  </g>
</svg>