<?xml version="1.0" encoding="utf-8"?>
<svg version="1.1" xmlns:xlink="http://www.w3.org/1999/xlink" width="71px" height="20px" xmlns="http://www.w3.org/2000/svg">
  <g transform="matrix(1 0 0 1 -740 -305 )">
    <path d="M 71 18  L 71 2  C 71 0.879999999999995  69.9922580645161 0  68.7096774193548 0  L 9.16129032258064 0  L 6.87096774193548 0.322580645161281  L 0 10  L 6.87096774193548 19.6774193548387  L 9.16129032258064 20  L 68.7096774193548 20  C 69.9922580645161 20  71 19.12  71 18  Z M 16.0322580645161 10  C 16.0322580645161 11.68  14.5206451612903 13  12.5967741935484 13  C 10.6729032258065 13  9.16129032258064 11.68  9.16129032258064 10  C 9.16129032258064 8.31999999999999  10.6729032258065 7  12.5967741935484 7  C 14.5206451612903 7  16.0322580645161 8.31999999999999  16.0322580645161 10  Z " fill-rule="nonzero" fill="#f56c6c" stroke="none" fill-opacity="0.0980392156862745" transform="matrix(1 0 0 1 740 305 )" />
  </g>
</svg>