<?xml version="1.0" encoding="utf-8"?>
<svg version="1.1" xmlns:xlink="http://www.w3.org/1999/xlink" width="20px" height="20px" xmlns="http://www.w3.org/2000/svg">
  <g transform="matrix(1 0 0 1 -215 -1036 )">
    <path d="M 20 2  C 20 0.9  19.1 0  18 0  L 2 0  C 0.9 0  0.00999999999999979 0.9  0 2  L 0 20  L 4 16  L 18 16  C 19.1 16  20 15.1  20 14  L 20 2  Z M 7 7  L 7 9  L 5 9  L 5 7  L 7 7  Z M 11 7  L 11 9  L 9 9  L 9 7  L 11 7  Z M 15 7  L 15 9  L 13 9  L 13 7  L 15 7  Z " fill-rule="nonzero" fill="#f57937" stroke="none" transform="matrix(1 0 0 1 215 1036 )" />
  </g>
</svg>