<?xml version="1.0" encoding="utf-8"?>
<svg version="1.1" xmlns:xlink="http://www.w3.org/1999/xlink" width="241px" height="50px" xmlns="http://www.w3.org/2000/svg">
  <defs>
    <mask fill="white" id="clip361">
      <path d="M 231 27  L 150.804812789282 27  C 148.403646276989 31.6052257091765  142.377146332708 35.0220402230484  138.04780876494 40  C 133.718471197173 35.0220402230484  127.691971252891 31.6052257091765  125.290804490249 27  L 0 27  L 0 0  L 231 0  L 231 27  Z " fill-rule="evenodd" />
    </mask>
    <filter x="958px" y="1054px" width="241px" height="50px" filterUnits="userSpaceOnUse" id="filter362">
      <feOffset dx="1" dy="1" in="SourceAlpha" result="shadowOffsetInner" />
      <feGaussianBlur stdDeviation="2.5" in="shadowOffsetInner" result="shadowGaussian" />
      <feComposite in2="shadowGaussian" operator="atop" in="SourceAlpha" result="shadowComposite" />
      <feColorMatrix type="matrix" values="0 0 0 0 0  0 0 0 0 0  0 0 0 0 0  0 0 0 0.698039215686274 0  " in="shadowComposite" />
    </filter>
    <g id="widget363">
      <path d="M 231 27  L 150.804812789282 27  C 148.403646276989 31.6052257091765  142.377146332708 35.0220402230484  138.04780876494 40  C 133.718471197173 35.0220402230484  127.691971252891 31.6052257091765  125.290804490249 27  L 0 27  L 0 0  L 231 0  L 231 27  Z " fill-rule="nonzero" fill="#333333" stroke="none" transform="matrix(1 0 0 1 962 1058 )" />
      <path d="M 231 27  L 150.804812789282 27  C 148.403646276989 31.6052257091765  142.377146332708 35.0220402230484  138.04780876494 40  C 133.718471197173 35.0220402230484  127.691971252891 31.6052257091765  125.290804490249 27  L 0 27  L 0 0  L 231 0  L 231 27  Z " stroke-width="2" stroke="#333333" fill="none" transform="matrix(1 0 0 1 962 1058 )" mask="url(#clip361)" />
    </g>
  </defs>
  <g transform="matrix(1 0 0 1 -958 -1054 )">
    <use xlink:href="#widget363" filter="url(#filter362)" />
    <use xlink:href="#widget363" />
  </g>
</svg>