<?xml version="1.0" encoding="utf-8"?>
<svg version="1.1" xmlns:xlink="http://www.w3.org/1999/xlink" width="16px" height="16px" xmlns="http://www.w3.org/2000/svg">
  <g transform="matrix(1 0 0 1 -212 -1708 )">
    <path d="M 16 1.6  C 16 0.72  15.28 0  14.4 0  L 1.6 0  C 0.72 0  0.00799999999999983 0.72  0 1.6  L 0 16  L 3.2 12.8  L 14.4 12.8  C 15.28 12.8  16 12.08  16 11.2  L 16 1.6  Z M 5.6 5.6  L 5.6 7.2  L 4 7.2  L 4 5.6  L 5.6 5.6  Z M 8.8 5.6  L 8.8 7.2  L 7.2 7.2  L 7.2 5.6  L 8.8 5.6  Z M 12 5.6  L 12 7.2  L 10.4 7.2  L 10.4 5.6  L 12 5.6  Z " fill-rule="nonzero" fill="#f57937" stroke="none" transform="matrix(1 0 0 1 212 1708 )" />
  </g>
</svg>