<?xml version="1.0" encoding="utf-8"?>
<svg version="1.1" xmlns:xlink="http://www.w3.org/1999/xlink" width="12px" height="12px" xmlns="http://www.w3.org/2000/svg">
  <g transform="matrix(1 0 0 1 -956 -214 )">
    <path d="M 6.6 5.4  L 6.6 3  L 5.4 3  L 5.4 5.4  L 3 5.4  L 3 6.6  L 5.4 6.6  L 5.4 9  L 6.6 9  L 6.6 6.6  L 9 6.6  L 9 5.4  L 6.6 5.4  Z M 12 6  C 12 2.688  9.312 0  6 0  C 2.688 0  0 2.688  0 6  C 0 9.312  2.688 12  6 12  C 9.312 12  12 9.312  12 6  Z M 10.8 6  C 10.8 8.646  8.646 10.8  6 10.8  C 3.354 10.8  1.2 8.646  1.2 6  C 1.2 3.354  3.354 1.2  6 1.2  C 8.646 1.2  10.8 3.354  10.8 6  Z " fill-rule="nonzero" fill="#3366cc" stroke="none" transform="matrix(1 0 0 1 956 214 )" />
  </g>
</svg>