<?xml version="1.0" encoding="utf-8"?>
<svg version="1.1" xmlns:xlink="http://www.w3.org/1999/xlink" width="7px" height="14px" xmlns="http://www.w3.org/2000/svg">
  <g transform="matrix(1 0 0 1 -50 -121 )">
    <path d="M 6.87972508591065 0.841683366733466  C 6.95990836197022 0.935203740814962  7 1.04275217100868  7 1.16432865731463  C 7 1.28590514362057  6.95990836197022 1.39345357381429  6.87972508591065 1.48697394789579  L 2.15292096219931 7  L 6.87972508591065 12.5130260521042  C 6.95990836197022 12.6065464261857  7 12.7140948563794  7 12.8356713426854  C 7 12.9572478289913  6.95990836197022 13.064796259185  6.87972508591065 13.1583166332665  L 6.27835051546392 13.8597194388778  C 6.19816723940435 13.9532398129593  6.10595647193585 14  6.00171821305842 14  C 5.89747995418099 14  5.80526918671249 13.9532398129593  5.72508591065292 13.8597194388778  L 0.120274914089347 7.32264529058116  C 0.0400916380297824 7.22912491649967  0 7.12157648630594  0 7  C 0 6.87842351369405  0.0400916380297824 6.77087508350033  0.120274914089347 6.67735470941884  L 5.72508591065292 0.140280561122245  C 5.80526918671249 0.0467601870407477  5.89747995418099 0  6.00171821305842 0  C 6.10595647193585 0  6.19816723940435 0.0467601870407477  6.27835051546392 0.140280561122245  L 6.87972508591065 0.841683366733466  Z " fill-rule="nonzero" fill="#ffffff" stroke="none" transform="matrix(1 0 0 1 50 121 )" />
  </g>
</svg>