<?xml version="1.0" encoding="utf-8"?>
<svg version="1.1" xmlns:xlink="http://www.w3.org/1999/xlink" width="22px" height="23px" xmlns="http://www.w3.org/2000/svg">
  <defs>
    <mask fill="white" id="clip478">
      <path d="M 9.2548338715562 0.312669594516242  C 4.77819786180636 0.412636995769247  1.22050936222981 4.26336538916742  1.32323566093961 8.89739296329785  C 1.42596195964942 13.5314205374283  5.15076994423899 17.2195240833806  9.62740595398883 17.1195566821276  C 14.105489776161 17.019556949891  17.6645938754603 13.1673430967622  17.56189978945 8.5347686513788  C 17.4592057034397 3.90219420599535  13.731469881306 0.212702193263236  9.2548338715562 0.312669594516242  Z M 9.59519325448748 15.6664279351441  C 5.91630188942463 15.7485809644403  2.85599297182411 12.6969624855057  2.77104808323904 8.86506197971021  C 2.68465538223168 5.03319380489826  5.6081552059947 1.84795137079597  9.28704657105755 1.76579834149976  C 12.9673857485427 1.68361298121996  16.0291424785655 4.73519912917091  16.1140873671506 8.56709963496645  C 16.1990644684351 12.400453269509  13.2755324319726 15.5842425748643  9.59519325448748 15.6664279351441  Z " fill-rule="evenodd" />
    </mask>
  </defs>
  <g transform="matrix(1 0 0 1 -342 -782 )">
    <path d="M 9.2548338715562 0.312669594516242  C 4.77819786180636 0.412636995769247  1.22050936222981 4.26336538916742  1.32323566093961 8.89739296329785  C 1.42596195964942 13.5314205374283  5.15076994423899 17.2195240833806  9.62740595398883 17.1195566821276  C 14.105489776161 17.019556949891  17.6645938754603 13.1673430967622  17.56189978945 8.5347686513788  C 17.4592057034397 3.90219420599535  13.731469881306 0.212702193263236  9.2548338715562 0.312669594516242  Z M 9.59519325448748 15.6664279351441  C 5.91630188942463 15.7485809644403  2.85599297182411 12.6969624855057  2.77104808323904 8.86506197971021  C 2.68465538223168 5.03319380489826  5.6081552059947 1.84795137079597  9.28704657105755 1.76579834149976  C 12.9673857485427 1.68361298121996  16.0291424785655 4.73519912917091  16.1140873671506 8.56709963496645  C 16.1990644684351 12.400453269509  13.2755324319726 15.5842425748643  9.59519325448748 15.6664279351441  Z " fill-rule="nonzero" fill="#ffffff" stroke="none" fill-opacity="0" transform="matrix(1 0 0 1 343 783 )" />
    <path d="M 9.2548338715562 0.312669594516242  C 4.77819786180636 0.412636995769247  1.22050936222981 4.26336538916742  1.32323566093961 8.89739296329785  C 1.42596195964942 13.5314205374283  5.15076994423899 17.2195240833806  9.62740595398883 17.1195566821276  C 14.105489776161 17.019556949891  17.6645938754603 13.1673430967622  17.56189978945 8.5347686513788  C 17.4592057034397 3.90219420599535  13.731469881306 0.212702193263236  9.2548338715562 0.312669594516242  Z " stroke-width="4" stroke="#ffffff" fill="none" transform="matrix(1 0 0 1 343 783 )" mask="url(#clip478)" />
    <path d="M 9.59519325448748 15.6664279351441  C 5.91630188942463 15.7485809644403  2.85599297182411 12.6969624855057  2.77104808323904 8.86506197971021  C 2.68465538223168 5.03319380489826  5.6081552059947 1.84795137079597  9.28704657105755 1.76579834149976  C 12.9673857485427 1.68361298121996  16.0291424785655 4.73519912917091  16.1140873671506 8.56709963496645  C 16.1990644684351 12.400453269509  13.2755324319726 15.5842425748643  9.59519325448748 15.6664279351441  Z " stroke-width="4" stroke="#ffffff" fill="none" transform="matrix(1 0 0 1 343 783 )" mask="url(#clip478)" />
    <path d="M 0.216526670154345 19.7701981371033  L 18.753112036008 19.7701981371032  M 2.59753701601838 19.7361680664089  L 6.07642159875165 15.3818263419074  M 12.7056873125554 15.6990201262161  L 16.3740863358714 19.8937564312556  " stroke-width="2" stroke="#ffffff" fill="none" transform="matrix(1 0 0 1 343 783 )" mask="url(#clip478)" />
  </g>
</svg>