<?xml version="1.0" encoding="utf-8"?>
<svg version="1.1" xmlns:xlink="http://www.w3.org/1999/xlink" width="18px" height="25px" xmlns="http://www.w3.org/2000/svg">
  <g transform="matrix(1 0 0 1 -80 -780 )">
    <path d="M 3.16497829232996 12.5  C 3.16497829232996 13.0308493589744  3.2301013024602 13.5967548076923  3.36034732272069 14.1977163461538  L 2.04486251808973 15.7151442307692  C 1.68017366136035 14.6834935897436  1.49782923299566 13.6117788461538  1.49782923299566 12.5  L 1.49782923299566 10.5769230769231  C 1.49782923299566 10.3165064102564  1.58031837916064 10.0911458333333  1.74529667149059 9.90084134615385  C 1.91027496382055 9.71053685897436  2.10564399421129 9.61538461538462  2.33140376266281 9.61538461538462  C 2.55716353111433 9.61538461538462  2.75253256150507 9.71053685897436  2.91751085383502 9.90084134615385  C 3.08248914616498 10.0911458333333  3.16497829232996 10.3165064102564  3.16497829232996 10.5769230769231  L 3.16497829232996 12.5  Z M 18 4.80769230769231  C 18 4.93790064102564  17.9565846599132 5.05308493589743  17.8697539797395 5.15324519230769  L 13.1678726483357 10.5769230769231  L 13.1678726483357 12.5  C 13.1678726483357 13.8221153846154  12.7597684515195 14.9539262820513  11.9435600578871 15.8954326923077  C 11.1273516642547 16.8369391025641  10.1461649782923 17.3076923076923  9 17.3076923076923  C 8.52243125904486 17.3076923076923  8.04920405209841 17.2125400641026  7.58031837916064 17.0222355769231  L 6.32995658465991 18.4645432692308  C 7.17221418234443 18.9753605769231  8.06222865412446 19.2307692307692  9 19.2307692307692  C 10.6063675832127 19.2307692307692  11.9804630969609 18.5722155448718  13.1222865412446 17.2551081730769  C 14.2641099855282 15.938000801282  14.83502170767 14.3529647435897  14.83502170767 12.5  L 14.83502170767 10.5769230769231  C 14.83502170767 10.3165064102564  14.917510853835 10.0911458333333  15.082489146165 9.90084134615385  C 15.2474674384949 9.71053685897436  15.4428364688857 9.61538461538462  15.6685962373372 9.61538461538462  C 15.8943560057887 9.61538461538462  16.0897250361795 9.71053685897436  16.2547033285094 9.90084134615385  C 16.4196816208394 10.0911458333333  16.5021707670043 10.3165064102564  16.5021707670043 10.5769230769231  L 16.5021707670043 12.5  C 16.5021707670043 14.7135416666667  15.8617945007236 16.6391225961538  14.5810419681621 18.2767427884615  C 13.3002894356006 19.9143629807692  11.7178002894356 20.8533653846154  9.83357452966715 21.09375  L 9.83357452966715 23.0769230769231  L 13.1678726483357 23.0769230769231  C 13.3936324167873 23.0769230769231  13.589001447178 23.1720753205128  13.753979739508 23.3623798076923  C 13.9189580318379 23.5526842948718  14.0014471780029 23.7780448717949  14.0014471780029 24.0384615384615  C 14.0014471780029 24.2988782051282  13.9189580318379 24.5242387820513  13.753979739508 24.7145432692308  C 13.589001447178 24.9048477564103  13.3936324167873 25  13.1678726483357 25  L 4.83212735166425 25  C 4.60636758321274 25  4.410998552822 24.9048477564103  4.24602026049204 24.7145432692308  C 4.08104196816208 24.5242387820513  3.99855282199711 24.2988782051282  3.99855282199711 24.0384615384615  C 3.99855282199711 23.7780448717949  4.08104196816208 23.5526842948718  4.24602026049204 23.3623798076923  C 4.410998552822 23.1720753205128  4.60636758321274 23.0769230769231  4.83212735166425 23.0769230769231  L 8.16642547033285 23.0769230769231  L 8.16642547033285 21.09375  C 7.08104196816208 20.9635416666667  6.06078147612156 20.5578926282051  5.10564399421129 19.8768028846154  L 1.79739507959479 23.6929086538462  C 1.71056439942113 23.7930689102564  1.61070911722142 23.8431490384615  1.49782923299566 23.8431490384615  C 1.3849493487699 23.8431490384615  1.28509406657019 23.7930689102564  1.19826338639653 23.6929086538462  L 0.130246020260492 22.4609375  C 0.0434153400868307 22.3607772435897  0 22.2455929487179  0 22.1153846153846  C 0 21.9851762820513  0.0434153400868307 21.8699919871795  0.130246020260492 21.7698317307692  L 16.2026049204052 3.23016826923077  C 16.2894356005789 3.13000801282051  16.3892908827786 3.07992788461539  16.5021707670043 3.07992788461539  C 16.6150506512301 3.07992788461539  16.7149059334298 3.13000801282051  16.8017366136035 3.23016826923077  L 17.8697539797395 4.46213942307692  C 17.9565846599132 4.56229967948718  18 4.67748397435897  18 4.80769230769231  Z M 11.4030390738061 0.886418269230768  C 12.1193921852388 1.47736378205128  12.6251808972504 2.23858173076923  12.9204052098408 3.17007211538461  L 4.83212735166425 12.5  L 4.83212735166425 4.80769230769231  C 4.83212735166425 3.48557692307692  5.24023154848046 2.35376602564102  6.05643994211288 1.41225961538461  C 6.8726483357453 0.470753205128208  7.85383502170767 0  9 0  C 9.88567293777134 0  10.6866859623734 0.295472756410259  11.4030390738061 0.886418269230768  Z " fill-rule="nonzero" fill="#333333" stroke="none" transform="matrix(1 0 0 1 80 780 )" />
  </g>
</svg>