<?xml version="1.0" encoding="utf-8"?>
<svg version="1.1" xmlns:xlink="http://www.w3.org/1999/xlink" width="50px" height="50px" xmlns="http://www.w3.org/2000/svg">
  <g transform="matrix(1 0 0 1 -196 -768 )">
    <path d="M 50 25  C 50 39  39 50  25 50  C 11 50  0 39  0 25  C 0 11  11 0  25 0  C 39 0  50 11  50 25  Z M 32.885 20.9433333333334  L 32.885 25.4211111111111  C 32.885 25.9988888888889  33.23 26.49  33.725 26.7211111111111  C 35.195 27.4288888888889  36.545 28.3244444444445  37.73 29.3933333333333  C 38 29.6388888888889  38.375 29.7977777777778  38.78 29.7977777777778  C 39.2 29.7977777777778  39.575 29.6388888888889  39.845 29.3788888888889  L 43.565 25.7966666666666  C 43.835 25.5366666666666  44 25.1755555555555  44 24.7711111111111  C 44 24.3666666666667  43.835 24.0055555555556  43.565 23.7455555555556  C 38.99 19.5711111111111  32.81 17  26 17  C 19.19 17  13.01 19.5711111111111  8.435 23.7455555555556  C 8.16500000000002 24.0055555555556  8 24.3666666666667  8 24.7711111111112  C 8 25.1755555555555  8.16500000000002 25.5366666666666  8.435 25.7822222222222  L 12.155 29.3644444444444  C 12.425 29.6244444444444  12.8 29.7833333333333  13.22 29.7833333333333  C 13.625 29.7833333333333  14 29.6388888888889  14.27 29.3788888888889  C 15.455 28.3244444444445  16.79 27.4144444444445  18.26 26.7066666666667  C 18.755 26.4755555555555  19.1 25.97  19.1 25.4066666666666  L 19.1 20.9288888888889  C 21.275 20.25  23.6 19.8888888888889  26 19.8888888888889  C 28.4 19.8888888888889  30.725 20.25  32.885 20.9433333333334  Z " fill-rule="nonzero" fill="#ff5050" stroke="none" transform="matrix(1 0 0 1 196 768 )" />
  </g>
</svg>