<?xml version="1.0" encoding="utf-8"?>
<svg version="1.1" xmlns:xlink="http://www.w3.org/1999/xlink" width="25px" height="22px" xmlns="http://www.w3.org/2000/svg">
  <g transform="matrix(1 0 0 1 -142 -782 )">
    <path d="M 11.2530048076923 1.88748241912799  C 11.4433092948718 2.08345053914674  11.5384615384615 2.31551804969526  12 2.58368495077356  L 12 19.4163150492264  C 11.5384615384615 19.6844819503047  11.4433092948718 19.9165494608533  11.2530048076923 20.112517580872  C 11.0627003205128 20.3084857008908  10.8373397435897 20.4064697609001  10.5769230769231 20.4064697609001  C 10.3165064102564 20.4064697609001  10.0911458333333 20.3084857008908  9.90084134615385 20.112517580872  L 4.89783653846154 14.9606188466948  L 0.961538461538462 14.9606188466948  C 0.701121794871795 14.9606188466948  0.475761217948718 14.8626347866854  0.285456730769231 14.6666666666667  C 0.0951522435897436 14.4706985466479  0 14.2386310360994  0 13.9704641350211  L 0 8.0295358649789  C 0 7.76136896390061  0.0951522435897436 7.52930145335208  0.285456730769231 7.33333333333333  C 0.475761217948718 7.13736521331458  0.701121794871795 7.03938115330521  0.961538461538462 7.03938115330521  L 4.89783653846154 7.03938115330521  L 9.90084134615385 1.88748241912799  C 10.0911458333333 1.69151429910924  10.3165064102564 1.59353023909986  10.5769230769231 1.59353023909986  C 10.8373397435897 1.59353023909986  11.0627003205128 1.69151429910924  11.2530048076923 1.88748241912799  Z M 16.6691706730769 8.80309423347398  C 17.0948517628205 9.48382559774965  17.3076923076923 10.216127519925  17.3076923076923 11  C 17.3076923076923 11.783872480075  17.0948517628205 12.5135958743554  16.6691706730769 13.1891701828411  C 16.2434895833333 13.8647444913268  15.6800881410256 14.3469292076887  14.9789663461538 14.6357243319269  C 14.8788060897436 14.6872948898265  14.7536057692308 14.7130801687764  14.6033653846154 14.7130801687764  C 14.3429487179487 14.7130801687764  14.1175881410256 14.617674636662  13.9272836538462 14.4268635724332  C 13.7369791666667 14.2360525082044  13.6418269230769 14.0014064697609  13.6418269230769 13.7229254571027  C 13.6418269230769 13.506329113924  13.7019230769231 13.3232536333802  13.8221153846154 13.1736990154712  C 13.9423076923077 13.0241443975621  14.0875400641026 12.8952180028129  14.2578125 12.7869198312236  C 14.4280849358974 12.6786216596343  14.5983573717949 12.5600093764651  14.7686298076923 12.4310829817159  C 14.9389022435897 12.3021565869667  15.0841346153846 12.1165025785279  15.2043269230769 11.8741209563994  C 15.3245192307692 11.631739334271  15.3846153846154 11.3403656821378  15.3846153846154 11  C 15.3846153846154 10.6596343178622  15.3245192307692 10.368260665729  15.2043269230769 10.1258790436006  C 15.0841346153846 9.8834974214721  14.9389022435897 9.69784341303328  14.7686298076923 9.56891701828411  C 14.5983573717949 9.43999062353493  14.4280849358974 9.32137834036568  14.2578125 9.21308016877637  C 14.0875400641026 9.10478199718706  13.9423076923077 8.97585560243788  13.8221153846154 8.82630098452883  C 13.7019230769231 8.67674636661978  13.6418269230769 8.49367088607595  13.6418269230769 8.27707454289733  C 13.6418269230769 7.9985935302391  13.7369791666667 7.76394749179559  13.9272836538462 7.57313642756681  C 14.1175881410256 7.38232536333802  14.3429487179487 7.28691983122363  14.6033653846154 7.28691983122363  C 14.7536057692308 7.28691983122363  14.8788060897436 7.31270511017346  14.9789663461538 7.36427566807314  C 15.6800881410256 7.64275668073136  16.2434895833333 8.12236286919831  16.6691706730769 8.80309423347398  Z M 19.8768028846154 6.62939521800281  C 20.7281650641026 7.96507266760431  21.1538461538462 9.42194092827004  21.1538461538462 11  C 21.1538461538462 12.57805907173  20.7281650641026 14.0349273323957  19.8768028846154 15.3706047819972  C 19.0254407051282 16.7062822315987  17.8986378205128 17.6783872480075  16.4963942307692 18.2869198312236  C 16.3661858974359 18.3384903891233  16.2409855769231 18.3642756680731  16.1207932692308 18.3642756680731  C 15.8503605769231 18.3642756680731  15.6199919871795 18.2662916080638  15.4296875 18.070323488045  C 15.2393830128205 17.8743553680263  15.1442307692308 17.6422878574777  15.1442307692308 17.3741209563994  C 15.1442307692308 16.971870604782  15.3395432692308 16.6676043131739  15.7301682692308 16.4613220815752  C 16.2910657051282 16.1622128457571  16.6716746794872 15.9353023909986  16.8719951923077 15.7805907172996  C 17.6131810897436 15.2236286919831  18.1916065705128 14.5248476324426  18.6072716346154 13.6842475386779  C 19.0229366987179 12.8436474449133  19.2307692307692 11.948898265354  19.2307692307692 11  C 19.2307692307692 10.051101734646  19.0229366987179 9.15635255508673  18.6072716346154 8.31575246132208  C 18.1916065705128 7.47515236755743  17.6131810897436 6.77637130801688  16.8719951923077 6.21940928270042  C 16.6716746794872 6.06469760900141  16.2910657051282 5.83778715424285  15.7301682692308 5.53867791842475  C 15.3395432692308 5.33239568682606  15.1442307692308 5.028129395218  15.1442307692308 4.62587904360056  C 15.1442307692308 4.35771214252227  15.2393830128205 4.12564463197374  15.4296875 3.92967651195499  C 15.6199919871795 3.73370839193624  15.8453525641026 3.63572433192686  16.1057692307692 3.63572433192686  C 16.2359775641026 3.63572433192686  16.3661858974359 3.6615096108767  16.4963942307692 3.71308016877637  C 17.8986378205128 4.3216127519925  19.0254407051282 5.29371776840131  19.8768028846154 6.62939521800281  Z M 23.0919471153846 4.4634317862166  C 24.3639823717949 6.44889826535396  25 8.62775433661509  25 11  C 25 13.3722456633849  24.3639823717949 15.551101734646  23.0919471153846 17.5365682137834  C 21.8199118589744 19.5220346929208  20.127203525641 20.9840600093765  18.0138221153846 21.9226441631505  C 17.8836137820513 21.9742147210502  17.7534054487179 22  17.6231971153846 22  C 17.3627804487179 22  17.1374198717949 21.9020159399906  16.9471153846154 21.7060478199719  C 16.7568108974359 21.5100796999531  16.6616586538462 21.2780121894046  16.6616586538462 21.0098452883263  C 16.6616586538462 20.6385372714487  16.8569711538462 20.3342709798406  17.2475961538462 20.0970464135021  C 17.3177083333333 20.0557899671824  17.4303886217949 20.0016408813877  17.5856370192308 19.9345991561181  C 17.7408854166667 19.8675574308486  17.8535657051282 19.8134083450539  17.9236778846154 19.7721518987342  C 18.3844150641026 19.5142991092358  18.7950721153846 19.2512892639475  19.1556490384615 18.9831223628692  C 20.3876201923077 18.0445382090952  21.3491586538462 16.8738865447726  22.0402644230769 15.4711673699015  C 22.7313701923077 14.0684481950305  23.0769230769231 12.57805907173  23.0769230769231 11  C 23.0769230769231 9.42194092827004  22.7313701923077 7.93155180496953  22.0402644230769 6.52883263009845  C 21.3491586538462 5.12611345522738  20.3876201923077 3.95546179090483  19.1556490384615 3.0168776371308  C 18.7950721153846 2.74871073605251  18.3844150641026 2.48570089076418  17.9236778846154 2.22784810126582  C 17.8535657051282 2.18659165494608  17.7408854166667 2.13244256915143  17.5856370192308 2.06540084388186  C 17.4303886217949 1.99835911861228  17.3177083333333 1.94421003281763  17.2475961538462 1.90295358649789  C 16.8569711538462 1.6657290201594  16.6616586538462 1.36146272855133  16.6616586538462 0.9901547116737  C 16.6616586538462 0.721987810595403  16.7568108974359 0.48992030004688  16.9471153846154 0.293952180028129  C 17.1374198717949 0.0979840600093755  17.3627804487179 0  17.6231971153846 0  C 17.7534054487179 0  17.8836137820513 0.0257852789498345  18.0138221153846 0.0773558368495084  C 20.127203525641 1.01593999062353  21.8199118589744 2.47796530707923  23.0919471153846 4.4634317862166  Z " fill-rule="nonzero" fill="#ffffff" stroke="none" transform="matrix(1 0 0 1 142 782 )" />
  </g>
</svg>