<?xml version="1.0" encoding="utf-8"?>
<svg version="1.1" xmlns:xlink="http://www.w3.org/1999/xlink" width="9px" height="6px" xmlns="http://www.w3.org/2000/svg">
  <g transform="matrix(1 0 0 1 -321 -129 )">
    <path d="M 1.75078125 5.000390625  C 1.75078125 5.248828125  1.54921875 5.450390625  1.30078125 5.450390625  C 1.05234375 5.450390625  0.85078125 5.248828125  0.85078125 5.000390625  C 0.85078125 4.332421875  0.98203125 3.684375  1.23984375 3.073828125  C 1.489453125 2.484375  1.845703125 1.9546875  2.300390625 1.5  C 2.755078125 1.0453125  3.28359375 0.689062499999999  3.87421875 0.439453125  C 4.484765625 0.181640625  5.1328125 0.0503906249999995  5.80078125 0.0503906249999995  C 6.7265625 0.0503906249999995  7.62890625 0.30703125  8.41171875 0.794531249999999  C 8.62265625 0.92578125  8.687109375 1.203515625  8.555859375 1.414453125  C 8.424609375 1.625390625  8.146875 1.68984375  7.9359375 1.55859375  C 7.297265625 1.16015625  6.5578125 0.950390624999999  5.80078125 0.950390624999999  C 4.719140625 0.950390624999999  3.701953125 1.372265625  2.93671875 2.136328125  C 2.171484375 2.900390625  1.75078125 3.91875  1.75078125 5.000390625  Z " fill-rule="nonzero" fill="#ffffff" stroke="none" transform="matrix(1 0 0 1 321 129 )" />
  </g>
</svg>