<?xml version="1.0" encoding="utf-8"?>
<svg version="1.1" xmlns:xlink="http://www.w3.org/1999/xlink" width="9px" height="9px" xmlns="http://www.w3.org/2000/svg">
  <defs>
    <mask fill="white" id="clip481">
      <path d="M 0.481249712034659 4.36875  C 0.481249712034659 6.70930956043687  2.37819059856055 8.60694977998473  4.71875 8.6078125  C 4.71927083331278 8.60781269197689  4.71979166665184 8.60781278796534  4.7203125 8.60781278796534  C 7.06148223136847 8.60781278796534  8.95937528796534 6.70991973136847  8.95937528796534 4.36875  C 8.95937528796534 2.02819043956313  7.06243440143945 0.130550220015277  4.721875 0.129687499999999  C 4.72135416668722 0.129687308023106  4.72083333334816 0.129687212034659  4.7203125 0.129687212034659  C 2.37914276863154 0.129687212034659  0.481249712034659 2.02758026863154  0.481249712034659 4.36875  Z " fill-rule="evenodd" />
    </mask>
  </defs>
  <g transform="matrix(1 0 0 1 -347 -787 )">
    <path d="M 0.481249712034659 4.36875  C 0.481249712034659 6.70930956043687  2.37819059856055 8.60694977998473  4.71875 8.6078125  C 4.71927083331278 8.60781269197689  4.71979166665184 8.60781278796534  4.7203125 8.60781278796534  C 7.06148223136847 8.60781278796534  8.95937528796534 6.70991973136847  8.95937528796534 4.36875  C 8.95937528796534 2.02819043956313  7.06243440143945 0.130550220015277  4.721875 0.129687499999999  C 4.72135416668722 0.129687308023106  4.72083333334816 0.129687212034659  4.7203125 0.129687212034659  C 2.37914276863154 0.129687212034659  0.481249712034659 2.02758026863154  0.481249712034659 4.36875  Z " fill-rule="nonzero" fill="#ffffff" stroke="none" fill-opacity="0" transform="matrix(1 0 0 1 347 787 )" />
    <path d="M 0.481249712034659 4.36875  C 0.481249712034659 6.70930956043687  2.37819059856055 8.60694977998473  4.71875 8.6078125  C 4.71927083331278 8.60781269197689  4.71979166665184 8.60781278796534  4.7203125 8.60781278796534  C 7.06148223136847 8.60781278796534  8.95937528796534 6.70991973136847  8.95937528796534 4.36875  C 8.95937528796534 2.02819043956313  7.06243440143945 0.130550220015277  4.721875 0.129687499999999  C 4.72135416668722 0.129687308023106  4.72083333334816 0.129687212034659  4.7203125 0.129687212034659  C 2.37914276863154 0.129687212034659  0.481249712034659 2.02758026863154  0.481249712034659 4.36875  Z " stroke-width="2" stroke="#333333" fill="none" transform="matrix(1 0 0 1 347 787 )" mask="url(#clip481)" />
  </g>
</svg>