<?xml version="1.0" encoding="utf-8"?>
<svg version="1.1" xmlns:xlink="http://www.w3.org/1999/xlink" width="10px" height="12px" xmlns="http://www.w3.org/2000/svg">
  <g transform="matrix(1 0 0 1 -323 -123 )">
    <path d="M 5.921875 5.87109375  C 5.3546875 6.437109375  4.60234375 6.75  3.80078125 6.75  C 2.99921875 6.75  2.245703125 6.43828125  1.6796875 5.87109375  C 1.113671875 5.305078125  0.80078125 4.5515625  0.80078125 3.75  C 0.80078125 2.9484375  1.1125 2.194921875  1.6796875 1.62890625  C 2.245703125 1.062890625  2.99921875 0.75  3.80078125 0.75  C 4.60234375 0.75  5.355859375 1.06171875  5.921875 1.62890625  C 6.487890625 2.194921875  6.80078125 2.9484375  6.80078125 3.75  C 6.80078125 4.5515625  6.4890625 5.305078125  5.921875 5.87109375  Z M 5.285546875 2.265234375  C 4.889453125 1.86796875  4.362109375 1.65  3.80078125 1.65  C 3.239453125 1.65  2.712109375 1.86796875  2.316015625 2.265234375  C 1.919921875 2.6625  1.70078125 3.188671875  1.70078125 3.75  C 1.70078125 4.311328125  1.91875 4.838671875  2.316015625 5.234765625  C 2.712109375 5.630859375  3.239453125 5.85  3.80078125 5.85  C 4.362109375 5.85  4.889453125 5.63203125  5.285546875 5.234765625  C 5.681640625 4.838671875  5.90078125 4.311328125  5.90078125 3.75  C 5.90078125 3.188671875  5.6828125 2.661328125  5.285546875 2.265234375  Z M 7.751171875 11.0015625  C 7.751171875 11.251171875  7.549609375 11.4515625  7.301171875 11.4515625  C 7.052734375 11.4515625  6.851171875 11.25  6.851171875 11.0015625  L 6.851171875 9.94921875  L 5.801171875 9.94921875  C 5.552734375 9.94921875  5.351171875 9.74765625  5.351171875 9.49921875  C 5.351171875 9.25078125  5.552734375 9.04921875  5.801171875 9.04921875  L 6.851171875 9.04921875  L 6.851171875 7.99921875  C 6.851171875 7.75078125  7.052734375 7.54921875  7.301171875 7.54921875  C 7.549609375 7.54921875  7.751171875 7.75078125  7.751171875 7.99921875  L 7.751171875 9.04921875  L 8.801171875 9.04921875  C 9.049609375 9.04921875  9.251171875 9.25078125  9.251171875 9.49921875  C 9.251171875 9.74765625  9.049609375 9.94921875  8.801171875 9.94921875  L 7.751171875 9.94921875  L 7.751171875 11.0015625  Z " fill-rule="nonzero" fill="#ffffff" stroke="none" transform="matrix(1 0 0 1 323 123 )" />
  </g>
</svg>