<?xml version="1.0" encoding="utf-8"?>
<svg version="1.1" xmlns:xlink="http://www.w3.org/1999/xlink" width="20px" height="17px" xmlns="http://www.w3.org/2000/svg">
  <g transform="matrix(1 0 0 1 -277 -785 )">
    <path d="M 17.5955078125 16.5952380952381  C 18.7935395422298 16.7337695086414  19.7644406945691 15.7513100092504  19.6 14.5390159970238  L 19.6 5.75501069568452  C 19.7644406945691 4.54271668345795  18.7935395422298 3.56025718406697  17.5955078125 3.5590587797619  L 14.6931640625 3.5590587797619  L 13.76015625 1.43484933035714  C 13.45234375 0.735212053571429  12.6322265625 0.265032087053571  11.7203125 0.265032087053571  L 8.2796875 0.265032087053571  C 7.3677734375 0.265032087053571  6.54765625 0.735212053571429  6.2392578125 1.43544224330357  L 5.3068359375 3.5590587797619  L 2.4044921875 3.5590587797619  C 1.20646045777021 3.56025718406697  0.235559305430911 4.54271668345795  0.4 5.75501069568452  L 0.4 14.5390159970238  C 0.235559305430911 15.7513100092504  1.20646045777021 16.7337695086414  2.4044921875 16.5952380952381  L 17.5955078125 16.5952380952381  Z M 14.340234375 4.65693591889881  L 17.5955078125 4.65693591889881  C 18.1945107723193 4.65769814698865  18.6799108017994 5.14887674824829  18.4 5.75501069568452  L 18.4 14.5390159970238  C 18.6799108017995 15.14514994446  18.1945107723193 15.6363285457197  17.5955078125 15.3809523809524  L 2.4044921875 15.3809523809524  C 1.80548922768071 15.6363285457197  1.32008919820057 15.14514994446  1.6 14.5390159970238  L 1.6 5.75501069568452  C 1.32008919820057 5.14887674824829  1.80548922768071 4.65769814698865  2.4044921875 4.65693591889881  L 5.659765625 4.65693591889881  C 5.8741825443544 4.65699557025882  6.06852342585908 4.52927473127043  6.1556640625 4.33103143601191  L 7.2298828125 1.8821033296131  C 7.3623046875 1.581298828125  7.8037109375 1.36310686383929  8.27890625 1.36310686383929  L 11.7203125 1.36310686383929  C 12.1955078125 1.36310686383929  12.6369140625 1.58050827752976  12.76875 1.88151041666667  L 13.8443359375 4.33103143601191  C 13.9314765741409 4.52927473127043  14.1258174556456 4.65699557025882  14.340234375 4.65693591889881  Z M 13.753264443129 8.14644095061476  C 13.7159360311922 8.08106568532162  13.6623911703856 8.03892054457862  13.5926298607092 8.02000552838558  C 13.5228685510328 8.00109051219253  13.4556726835532 8.01049812490928  13.3910422582706 8.04822836653562  L 12.728807709844 8.43138983953351  C 12.5142789668297 8.07950368871227  12.2418164664334 7.77806891724846  11.9114202086549 7.52708552514219  C 11.5810239508764 7.27610213303593  11.2199575294342 7.09750289151782  10.828220944328 6.99128780058788  C 10.090360938135 6.79122512931558  9.38659742382708 6.84250743907985  8.71693040140426 7.14513472988048  C 8.04726337898146 7.44776202068121  7.52140873255662 7.96750415241572  7.15445441687352 8.64738176599721  C 7.1451142544131 8.68265470257498  7.14977627616706 8.71663498718702  7.16844048213545 8.74932261983359  C 7.18710468810382 8.78201025248016  7.21387711850712 8.8030828228518  7.24875777334532 8.81254033094832  L 8.04967127097668 9.02969926685651  C 8.10870007147212 9.04570428055821  8.15720943230815 9.02541380754307  8.19519935348476 8.96882784781119  C 8.37973810342692 8.72805259260194  8.49287170782293 8.5886031445065  8.53460016667277 8.55047950352507  C 8.80432511737772 8.29208802636305  9.11815938200564 8.11690498246056  9.47610296055652 8.02493037181769  C 9.83404653910739 7.93295576117482  10.1927878571644 7.93571099758148  10.5523269147275 8.03319608103776  C 11.0916355010723 8.17942370622208  11.5106257426668 8.49223380763864  11.8092976395112 8.97162638528714  L 11.1051661640634 9.38268743879598  C 11.0405357387808 9.42041768042232  10.998880363679 9.47455573781327  10.9802000387582 9.54510161096873  C 10.9615197138373 9.6156474841242  10.9708437573453 9.68360805334845  11.008172169282 9.7489833186416  C 11.0455005812188 9.81435858393465  11.0990454420254 9.85650372467783  11.1688067517018 9.87541874087078  L 12.9718682941081 10.3642991593978  C 13.0416296037845 10.3832141755908  13.108825471264 10.373806562874  13.1734558965467 10.3360763212477  C 13.2380863218293 10.2983460796212  13.2797416969311 10.2442080222304  13.2984220218519 10.1736621490749  L 13.7812365736528 8.35032265828762  C 13.7999168985737 8.27977678513216  13.7905928550657 8.21181621590781  13.753264443129 8.14644095061476  Z M 12.8044643923176 11.4770639075017  C 12.7858001863492 11.4443762748551  12.7590277559459 11.4233037044836  12.7241471011077 11.4138461963871  L 11.9514064400764 11.2043260170183  C 11.892377639581 11.1883210033166  11.843868278745 11.2086114763318  11.8058783575683 11.2651974360637  C 11.6213396076262 11.5059726912729  11.5082060032302 11.6454221393682  11.4664775443803 11.6835457803498  C 11.1967525936754 11.9419372575118  10.8829183290474 12.1171203014142  10.5249747504966 12.2090949120572  C 10.1670311719457 12.3010695227  9.80828985388873 12.2983142862934  9.44875079632557 12.2008292028372  C 9.18848744868655 12.1302616424247  8.95054757921846 12.0134008835461  8.73493118792123 11.8502469262012  C 8.51931479662401 11.6870929688563  8.3399652251629 11.4901507252231  8.19688247353793 11.2594201953013  L 8.89591154698964 10.8513378450789  C 8.96054197227229 10.8136076034525  9.00219734737407 10.7594695460616  9.02087767229493 10.6889236729061  C 9.0395579972158 10.6183777997506  9.03023395370783 10.5504172305264  8.99290554177107 10.4850419652332  C 8.95557712983432 10.4196666999401  8.90203226902772 10.377521559197  8.83227095935128 10.3586065430041  L 7.02920941694501 9.86972612447704  C 6.9594481072686 9.850811108284  6.89225223978906 9.86021872100074  6.82762181450644 9.89794896262718  C 6.76299138922379 9.93567920425361  6.72133601412202 9.98981726164447  6.70265568920115 10.0603631347999  L 6.21984113740027 11.8837026255872  C 6.20116081247941 11.9542484987427  6.21048485598737 12.0222090679669  6.24781326792413 12.0875843332601  C 6.28514167986089 12.1529595985532  6.33868654066748 12.1951047392962  6.4084478503439 12.2140197554893  C 6.47820916002033 12.2329347716823  6.54540502749987 12.2235271589656  6.61003545278252 12.1857969173392  L 7.26824531026628 11.8015441934071  C 7.48205557924512 12.156143647042  7.75232611566116 12.4577111187421  8.07905691951448 12.7062466085073  C 8.40578772336776 12.9547820982726  8.76502141784747 13.1321573886201  9.15675800295358 13.2383724795502  C 9.89193488185138 13.4377076501995  10.593015268864 13.3856978398125  11.2599991639916 13.0823430483891  C 11.9269830591192 12.7789882569656  12.4541792691916 12.2596098755424  12.8184504575795 11.5790047613382  C 12.8277906200399 11.5437318247604  12.8231285982859 11.5097515401483  12.8044643923176 11.4770639075017  Z " fill-rule="nonzero" fill="#333333" stroke="none" transform="matrix(1 0 0 1 277 785 )" />
  </g>
</svg>