<?xml version="1.0" encoding="utf-8"?>
<svg version="1.1" xmlns:xlink="http://www.w3.org/1999/xlink" width="24px" height="21px" xmlns="http://www.w3.org/2000/svg">
  <g transform="matrix(1 0 0 1 -204 -204 )">
    <path d="M 8.57142857142857 1.75  L 8.57142857142857 3.5  L 15.4285714285714 3.5  L 15.4285714285714 1.75  L 8.57142857142857 1.75  Z M 3 3.5  L 4 3.5  L 4 21  L 3 21  C 2.17857142857143 21  1.47321428571429 20.69921875  0.883928571428571 20.09765625  C 0.294642857142857 19.49609375  0 18.7760416666667  0 17.9375  L 0 6.5625  C 0 5.72395833333333  0.294642857142857 5.00390625  0.883928571428571 4.40234375  C 1.47321428571429 3.80078125  2.17857142857143 3.5  3 3.5  Z M 17.1428571428571 3.5  L 18.8571428571429 3.5  L 18.8571428571429 21  L 5.14285714285714 21  L 5.14285714285714 3.5  L 6.85714285714286 3.5  L 6.85714285714286 1.3125  C 6.85714285714286 0.947916666666666  6.98214285714286 0.63802083333333  7.23214285714286 0.382812499999999  C 7.48214285714286 0.127604166666666  7.78571428571429 0  8.14285714285714 0  L 15.8571428571429 0  C 16.2142857142857 0  16.5178571428571 0.127604166666666  16.7678571428571 0.382812499999999  C 17.0178571428571 0.63802083333333  17.1428571428571 0.947916666666666  17.1428571428571 1.3125  L 17.1428571428571 3.5  Z M 23.1160714285714 4.40234375  C 23.7053571428571 5.00390625  24 5.72395833333333  24 6.5625  L 24 17.9375  C 24 18.7760416666667  23.7053571428571 19.49609375  23.1160714285714 20.09765625  C 22.5267857142857 20.69921875  21.8214285714286 21  21 21  L 20 21  L 20 3.5  L 21 3.5  C 21.8214285714286 3.5  22.5267857142857 3.80078125  23.1160714285714 4.40234375  Z " fill-rule="nonzero" fill="#ffffff" stroke="none" transform="matrix(1 0 0 1 204 204 )" />
  </g>
</svg>