<?xml version="1.0" encoding="utf-8"?>
<svg version="1.1" xmlns:xlink="http://www.w3.org/1999/xlink" width="44px" height="44px" xmlns="http://www.w3.org/2000/svg">
  <g transform="matrix(1 0 0 1 -194 -437 )">
    <path d="M 216 437  C 228.32 437  238 446.68  238 459  C 238 471.32  228.32 481  216 481  C 203.68 481  194 471.32  194 459  C 194 446.68  203.68 437  216 437  Z " fill-rule="nonzero" fill="#cccccc" stroke="none" />
    <path d="M 216 437.5  C 228.04 437.5  237.5 446.96  237.5 459  C 237.5 471.04  228.04 480.5  216 480.5  C 203.96 480.5  194.5 471.04  194.5 459  C 194.5 446.96  203.96 437.5  216 437.5  Z " stroke-width="1" stroke="#cccccc" fill="none" />
  </g>
</svg>