<?xml version="1.0" encoding="utf-8"?>
<svg version="1.1" xmlns:xlink="http://www.w3.org/1999/xlink" width="22px" height="22px" xmlns="http://www.w3.org/2000/svg">
  <g transform="matrix(1 0 0 1 -35 -79 )">
    <path d="M 11 0  C 17.0747056451613 0  22 4.9270685483871  22 11  C 22 17.0764798387097  17.0747056451613 22  11 22  C 4.92529435483871 22  0 17.0764798387097  0 11  C 0 4.9270685483871  4.92529435483871 0  11 0  Z M 13.0403225806452 15.258064516129  C 13.0403225806452 14.1312298387097  12.1268346774194 13.2177419354839  11 13.2177419354839  C 9.87316532258065 13.2177419354839  8.95967741935484 14.1312298387097  8.95967741935484 15.258064516129  C 8.95967741935484 16.3848991935484  9.87316532258065 17.2983870967742  11 17.2983870967742  C 12.1268346774194 17.2983870967742  13.0403225806452 16.3848991935484  13.0403225806452 15.258064516129  Z M 9.5943064516129 5.32258064516129  C 9.28896774193549 5.32258064516129  9.04625806451613 5.57895161290323  9.06289112903226 5.88384677419355  L 9.39191532258065 11.9161048387097  C 9.4073064516129 12.1983790322581  9.64070161290323 12.4193548387097  9.923375 12.4193548387097  L 12.076625 12.4193548387097  C 12.3592983870968 12.4193548387097  12.5926935483871 12.1983790322581  12.6080846774194 11.9161048387097  L 12.9371088709677 5.88384677419355  C 12.9537419354839 5.57895161290323  12.7109879032258 5.32258064516129  12.4056491935484 5.32258064516129  L 9.5943064516129 5.32258064516129  Z " fill-rule="nonzero" fill="#163985" stroke="none" transform="matrix(1 0 0 1 35 79 )" />
  </g>
</svg>