<?xml version="1.0" encoding="utf-8"?>
<svg version="1.1" xmlns:xlink="http://www.w3.org/1999/xlink" width="22px" height="22px" xmlns="http://www.w3.org/2000/svg">
  <g transform="matrix(1 0 0 1 -32 -79 )">
    <path d="M 22 11  C 22 4.92525  17.07475 0  11 0  C 4.92525 0  0 4.92525  0 11  C 0 17.07475  4.92525 22  11 22  C 17.07475 22  22 17.07475  22 11  Z M 9.889 4.58333333333333  L 12.111 4.58333333333333  L 11.9276666666667 12.8333333333333  L 10.0723333333333 12.8333333333333  L 9.889 4.58333333333333  Z M 12.2090833333333 16.5064166666667  C 12.2090833333333 17.1856666666667  11.75625 17.5899166666667  11.00275 17.5899166666667  C 10.24375 17.5899166666667  9.79 17.1856666666667  9.79 16.5064166666667  C 9.79 15.8143333333333  10.2428333333333 15.4100833333333  11.00275 15.4100833333333  C 11.75625 15.4100833333333  12.2090833333333 15.8143333333333  12.2090833333333 16.5064166666667  Z " fill-rule="nonzero" fill="#eb5d5e" stroke="none" transform="matrix(1 0 0 1 32 79 )" />
  </g>
</svg>