<?xml version="1.0" encoding="utf-8"?>
<svg version="1.1" xmlns:xlink="http://www.w3.org/1999/xlink" width="80px" height="26px" xmlns="http://www.w3.org/2000/svg">
  <g transform="matrix(1 0 0 1 -153 -1165 )">
    <path d="M 222.701232614558 1165.5  C 222.701232614558 1165.5  224.920278903726 1165.86059502199  224.920278903726 1165.86059502199  C 224.920278903726 1165.86059502199  232.448592068383 1178  232.448592068383 1178  C 232.448592068383 1178  224.920278903726 1190.13940497801  224.920278903726 1190.13940497801  C 224.920278903726 1190.13940497801  222.701232614558 1190.5  222.701232614558 1190.5  C 222.701232614558 1190.5  153.5 1190.5  153.5 1190.5  C 153.5 1190.5  153.5 1165.5  153.5 1165.5  C 153.5 1165.5  222.701232614558 1165.5  222.701232614558 1165.5  Z " fill-rule="nonzero" fill="#ffffff" stroke="none" />
    <path d="M 222.701232614558 1165.5  C 222.701232614558 1165.5  224.920278903726 1165.86059502199  224.920278903726 1165.86059502199  C 224.920278903726 1165.86059502199  232.448592068383 1178  232.448592068383 1178  C 232.448592068383 1178  224.920278903726 1190.13940497801  224.920278903726 1190.13940497801  C 224.920278903726 1190.13940497801  222.701232614558 1190.5  222.701232614558 1190.5  C 222.701232614558 1190.5  153.5 1190.5  153.5 1190.5  C 153.5 1190.5  153.5 1165.5  153.5 1165.5  C 153.5 1165.5  222.701232614558 1165.5  222.701232614558 1165.5  Z " stroke-width="1" stroke="#797979" fill="none" />
  </g>
</svg>