<?xml version="1.0" encoding="utf-8"?>
<svg version="1.1" xmlns:xlink="http://www.w3.org/1999/xlink" width="9px" height="9px" xmlns="http://www.w3.org/2000/svg">
  <g transform="matrix(1 0 0 1 -288 -1146 )">
    <path d="M 292.5 1146  C 295.02 1146  297 1147.98  297 1150.5  C 297 1153.02  295.02 1155  292.5 1155  C 289.98 1155  288 1153.02  288 1150.5  C 288 1147.98  289.98 1146  292.5 1146  Z " fill-rule="nonzero" fill="#7f7f7f" stroke="none" />
    <path d="M 292.5 1146.5  C 294.74 1146.5  296.5 1148.26  296.5 1150.5  C 296.5 1152.74  294.74 1154.5  292.5 1154.5  C 290.26 1154.5  288.5 1152.74  288.5 1150.5  C 288.5 1148.26  290.26 1146.5  292.5 1146.5  Z " stroke-width="1" stroke="#7f7f7f" fill="none" />
  </g>
</svg>