<?xml version="1.0" encoding="utf-8"?>
<svg version="1.1" xmlns:xlink="http://www.w3.org/1999/xlink" width="7px" height="18px" xmlns="http://www.w3.org/2000/svg">
  <g transform="matrix(1 0 0 1 -289 -1072 )">
    <path d="M 6.91818181818182 4.10416666666667  C 6.9969696969697 4.21527777777778  7.01212121212121 4.33680555555556  6.96363636363636 4.46875  C 6.90909090909091 4.60069444444444  6.82121212121212 4.66666666666667  6.7 4.66666666666667  L 4.66363636363636 4.66666666666667  L 4.66363636363636 17.6666666666667  C 4.66363636363636 17.7638888888889  4.63636363636364 17.84375  4.58181818181818 17.90625  C 4.52727272727273 17.96875  4.45757575757576 18  4.37272727272727 18  L 2.62727272727273 18  C 2.54242424242424 18  2.47272727272727 17.96875  2.41818181818182 17.90625  C 2.36363636363636 17.84375  2.33636363636364 17.7638888888889  2.33636363636364 17.6666666666667  L 2.33636363636364 4.66666666666667  L 0.3 4.66666666666667  C 0.172727272727273 4.66666666666667  0.0848484848484849 4.60069444444444  0.0363636363636364 4.46875  C -0.0121212121212121 4.33680555555556  0.00303030303030302 4.21527777777778  0.0818181818181818 4.10416666666667  L 3.26363636363636 0.104166666666668  C 3.32424242424242 0.0347222222222219  3.39393939393939 0  3.47272727272727 0  C 3.55757575757576 0  3.63030303030303 0.0347222222222219  3.69090909090909 0.104166666666668  L 6.91818181818182 4.10416666666667  Z " fill-rule="nonzero" fill="#797979" stroke="none" transform="matrix(1 0 0 1 289 1072 )" />
  </g>
</svg>