<?xml version="1.0" encoding="utf-8"?>
<svg version="1.1" xmlns:xlink="http://www.w3.org/1999/xlink" width="9px" height="9px" xmlns="http://www.w3.org/2000/svg">
  <g transform="matrix(1 0 0 1 -288 -1120 )">
    <path d="M 292.5 1120  C 295.02 1120  297 1121.98  297 1124.5  C 297 1127.02  295.02 1129  292.5 1129  C 289.98 1129  288 1127.02  288 1124.5  C 288 1121.98  289.98 1120  292.5 1120  Z " fill-rule="nonzero" fill="#ffffff" stroke="none" />
    <path d="M 292.5 1120.5  C 294.74 1120.5  296.5 1122.26  296.5 1124.5  C 296.5 1126.74  294.74 1128.5  292.5 1128.5  C 290.26 1128.5  288.5 1126.74  288.5 1124.5  C 288.5 1122.26  290.26 1120.5  292.5 1120.5  Z " stroke-width="1" stroke="#797979" fill="none" />
  </g>
</svg>