<?xml version="1.0" encoding="utf-8"?>
<svg version="1.1" xmlns:xlink="http://www.w3.org/1999/xlink" width="9px" height="9px" xmlns="http://www.w3.org/2000/svg">
  <g transform="matrix(1 0 0 1 -288 -1242 )">
    <path d="M 292.5 1242  C 295.02 1242  297 1243.98  297 1246.5  C 297 1249.02  295.02 1251  292.5 1251  C 289.98 1251  288 1249.02  288 1246.5  C 288 1243.98  289.98 1242  292.5 1242  Z " fill-rule="nonzero" fill="#ffffff" stroke="none" />
    <path d="M 292.5 1242.5  C 294.74 1242.5  296.5 1244.26  296.5 1246.5  C 296.5 1248.74  294.74 1250.5  292.5 1250.5  C 290.26 1250.5  288.5 1248.74  288.5 1246.5  C 288.5 1244.26  290.26 1242.5  292.5 1242.5  Z " stroke-width="1" stroke="#7f7f7f" fill="none" />
  </g>
</svg>