<?xml version="1.0" encoding="utf-8"?>
<svg version="1.1" xmlns:xlink="http://www.w3.org/1999/xlink" width="56px" height="389px" xmlns="http://www.w3.org/2000/svg">
  <g transform="matrix(1 0 0 1 -64 -1110 )">
    <path d="M 65 1114  A 3 3 0 0 1 68 1111 L 116 1111  A 3 3 0 0 1 119 1114 L 119 1495  A 3 3 0 0 1 116 1498 L 68 1498  A 3 3 0 0 1 65 1495 L 65 1114  Z " fill-rule="nonzero" fill="#ffffff" stroke="none" />
    <path d="M 64.5 1114  A 3.5 3.5 0 0 1 68 1110.5 L 116 1110.5  A 3.5 3.5 0 0 1 119.5 1114 L 119.5 1495  A 3.5 3.5 0 0 1 116 1498.5 L 68 1498.5  A 3.5 3.5 0 0 1 64.5 1495 L 64.5 1114  Z " stroke-width="1" stroke-dasharray="1,1" stroke="#797979" fill="none" stroke-dashoffset="0.5" />
  </g>
</svg>