<?xml version="1.0" encoding="utf-8"?>
<svg version="1.1" xmlns:xlink="http://www.w3.org/1999/xlink" width="64px" height="398px" xmlns="http://www.w3.org/2000/svg">
  <g transform="matrix(1 0 0 1 -1148 -1099 )">
    <path d="M 1149 1103  A 3 3 0 0 1 1152 1100 L 1208 1100  A 3 3 0 0 1 1211 1103 L 1211 1493  A 3 3 0 0 1 1208 1496 L 1152 1496  A 3 3 0 0 1 1149 1493 L 1149 1103  Z " fill-rule="nonzero" fill="#ffffff" stroke="none" />
    <path d="M 1148.5 1103  A 3.5 3.5 0 0 1 1152 1099.5 L 1208 1099.5  A 3.5 3.5 0 0 1 1211.5 1103 L 1211.5 1493  A 3.5 3.5 0 0 1 1208 1496.5 L 1152 1496.5  A 3.5 3.5 0 0 1 1148.5 1493 L 1148.5 1103  Z " stroke-width="1" stroke-dasharray="1,1" stroke="#797979" fill="none" stroke-dashoffset="0.5" />
  </g>
</svg>