<?xml version="1.0" encoding="utf-8"?>
<svg version="1.1" xmlns:xlink="http://www.w3.org/1999/xlink" width="28px" height="24px" xmlns="http://www.w3.org/2000/svg">
  <g transform="matrix(1 0 0 1 -35 -1293 )">
    <path d="M 27.2961956521739 10.6136071887035  C 27.7653985507246 10.9730423620026  28 11.4351732991014  28 12  C 28 12.5545571245186  27.7653985507246 13.0218228498074  27.2961956521739 13.4017971758665  L 14.9130434782609 23.4300385109114  C 14.4184782608696 23.8100128369705  13.8414855072464 24  13.1820652173913 24  C 12.5353260869565 24  11.9646739130435 23.8100128369705  11.4701086956522 23.4300385109114  L 10.0434782608696 22.2747111681643  C 9.56159420289855 21.8844672657253  9.32065217391304 21.4172015404365  9.32065217391304 20.8729139922978  C 9.32065217391304 20.3286264441592  9.56159420289855 19.8613607188703  10.0434782608696 19.4711168164313  L 15.616847826087 15  L 2.22554347826087 15  C 1.5661231884058 14.9576379974326  1.03034420289855 14.7650834403081  0.61820652173913 14.379974326059  C 0.20606884057971 13.99486521181  0 13.5301668806162  0 12.9858793324775  L 0 11.0141206675225  C 0 10.4698331193838  0.20606884057971 10.00513478819  0.61820652173913 9.62002567394095  C 1.03034420289855 9.23491655969191  1.5661231884058 9.04236200256739  2.22554347826087 9  L 15.616847826087 9  L 10.0434782608696 4.51347881899872  C 9.56159420289855 4.14377406931964  9.32065217391304 3.6816431322208  9.32065217391304 3.12708600770218  C 9.32065217391304 2.57252888318357  9.56159420289855 2.11039794608472  10.0434782608696 1.74069319640565  L 11.4701086956522 0.585365853658537  C 11.9519927536232 0.195121951219511  12.5226449275362 0  13.1820652173913 0  C 13.8541666666667 0  14.4311594202899 0.195121951219511  14.9130434782609 0.585365853658537  L 27.2961956521739 10.6136071887035  Z " fill-rule="nonzero" fill="#333333" stroke="none" transform="matrix(1 0 0 1 35 1293 )" />
  </g>
</svg>