<?xml version="1.0" encoding="utf-8"?>
<svg version="1.1" xmlns:xlink="http://www.w3.org/1999/xlink" width="20px" height="22px" xmlns="http://www.w3.org/2000/svg">
  <g transform="matrix(1 0 0 1 -274 -212 )">
    <path d="M 13.8020833333333 0.834821428571429  L 19.1145833333333 5.84375  C 19.2361111111111 5.95833333333333  19.3576388888889 6.10565476190476  19.4791666666667 6.28571428571429  L 13.3333333333333 6.28571428571429  L 13.3333333333333 0.491071428571429  C 13.5243055555556 0.605654761904761  13.6805555555556 0.720238095238093  13.8020833333333 0.834821428571429  Z M 12.03125 7.51339285714286  C 12.2743055555556 7.74255952380952  12.5694444444444 7.85714285714286  12.9166666666667 7.85714285714286  L 20 7.85714285714286  L 20 20.8214285714286  C 20 21.1488095238095  19.8784722222222 21.4270833333333  19.6354166666667 21.65625  C 19.3923611111111 21.8854166666667  19.0972222222222 22  18.75 22  L 1.25 22  C 0.902777777777778 22  0.607638888888889 21.8854166666667  0.364583333333333 21.65625  C 0.121527777777778 21.4270833333333  0 21.1488095238095  0 20.8214285714286  L 0 1.17857142857143  C 0 0.851190476190476  0.121527777777778 0.572916666666666  0.364583333333333 0.34375  C 0.607638888888889 0.114583333333334  0.902777777777778 0  1.25 0  L 11.6666666666667 0  L 11.6666666666667 6.67857142857143  C 11.6666666666667 7.00595238095238  11.7881944444444 7.28422619047619  12.03125 7.51339285714286  Z M 14.8828125 17.1752232142857  C 14.9609375 17.1015625  15 17.0074404761905  15 16.8928571428571  L 15 16.1071428571429  C 15 15.9925595238095  14.9609375 15.8984375  14.8828125 15.8247767857143  C 14.8046875 15.7511160714286  14.7048611111111 15.7142857142857  14.5833333333333 15.7142857142857  L 5.41666666666667 15.7142857142857  C 5.29513888888889 15.7142857142857  5.1953125 15.7511160714286  5.1171875 15.8247767857143  C 5.0390625 15.8984375  5 15.9925595238095  5 16.1071428571429  L 5 16.8928571428571  C 5 17.0074404761905  5.0390625 17.1015625  5.1171875 17.1752232142857  C 5.1953125 17.2488839285714  5.29513888888889 17.2857142857143  5.41666666666667 17.2857142857143  L 14.5833333333333 17.2857142857143  C 14.7048611111111 17.2857142857143  14.8046875 17.2488839285714  14.8828125 17.1752232142857  Z M 14.8828125 14.0323660714286  C 14.9609375 13.9587053571429  15 13.8645833333333  15 13.75  L 15 12.9642857142857  C 15 12.8497023809524  14.9609375 12.7555803571429  14.8828125 12.6819196428571  C 14.8046875 12.6082589285714  14.7048611111111 12.5714285714286  14.5833333333333 12.5714285714286  L 5.41666666666667 12.5714285714286  C 5.29513888888889 12.5714285714286  5.1953125 12.6082589285714  5.1171875 12.6819196428571  C 5.0390625 12.7555803571429  5 12.8497023809524  5 12.9642857142857  L 5 13.75  C 5 13.8645833333333  5.0390625 13.9587053571429  5.1171875 14.0323660714286  C 5.1953125 14.1060267857143  5.29513888888889 14.1428571428571  5.41666666666667 14.1428571428571  L 14.5833333333333 14.1428571428571  C 14.7048611111111 14.1428571428571  14.8046875 14.1060267857143  14.8828125 14.0323660714286  Z M 14.8828125 10.8895089285714  C 14.9609375 10.8158482142857  15 10.7217261904762  15 10.6071428571429  L 15 9.82142857142857  C 15 9.70684523809524  14.9609375 9.61272321428572  14.8828125 9.5390625  C 14.8046875 9.46540178571428  14.7048611111111 9.42857142857143  14.5833333333333 9.42857142857143  L 5.41666666666667 9.42857142857143  C 5.29513888888889 9.42857142857143  5.1953125 9.46540178571428  5.1171875 9.5390625  C 5.0390625 9.61272321428572  5 9.70684523809524  5 9.82142857142857  L 5 10.6071428571429  C 5 10.7217261904762  5.0390625 10.8158482142857  5.1171875 10.8895089285714  C 5.1953125 10.9631696428571  5.29513888888889 11  5.41666666666667 11  L 14.5833333333333 11  C 14.7048611111111 11  14.8046875 10.9631696428571  14.8828125 10.8895089285714  Z " fill-rule="nonzero" fill="#999999" stroke="none" transform="matrix(1 0 0 1 274 212 )" />
  </g>
</svg>