<?xml version="1.0" encoding="utf-8"?>
<svg version="1.1" xmlns:xlink="http://www.w3.org/1999/xlink" width="22px" height="22px" xmlns="http://www.w3.org/2000/svg">
  <g transform="matrix(1 0 0 1 -631 -212 )">
    <path d="M 642 212  C 648.16 212  653 216.84  653 223  C 653 229.16  648.16 234  642 234  C 635.84 234  631 229.16  631 223  C 631 216.84  635.84 212  642 212  Z " fill-rule="nonzero" fill="#d9001b" stroke="none" />
    <path d="M 642 212.5  C 647.88 212.5  652.5 217.12  652.5 223  C 652.5 228.88  647.88 233.5  642 233.5  C 636.12 233.5  631.5 228.88  631.5 223  C 631.5 217.12  636.12 212.5  642 212.5  Z " stroke-width="1" stroke="#d9001b" fill="none" />
  </g>
</svg>