<?xml version="1.0" encoding="utf-8"?>
<svg version="1.1" xmlns:xlink="http://www.w3.org/1999/xlink" width="13px" height="22px" xmlns="http://www.w3.org/2000/svg">
  <g transform="matrix(1 0 0 1 -667 -212 )">
    <path d="M 12.7766323024055 10.4929859719439  C 12.9255441008018 10.6399465597862  13 10.8089512358049  13 11  C 13 11.1910487641951  12.9255441008018 11.3600534402138  12.7766323024055 11.5070140280561  L 2.36769759450172 21.7795591182365  C 2.21878579610538 21.9265197060788  2.0475372279496 22  1.85395189003436 22  C 1.66036655211913 22  1.48911798396334 21.9265197060788  1.34020618556701 21.7795591182365  L 0.223367697594502 20.6773547094188  C 0.0744558991981673 20.5303941215765  0 20.3613894455578  0 20.1703406813627  C 0 19.9792919171677  0.0744558991981673 19.810287241149  0.223367697594502 19.6633266533066  L 9.00171821305842 11  L 0.223367697594502 2.33667334669339  C 0.0744558991981673 2.18971275885103  0 2.02070808283233  0 1.82965931863728  C 0 1.63861055444221  0.0744558991981673 1.46960587842351  0.223367697594502 1.32264529058116  L 1.34020618556701 0.220440881763527  C 1.48911798396334 0.0734802939211749  1.66036655211913 0  1.85395189003436 0  C 2.0475372279496 0  2.21878579610538 0.0734802939211749  2.36769759450172 0.220440881763527  L 12.7766323024055 10.4929859719439  Z " fill-rule="nonzero" fill="#999999" stroke="none" transform="matrix(1 0 0 1 667 212 )" />
  </g>
</svg>