<?xml version="1.0" encoding="utf-8"?>
<svg version="1.1" xmlns:xlink="http://www.w3.org/1999/xlink" width="112px" height="32px" viewBox="1198 222  112 32" xmlns="http://www.w3.org/2000/svg">
  <path d="M 1199 224  A 1 1 0 0 1 1200 223 L 1308 223  A 1 1 0 0 1 1309 224 L 1309 252  A 1 1 0 0 1 1308 253 L 1200 253  A 1 1 0 0 1 1199 252 L 1199 224  Z " fill-rule="nonzero" fill="#f0f0f0" stroke="none" />
  <path d="M 1198.5 224  A 1.5 1.5 0 0 1 1200 222.5 L 1308 222.5  A 1.5 1.5 0 0 1 1309.5 224 L 1309.5 252  A 1.5 1.5 0 0 1 1308 253.5 L 1200 253.5  A 1.5 1.5 0 0 1 1198.5 252 L 1198.5 224  Z " stroke-width="1" stroke="#dddddd" fill="none" stroke-opacity="0.690196078431373" />
</svg>