<?xml version="1.0" encoding="utf-8"?>
<svg version="1.1" xmlns:xlink="http://www.w3.org/1999/xlink" width="12px" height="12px" viewBox="608 277  12 12" xmlns="http://www.w3.org/2000/svg">
  <path d="M 614 277  C 617.36 277  620 279.64  620 283  C 620 286.36  617.36 289  614 289  C 610.64 289  608 286.36  608 283  C 608 279.64  610.64 277  614 277  Z " fill-rule="nonzero" fill="#ffffff" stroke="none" />
  <path d="M 614 277.5  C 617.08 277.5  619.5 279.92  619.5 283  C 619.5 286.08  617.08 288.5  614 288.5  C 610.92 288.5  608.5 286.08  608.5 283  C 608.5 279.92  610.92 277.5  614 277.5  Z " stroke-width="1" stroke="#163985" fill="none" />
  <path d="M 614 286  C 612.32 286  611 284.68  611 283  C 611 281.32  612.32 280  614 280  C 615.68 280  617 281.32  617 283  C 617 284.68  615.68 286  614 286  " fill-rule="nonzero" fill="#163985" stroke="none" />
</svg>