<?xml version="1.0" encoding="utf-8"?>
<svg version="1.1" xmlns:xlink="http://www.w3.org/1999/xlink" width="550px" height="32px" xmlns="http://www.w3.org/2000/svg">
  <defs>
    <mask fill="white" id="clip358">
      <path d="M 0 28  L 0 4  C 0 1.75999999999999  1.75999999999999 0  4 0  L 546 0  C 548.24 0  550 1.75999999999999  550 4  L 550 28  C 550 30.24  548.24 32  546 32  L 242.032258064516 32  L 4 32  C 1.75999999999999 32  0 30.24  0 28  Z " fill-rule="evenodd" />
    </mask>
  </defs>
  <g transform="matrix(1 0 0 1 -818 -359 )">
    <path d="M 0 28  L 0 4  C 0 1.75999999999999  1.75999999999999 0  4 0  L 546 0  C 548.24 0  550 1.75999999999999  550 4  L 550 28  C 550 30.24  548.24 32  546 32  L 242.032258064516 32  L 4 32  C 1.75999999999999 32  0 30.24  0 28  Z " fill-rule="nonzero" fill="#ffffff" stroke="none" transform="matrix(1 0 0 1 818 359 )" />
    <path d="M 0 28  L 0 4  C 0 1.75999999999999  1.75999999999999 0  4 0  L 546 0  C 548.24 0  550 1.75999999999999  550 4  L 550 28  C 550 30.24  548.24 32  546 32  L 242.032258064516 32  L 4 32  C 1.75999999999999 32  0 30.24  0 28  Z " stroke-width="2" stroke="#dddddd" fill="none" transform="matrix(1 0 0 1 818 359 )" mask="url(#clip358)" />
  </g>
</svg>