<?xml version="1.0" encoding="utf-8"?>
<svg version="1.1" xmlns:xlink="http://www.w3.org/1999/xlink" width="16px" height="16px" xmlns="http://www.w3.org/2000/svg">
  <g transform="matrix(1 0 0 1 -852 -420 )">
    <path d="M 15.778125 14.8678362573099  C 16.071875 14.5746588693957  16.071875 14.1005847953216  15.78125 13.8074074074074  L 12.665625 10.6978557504873  C 12.525 10.5575048732943  12.334375 10.4795321637427  12.134375 10.4795321637427  L 11.625 10.4795321637427  C 12.4875 9.37855750487329  13 7.99376218323587  13 6.48732943469786  C 13 2.9037037037037  10.090625 0  6.5 0  C 2.909375 0  0 2.9037037037037  0 6.48732943469786  C 0 10.070955165692  2.909375 12.9746588693957  6.5 12.9746588693957  C 8.009375 12.9746588693957  9.396875 12.4631578947368  10.5 11.6023391812865  L 10.5 12.1107212475634  C 10.5 12.3103313840156  10.578125 12.5005847953216  10.71875 12.6409356725146  L 13.834375 15.7504873294347  C 14.128125 16.0436647173489  14.603125 16.0436647173489  14.89375 15.7504873294347  L 15.778125 14.8678362573099  Z M 10.5 6.48732943469786  C 10.5 8.69239766081871  8.7125 10.4795321637427  6.5 10.4795321637427  C 4.290625 10.4795321637427  2.5 8.69551656920078  2.5 6.48732943469786  C 2.5 4.282261208577  4.2875 2.49512670565302  6.5 2.49512670565302  C 8.709375 2.49512670565302  10.5 4.27914230019493  10.5 6.48732943469786  Z " fill-rule="nonzero" fill="#999999" stroke="none" transform="matrix(1 0 0 1 852 420 )" />
  </g>
</svg>