<?xml version="1.0" encoding="utf-8"?>
<svg version="1.1" xmlns:xlink="http://www.w3.org/1999/xlink" width="18px" height="18px" xmlns="http://www.w3.org/2000/svg">
  <g transform="matrix(1 0 0 1 -24 -35 )">
    <path d="M 18 9  C 18 4.02975  13.97025 0  9 0  C 4.02975 0  0 4.02975  0 9  C 0 13.97025  4.02975 18  9 18  C 13.97025 18  18 13.97025  18 9  Z M 8.091 3.75  L 9.909 3.75  L 9.759 10.5  L 8.241 10.5  L 8.091 3.75  Z M 9.98925 13.50525  C 9.98925 14.061  9.61875 14.39175  9.00225 14.39175  C 8.38125 14.39175  8.01 14.061  8.01 13.50525  C 8.01 12.939  8.3805 12.60825  9.00225 12.60825  C 9.61875 12.60825  9.98925 12.939  9.98925 13.50525  Z " fill-rule="nonzero" fill="#ff9c00" stroke="none" transform="matrix(1 0 0 1 24 35 )" />
  </g>
</svg>