<?xml version="1.0" encoding="utf-8"?>
<svg version="1.1" xmlns:xlink="http://www.w3.org/1999/xlink" width="13px" height="13px" xmlns="http://www.w3.org/2000/svg">
  <g transform="matrix(1 0 0 1 -274 -5 )">
    <path d="M 13 1.3  C 13 0.585  12.415 0  11.7 0  L 1.3 0  C 0.585 0  0.00649999999999986 0.585  0 1.3  L 0 13  L 2.6 10.4  L 11.7 10.4  C 12.415 10.4  13 9.815  13 9.1  L 13 1.3  Z M 4.55 4.55  L 4.55 5.85  L 3.25 5.85  L 3.25 4.55  L 4.55 4.55  Z M 7.15 4.55  L 7.15 5.85  L 5.85 5.85  L 5.85 4.55  L 7.15 4.55  Z M 9.75 4.55  L 9.75 5.85  L 8.45 5.85  L 8.45 4.55  L 9.75 4.55  Z " fill-rule="nonzero" fill="#f57937" stroke="none" transform="matrix(1 0 0 1 274 5 )" />
  </g>
</svg>