<?xml version="1.0" encoding="utf-8"?>
<svg version="1.1" xmlns:xlink="http://www.w3.org/1999/xlink" width="185px" height="38px" xmlns="http://www.w3.org/2000/svg">
  <g transform="matrix(1 0 0 1 -187 34 )">
    <path d="M 187 -8.97280440523684  C 187 -8.97280440523684  187 -29  187 -29  C 187 -31.761423749154  189.238576250846 -34  192 -34  C 192 -34  367 -34  367 -34  C 369.761423749154 -34  372 -31.761423749154  372 -29  C 372 -29  372 -8.97280440523685  372 -8.97280440523685  C 372 -6.21138065608288  369.761423749154 -3.97280440523685  367 -3.97280440523685  C 367 -3.97280440523685  288.96913580247 -3.97280440523685  288.96913580247 -3.97280440523685  C 288.96913580247 -3.97280440523685  279.753086419754 3.29629629629622  279.753086419754 3.29629629629622  C 279.753086419754 3.29629629629622  269.96913580247 -3.97280440523685  269.96913580247 -3.97280440523685  C 269.96913580247 -3.97280440523685  192 -3.97280440523685  192 -3.97280440523685  C 189.238576250846 -3.97280440523685  187 -6.21138065608288  187 -8.97280440523684  Z " fill-rule="nonzero" fill="#333333" stroke="none" />
  </g>
</svg>