<?xml version="1.0" encoding="utf-8"?>
<svg version="1.1" xmlns:xlink="http://www.w3.org/1999/xlink" width="9px" height="9px" xmlns="http://www.w3.org/2000/svg">
  <g transform="matrix(1 0 0 1 -408 -54 )">
    <path d="M 412.5 54  C 415.02 54  417 55.98  417 58.5  C 417 61.02  415.02 63  412.5 63  C 409.98 63  408 61.02  408 58.5  C 408 55.98  409.98 54  412.5 54  Z " fill-rule="nonzero" fill="#797979" stroke="none" />
    <path d="M 412.5 54.5  C 414.74 54.5  416.5 56.26  416.5 58.5  C 416.5 60.74  414.74 62.5  412.5 62.5  C 410.26 62.5  408.5 60.74  408.5 58.5  C 408.5 56.26  410.26 54.5  412.5 54.5  Z " stroke-width="1" stroke="#797979" fill="none" />
  </g>
</svg>